<svg xmlns="http://www.w3.org/2000/svg" viewBox="0 0 358 358"><title>acao</title><g id="ccf9b960-379e-4b13-99ef-330887330ac2" data-name="icons"><path d="M179,297.13a6.5,6.5,0,0,1-2.32-.43A182.74,182.74,0,0,1,132,270.19c-29.69-23.93-45.38-53.43-45.38-85.31V105.56a6.5,6.5,0,0,1,2.82-5.36C91,99.08,130.08,72.63,179,72.63s88,26.46,89.6,27.58a6.5,6.5,0,0,1,2.82,5.36v79.31c0,31.88-15.69,61.38-45.38,85.31a182.74,182.74,0,0,1-44.72,26.51A6.5,6.5,0,0,1,179,297.13Zm-79.42-188v75.75c0,28.11,13.55,53.33,40.27,75A176.44,176.44,0,0,0,179,283.59a176.44,176.44,0,0,0,39.16-23.75c26.72-21.64,40.27-46.86,40.27-75V109.13c-9.48-5.76-41.73-23.51-79.42-23.51S109,103.36,99.58,109.13Z" fill="#fff"/><path d="M172.38,217.81a6.48,6.48,0,0,1-4.6-1.9l-26.43-26.44a6.5,6.5,0,1,1,9.19-9.19l21.84,21.84,48.28-48.28a6.5,6.5,0,1,1,9.19,9.19L177,215.91A6.48,6.48,0,0,1,172.38,217.81Z" fill="#fff"/></g></svg>