<svg xmlns="http://www.w3.org/2000/svg" viewBox="0 0 358 358"><title>acao</title><g id="4e76a4d7-c12d-4cb7-96e6-b47dc55a1f79" data-name="icons"><path d="M265.15,145.69a6,6,0,0,0,3.09-2.36l24-36a6,6,0,0,0-.75-7.57l-18-18a6,6,0,0,0-7.57-.75l-36,24a6,6,0,0,0-2.35,3.09L222,124.76,191.76,155,171.5,135.76l-17.23-17.24a7.56,7.56,0,0,1,.14-6.21c4.76-11,29.86-22.14,44.58-26.56a6,6,0,0,0,.16-11.44C180.23,68,173.67,68,149.26,68c-45.19,0-64.56,37.71-65.37,39.32a6.08,6.08,0,0,0-.63,2.68,18,18,0,0,1-18,18A6,6,0,0,0,61,129.76l-18,18a6,6,0,0,0,0,8.48l36,36a6,6,0,0,0,8.48,0l12-12a6,6,0,0,0,1.76-4.24,18,18,0,0,1,15.67-17.85L133,174.24l.07,0s0,0,0,.06l20.15,19.15-7.17,7.17a21.87,21.87,0,0,0-18,4.92L89.9,240a19.8,19.8,0,0,0-.75,28.89l15.26,15.26a19.78,19.78,0,0,0,28.87-.76l34.38-38.2A21.58,21.58,0,0,0,172.73,227l7.72-7.72,64,60.78a18.43,18.43,0,0,0,25.56-.32l13-13a17.67,17.67,0,0,0-.33-25.34l-63.75-60.57,29.57-29.57ZM123.5,147.76a6,6,0,0,0-4.24-1.76,30,30,0,0,0-29.88,27.4l-6.12,6.11L55.74,152l12.12-12.11A30.06,30.06,0,0,0,95.22,111.6c3.29-5.79,19.91-31.6,54-31.6,13.57,0,21.07,0,28.11,1-13,5.72-28.91,14.8-34,26.52a19.77,19.77,0,0,0,.49,17.14,6.13,6.13,0,0,0,1.13,1.56L158.77,140l-21.52,21.52Zm22.36,22.13,21.52-21.52,15.91,15.12L161.76,185Zm12.89,67.24-34.38,38.2a7.79,7.79,0,0,1-11.47.3L97.63,260.37a7.82,7.82,0,0,1,.29-11.48l38.2-34.38a9.39,9.39,0,0,1,6.32-2.35,9.52,9.52,0,0,1,6.7,2.69l9.26,9.26A9.7,9.7,0,0,1,158.75,237.13Zm115.68,13a5.68,5.68,0,0,1,.1,8.16l-13,13a6.45,6.45,0,0,1-8.81.11l-63.76-60.57,21.52-21.52ZM241,141.76l-74,74-.12-.14-9.26-9.26-.14-.12,74-74A6,6,0,0,0,233,129.9l5.34-16,30.2-20.13,11,11L259.41,135l-16.05,5.35A6,6,0,0,0,241,141.76Z" fill="#1d1d1b"/></g></svg>