<svg id="9184a48c-ad85-4436-9dff-8151db887aad" data-name="Layer 2" xmlns="http://www.w3.org/2000/svg" width="817" height="622" viewBox="0 0 817 622"><title>especialista</title><rect width="817" height="339" fill="#ededed"/><ellipse cx="537.01" cy="192.48" rx="95.04" ry="115.22" transform="translate(12.51 416.81) rotate(-42.88)" fill="#fff" opacity="0.9"/><ellipse cx="380.79" cy="192.43" rx="111.65" ry="92.09" transform="translate(12.64 408.05) rotate(-57.17)" fill="#fff" opacity="0.9"/><rect x="190.33" y="131" width="78.67" height="127.33" fill="#e2e2e2"/><line x1="198.83" y1="142.17" x2="261.67" y2="142.17" fill="#fffdfd" stroke="#969595" stroke-linecap="round" stroke-linejoin="round" stroke-width="2"/><line x1="198.83" y1="147.67" x2="261.67" y2="147.67" fill="#fffdfd" stroke="#969595" stroke-linecap="round" stroke-linejoin="round" stroke-width="2"/><line x1="198.83" y1="153.17" x2="261.67" y2="153.17" fill="#fffdfd" stroke="#969595" stroke-linecap="round" stroke-linejoin="round" stroke-width="2"/><line x1="198.83" y1="158.67" x2="261.67" y2="158.67" fill="#fffdfd" stroke="#969595" stroke-linecap="round" stroke-linejoin="round" stroke-width="2"/><line x1="198.83" y1="198.83" x2="261.67" y2="198.83" fill="#fffdfd" stroke="#969595" stroke-linecap="round" stroke-linejoin="round" stroke-width="2"/><line x1="198.83" y1="204.33" x2="261.67" y2="204.33" fill="#fffdfd" stroke="#969595" stroke-linecap="round" stroke-linejoin="round" stroke-width="2"/><line x1="198.83" y1="209.83" x2="261.67" y2="209.83" fill="#fffdfd" stroke="#969595" stroke-linecap="round" stroke-linejoin="round" stroke-width="2"/><line x1="198.83" y1="215.33" x2="261.67" y2="215.33" fill="#fffdfd" stroke="#969595" stroke-linecap="round" stroke-linejoin="round" stroke-width="2"/><line x1="198.5" y1="164.83" x2="226.5" y2="164.83" fill="#fffdfd" stroke="#969595" stroke-linecap="round" stroke-linejoin="round" stroke-width="2"/><line x1="198.5" y1="170.33" x2="226.5" y2="170.33" fill="#fffdfd" stroke="#969595" stroke-linecap="round" stroke-linejoin="round" stroke-width="2"/><line x1="198.5" y1="175.83" x2="226.5" y2="175.83" fill="#fffdfd" stroke="#969595" stroke-linecap="round" stroke-linejoin="round" stroke-width="2"/><line x1="198.5" y1="181.33" x2="226.5" y2="181.33" fill="#fffdfd" stroke="#969595" stroke-linecap="round" stroke-linejoin="round" stroke-width="2"/><line x1="198.5" y1="187.17" x2="226.5" y2="187.17" fill="#fffdfd" stroke="#969595" stroke-linecap="round" stroke-linejoin="round" stroke-width="2"/><line x1="198.5" y1="192.67" x2="226.5" y2="192.67" fill="#fffdfd" stroke="#969595" stroke-linecap="round" stroke-linejoin="round" stroke-width="2"/><rect x="189.67" y="136" width="79.33" height="121.33" fill="none"/><rect x="233" y="164.67" width="27.33" height="28.67" fill="#ecf4a4" stroke="#969595" stroke-linecap="round" stroke-linejoin="round" stroke-width="2"/><rect x="199" y="221.33" width="64" height="28.67" fill="#f9bd95" stroke="#969595" stroke-linecap="round" stroke-linejoin="round" stroke-width="2"/><line x1="91.75" y1="30.72" x2="91.25" y2="127.72" fill="none" stroke="#020202" stroke-linecap="round" stroke-linejoin="round" stroke-width="2"/><line x1="65.8" y1="119.09" x2="225.29" y2="119.91" fill="none" stroke="#020202" stroke-linecap="round" stroke-linejoin="round" stroke-width="2"/><polyline points="62.26 126.07 105.43 93.29 122.35 107.88 149 79.02 173.44 92.14 203.1 60.3" fill="none" stroke="#75d5f2" stroke-linecap="round" stroke-linejoin="round" stroke-width="2"/><polyline points="72.85 107.63 116.48 82.35 147.39 100.51 176.03 73.16 198.95 89.28 225.03 74.41" fill="none" stroke="#f95555" stroke-linecap="round" stroke-linejoin="round" stroke-width="2"/><circle cx="225.53" cy="74.41" r="3" transform="translate(149.96 299.55) rotate(-89.71)" fill="#fff" stroke="#f95555" stroke-linecap="round" stroke-linejoin="round" stroke-width="2"/><circle cx="203.6" cy="59.3" r="3" transform="translate(143.26 262.6) rotate(-89.71)" fill="#fff" stroke="#75d5f2" stroke-linecap="round" stroke-linejoin="round" stroke-width="2"/><path d="M738.29,97.76a24.86,24.86,0,0,1-4.93,14.91l-8.81-37.24A25,25,0,0,1,738.29,97.76Z" fill="#ecf4a4"/><path d="M724.55,75.43l8.81,37.24-10-6.67a13,13,0,0,0-3.84-19.67Z" fill="#ecf4a4"/><path d="M726.29,97.76a12.94,12.94,0,0,1-3,8.24L719.5,86.33A13,13,0,0,1,726.29,97.76Z" fill="#fffdfd"/><path d="M724.55,75.43l-5,10.9A13,13,0,1,0,723.34,106l10,6.67a25,25,0,1,1-8.81-37.24Z" fill="#75d5f2"/><path d="M719.5,86.33,723.34,106a13,13,0,1,1-3.84-19.67Z" fill="#fffdfd"/><polyline points="741.29 95.76 753.29 95.76 753.29 60.26" fill="none" stroke="#020202" stroke-linecap="round" stroke-linejoin="round" stroke-width="2"/><line x1="688.29" y1="81.26" x2="650.29" y2="81.26" fill="#fffdfd" stroke="#020202" stroke-linecap="round" stroke-linejoin="round" stroke-width="2"/><line x1="616.29" y1="72.76" x2="644.29" y2="72.76" fill="#fffdfd" stroke="#969595" stroke-linecap="round" stroke-linejoin="round" stroke-width="2"/><line x1="616.29" y1="78.26" x2="644.29" y2="78.26" fill="#fffdfd" stroke="#969595" stroke-linecap="round" stroke-linejoin="round" stroke-width="2"/><line x1="616.29" y1="83.76" x2="644.29" y2="83.76" fill="#fffdfd" stroke="#969595" stroke-linecap="round" stroke-linejoin="round" stroke-width="2"/><line x1="616.29" y1="89.26" x2="644.29" y2="89.26" fill="#fffdfd" stroke="#969595" stroke-linecap="round" stroke-linejoin="round" stroke-width="2"/><line x1="753.29" y1="36.76" x2="781.29" y2="36.76" fill="#fffdfd" stroke="#969595" stroke-linecap="round" stroke-linejoin="round" stroke-width="2"/><line x1="753.29" y1="42.26" x2="781.29" y2="42.26" fill="#fffdfd" stroke="#969595" stroke-linecap="round" stroke-linejoin="round" stroke-width="2"/><line x1="753.29" y1="47.76" x2="781.29" y2="47.76" fill="#fffdfd" stroke="#969595" stroke-linecap="round" stroke-linejoin="round" stroke-width="2"/><line x1="753.29" y1="53.26" x2="781.29" y2="53.26" fill="#fffdfd" stroke="#969595" stroke-linecap="round" stroke-linejoin="round" stroke-width="2"/><line x1="453.17" y1="164.17" x2="516" y2="164.17" fill="#fffdfd" stroke="#969595" stroke-linecap="round" stroke-linejoin="round" stroke-width="2"/><line x1="453.17" y1="169.67" x2="516" y2="169.67" fill="#fffdfd" stroke="#969595" stroke-linecap="round" stroke-linejoin="round" stroke-width="2"/><line x1="453.17" y1="175.17" x2="516" y2="175.17" fill="#fffdfd" stroke="#969595" stroke-linecap="round" stroke-linejoin="round" stroke-width="2"/><line x1="453.17" y1="180.67" x2="516" y2="180.67" fill="#fffdfd" stroke="#969595" stroke-linecap="round" stroke-linejoin="round" stroke-width="2"/><rect x="444" y="101.34" width="102.67" height="121.33" fill="#e2e2e2"/><rect x="453.33" y="186.67" width="64" height="28.67" fill="#fff" stroke="#969595" stroke-linecap="round" stroke-linejoin="round" stroke-width="2"/><line x1="457.33" y1="110.67" x2="457.33" y2="152" fill="none" stroke="#020202" stroke-linecap="round" stroke-linejoin="round" stroke-width="2"/><line x1="450.67" y1="147.34" x2="538" y2="147.34" fill="none" stroke="#020202" stroke-linecap="round" stroke-linejoin="round" stroke-width="2"/><path d="M465.33,140.67s7.33-32.67,18-25.33,19.33,26.67,24,27.33,16-6,27.33-28.67" fill="none" stroke="#f96e6e" stroke-linecap="round" stroke-linejoin="round" stroke-width="2"/><polygon points="690.08 279.26 690.08 279.93 665.41 279.93 665.41 279.26 665.41 258.6 666.08 258.6 690.08 258.6 690.08 279.26" fill="#fff"/><polygon points="665.41 279.26 665.41 279.93 640.75 279.93 640.75 279.26 640.75 231.26 641.41 231.26 665.41 231.26 665.41 258.6 665.41 279.26" fill="#fff"/><polygon points="640.75 279.26 640.75 279.93 618.08 279.93 618.08 211.26 640.75 211.26 640.75 231.26 640.75 279.26" fill="#fff"/><polyline points="618.08 181.26 618.08 211.26 618.08 279.93 618.08 292.6" fill="none" stroke="#020202" stroke-linecap="round" stroke-linejoin="round" stroke-width="2"/><polyline points="605.41 279.93 618.08 279.93 640.75 279.93 665.41 279.93 690.08 279.93 736.08 279.93" fill="none" stroke="#020202" stroke-linecap="round" stroke-linejoin="round" stroke-width="2"/><polyline points="618.08 211.26 640.75 211.26 640.75 231.26 640.75 279.26" fill="none" stroke="#020202" stroke-linecap="round" stroke-linejoin="round" stroke-width="2"/><polyline points="641.41 231.26 665.41 231.26 665.41 258.6 665.41 279.26" fill="none" stroke="#020202" stroke-linecap="round" stroke-linejoin="round" stroke-width="2"/><polyline points="666.08 258.6 690.08 258.6 690.08 279.26" fill="none" stroke="#020202" stroke-linecap="round" stroke-linejoin="round" stroke-width="2"/><line x1="716.75" y1="269.26" x2="646.75" y2="194.6" fill="none" stroke="#f95555" stroke-linecap="round" stroke-linejoin="round" stroke-width="2"/><polyline points="652.41 194.93 640.75 187.26 645.75 199.26" fill="#f95555" stroke="#f95555" stroke-linecap="round" stroke-linejoin="round" stroke-width="2"/><g opacity="0.3"><line x1="162" y1="208" x2="160" y2="208" fill="none" stroke="#050505" stroke-linecap="round" stroke-miterlimit="10"/><path d="M156,208H43a4,4,0,0,1-4-4V23a4,4,0,0,1,4-4H371a4,4,0,0,1,4,4V53" fill="none" stroke="#050505" stroke-linecap="round" stroke-miterlimit="10" stroke-dasharray="4 4"/><line x1="375" y1="55" x2="375" y2="57" fill="none" stroke="#050505" stroke-linecap="round" stroke-miterlimit="10"/></g><circle cx="372" cy="108" r="24.33" fill="#fff"/><path d="M391.53,122.67l-25.11,9.58,2.24-11.79A13,13,0,0,0,381.51,116Z" fill="#f95555"/><path d="M366.42,132.25l25.11-9.58a25,25,0,0,1-20.07,10.09A24.62,24.62,0,0,1,366.42,132.25Z" fill="#f95555"/><path d="M382.72,85.43a25,25,0,0,1,8.81,37.24l-10-6.67a13,13,0,0,0-3.84-19.67Z" fill="#75d5f2"/><path d="M368.66,120.46l-2.24,11.79a25,25,0,1,1,16.3-46.82l-5,10.9a13,13,0,1,0-9,24.13Z" fill="#ecf4a4"/><path d="M368.66,120.46,381.51,116a13,13,0,0,1-12.85,4.46Z" fill="#fffdfd"/><polyline points="341.96 109.26 325.96 109.26 325.96 66.26" fill="none" stroke="#020202" stroke-linecap="round" stroke-linejoin="round" stroke-width="2"/><polyline points="401.65 110.66 418.87 110.66 418.87 93.66" fill="none" stroke="#020202" stroke-linecap="round" stroke-linejoin="round" stroke-width="2"/><line x1="290.96" y1="65.26" x2="318.96" y2="65.26" fill="#fffdfd" stroke="#969595" stroke-linecap="round" stroke-linejoin="round" stroke-width="2"/><line x1="290.96" y1="70.76" x2="318.96" y2="70.76" fill="#fffdfd" stroke="#969595" stroke-linecap="round" stroke-linejoin="round" stroke-width="2"/><line x1="290.96" y1="76.26" x2="318.96" y2="76.26" fill="#fffdfd" stroke="#969595" stroke-linecap="round" stroke-linejoin="round" stroke-width="2"/><line x1="290.96" y1="81.76" x2="318.96" y2="81.76" fill="#fffdfd" stroke="#969595" stroke-linecap="round" stroke-linejoin="round" stroke-width="2"/><line x1="404.73" y1="72.98" x2="432.73" y2="72.98" fill="#fffdfd" stroke="#969595" stroke-linecap="round" stroke-linejoin="round" stroke-width="2"/><line x1="404.73" y1="78.48" x2="432.73" y2="78.48" fill="#fffdfd" stroke="#969595" stroke-linecap="round" stroke-linejoin="round" stroke-width="2"/><line x1="404.73" y1="83.98" x2="432.73" y2="83.98" fill="#fffdfd" stroke="#969595" stroke-linecap="round" stroke-linejoin="round" stroke-width="2"/><line x1="404.73" y1="89.48" x2="432.73" y2="89.48" fill="#fffdfd" stroke="#969595" stroke-linecap="round" stroke-linejoin="round" stroke-width="2"/><path d="M667,301v14a4,4,0,0,1-4,4H379a4,4,0,0,1-4-4V183a4,4,0,0,1,4-4h54" fill="none" stroke="#050505" stroke-linecap="round" stroke-miterlimit="10" stroke-dasharray="4" opacity="0.3"/><line x1="215.76" y1="238.02" x2="453.42" y2="110.02" fill="#fff" stroke="#000" stroke-linecap="round" stroke-miterlimit="10" stroke-dasharray="4"/><line x1="223.09" y1="263.35" x2="524.09" y2="295.02" fill="#fff" stroke="#000" stroke-linecap="round" stroke-miterlimit="10" stroke-dasharray="4"/><line x1="207.76" y1="236.69" x2="304.26" y2="137.44" fill="#fff" stroke="#000" stroke-linecap="round" stroke-miterlimit="10" stroke-dasharray="4"/><line x1="223.09" y1="263.35" x2="320.26" y2="289.69" fill="#fff" stroke="#000" stroke-linecap="round" stroke-miterlimit="10" stroke-dasharray="4"/><path d="M685.58,395.25c3.09,0,8,3.42,4.84,8.58-8.68,14.15-15.23,36.49-18.74,52.07V456a10.14,10.14,0,0,0-2.09-.2h-1c3.67-16,10.51-39.05,19.21-53.26,2.36-3.85.28-6.22-2.32-7Z" fill="none" stroke="#222221" stroke-linecap="round" stroke-linejoin="round" stroke-width="5"/><path d="M645.87,482.9c-13.72,0-36.87-.57-36.87-.57s-16.33.67-19.33-17.66a48.92,48.92,0,0,1-.06-14.4V450h10.72v-8.67h-8.88c6.45-24,24.16-46,24.55-46.66,2.17-3.67,7.1-3.25,9.83-2.34,3,1,39.86,4.55,57,2.84a6.54,6.54,0,0,1,2.68.3c2.6.81,4.68,3.18,2.32,7-8.7,14.21-15.54,37.28-19.21,53.26-1,0-2.31.05-3.87.11v0c-3.5,0-20.17.42-22.67,2.17s-2.25,3-2.25,3.75.25,2.75.25,2.75-.25,1.25,2,1.5c.67.07,2.75.08,5.5.08v0c1.2,0,3.35,0,5.91,0v.48a5.31,5.31,0,0,1,2.83,4.67c.06,1.29,0,6-.13,11.37h-.31l-1.22.14C653.08,482.82,649.89,482.89,645.87,482.9Z" fill="none" stroke="#222221" stroke-linecap="round" stroke-linejoin="round" stroke-width="5"/><path d="M668.62,455.76h1a10.14,10.14,0,0,1,2.09.2c2.34.51,2.66,1.8,2.66,1.8s1.84,9.33-3.66,8.58c-.48-.06-1-.12-1.66-.16-4-.29-10.52-.21-15.52-.15-2.56,0-4.71.06-5.91,0-.32,0-.58,0-.75,0-2.25-.25-2-1.5-2-1.5s-.25-2-.25-2.75-.25-2,2.25-3.75c1.86-1.3,11.61-1.91,17.92-2.13C666.31,455.81,667.66,455.77,668.62,455.76Z" fill="none" stroke="#222221" stroke-linecap="round" stroke-linejoin="round" stroke-width="5"/><path d="M670.33,485.17c1.17,0-.16,3.16-.16,3.16s-1.35,1.52-3.84,4.05c0-2.09.1-4.5.16-7C668.69,485.25,670.11,485.17,670.33,485.17Z" fill="none" stroke="#222221" stroke-linecap="round" stroke-linejoin="round" stroke-width="5"/><path d="M667.68,591.4a9,9,0,1,1-11.46-1A155.6,155.6,0,0,0,608.11,582H608a50.08,50.08,0,0,0-.07-5.32c-1.56-2.07-8.82-1.73-9.85.35a17.75,17.75,0,0,0-.29,5.14h-.06a163.39,163.39,0,0,0-27.52,3.68l-.16.26a65.76,65.76,0,0,0-11.07-5.5l0-.08a144.8,144.8,0,0,1,41.66-9,9.17,9.17,0,0,0,1.19.07,14.73,14.73,0,0,0,2.58-.23c41.37-1.07,63.29,20,63.29,20Z" fill="none" stroke="#222221" stroke-linecap="round" stroke-linejoin="round" stroke-width="5"/><path d="M656,493c.06-2.21.12-4.59.17-6.95,0-1.2.06-2.39.08-3.54.12-5.41.19-10.08.13-11.37a5.31,5.31,0,0,0-2.83-4.67V466c5-.06,11.56-.14,15.52.15v.08a2.62,2.62,0,0,0-2,2.08c-.09.88-.31,9.28-.51,17.07-.06,2.48-.11,4.89-.16,7-.1,3.86-.16,6.62-.16,6.62a24.05,24.05,0,0,1-2.34,3.83,16.33,16.33,0,0,1-2.83,3l-8.5-.16-.16-.17,3.21-2.94h.14C655.74,501,655.84,497.35,656,493Z" fill="none" stroke="#222221" stroke-linecap="round" stroke-linejoin="round" stroke-width="5"/><path d="M664.75,455.83v0c-6.31.22-16.06.83-17.92,2.13-2.5,1.75-2.25,3-2.25,3.75s.25,2.75.25,2.75-.25,1.25,2,1.5c.17,0,.43,0,.75,0v0c-2.75,0-4.83,0-5.5-.08-2.25-.25-2-1.5-2-1.5s-.25-2-.25-2.75-.25-2,2.25-3.75S661.25,455.83,664.75,455.83Z" fill="none" stroke="#222221" stroke-linecap="round" stroke-linejoin="round" stroke-width="5"/><path d="M656,493c-.11,4.32-.21,8-.26,9.53h-.14l-3.21,2.94-4,3.67s-1.16,2-5.66,2.33c-1.72.13-18.33-.19-36.33-.62l-9.33-.23c-17.42-.44-34-.93-37.68-1.15-4-.25-6.33-1.05-7.66-1.81V492.62h.2l.46-.12s4.23-1,9.93-2.36l2.93-.72c2.44-.6,5-1.25,7.61-1.91l.7-.18a63.67,63.67,0,0,1,20.25-1.58c8.46,1,28,2.17,34.63,2,3.89-.1,17.15-1,27.74-1.67C656.07,488.44,656,490.82,656,493Z" fill="none" stroke="#222221" stroke-linecap="round" stroke-linejoin="round" stroke-width="5"/><path d="M611.42,519.92l-.67,27.83s-.84.28-2.23.59a32.11,32.11,0,0,1-6.69.74,20.91,20.91,0,0,1-6.33-1,13,13,0,0,1-2-.78s-.62-27.5-1-27.5l4.49,0Z" fill="none" stroke="#222221" stroke-linecap="round" stroke-linejoin="round" stroke-width="5"/><path d="M608.52,548.34l0,.16-.37,21.75a15.1,15.1,0,0,1-3.74,1.1c-1.24,0-2.49.08-3.77.16a10.53,10.53,0,0,1-4.72-1.68s-.24-13.65-.46-21.71h0a20.91,20.91,0,0,0,6.33,1A32.11,32.11,0,0,0,608.52,548.34Z" fill="none" stroke="#222221" stroke-linecap="round" stroke-linejoin="round" stroke-width="5"/><path d="M607.94,576.69A50.08,50.08,0,0,1,608,582c-.06,4.24-.24,10-.58,13.33a2.59,2.59,0,0,1,.16.88v4.32h-9v-4.32a2.46,2.46,0,0,1,.07-.6c-.31-3.46-.76-9.22-.88-13.44a17.75,17.75,0,0,1,.29-5.14C599.12,575,606.38,574.62,607.94,576.69Z" fill="none" stroke="#222221" stroke-linecap="round" stroke-linejoin="round" stroke-width="5"/><path d="M607.59,600.54v6.57a2.77,2.77,0,0,1-2.76,2.77h-3.46a2.77,2.77,0,0,1-2.76-2.77v-6.57h9Z" fill="none" stroke="#222221" stroke-linecap="round" stroke-linejoin="round" stroke-width="5"/><path d="M606.34,510.88v8.79H597v-9Z" fill="none" stroke="#222221" stroke-linecap="round" stroke-linejoin="round" stroke-width="5"/><polygon points="591.45 441.33 600.33 441.33 600.33 450 589.61 450 551.67 450 544.33 450 539 450 525 450 525 441.33 526.33 441.33 591.25 441.33 591.45 441.33" fill="none" stroke="#222221" stroke-linecap="round" stroke-linejoin="round" stroke-width="5"/><path d="M583.5,457.75s4.25,9.5-1.25,8.75a63.8,63.8,0,0,0-6.42-.37c-4-.09-8.9-.07-12.83-.06h-3c-1.48,0-2.66,0-3.4,0-.26,0-.46,0-.6,0-2.25-.25-2-1.5-2-1.5s-.25-2-.25-2.75-.25-2,2.25-3.75c1.86-1.3,11.61-1.91,17.92-2.13,2.17-.09,3.93-.12,4.83-.12C583,455.75,583.5,457.75,583.5,457.75Z" fill="none" stroke="#222221" stroke-linecap="round" stroke-linejoin="round" stroke-width="5"/><path d="M551.67,507.69v71a30.19,30.19,0,0,1,7.32,2,65.76,65.76,0,0,1,11.07,5.5,90.91,90.91,0,0,1,7.61,5.21c.15.12-.09,10-.09,10-6-9.28-23.45-9-39-6.6A144.7,144.7,0,0,0,511.92,601l-.59.19v-7.42s27-12.83,33-13.42V450h7.34v57.69Z" fill="none" stroke="#222221" stroke-linecap="round" stroke-linejoin="round" stroke-width="5"/><path d="M577.58,601.33h-6s-4.79-7-21.89-7.25a79.7,79.7,0,0,0-11.09.65C554.13,592.3,571.55,592.05,577.58,601.33Z" fill="none" stroke="#222221" stroke-linecap="round" stroke-linejoin="round" stroke-width="5"/><path d="M575.83,466.13v0s-2.16.5-2.33,2.16-.83,18.67-.83,18.67l.13.51c-2.58.66-5.17,1.31-7.61,1.91l0-.09s.83-14.66.66-18.16A5.31,5.31,0,0,0,563,466.5v-.43C566.93,466.06,571.79,466,575.83,466.13Z" fill="none" stroke="#222221" stroke-linecap="round" stroke-linejoin="round" stroke-width="5"/><path d="M573.92,455.83v0c-6.31.22-16.06.83-17.92,2.13-2.5,1.75-2.25,3-2.25,3.75s.25,2.75.25,2.75-.25,1.25,2,1.5c.14,0,.34,0,.6,0v0c-2.18,0-3.93,0-4.85-.05h-.08v-8.35h.23C555.83,456.2,570.64,455.83,573.92,455.83Z" fill="none" stroke="#222221" stroke-linecap="round" stroke-linejoin="round" stroke-width="5"/><path d="M565.83,471.17c.17,3.5-.66,18.16-.66,18.16l0,.09-2.93.72-.09-.81s.83-14.66.66-18.16A5.31,5.31,0,0,0,560,466.5v-.42h3v.43A5.31,5.31,0,0,1,565.83,471.17Z" fill="none" stroke="#222221" stroke-linecap="round" stroke-linejoin="round" stroke-width="5"/><path d="M550.5,391.5s3.5-.25,1.5,4c-1.43,3-19.25,43.25-19.25,43.25l-130,.5-.25-3.5H449L468.75,394s1.25-2.38,6.5-2.25C481.5,391.9,550.5,391.5,550.5,391.5Zm-24.33,37.17L540.5,397.5H475.67l-14.5,30.83Z" fill="none" stroke="#222221" stroke-linecap="round" stroke-linejoin="round" stroke-width="5"/><path d="M549.69,594.31a9.1,9.1,0,0,1,.69,3.47,9,9,0,1,1-17.85-1.48l-.09-.48c2-.39,4.06-.76,6.16-1.09a79.7,79.7,0,0,1,11.09-.65Z" fill="none" stroke="#222221" stroke-linecap="round" stroke-linejoin="round" stroke-width="5"/><path d="M544.33,579.33v1c-6,.59-33,13.42-33,13.42H500.72c16-10.48,38.28-14.42,38.28-14.42Z" fill="none" stroke="#222221" stroke-linecap="round" stroke-linejoin="round" stroke-width="5"/><polygon points="544.33 450.33 544.33 579.33 539 579.33 539 451 539 450 544.33 450 544.33 450.33" fill="none" stroke="#222221" stroke-linecap="round" stroke-linejoin="round" stroke-width="5"/><polygon points="540.5 397.5 526.17 428.67 461.17 428.33 475.67 397.5 540.5 397.5" fill="none" stroke="#222221" stroke-linecap="round" stroke-linejoin="round" stroke-width="5"/><polygon points="525 441.33 525 450 332.33 450 325 450 319.67 450 266.33 450 266.33 441.33 525 441.33" fill="none" stroke="#222221" stroke-linecap="round" stroke-linejoin="round" stroke-width="5"/><path d="M511.33,593.75v7.42l-.5.16c-2.5-.08-10.5,0-10.5,0V594l.39-.25Z" fill="none" stroke="#222221" stroke-linecap="round" stroke-linejoin="round" stroke-width="5"/><path d="M358.33,591.33c.15.12-.08,10-.08,10-6-9.28-23.45-9-39-6.6A144.7,144.7,0,0,0,292.59,601l-.59.19v-7.42s27-12.83,33-13.42V450h7.33V578.67S342.75,579.5,358.33,591.33Z" fill="none" stroke="#222221" stroke-linecap="round" stroke-linejoin="round" stroke-width="5"/><path d="M358.25,601.33h-6s-6.78-9.84-33-6.6C334.8,592.3,352.22,592.05,358.25,601.33Z" fill="none" stroke="#222221" stroke-linecap="round" stroke-linejoin="round" stroke-width="5"/><path d="M325,579.33v1c-6,.59-33,13.42-33,13.42H281.39c16-10.48,38.28-14.42,38.28-14.42Z" fill="none" stroke="#222221" stroke-linecap="round" stroke-linejoin="round" stroke-width="5"/><polygon points="325 450.33 325 579.33 319.67 579.33 319.67 451 319.67 450 325 450 325 450.33" fill="none" stroke="#222221" stroke-linecap="round" stroke-linejoin="round" stroke-width="5"/><path d="M292,593.75v7.42l-.5.16c-2.5-.08-10.5,0-10.5,0V594l.39-.25Z" fill="none" stroke="#222221" stroke-linecap="round" stroke-linejoin="round" stroke-width="5"/><path d="M589.61,450.27a48.92,48.92,0,0,0,.06,14.4c3,18.33,19.33,17.66,19.33,17.66s23.15.6,36.87.57c4,0,7.21-.08,8.8-.23l1.22-.14" fill="none" stroke="#222221" stroke-linecap="round" stroke-linejoin="round" stroke-width="5"/><path d="M668.58,455.92a.94.94,0,0,1,0-.16c3.67-16,10.51-39.05,19.21-53.26,2.36-3.85.28-6.22-2.32-7a6.54,6.54,0,0,0-2.68-.3c-17.14,1.71-54-1.84-57-2.84-2.73-.91-7.66-1.33-9.83,2.34-.39.65-18.1,22.62-24.55,46.66a2.76,2.76,0,0,0-.08.27" fill="none" stroke="#222221" stroke-linecap="round" stroke-linejoin="round" stroke-width="5"/><path d="M671.68,455.9c3.51-15.58,10.06-37.92,18.74-52.07,3.16-5.16-1.75-8.58-4.84-8.58" fill="none" stroke="#222221" stroke-linecap="round" stroke-linejoin="round" stroke-width="5"/><path d="M631,482.74c5.06.08,10.34.15,14.87.16,4.28,0,7.89,0,10-.16" fill="none" stroke="#222221" stroke-linecap="round" stroke-linejoin="round" stroke-width="5"/><path d="M551.75,466c.92.05,2.67.05,4.85.05h.15" fill="none" stroke="#222221" stroke-linecap="round" stroke-linejoin="round" stroke-width="5"/><path d="M573.92,455.83c-3.28,0-18.09.37-22,1.85" fill="none" stroke="#222221" stroke-linecap="round" stroke-linejoin="round" stroke-width="5"/><path d="M575.83,466.13a63.8,63.8,0,0,1,6.42.37c5.5.75,1.25-8.75,1.25-8.75s-.5-2-4.75-2c-.9,0-2.66,0-4.83.12-6.31.22-16.06.83-17.92,2.13-2.5,1.75-2.25,3-2.25,3.75s.25,2.75.25,2.75-.25,1.25,2,1.5c.14,0,.34,0,.6,0,.74,0,1.92,0,3.4,0h3C566.93,466.06,571.79,466,575.83,466.13Z" fill="none" stroke="#222221" stroke-linecap="round" stroke-linejoin="round" stroke-width="5"/><path d="M664.75,455.83c-3.5,0-20.17.42-22.67,2.17s-2.25,3-2.25,3.75.25,2.75.25,2.75-.25,1.25,2,1.5c.67.07,2.75.08,5.5.08" fill="none" stroke="#222221" stroke-linecap="round" stroke-linejoin="round" stroke-width="5"/><path d="M669,466.17c.62,0,1.18.1,1.66.16,5.5.75,3.66-8.58,3.66-8.58s-.32-1.29-2.66-1.8a10.14,10.14,0,0,0-2.09-.2h-1c-1,0-2.31.05-3.87.11-6.31.22-16.06.83-17.92,2.13-2.5,1.75-2.25,3-2.25,3.75s.25,2.75.25,2.75-.25,1.25,2,1.5c.17,0,.43,0,.75,0,1.2,0,3.35,0,5.91,0C658.49,466,665.05,465.88,669,466.17Z" fill="none" stroke="#222221" stroke-linecap="round" stroke-linejoin="round" stroke-width="5"/><path d="M551.6,507.65l.07,0c1.33.76,3.65,1.56,7.66,1.81,3.69.22,20.26.71,37.68,1.15l9.33.23c18,.43,34.61.75,36.33.62,4.5-.33,5.66-2.33,5.66-2.33l4-3.67,3.21-2.94" fill="none" stroke="#222221" stroke-linecap="round" stroke-linejoin="round" stroke-width="5"/><path d="M656.16,486.08h0c-10.59.71-23.85,1.57-27.74,1.67-6.67.17-26.17-1-34.63-2a63.67,63.67,0,0,0-20.25,1.58l-.7.18c-2.58.66-5.17,1.31-7.61,1.91l-2.93.72c-5.7,1.38-9.93,2.36-9.93,2.36l-.46.12" fill="none" stroke="#222221" stroke-linecap="round" stroke-linejoin="round" stroke-width="5"/><path d="M666,492.69l.31-.31c2.49-2.53,3.84-4.05,3.84-4.05s1.33-3.16.16-3.16c-.22,0-1.64.08-3.84.23l-.33,0" fill="none" stroke="#222221" stroke-linecap="round" stroke-linejoin="round" stroke-width="5"/><path d="M656,493l0,0c-3.67,1.91-7,3.69-7.7,4.22-1.63,1.25-7.25,5.25-11.63,5.37s-79.12-4.79-79.12-4.79" fill="none" stroke="#222221" stroke-linecap="round" stroke-linejoin="round" stroke-width="5"/><path d="M563,466.5a5.31,5.31,0,0,1,2.83,4.67c.17,3.5-.66,18.16-.66,18.16" fill="none" stroke="#222221" stroke-linecap="round" stroke-linejoin="round" stroke-width="5"/><path d="M560,466.5a5.31,5.31,0,0,1,2.83,4.67c.17,3.5-.66,18.16-.66,18.16" fill="none" stroke="#222221" stroke-linecap="round" stroke-linejoin="round" stroke-width="5"/><path d="M575.83,466.17s-2.16.5-2.33,2.16-.83,18.67-.83,18.67" fill="none" stroke="#222221" stroke-linecap="round" stroke-linejoin="round" stroke-width="5"/><path d="M657.62,466.25s1.55,1.42,1.71,4.92-.66,28.16-.66,28.16" fill="none" stroke="#222221" stroke-linecap="round" stroke-linejoin="round" stroke-width="5"/><path d="M653.5,466.5a5.31,5.31,0,0,1,2.83,4.67c.06,1.29,0,6-.13,11.37,0,1.15-.05,2.34-.08,3.54,0,2.36-.11,4.74-.17,6.95-.11,4.32-.21,8-.26,9.53,0,.5,0,.77,0,.77" fill="none" stroke="#222221" stroke-linecap="round" stroke-linejoin="round" stroke-width="5"/><path d="M669,466.25a2.62,2.62,0,0,0-2,2.08c-.09.88-.31,9.28-.51,17.07-.06,2.48-.11,4.89-.16,7-.1,3.86-.16,6.62-.16,6.62a24.05,24.05,0,0,1-2.34,3.83,16.33,16.33,0,0,1-2.83,3l-8.5-.16" fill="none" stroke="#222221" stroke-linecap="round" stroke-linejoin="round" stroke-width="5"/><polyline points="597 511 597 519.67 606.33 519.67 606.33 511.33" fill="none" stroke="#222221" stroke-linecap="round" stroke-linejoin="round" stroke-width="5"/><path d="M592.5,519.83h0l4.49,0,14.42.07-.67,27.83s-.84.28-2.23.59a32.11,32.11,0,0,1-6.69.74,20.91,20.91,0,0,1-6.33-1,13,13,0,0,1-2-.78s-.62-27.5-1-27.5" fill="none" stroke="#222221" stroke-linecap="round" stroke-linejoin="round" stroke-width="5"/><path d="M608.56,548.5l-.37,21.75a15.1,15.1,0,0,1-3.74,1.1,14.73,14.73,0,0,1-2.58.23,9.17,9.17,0,0,1-1.19-.07,10.53,10.53,0,0,1-4.72-1.68s-.24-13.65-.46-21.71" fill="none" stroke="#222221" stroke-linecap="round" stroke-linejoin="round" stroke-width="5"/><path d="M559,580.54a144.8,144.8,0,0,1,41.66-9c1.28-.08,2.53-.13,3.77-.16,41.37-1.07,63.29,20,63.29,20l-.06,0a9,9,0,1,1-11.46-1A155.6,155.6,0,0,0,608.11,582" fill="none" stroke="#222221" stroke-linecap="round" stroke-linejoin="round" stroke-width="5"/><path d="M549.69,594.31a9.1,9.1,0,0,1,.69,3.47,9,9,0,1,1-17.85-1.48" fill="none" stroke="#222221" stroke-linecap="round" stroke-linejoin="round" stroke-width="5"/><path d="M597.74,582.18a163.39,163.39,0,0,0-27.52,3.68" fill="none" stroke="#222221" stroke-linecap="round" stroke-linejoin="round" stroke-width="5"/><path d="M597.8,582.18a17.75,17.75,0,0,1,.29-5.14c1-2.08,8.29-2.42,9.85-.35A50.08,50.08,0,0,1,608,582c-.06,4.24-.24,10-.58,13.33a2.59,2.59,0,0,1,.16.88v10.89a2.77,2.77,0,0,1-2.76,2.77h-3.46a2.77,2.77,0,0,1-2.76-2.77V596.22a2.46,2.46,0,0,1,.07-.6C598.37,592.16,597.92,586.4,597.8,582.18Z" fill="none" stroke="#222221" stroke-linecap="round" stroke-linejoin="round" stroke-width="5"/><line x1="599.12" y1="600.54" x2="605" y2="600.54" fill="none" stroke="#222221" stroke-linecap="round" stroke-linejoin="round" stroke-width="5"/><polyline points="591.25 441.33 591.45 441.33 600.33 441.33 600.33 450 589.61 450 551.67 450 544.33 450 539 450 525 450 332.33 450 325 450 319.67 450 266.33 450 266.33 441.33 525 441.33 526.33 441.33 591.25 441.33" fill="none" stroke="#222221" stroke-linecap="round" stroke-linejoin="round" stroke-width="5"/><path d="M292.59,601a144.7,144.7,0,0,1,26.68-6.25c26.2-3.24,33,6.6,33,6.6h6s.23-9.88.08-10c-15.58-11.83-26-12.66-26-12.66v-128" fill="none" stroke="#222221" stroke-linecap="round" stroke-linejoin="round" stroke-width="5"/><path d="M319.67,451V579.33s-22.31,3.94-38.28,14.42L281,594v7.33s8-.08,10.5,0" fill="none" stroke="#222221" stroke-linecap="round" stroke-linejoin="round" stroke-width="5"/><path d="M325,450.33v130c-6,.59-33,13.42-33,13.42H281" fill="none" stroke="#222221" stroke-linecap="round" stroke-linejoin="round" stroke-width="5"/><line x1="319.67" y1="579.33" x2="325" y2="579.33" fill="none" stroke="#222221" stroke-linecap="round" stroke-linejoin="round" stroke-width="5"/><path d="M291.5,601.33l.5-.16.59-.19a202.32,202.32,0,0,1,26.68-6.25c15.53-2.43,33-2.68,39,6.6" fill="none" stroke="#222221" stroke-linecap="round" stroke-linejoin="round" stroke-width="5"/><polyline points="292 593.75 292 601.17 292 601.33" fill="none" stroke="#222221" stroke-linecap="round" stroke-linejoin="round" stroke-width="5"/><polyline points="551.67 466.17 551.67 466.03 551.67 457.68 551.67 450.67" fill="none" stroke="#222221" stroke-linecap="round" stroke-linejoin="round" stroke-width="5"/><polyline points="551.67 492.75 551.67 492.62 551.67 467.88 551.67 466.17" fill="none" stroke="#222221" stroke-linecap="round" stroke-linejoin="round" stroke-width="5"/><path d="M511.92,601a144.7,144.7,0,0,1,26.68-6.25,79.7,79.7,0,0,1,11.09-.65c17.1.29,21.89,7.25,21.89,7.25h6s.24-9.88.09-10a90.91,90.91,0,0,0-7.61-5.21,65.76,65.76,0,0,0-11.07-5.5,30.19,30.19,0,0,0-7.32-2V492.75" fill="none" stroke="#222221" stroke-linecap="round" stroke-linejoin="round" stroke-width="5"/><path d="M539,451V579.33s-22.31,3.94-38.28,14.42l-.39.25v7.33s8-.08,10.5,0" fill="none" stroke="#222221" stroke-linecap="round" stroke-linejoin="round" stroke-width="5"/><path d="M544.33,450.33v130c-6,.59-33,13.42-33,13.42h-11" fill="none" stroke="#222221" stroke-linecap="round" stroke-linejoin="round" stroke-width="5"/><line x1="539" y1="579.33" x2="544.33" y2="579.33" fill="none" stroke="#222221" stroke-linecap="round" stroke-linejoin="round" stroke-width="5"/><path d="M510.83,601.33l.5-.16.59-.19a207.06,207.06,0,0,1,20.52-5.16c2-.39,4.06-.76,6.16-1.09,15.53-2.43,32.95-2.68,39,6.6" fill="none" stroke="#222221" stroke-linecap="round" stroke-linejoin="round" stroke-width="5"/><polyline points="511.33 593.75 511.33 601.17 511.33 601.33" fill="none" stroke="#222221" stroke-linecap="round" stroke-linejoin="round" stroke-width="5"/><line x1="525" y1="450" x2="525" y2="441.33" fill="none" stroke="#222221" stroke-linecap="round" stroke-linejoin="round" stroke-width="5"/><path d="M402.75,439.25l-.25-3.5H449L468.75,394s1.25-2.38,6.5-2.25c6.25.15,75.25-.25,75.25-.25s3.5-.25,1.5,4c-1.43,3-19.25,43.25-19.25,43.25Z" fill="none" stroke="#222221" stroke-linecap="round" stroke-linejoin="round" stroke-width="5"/><polygon points="461.17 428.33 475.67 397.5 540.5 397.5 526.17 428.67 461.17 428.33" fill="none" stroke="#222221" stroke-linecap="round" stroke-linejoin="round" stroke-width="5"/><line x1="452.67" y1="435.83" x2="528" y2="435.83" fill="none" stroke="#222221" stroke-linecap="round" stroke-linejoin="round" stroke-width="5"/><path d="M258.43,349.48c-1.09-.93-1.76-1.48-1.76-1.48l-.46,0c1.27-1.39,4.92-5.16,8.88-7h.58c.85.87,1.67,1.72,2.45,2.54.62.64,1.21,1.27,1.78,1.88,14.6,15.71,16.37,22.81,16.6,25.33.21,2.32-21.86,26.75-28.73,34.29l.31.29c.25,1.75.67,7.67.67,7.67s-2.8.75-4.72,1.48c-1,.38-1.78.76-1.78,1,0,.75-1.75,1.75-3.5,2.25a8,8,0,0,1-2.37.27l0-1.85c1.5,0,5.16-2.67,5.66-3.34s-.43-2.16-1.66-4.16c-1.34-2.17-3.5-6.67-3.5-6.67s-.34-1.83-2-1.33a50.25,50.25,0,0,1-6.77.82l-.9-1.24c0-.5-.25-1.25-1.75-2.25s.25-3.75.25-3.75A23.93,23.93,0,0,1,239,390.5c1.5-1.25,6.75,1.25,8.25,1.5.79.13,2.71,2.65,4.46,4.76a0,0,0,0,0,0,0c1.54,1.87,2.94,3.42,3.29,2.72.75-1.5,24.37-26.12,20.75-32.25-2.81-4.76-10.77-12.07-15.48-16.18C259.58,350.46,259,349.93,258.43,349.48Z" fill="none" stroke="#222221" stroke-linecap="round" stroke-linejoin="round" stroke-width="5"/><path d="M277.8,586.51c.19,2.48,0,4.79-.88,5.82-2.17,2.5-11.5,10.84-24,7.34l-.34,4h-24l-1.16-7.84,17.83-.5a111.44,111.44,0,0,1,11.33,2c4.5,1.17,14.17-3.66,16.17-5C274.52,591.16,277.19,587.38,277.8,586.51Z" fill="none" stroke="#222221" stroke-linecap="round" stroke-linejoin="round" stroke-width="5"/><path d="M277.8,586.51c-.61.87-3.28,4.65-5.05,5.82-2,1.34-11.67,6.17-16.17,5a111.44,111.44,0,0,0-11.33-2c.67-.66-.33-4.16-.33-4.16l-2.5-.06c1,0,1.75-.07,2.08-.11,1.75-.25,1.25-4,1.25-4l-.16-2.44c.33.29,5.24.43,6.49.27s4.34-6.83,9.84-7.83,12.16-.33,13.66,1.17C276.47,579.06,277.53,583,277.8,586.51Z" fill="none" stroke="#222221" stroke-linecap="round" stroke-linejoin="round" stroke-width="5"/><path d="M245.23,341.31a4.45,4.45,0,0,1,.52-2.56c.71-.89,7.19-5.41,10.91-8l2.59-1.78s3-.5,4,.75,3,5,4.75,5.75,5.75,2.75,5.75,2.75,1.17,1.92.33,3.08a31.52,31.52,0,0,1-4,3.92l-.18.17c-.57-.61-1.16-1.24-1.78-1.88l.05,0s4.91-3.92.33-3.5a10.49,10.49,0,0,0-3.41,1c-4,1.83-7.61,5.6-8.88,7l-.46.52s-2.16,3.19,2.68,1c.52.45,1.15,1,1.84,1.59-.83.85-3.87,3.48-7.27.93a41.22,41.22,0,0,1-7.5-8A18.08,18.08,0,0,1,245.23,341.31Z" fill="none" stroke="#222221" stroke-linecap="round" stroke-linejoin="round" stroke-width="5"/><path d="M268.5,340c4.58-.42-.33,3.5-.33,3.5l-.05,0c-.78-.82-1.6-1.67-2.45-2.54h-.58A10.49,10.49,0,0,1,268.5,340Z" fill="none" stroke="#222221" stroke-linecap="round" stroke-linejoin="round" stroke-width="5"/><path d="M256.67,348s.67.55,1.76,1.48c-4.84,2.21-2.68-1-2.68-1l.46-.52Z" fill="none" stroke="#222221" stroke-linecap="round" stroke-linejoin="round" stroke-width="5"/><path d="M186.35,403.87a63.77,63.77,0,0,0,1.34-11.54,21.62,21.62,0,0,1,2.35-7.77,67.19,67.19,0,0,1,5.71-9.56c2.83-6-3.67-28.17-3.67-28.17s-7,.67-11.66-12a37.53,37.53,0,0,1-2-8.16h0c-4.17,3-7.34,9.33-7.34,9.33s3.67,3,4.67,4.67-.67,4-.67,4-3,5-4.33,7-2,3-5,2a12.93,12.93,0,0,1-2.59-1.38,71.77,71.77,0,0,1-8-6.35c-1.46-1.31-2.77-2.58-3.7-3.61-3.34-3.66-1.67-9.33-1.67-9.33s2.67-6.67,4-8,5.33,1,5.33,1,15-16.83,16.67-17.67,12.73-5.72,14.19-6.19a41.69,41.69,0,0,1-1.44,4.11s1.25,3.5,10.25,4.75,24.5-1.75,24.5-1.75,4-.75,3.75-3a4.84,4.84,0,0,0-.84-1.9l.26-.18c.5-.17,6.33,1.5,6.33,1.5a6.32,6.32,0,0,1,3.17,1.83c1,1.33,20.16,22,20.66,23.17l.08.11c-3.72,2.56-10.2,7.08-10.91,8a4.45,4.45,0,0,0-.52,2.56,113.87,113.87,0,0,0-8.8-8c.23.27,3.82,4.59,3.82,7.83s-.67,5.66-2.33,6.66c0,0,5.08,16.67,7.58,23.42,2.33,6.3,5.76,23.29,6.21,25.51-1.75-2.11-3.67-4.63-4.46-4.76-1.5-.25-6.75-2.75-8.25-1.5a23.93,23.93,0,0,0-3.25,3.75S234,397,235.5,398l-.5,3.5s-.25.5.5,2.5,6.25,13,7.75,13.5a11.18,11.18,0,0,0,3.13.52,8,8,0,0,0,2.37-.27c1.75-.5,3.5-1.5,3.5-2.25,0-.26.77-.64,1.78-1l1,0s2.09,9.7,0,8.67-6.68,1.29-9.77,1.55l-5.8.46c-5.81.46-15.15,1.16-26.58,1.85a109.61,109.61,0,0,1-18.08-.46c-8.29-.88-14.14-2.41-15.08-2.88-1.54-.77.26-3.09-.26-5.14s4.12-5.66,5.66-10.28A45.3,45.3,0,0,0,186.35,403.87Z" fill="none" stroke="#222221" stroke-linecap="round" stroke-linejoin="round" stroke-width="5"/><path d="M238.15,401.49a50.25,50.25,0,0,0,6.77-.82c1.66-.5,2,1.33,2,1.33s2.16,4.5,3.5,6.67c1.23,2,2.16,3.5,1.66,4.16s-4.16,3.34-5.66,3.34l0,1.85a11.18,11.18,0,0,1-3.13-.52c-1.5-.5-7-11.5-7.75-13.5s-.5-2.5-.5-2.5l.5-3.5c1.5,1,1.75,1.75,1.75,2.25Z" fill="none" stroke="#222221" stroke-linecap="round" stroke-linejoin="round" stroke-width="5"/><path d="M245.59,584.56l.16,2.44s.5,3.75-1.25,4c-.33,0-1.08.08-2.08.11-3.59.12-10.41.14-12.67.14H229s-.5-15.25,0-16.75a1.37,1.37,0,0,1,1.14-.93c3.64,1.18,13.24,1.24,13.24,1.24v0c1.33.21,1.61.74,1.61.74Z" fill="none" stroke="#222221" stroke-linecap="round" stroke-linejoin="round" stroke-width="5"/><path d="M244.92,591.17s1,3.5.33,4.16l-17.83.5,1.83-1.16.5-3v-.42c2.26,0,9.08,0,12.67-.14Z" fill="none" stroke="#222221" stroke-linecap="round" stroke-linejoin="round" stroke-width="5"/><path d="M229.78,440.82c-5.88,1.65-13.11,1.83-17.69,1.73V443c-14.63,55.12-2.21,121.3-.52,129.76l-11,.36-2.81-.12s-7-86.67,3.33-126.67c0,0-6.33-17-6.33-19.33l.05-.43a109.61,109.61,0,0,0,18.08.46c11.43-.69,20.77-1.39,26.58-1.85.87,3.66,14.39,62.9,2.29,149.49a8.65,8.65,0,0,1,1.64.09v0s-9.6-.06-13.24-1.24a3.89,3.89,0,0,1,1.61.1C240.5,506,230.35,444.25,229.78,440.82Z" fill="none" stroke="#222221" stroke-linecap="round" stroke-linejoin="round" stroke-width="5"/><path d="M189.94,302.14a17.53,17.53,0,0,0,.66-3.11h.06c-.23,1.08.83,1.73,3.59,2l1.46.11c2.46.16,6.75.38,10.54.44a37.47,37.47,0,0,0,7.25-.3c2.75-.75,5.75-2.75,6.75-2.75.78,0,4.26,3.31,5.91,5.85a4.84,4.84,0,0,1,.84,1.9c.25,2.25-3.75,3-3.75,3s-15.5,3-24.5,1.75-10.25-4.75-10.25-4.75A41.69,41.69,0,0,0,189.94,302.14Z" fill="none" stroke="#222221" stroke-linecap="round" stroke-linejoin="round" stroke-width="5"/><path d="M213.11,241.06l1.64-.56s2,0,2.75.75,4.5,5.5,5.25,9,.75,9.25.25,10.25-2.5,1.25-2.5,1.25L214.75,263l-.57.1a90.14,90.14,0,0,0-6.09-20.29l.33-.14Z" fill="none" stroke="#222221" stroke-linecap="round" stroke-linejoin="round" stroke-width="5"/><path d="M211.56,572.76h.19a4.45,4.45,0,0,1,2.75.75s2,12.75,2.5,13.75c.21.42-.28.87-.91,1.26a12.65,12.65,0,0,1-2.09,1s-13.5,1-14.25,1a5.48,5.48,0,0,1-2-.75s-.85-4.68-1.61-9c-.54-3.06-1-5.94-1.14-6.77-.25-2,2.75-1,2.75-1l2.81.12Z" fill="none" stroke="#222221" stroke-linecap="round" stroke-linejoin="round" stroke-width="5"/><path d="M216.88,596.75s1.5,5.37-1.38,6.25-17.38-.75-17.38-.75c-.5-1.82.22-3.8,0-4.17,4.38-.5,17.15-1.21,17.15-1.21Z" fill="none" stroke="#222221" stroke-linecap="round" stroke-linejoin="round" stroke-width="5"/><path d="M216.25,588.75c1,3.62-1,8.12-1,8.12s-12.77.71-17.15,1.21c0-.08-.16-.08-.35,0a5.81,5.81,0,0,1-5.78-2.88l-.09-.12c-.76-.75-2.63-6.87-2-10,.57-2.86,5.46-4.15,6.26-4.35.76,4.3,1.61,9,1.61,9a5.48,5.48,0,0,0,2,.75c.75,0,14.25-1,14.25-1a12.65,12.65,0,0,0,2.09-1Z" fill="none" stroke="#222221" stroke-linecap="round" stroke-linejoin="round" stroke-width="5"/><path d="M207,293.67c0,3.07,0,6.58-.78,7.7v.18c-3.79-.06-8.08-.28-10.54-.44l0-.44s-.17-1-.51-2.72c-1.15-5.81-4.16-19.81-8.6-30.95a7.21,7.21,0,0,0,5.44-1.33s2.34-1.34,2.34-3,.33-12.67,3.33-12.67c1.79,0,3.82,2,5.16,3.65a3.32,3.32,0,0,0-2.66,1.1c-.75,1,2.25,4.75,2.25,4.75,1.25,2,4.75,17.75,4.75,19s2.5,1,3.25.5-1-3.75-1-3.75-1.75-8.25-2.5-10-2-10.5-3-11.25l0,0c-1.14-4.26-3.88-15.31-2.54-18a2.88,2.88,0,0,1,2.63-1.79l0,.46s1.15,1.94,2.71,5.25c.41.87.84,1.84,1.3,2.89a90.14,90.14,0,0,1,6.09,20.29,63.61,63.61,0,0,1,.9,9.57c.34,20-1.66,24-1.66,24s-4.34-1.34-6-3Z" fill="none" stroke="#222221" stroke-linecap="round" stroke-linejoin="round" stroke-width="5"/><path d="M213.11,241.06l-4.69,1.61-.33.14c-.46-1.05-.89-2-1.3-2.89l.59,0a4.63,4.63,0,0,1,2.24-1S212.8,239.36,213.11,241.06Z" fill="none" stroke="#222221" stroke-linecap="round" stroke-linejoin="round" stroke-width="5"/><path d="M204.41,255.64c0-.15-.21-.75-.45-1.66l0,0c1,.75,2.25,9.5,3,11.25s2.5,10,2.5,10,1.75,3.25,1,3.75-3.25.75-3.25-.5-3.5-17-4.75-19c0,0-3-3.75-2.25-4.75a3.32,3.32,0,0,1,2.66-1.1C203.74,254.64,204.3,255.49,204.41,255.64Z" fill="none" stroke="#222221" stroke-linecap="round" stroke-linejoin="round" stroke-width="5"/><path d="M186.64,267a7.25,7.25,0,0,1-2.56-1c-3.52-2.17-8.14-13.57-9.75-17.77l.34-.15c2.41.59,3.33-3.58,3.58-5.33s-3-5.25-3-5.25-2.25-2.5-4.5-2.75a2.47,2.47,0,0,0-1.63.37l0-.06c-.52-3-1.08-9.64,2.67-14.39,5-6.34,10.67-8,11.67-8.67s14,2,21,5,2.66,16.67,2.66,16.67l-3,.54h-.08a2.88,2.88,0,0,0-2.63,1.79c-1.34,2.67,1.4,13.72,2.54,18a1.92,1.92,0,0,0-1.05-.33c-1.34-1.63-3.37-3.65-5.16-3.65-3,0-3.33,11-3.33,12.67s-2.34,3-2.34,3A7.21,7.21,0,0,1,186.64,267Z" fill="none" stroke="#222221" stroke-linecap="round" stroke-linejoin="round" stroke-width="5"/><path d="M192,595.24a5.81,5.81,0,0,0,5.78,2.88c-3.42,2.14-8.13.38-8.13.38V596S192.3,595.88,192,595.24Z" fill="none" stroke="#222221" stroke-linecap="round" stroke-linejoin="round" stroke-width="5"/><path d="M195.75,300.67l0,.44-1.46-.11c-2.76-.23-3.82-.88-3.59-2a1.9,1.9,0,0,1,.09-.29c.5-1.25,4.25-.75,4.25-.75l.24-.05C195.58,299.67,195.75,300.67,195.75,300.67Z" fill="none" stroke="#222221" stroke-linecap="round" stroke-linejoin="round" stroke-width="5"/><path d="M180.05,386.85l.87,0s1.66-3.5,3.66-3.33a45.26,45.26,0,0,1,5.34,1l.12.06a21.62,21.62,0,0,0-2.35,7.77,63.77,63.77,0,0,1-1.34,11.54c-.72,0-3.35-.25-3.35-.25s-1.92-3.45-2.92-4.79-.16-6.33-.16-6.33l.12-.34c-2.43-1.55-15.8-10.53-21.13-15.61-5.68-5.41-8.93-11-8.66-13.94S155,346.5,155,346.5l.13-.56a71.77,71.77,0,0,0,8,6.35l-.46,1s-4.2,11.1-4.6,11.64S167,376.15,168,377.77C168.78,379.15,177.39,385,180.05,386.85Z" fill="none" stroke="#222221" stroke-linecap="round" stroke-linejoin="round" stroke-width="5"/><path d="M168.45,240.05l0,.24a16.35,16.35,0,0,1-1,2.3l-.16-.09c-.75-.5-.75-2.5-.75-2.5l1.25-3a3.8,3.8,0,0,1,1.37-1.88,2.47,2.47,0,0,1,1.63-.37c2.25.25,4.5,2.75,4.5,2.75s3.25,3.5,3,5.25-1.17,5.92-3.58,5.33l-.34.15c-.37-1-.58-1.56-.58-1.56h-.25A4.74,4.74,0,0,1,174,246V245a6.18,6.18,0,0,0-2-3.75A8.41,8.41,0,0,0,168.45,240.05Z" fill="none" stroke="#222221" stroke-linecap="round" stroke-linejoin="round" stroke-width="5"/><path d="M171.08,260.33c1.34,1.34,6.67,13.34,5.67,21.34-.67,5.32-8,7.55-11.61,8.44,2.3-2.2,1-10.43-5.06-14.44-7-4.67-11.66-18.34-11.66-23s14.33-7,17-8a4.38,4.38,0,0,0,2-2.08,16.35,16.35,0,0,0,1-2.3l0-.24a8.41,8.41,0,0,1,3.55,1.2,6.18,6.18,0,0,1,2,3.75V246a4.74,4.74,0,0,0-.49.72C171.51,250.14,170,259.26,171.08,260.33Z" fill="none" stroke="#222221" stroke-linecap="round" stroke-linejoin="round" stroke-width="5"/><path d="M194.75,427c0,2.33,6.33,19.33,6.33,19.33-10.33,40-3.33,126.67-3.33,126.67s-3-1-2.75,1c.1.83.6,3.71,1.14,6.77.76,4.3,1.61,9,1.61,9a5.48,5.48,0,0,0,2,.75c.75,0,14.25-1,14.25-1a12.65,12.65,0,0,0,2.09-1c.63-.39,1.12-.84.91-1.26-.5-1-2.5-13.75-2.5-13.75a4.45,4.45,0,0,0-2.75-.75h-.19l-11,.36" fill="none" stroke="#222221" stroke-linecap="round" stroke-linejoin="round" stroke-width="5"/><path d="M211.75,573.67s-.07-.31-.19-.91c-1.69-8.46-14.11-74.64.52-129.76" fill="none" stroke="#222221" stroke-linecap="round" stroke-linejoin="round" stroke-width="5"/><path d="M229.75,440.67l0,.15c.57,3.43,10.72,65.15,2,132.85a3.89,3.89,0,0,0-1.61-.1,1.37,1.37,0,0,0-1.14.93c-.5,1.5,0,16.75,0,16.75h.75c2.26,0,9.08,0,12.67-.14,1,0,1.75-.07,2.08-.11,1.75-.25,1.25-4,1.25-4l-.16-2.44L245,575.5s-.28-.53-1.61-.74a8.65,8.65,0,0,0-1.64-.09c12.1-86.59-1.42-145.83-2.29-149.49,0-.12,0-.18,0-.18" fill="none" stroke="#222221" stroke-linecap="round" stroke-linejoin="round" stroke-width="5"/><path d="M178.42,326.67c-4.17,3-7.34,9.33-7.34,9.33s3.67,3,4.67,4.67-.67,4-.67,4-3,5-4.33,7-2,3-5,2a12.93,12.93,0,0,1-2.59-1.38,71.77,71.77,0,0,1-8-6.35c-1.46-1.31-2.77-2.58-3.7-3.61-3.34-3.66-1.67-9.33-1.67-9.33s2.67-6.67,4-8,5.33,1,5.33,1,15-16.83,16.67-17.67,12.73-5.72,14.19-6.19l.06,0" fill="none" stroke="#222221" stroke-linecap="round" stroke-linejoin="round" stroke-width="5"/><path d="M170.92,340.17s-11.17-6-13.34-10.17" fill="none" stroke="#222221" stroke-linecap="round" stroke-linejoin="round" stroke-width="5"/><path d="M155,346.5s-4.47,13.13-4.74,16.11,3,8.53,8.66,13.94c5.33,5.08,18.7,14.06,21.13,15.61l.34.21" fill="none" stroke="#222221" stroke-linecap="round" stroke-linejoin="round" stroke-width="5"/><path d="M162.7,353.27s-4.2,11.1-4.6,11.64S167,376.15,168,377.77c.8,1.38,9.41,7.27,12.07,9.08l.79.53" fill="none" stroke="#222221" stroke-linecap="round" stroke-linejoin="round" stroke-width="5"/><path d="M204.08,234.67s1.15,1.94,2.71,5.25c.41.87.84,1.84,1.3,2.89a90.14,90.14,0,0,1,6.09,20.29,63.61,63.61,0,0,1,.9,9.57c.34,20-1.66,24-1.66,24s-4.34-1.34-6-3" fill="none" stroke="#222221" stroke-linecap="round" stroke-linejoin="round" stroke-width="5"/><path d="M207.08,288.67a40.09,40.09,0,0,0-.05,5c0,3.07,0,6.58-.78,7.7" fill="none" stroke="#222221" stroke-linecap="round" stroke-linejoin="round" stroke-width="5"/><path d="M195.75,300.67s-.17-1-.51-2.72c-1.15-5.81-4.16-19.81-8.6-30.95l0-.08" fill="none" stroke="#222221" stroke-linecap="round" stroke-linejoin="round" stroke-width="5"/><path d="M165.14,290.11c3.63-.89,10.94-3.12,11.61-8.44,1-8-4.33-20-5.67-21.34-1.07-1.07.43-10.19,2.42-13.66A4.74,4.74,0,0,1,174,246" fill="none" stroke="#222221" stroke-linecap="round" stroke-linejoin="round" stroke-width="5"/><path d="M165.14,290.11a1.94,1.94,0,0,1-1.39.56C162.41,290.67,163.31,290.56,165.14,290.11Z" fill="none" stroke="#222221" stroke-linecap="round" stroke-linejoin="round" stroke-width="5"/><path d="M168.42,240.29a16.35,16.35,0,0,1-1,2.3,4.38,4.38,0,0,1-2,2.08c-2.67,1-17,3.33-17,8s4.66,18.33,11.66,23c6,4,7.36,12.24,5.06,14.44" fill="none" stroke="#222221" stroke-linecap="round" stroke-linejoin="round" stroke-width="5"/><path d="M207.08,233.67S211.42,220,204.42,217s-20-5.67-21-5-6.67,2.33-11.67,8.67c-3.75,4.75-3.19,11.37-2.67,14.39" fill="none" stroke="#222221" stroke-linecap="round" stroke-linejoin="round" stroke-width="5"/><path d="M204.41,255.64c0-.15-.21-.75-.45-1.66-1.14-4.26-3.88-15.31-2.54-18a2.88,2.88,0,0,1,2.63-1.79h.08a5.59,5.59,0,0,1,2.62.79" fill="none" stroke="#222221" stroke-linecap="round" stroke-linejoin="round" stroke-width="5"/><path d="M173.75,246.67s.21.59.58,1.56c1.61,4.2,6.23,15.6,9.75,17.77a7,7,0,0,0,8-.33s2.34-1.34,2.34-3,.33-12.67,3.33-12.67c1.79,0,3.82,2,5.16,3.65.83,1,1.39,1.84,1.5,2v0" fill="none" stroke="#222221" stroke-linecap="round" stroke-linejoin="round" stroke-width="5"/><path d="M174.67,248.08c2.41.59,3.33-3.58,3.58-5.33s-3-5.25-3-5.25-2.25-2.5-4.5-2.75a2.47,2.47,0,0,0-1.63.37,3.8,3.8,0,0,0-1.37,1.88l-1.25,3s0,2,.75,2.5" fill="none" stroke="#222221" stroke-linecap="round" stroke-linejoin="round" stroke-width="5"/><path d="M168,240l.45.05a8.41,8.41,0,0,1,3.55,1.2,6.18,6.18,0,0,1,2,3.75" fill="none" stroke="#222221" stroke-linecap="round" stroke-linejoin="round" stroke-width="5"/><path d="M208.42,242.67l4.69-1.61,1.64-.56s2,0,2.75.75,4.5,5.5,5.25,9,.75,9.25.25,10.25-2.5,1.25-2.5,1.25L214.75,263" fill="none" stroke="#222221" stroke-linecap="round" stroke-linejoin="round" stroke-width="5"/><path d="M199.25,260.75s1.25-.5,1.75-3" fill="none" stroke="#222221" stroke-linecap="round" stroke-linejoin="round" stroke-width="5"/><path d="M203.5,274s2.5,0,3,2" fill="none" stroke="#222221" stroke-linecap="round" stroke-linejoin="round" stroke-width="5"/><path d="M204,254l0,0c1,.75,2.25,9.5,3,11.25s2.5,10,2.5,10,1.75,3.25,1,3.75-3.25.75-3.25-.5-3.5-17-4.75-19c0,0-3-3.75-2.25-4.75a3.32,3.32,0,0,1,2.66-1.1A1.92,1.92,0,0,1,204,254Z" fill="none" stroke="#222221" stroke-linecap="round" stroke-linejoin="round" stroke-width="5"/><path d="M195,298s-3.75-.5-4.25.75a1.9,1.9,0,0,0-.09.29c-.23,1.08.83,1.73,3.59,2l1.46.11c2.46.16,6.75.38,10.54.44a37.47,37.47,0,0,0,7.25-.3c2.75-.75,5.75-2.75,6.75-2.75.78,0,4.26,3.31,5.91,5.85a4.84,4.84,0,0,1,.84,1.9c.25,2.25-3.75,3-3.75,3s-15.5,3-24.5,1.75-10.25-4.75-10.25-4.75a41.69,41.69,0,0,0,1.44-4.11,17.53,17.53,0,0,0,.66-3.11,1,1,0,0,0,0-.16" fill="none" stroke="#222221" stroke-linecap="round" stroke-linejoin="round" stroke-width="5"/><path d="M226.42,304.17c.5-.17,6.33,1.5,6.33,1.5a6.32,6.32,0,0,1,3.17,1.83c1,1.33,20.16,22,20.66,23.17" fill="none" stroke="#222221" stroke-linecap="round" stroke-linejoin="round" stroke-width="5"/><path d="M236.42,333.33a27,27,0,0,0-5.84-3.33" fill="none" stroke="#222221" stroke-linecap="round" stroke-linejoin="round" stroke-width="5"/><path d="M245.25,341.33l0,0a113.87,113.87,0,0,0-8.8-8" fill="none" stroke="#222221" stroke-linecap="round" stroke-linejoin="round" stroke-width="5"/><path d="M232.92,327.5s-5,3-5,5.67" fill="none" stroke="#222221" stroke-linecap="round" stroke-linejoin="round" stroke-width="5"/><path d="M178.64,314.11a45.43,45.43,0,0,0-.2,12.56,37.53,37.53,0,0,0,2,8.16c4.66,12.67,11.66,12,11.66,12s6.5,22.17,3.67,28.17a67.19,67.19,0,0,0-5.71,9.56,21.62,21.62,0,0,0-2.35,7.77,63.77,63.77,0,0,1-1.34,11.54,45.3,45.3,0,0,1-1.23,4.4c-1.54,4.62-6.17,8.22-5.66,10.28s-1.28,4.37.26,5.14c.94.47,6.79,2,15.08,2.88a109.61,109.61,0,0,0,18.08.46c11.43-.69,20.77-1.39,26.58-1.85l5.8-.46c3.09-.26,7.71-2.57,9.77-1.55s0-8.67,0-8.67" fill="none" stroke="#222221" stroke-linecap="round" stroke-linejoin="round" stroke-width="5"/><path d="M251.71,396.78c0,.15,0,.22,0,.22" fill="none" stroke="#222221" stroke-linecap="round" stroke-linejoin="round" stroke-width="5"/><path d="M236.43,333.34c.23.27,3.82,4.59,3.82,7.83s-.67,5.66-2.33,6.66c0,0,5.08,16.67,7.58,23.42,2.33,6.3,5.76,23.29,6.21,25.51" fill="none" stroke="#222221" stroke-linecap="round" stroke-linejoin="round" stroke-width="5"/><path d="M236.42,333.33h0" fill="none" stroke="#222221" stroke-linecap="round" stroke-linejoin="round" stroke-width="5"/><path d="M270.08,345.25a31.52,31.52,0,0,0,4-3.92c.84-1.16-.33-3.08-.33-3.08s-4-2-5.75-2.75-3.75-4.5-4.75-5.75-4-.75-4-.75l-2.59,1.78c-3.72,2.56-10.2,7.08-10.91,8a4.45,4.45,0,0,0-.52,2.56,18.08,18.08,0,0,0,.27,2.69,41.22,41.22,0,0,0,7.5,8c3.4,2.55,6.44-.08,7.27-.93l.23-.24" fill="none" stroke="#222221" stroke-linecap="round" stroke-linejoin="round" stroke-width="5"/><path d="M268.17,343.5s4.91-3.92.33-3.5a10.49,10.49,0,0,0-3.41,1c-4,1.83-7.61,5.6-8.88,7l-.46.52s-2.16,3.19,2.68,1l.32-.15" fill="none" stroke="#222221" stroke-linecap="round" stroke-linejoin="round" stroke-width="5"/><path d="M256.67,348s.67.55,1.76,1.48c.52.45,1.15,1,1.84,1.59,4.71,4.11,12.67,11.42,15.48,16.18,3.62,6.13-20,30.75-20.75,32.25-.35.7-1.75-.85-3.29-2.72a0,0,0,0,1,0,0c-1.75-2.11-3.67-4.63-4.46-4.76-1.5-.25-6.75-2.75-8.25-1.5a23.93,23.93,0,0,0-3.25,3.75S234,397,235.5,398s1.75,1.75,1.75,2.25" fill="none" stroke="#222221" stroke-linecap="round" stroke-linejoin="round" stroke-width="5"/><path d="M235.5,398l-.5,3.5s-.25.5.5,2.5,6.25,13,7.75,13.5a11.18,11.18,0,0,0,3.13.52,8,8,0,0,0,2.37-.27c1.75-.5,3.5-1.5,3.5-2.25,0-.26.77-.64,1.78-1,1.92-.73,4.72-1.48,4.72-1.48s-.42-5.92-.67-7.67" fill="none" stroke="#222221" stroke-linecap="round" stroke-linejoin="round" stroke-width="5"/><path d="M255.75,407.25l2-2.21c6.87-7.54,28.94-32,28.73-34.29-.23-2.52-2-9.62-16.6-25.33-.57-.61-1.16-1.24-1.78-1.88-.78-.82-1.6-1.67-2.45-2.54" fill="none" stroke="#222221" stroke-linecap="round" stroke-linejoin="round" stroke-width="5"/><path d="M237.92,401.5h.23a50.25,50.25,0,0,0,6.77-.82c1.66-.5,2,1.33,2,1.33s2.16,4.5,3.5,6.67c1.23,2,2.16,3.5,1.66,4.16s-4.16,3.34-5.66,3.34" fill="none" stroke="#222221" stroke-linecap="round" stroke-linejoin="round" stroke-width="5"/><path d="M180.92,386.83s1.66-3.5,3.66-3.33a45.26,45.26,0,0,1,5.34,1" fill="none" stroke="#222221" stroke-linecap="round" stroke-linejoin="round" stroke-width="5"/><path d="M179.92,392.5s-.84,5,.16,6.33,2.92,4.79,2.92,4.79,2.63.24,3.35.25h0" fill="none" stroke="#222221" stroke-linecap="round" stroke-linejoin="round" stroke-width="5"/><path d="M245.58,584.5s0,0,0,.06c.33.29,5.24.43,6.49.27s4.34-6.83,9.84-7.83,12.16-.33,13.66,1.17c.89.89,1.95,4.78,2.22,8.34.19,2.48,0,4.79-.88,5.82-2.17,2.5-11.5,10.84-24,7.34l-.34,4h-24l-1.16-7.84,1.83-1.16.5-3" fill="none" stroke="#222221" stroke-linecap="round" stroke-linejoin="round" stroke-width="5"/><path d="M227.42,595.83l17.83-.5c.67-.66-.33-4.16-.33-4.16" fill="none" stroke="#222221" stroke-linecap="round" stroke-linejoin="round" stroke-width="5"/><path d="M277.92,586.33l-.12.18c-.61.87-3.28,4.65-5.05,5.82-2,1.34-11.67,6.17-16.17,5a111.44,111.44,0,0,0-11.33-2" fill="none" stroke="#222221" stroke-linecap="round" stroke-linejoin="round" stroke-width="5"/><path d="M230.12,573.56h0c3.64,1.18,13.24,1.24,13.24,1.24" fill="none" stroke="#222221" stroke-linecap="round" stroke-linejoin="round" stroke-width="5"/><path d="M192,595.24c.33.64-2.35.76-2.35.76v2.5s4.71,1.76,8.13-.38c.19-.12.3-.12.35,0,.24.37-.48,2.35,0,4.17,0,0,14.5,1.62,17.38.75s1.38-6.25,1.38-6.25l-1.63.12s2-4.5,1-8.12" fill="none" stroke="#222221" stroke-linecap="round" stroke-linejoin="round" stroke-width="5"/><path d="M196.25,580.75l-.11,0c-.8.2-5.69,1.49-6.26,4.35-.63,3.13,1.24,9.25,2,10" fill="none" stroke="#222221" stroke-linecap="round" stroke-linejoin="round" stroke-width="5"/><path d="M191.88,595.12l.09.12a5.81,5.81,0,0,0,5.78,2.88l.35,0c4.38-.5,17.15-1.21,17.15-1.21" fill="none" stroke="#222221" stroke-linecap="round" stroke-linejoin="round" stroke-width="5"/><path d="M207.58,442.33s1.78.16,4.51.22c4.58.1,11.81-.08,17.69-1.73a21.11,21.11,0,0,0,5.47-2.32" fill="none" stroke="#222221" stroke-linecap="round" stroke-linejoin="round" stroke-width="5"/><path d="M207.38,239.87a4.63,4.63,0,0,1,2.24-1s3.18.49,3.49,2.19c0,0,0,0,0,.06" fill="none" stroke="#222221" stroke-linecap="round" stroke-linejoin="round" stroke-width="5"/><path d="M685.58,395.25c3.09,0,8,3.42,4.84,8.58-8.68,14.15-15.23,36.49-18.74,52.07V456a10.14,10.14,0,0,0-2.09-.2h-1c3.67-16,10.51-39.05,19.21-53.26,2.36-3.85.28-6.22-2.32-7Z" fill="#494949"/><path d="M645.87,482.9c-13.72,0-36.87-.57-36.87-.57s-16.33.67-19.33-17.66a48.92,48.92,0,0,1-.06-14.4V450h10.72v-8.67h-8.88c6.45-24,24.16-46,24.55-46.66,2.17-3.67,7.1-3.25,9.83-2.34,3,1,39.86,4.55,57,2.84a6.54,6.54,0,0,1,2.68.3c2.6.81,4.68,3.18,2.32,7-8.7,14.21-15.54,37.28-19.21,53.26-1,0-2.31.05-3.87.11v0c-3.5,0-20.17.42-22.67,2.17s-2.25,3-2.25,3.75.25,2.75.25,2.75-.25,1.25,2,1.5c.67.07,2.75.08,5.5.08v0c1.2,0,3.35,0,5.91,0v.48a5.31,5.31,0,0,1,2.83,4.67c.06,1.29,0,6-.13,11.37h-.31l-1.22.14C653.08,482.82,649.89,482.89,645.87,482.9Z" fill="#494949"/><path d="M668.62,455.76h1a10.14,10.14,0,0,1,2.09.2c2.34.51,2.66,1.8,2.66,1.8s1.84,9.33-3.66,8.58c-.48-.06-1-.12-1.66-.16-4-.29-10.52-.21-15.52-.15-2.56,0-4.71.06-5.91,0-.32,0-.58,0-.75,0-2.25-.25-2-1.5-2-1.5s-.25-2-.25-2.75-.25-2,2.25-3.75c1.86-1.3,11.61-1.91,17.92-2.13C666.31,455.81,667.66,455.77,668.62,455.76Z" fill="#191919"/><path d="M670.33,485.17c1.17,0-.16,3.16-.16,3.16s-1.35,1.52-3.84,4.05c0-2.09.1-4.5.16-7C668.69,485.25,670.11,485.17,670.33,485.17Z" fill="#494949"/><path d="M667.68,591.4a9,9,0,1,1-11.46-1A155.6,155.6,0,0,0,608.11,582H608a50.08,50.08,0,0,0-.07-5.32c-1.56-2.07-8.82-1.73-9.85.35a17.75,17.75,0,0,0-.29,5.14h-.06a163.39,163.39,0,0,0-27.52,3.68l-.16.26a65.76,65.76,0,0,0-11.07-5.5l0-.08a144.8,144.8,0,0,1,41.66-9,9.17,9.17,0,0,0,1.19.07,14.73,14.73,0,0,0,2.58-.23c41.37-1.07,63.29,20,63.29,20Z" fill="#191919"/><path d="M656,493c.06-2.21.12-4.59.17-6.95,0-1.2.06-2.39.08-3.54.12-5.41.19-10.08.13-11.37a5.31,5.31,0,0,0-2.83-4.67V466c5-.06,11.56-.14,15.52.15v.08a2.62,2.62,0,0,0-2,2.08c-.09.88-.31,9.28-.51,17.07-.06,2.48-.11,4.89-.16,7-.1,3.86-.16,6.62-.16,6.62a24.05,24.05,0,0,1-2.34,3.83,16.33,16.33,0,0,1-2.83,3l-8.5-.16-.16-.17,3.21-2.94h.14C655.74,501,655.84,497.35,656,493Z" fill="#191919"/><path d="M664.75,455.83v0c-6.31.22-16.06.83-17.92,2.13-2.5,1.75-2.25,3-2.25,3.75s.25,2.75.25,2.75-.25,1.25,2,1.5c.17,0,.43,0,.75,0v0c-2.75,0-4.83,0-5.5-.08-2.25-.25-2-1.5-2-1.5s-.25-2-.25-2.75-.25-2,2.25-3.75S661.25,455.83,664.75,455.83Z" fill="#191919"/><path d="M656,493c-.11,4.32-.21,8-.26,9.53h-.14l-3.21,2.94-4,3.67s-1.16,2-5.66,2.33c-1.72.13-18.33-.19-36.33-.62l-9.33-.23c-17.42-.44-34-.93-37.68-1.15-4-.25-6.33-1.05-7.66-1.81V492.62h.2l.46-.12s4.23-1,9.93-2.36l2.93-.72c2.44-.6,5-1.25,7.61-1.91l.7-.18a63.67,63.67,0,0,1,20.25-1.58c8.46,1,28,2.17,34.63,2,3.89-.1,17.15-1,27.74-1.67C656.07,488.44,656,490.82,656,493Z" fill="#494949"/><path d="M611.42,519.92l-.67,27.83s-.84.28-2.23.59a32.11,32.11,0,0,1-6.69.74,20.91,20.91,0,0,1-6.33-1,13,13,0,0,1-2-.78s-.62-27.5-1-27.5l4.49,0Z" fill="#191919"/><path d="M608.52,548.34l0,.16-.37,21.75a15.1,15.1,0,0,1-3.74,1.1c-1.24,0-2.49.08-3.77.16a10.53,10.53,0,0,1-4.72-1.68s-.24-13.65-.46-21.71h0a20.91,20.91,0,0,0,6.33,1A32.11,32.11,0,0,0,608.52,548.34Z" fill="#191919"/><path d="M607.94,576.69A50.08,50.08,0,0,1,608,582c-.06,4.24-.24,10-.58,13.33a2.59,2.59,0,0,1,.16.88v4.32h-9v-4.32a2.46,2.46,0,0,1,.07-.6c-.31-3.46-.76-9.22-.88-13.44a17.75,17.75,0,0,1,.29-5.14C599.12,575,606.38,574.62,607.94,576.69Z" fill="#191919"/><path d="M607.59,600.54v6.57a2.77,2.77,0,0,1-2.76,2.77h-3.46a2.77,2.77,0,0,1-2.76-2.77v-6.57h9Z" fill="#191919"/><path d="M606.34,510.88v8.79H597v-9Z" fill="#e2e2e2"/><polygon points="591.45 441.33 600.33 441.33 600.33 450 589.61 450 551.67 450 544.33 450 539 450 525 450 525 441.33 526.33 441.33 591.25 441.33 591.45 441.33" fill="#c69383"/><path d="M583.5,457.75s4.25,9.5-1.25,8.75a63.8,63.8,0,0,0-6.42-.37c-4-.09-8.9-.07-12.83-.06h-3c-1.48,0-2.66,0-3.4,0-.26,0-.46,0-.6,0-2.25-.25-2-1.5-2-1.5s-.25-2-.25-2.75-.25-2,2.25-3.75c1.86-1.3,11.61-1.91,17.92-2.13,2.17-.09,3.93-.12,4.83-.12C583,455.75,583.5,457.75,583.5,457.75Z" fill="#191919"/><path d="M551.67,507.69v71a30.19,30.19,0,0,1,7.32,2,65.76,65.76,0,0,1,11.07,5.5,90.91,90.91,0,0,1,7.61,5.21c.15.12-.09,10-.09,10-6-9.28-23.45-9-39-6.6A144.7,144.7,0,0,0,511.92,601l-.59.19v-7.42s27-12.83,33-13.42V450h7.34v57.69Z" fill="#191919"/><path d="M577.58,601.33h-6s-4.79-7-21.89-7.25a79.7,79.7,0,0,0-11.09.65C554.13,592.3,571.55,592.05,577.58,601.33Z" fill="#494949"/><path d="M575.83,466.13v0s-2.16.5-2.33,2.16-.83,18.67-.83,18.67l.13.51c-2.58.66-5.17,1.31-7.61,1.91l0-.09s.83-14.66.66-18.16A5.31,5.31,0,0,0,563,466.5v-.43C566.93,466.06,571.79,466,575.83,466.13Z" fill="#191919"/><path d="M573.92,455.83v0c-6.31.22-16.06.83-17.92,2.13-2.5,1.75-2.25,3-2.25,3.75s.25,2.75.25,2.75-.25,1.25,2,1.5c.14,0,.34,0,.6,0v0c-2.18,0-3.93,0-4.85-.05h-.08v-8.35h.23C555.83,456.2,570.64,455.83,573.92,455.83Z" fill="#191919"/><path d="M565.83,471.17c.17,3.5-.66,18.16-.66,18.16l0,.09-2.93.72-.09-.81s.83-14.66.66-18.16A5.31,5.31,0,0,0,560,466.5v-.42h3v.43A5.31,5.31,0,0,1,565.83,471.17Z" fill="#191919"/><path d="M550.5,391.5s3.5-.25,1.5,4c-1.43,3-19.25,43.25-19.25,43.25l-130,.5-.25-3.5H449L468.75,394s1.25-2.38,6.5-2.25C481.5,391.9,550.5,391.5,550.5,391.5Zm-24.33,37.17L540.5,397.5H475.67l-14.5,30.83Z" fill="#e2e2e2"/><path d="M549.69,594.31a9.1,9.1,0,0,1,.69,3.47,9,9,0,1,1-17.85-1.48l-.09-.48c2-.39,4.06-.76,6.16-1.09a79.7,79.7,0,0,1,11.09-.65Z" fill="#191919"/><path d="M544.33,579.33v1c-6,.59-33,13.42-33,13.42H500.72c16-10.48,38.28-14.42,38.28-14.42Z" fill="#494949"/><polygon points="544.33 450.33 544.33 579.33 539 579.33 539 451 539 450 544.33 450 544.33 450.33" fill="#494949"/><polygon points="540.5 397.5 526.17 428.67 461.17 428.33 475.67 397.5 540.5 397.5" fill="#494949"/><polygon points="525 441.33 525 450 332.33 450 325 450 319.67 450 266.33 450 266.33 441.33 525 441.33" fill="#9e421e"/><path d="M511.33,593.75v7.42l-.5.16c-2.5-.08-10.5,0-10.5,0V594l.39-.25Z" fill="#494949"/><path d="M358.33,591.33c.15.12-.08,10-.08,10-6-9.28-23.45-9-39-6.6A144.7,144.7,0,0,0,292.59,601l-.59.19v-7.42s27-12.83,33-13.42V450h7.33V578.67S342.75,579.5,358.33,591.33Z" fill="#191919"/><path d="M358.25,601.33h-6s-6.78-9.84-33-6.6C334.8,592.3,352.22,592.05,358.25,601.33Z" fill="#191919"/><path d="M325,579.33v1c-6,.59-33,13.42-33,13.42H281.39c16-10.48,38.28-14.42,38.28-14.42Z" fill="#494949"/><polygon points="325 450.33 325 579.33 319.67 579.33 319.67 451 319.67 450 325 450 325 450.33" fill="#494949"/><path d="M292,593.75v7.42l-.5.16c-2.5-.08-10.5,0-10.5,0V594l.39-.25Z" fill="#494949"/><path d="M589.61,450.27a48.92,48.92,0,0,0,.06,14.4c3,18.33,19.33,17.66,19.33,17.66s23.15.6,36.87.57c4,0,7.21-.08,8.8-.23l1.22-.14" fill="none" stroke="#020202" stroke-miterlimit="10" stroke-width="2"/><path d="M668.58,455.92a.94.94,0,0,1,0-.16c3.67-16,10.51-39.05,19.21-53.26,2.36-3.85.28-6.22-2.32-7a6.54,6.54,0,0,0-2.68-.3c-17.14,1.71-54-1.84-57-2.84-2.73-.91-7.66-1.33-9.83,2.34-.39.65-18.1,22.62-24.55,46.66a2.76,2.76,0,0,0-.08.27" fill="none" stroke="#020202" stroke-miterlimit="10" stroke-width="2"/><path d="M671.68,455.9c3.51-15.58,10.06-37.92,18.74-52.07,3.16-5.16-1.75-8.58-4.84-8.58" fill="none" stroke="#020202" stroke-miterlimit="10" stroke-width="2"/><path d="M631,482.74c5.06.08,10.34.15,14.87.16,4.28,0,7.89,0,10-.16" fill="none" stroke="#020202" stroke-miterlimit="10" stroke-width="2"/><path d="M551.75,466c.92.05,2.67.05,4.85.05h.15" fill="none" stroke="#020202" stroke-miterlimit="10" stroke-width="2"/><path d="M573.92,455.83c-3.28,0-18.09.37-22,1.85" fill="none" stroke="#020202" stroke-miterlimit="10" stroke-width="2"/><path d="M575.83,466.13a63.8,63.8,0,0,1,6.42.37c5.5.75,1.25-8.75,1.25-8.75s-.5-2-4.75-2c-.9,0-2.66,0-4.83.12-6.31.22-16.06.83-17.92,2.13-2.5,1.75-2.25,3-2.25,3.75s.25,2.75.25,2.75-.25,1.25,2,1.5c.14,0,.34,0,.6,0,.74,0,1.92,0,3.4,0h3C566.93,466.06,571.79,466,575.83,466.13Z" fill="none" stroke="#020202" stroke-miterlimit="10" stroke-width="2"/><path d="M664.75,455.83c-3.5,0-20.17.42-22.67,2.17s-2.25,3-2.25,3.75.25,2.75.25,2.75-.25,1.25,2,1.5c.67.07,2.75.08,5.5.08" fill="none" stroke="#020202" stroke-miterlimit="10" stroke-width="2"/><path d="M669,466.17c.62,0,1.18.1,1.66.16,5.5.75,3.66-8.58,3.66-8.58s-.32-1.29-2.66-1.8a10.14,10.14,0,0,0-2.09-.2h-1c-1,0-2.31.05-3.87.11-6.31.22-16.06.83-17.92,2.13-2.5,1.75-2.25,3-2.25,3.75s.25,2.75.25,2.75-.25,1.25,2,1.5c.17,0,.43,0,.75,0,1.2,0,3.35,0,5.91,0C658.49,466,665.05,465.88,669,466.17Z" fill="none" stroke="#020202" stroke-miterlimit="10" stroke-width="2"/><path d="M551.6,507.65l.07,0c1.33.76,3.65,1.56,7.66,1.81,3.69.22,20.26.71,37.68,1.15l9.33.23c18,.43,34.61.75,36.33.62,4.5-.33,5.66-2.33,5.66-2.33l4-3.67,3.21-2.94" fill="none" stroke="#020202" stroke-miterlimit="10" stroke-width="2"/><path d="M656.16,486.08h0c-10.59.71-23.85,1.57-27.74,1.67-6.67.17-26.17-1-34.63-2a63.67,63.67,0,0,0-20.25,1.58l-.7.18c-2.58.66-5.17,1.31-7.61,1.91l-2.93.72c-5.7,1.38-9.93,2.36-9.93,2.36l-.46.12" fill="none" stroke="#020202" stroke-miterlimit="10" stroke-width="2"/><path d="M666,492.69l.31-.31c2.49-2.53,3.84-4.05,3.84-4.05s1.33-3.16.16-3.16c-.22,0-1.64.08-3.84.23l-.33,0" fill="none" stroke="#020202" stroke-miterlimit="10" stroke-width="2"/><path d="M656,493l0,0c-3.67,1.91-7,3.69-7.7,4.22-1.63,1.25-7.25,5.25-11.63,5.37s-79.12-4.79-79.12-4.79" fill="none" stroke="#020202" stroke-linecap="round" stroke-miterlimit="10" stroke-width="2"/><path d="M563,466.5a5.31,5.31,0,0,1,2.83,4.67c.17,3.5-.66,18.16-.66,18.16" fill="none" stroke="#020202" stroke-linecap="round" stroke-miterlimit="10" stroke-width="2"/><path d="M560,466.5a5.31,5.31,0,0,1,2.83,4.67c.17,3.5-.66,18.16-.66,18.16" fill="none" stroke="#020202" stroke-linecap="round" stroke-miterlimit="10" stroke-width="2"/><path d="M575.83,466.17s-2.16.5-2.33,2.16-.83,18.67-.83,18.67" fill="none" stroke="#020202" stroke-linecap="round" stroke-miterlimit="10" stroke-width="2"/><path d="M657.62,466.25s1.55,1.42,1.71,4.92-.66,28.16-.66,28.16" fill="none" stroke="#020202" stroke-linecap="round" stroke-miterlimit="10" stroke-width="2"/><path d="M653.5,466.5a5.31,5.31,0,0,1,2.83,4.67c.06,1.29,0,6-.13,11.37,0,1.15-.05,2.34-.08,3.54,0,2.36-.11,4.74-.17,6.95-.11,4.32-.21,8-.26,9.53,0,.5,0,.77,0,.77" fill="none" stroke="#020202" stroke-linecap="round" stroke-miterlimit="10" stroke-width="2"/><path d="M669,466.25a2.62,2.62,0,0,0-2,2.08c-.09.88-.31,9.28-.51,17.07-.06,2.48-.11,4.89-.16,7-.1,3.86-.16,6.62-.16,6.62a24.05,24.05,0,0,1-2.34,3.83,16.33,16.33,0,0,1-2.83,3l-8.5-.16" fill="none" stroke="#020202" stroke-linecap="round" stroke-miterlimit="10" stroke-width="2"/><polyline points="597 511 597 519.67 606.33 519.67 606.33 511.33" fill="none" stroke="#020202" stroke-miterlimit="10" stroke-width="2"/><path d="M592.5,519.83h0l4.49,0,14.42.07-.67,27.83s-.84.28-2.23.59a32.11,32.11,0,0,1-6.69.74,20.91,20.91,0,0,1-6.33-1,13,13,0,0,1-2-.78s-.62-27.5-1-27.5" fill="none" stroke="#020202" stroke-linecap="round" stroke-linejoin="round" stroke-width="2"/><path d="M608.56,548.5l-.37,21.75a15.1,15.1,0,0,1-3.74,1.1,14.73,14.73,0,0,1-2.58.23,9.17,9.17,0,0,1-1.19-.07,10.53,10.53,0,0,1-4.72-1.68s-.24-13.65-.46-21.71" fill="none" stroke="#020202" stroke-linecap="round" stroke-linejoin="round" stroke-width="2"/><path d="M559,580.54a144.8,144.8,0,0,1,41.66-9c1.28-.08,2.53-.13,3.77-.16,41.37-1.07,63.29,20,63.29,20l-.06,0a9,9,0,1,1-11.46-1A155.6,155.6,0,0,0,608.11,582" fill="none" stroke="#000" stroke-linecap="round" stroke-linejoin="round" stroke-width="2"/><path d="M549.69,594.31a9.1,9.1,0,0,1,.69,3.47,9,9,0,1,1-17.85-1.48" fill="none" stroke="#000" stroke-linecap="round" stroke-linejoin="round" stroke-width="2"/><path d="M597.74,582.18a163.39,163.39,0,0,0-27.52,3.68" fill="none" stroke="#000" stroke-linecap="round" stroke-linejoin="round" stroke-width="2"/><path d="M597.8,582.18a17.75,17.75,0,0,1,.29-5.14c1-2.08,8.29-2.42,9.85-.35A50.08,50.08,0,0,1,608,582c-.06,4.24-.24,10-.58,13.33a2.59,2.59,0,0,1,.16.88v10.89a2.77,2.77,0,0,1-2.76,2.77h-3.46a2.77,2.77,0,0,1-2.76-2.77V596.22a2.46,2.46,0,0,1,.07-.6C598.37,592.16,597.92,586.4,597.8,582.18Z" fill="none" stroke="#000" stroke-linecap="round" stroke-linejoin="round" stroke-width="2"/><line x1="599.12" y1="600.54" x2="605" y2="600.54" fill="none" stroke="#000" stroke-linecap="round" stroke-linejoin="round" stroke-width="2"/><polyline points="591.25 441.33 591.45 441.33 600.33 441.33 600.33 450 589.61 450 551.67 450 544.33 450 539 450 525 450 332.33 450 325 450 319.67 450 266.33 450 266.33 441.33 525 441.33 526.33 441.33 591.25 441.33" fill="none" stroke="#020202" stroke-miterlimit="10" stroke-width="2"/><path d="M292.59,601a144.7,144.7,0,0,1,26.68-6.25c26.2-3.24,33,6.6,33,6.6h6s.23-9.88.08-10c-15.58-11.83-26-12.66-26-12.66v-128" fill="none" stroke="#020202" stroke-miterlimit="10" stroke-width="2"/><path d="M319.67,451V579.33s-22.31,3.94-38.28,14.42L281,594v7.33s8-.08,10.5,0" fill="none" stroke="#020202" stroke-miterlimit="10" stroke-width="2"/><path d="M325,450.33v130c-6,.59-33,13.42-33,13.42H281" fill="none" stroke="#020202" stroke-miterlimit="10" stroke-width="2"/><line x1="319.67" y1="579.33" x2="325" y2="579.33" fill="none" stroke="#020202" stroke-miterlimit="10" stroke-width="2"/><path d="M291.5,601.33l.5-.16.59-.19a202.32,202.32,0,0,1,26.68-6.25c15.53-2.43,33-2.68,39,6.6" fill="none" stroke="#020202" stroke-miterlimit="10" stroke-width="2"/><polyline points="292 593.75 292 601.17 292 601.33" fill="none" stroke="#020202" stroke-miterlimit="10" stroke-width="2"/><polyline points="551.67 466.17 551.67 466.03 551.67 457.68 551.67 450.67" fill="none" stroke="#020202" stroke-miterlimit="10" stroke-width="2"/><polyline points="551.67 492.75 551.67 492.62 551.67 467.88 551.67 466.17" fill="none" stroke="#020202" stroke-miterlimit="10" stroke-width="2"/><path d="M511.92,601a144.7,144.7,0,0,1,26.68-6.25,79.7,79.7,0,0,1,11.09-.65c17.1.29,21.89,7.25,21.89,7.25h6s.24-9.88.09-10a90.91,90.91,0,0,0-7.61-5.21,65.76,65.76,0,0,0-11.07-5.5,30.19,30.19,0,0,0-7.32-2V492.75" fill="none" stroke="#020202" stroke-miterlimit="10" stroke-width="2"/><path d="M539,451V579.33s-22.31,3.94-38.28,14.42l-.39.25v7.33s8-.08,10.5,0" fill="none" stroke="#020202" stroke-miterlimit="10" stroke-width="2"/><path d="M544.33,450.33v130c-6,.59-33,13.42-33,13.42h-11" fill="none" stroke="#020202" stroke-miterlimit="10" stroke-width="2"/><line x1="539" y1="579.33" x2="544.33" y2="579.33" fill="none" stroke="#020202" stroke-miterlimit="10" stroke-width="2"/><path d="M510.83,601.33l.5-.16.59-.19a207.06,207.06,0,0,1,20.52-5.16c2-.39,4.06-.76,6.16-1.09,15.53-2.43,32.95-2.68,39,6.6" fill="none" stroke="#020202" stroke-miterlimit="10" stroke-width="2"/><polyline points="511.33 593.75 511.33 601.17 511.33 601.33" fill="none" stroke="#020202" stroke-miterlimit="10" stroke-width="2"/><line x1="525" y1="450" x2="525" y2="441.33" fill="none" stroke="#020202" stroke-miterlimit="10" stroke-width="2"/><path d="M402.75,439.25l-.25-3.5H449L468.75,394s1.25-2.38,6.5-2.25c6.25.15,75.25-.25,75.25-.25s3.5-.25,1.5,4c-1.43,3-19.25,43.25-19.25,43.25Z" fill="none" stroke="#020202" stroke-linecap="round" stroke-miterlimit="10" stroke-width="2"/><polygon points="461.17 428.33 475.67 397.5 540.5 397.5 526.17 428.67 461.17 428.33" fill="none" stroke="#020202" stroke-linecap="round" stroke-miterlimit="10" stroke-width="2"/><line x1="452.67" y1="435.83" x2="528" y2="435.83" fill="none" stroke="#020202" stroke-linecap="round" stroke-miterlimit="10" stroke-width="2"/><path d="M258.43,349.48c-1.09-.93-1.76-1.48-1.76-1.48l-.46,0c1.27-1.39,4.92-5.16,8.88-7h.58c.85.87,1.67,1.72,2.45,2.54.62.64,1.21,1.27,1.78,1.88,14.6,15.71,16.37,22.81,16.6,25.33.21,2.32-21.86,26.75-28.73,34.29l.31.29c.25,1.75.67,7.67.67,7.67s-2.8.75-4.72,1.48c-1,.38-1.78.76-1.78,1,0,.75-1.75,1.75-3.5,2.25a8,8,0,0,1-2.37.27l0-1.85c1.5,0,5.16-2.67,5.66-3.34s-.43-2.16-1.66-4.16c-1.34-2.17-3.5-6.67-3.5-6.67s-.34-1.83-2-1.33a50.25,50.25,0,0,1-6.77.82l-.9-1.24c0-.5-.25-1.25-1.75-2.25s.25-3.75.25-3.75A23.93,23.93,0,0,1,239,390.5c1.5-1.25,6.75,1.25,8.25,1.5.79.13,2.71,2.65,4.46,4.76a0,0,0,0,0,0,0c1.54,1.87,2.94,3.42,3.29,2.72.75-1.5,24.37-26.12,20.75-32.25-2.81-4.76-10.77-12.07-15.48-16.18C259.58,350.46,259,349.93,258.43,349.48Z" fill="#edd7b9"/><path d="M277.8,586.51c.19,2.48,0,4.79-.88,5.82-2.17,2.5-11.5,10.84-24,7.34l-.34,4h-24l-1.16-7.84,17.83-.5a111.44,111.44,0,0,1,11.33,2c4.5,1.17,14.17-3.66,16.17-5C274.52,591.16,277.19,587.38,277.8,586.51Z" fill="#191919"/><path d="M277.8,586.51c-.61.87-3.28,4.65-5.05,5.82-2,1.34-11.67,6.17-16.17,5a111.44,111.44,0,0,0-11.33-2c.67-.66-.33-4.16-.33-4.16l-2.5-.06c1,0,1.75-.07,2.08-.11,1.75-.25,1.25-4,1.25-4l-.16-2.44c.33.29,5.24.43,6.49.27s4.34-6.83,9.84-7.83,12.16-.33,13.66,1.17C276.47,579.06,277.53,583,277.8,586.51Z" fill="#725533"/><path d="M245.23,341.31a4.45,4.45,0,0,1,.52-2.56c.71-.89,7.19-5.41,10.91-8l2.59-1.78s3-.5,4,.75,3,5,4.75,5.75,5.75,2.75,5.75,2.75,1.17,1.92.33,3.08a31.52,31.52,0,0,1-4,3.92l-.18.17c-.57-.61-1.16-1.24-1.78-1.88l.05,0s4.91-3.92.33-3.5a10.49,10.49,0,0,0-3.41,1c-4,1.83-7.61,5.6-8.88,7l-.46.52s-2.16,3.19,2.68,1c.52.45,1.15,1,1.84,1.59-.83.85-3.87,3.48-7.27.93a41.22,41.22,0,0,1-7.5-8A18.08,18.08,0,0,1,245.23,341.31Z" fill="#efc2b9"/><path d="M268.5,340c4.58-.42-.33,3.5-.33,3.5l-.05,0c-.78-.82-1.6-1.67-2.45-2.54h-.58A10.49,10.49,0,0,1,268.5,340Z" fill="#efc2b9"/><path d="M256.67,348s.67.55,1.76,1.48c-4.84,2.21-2.68-1-2.68-1l.46-.52Z" fill="#efc2b9"/><path d="M186.35,403.87a63.77,63.77,0,0,0,1.34-11.54,21.62,21.62,0,0,1,2.35-7.77,67.19,67.19,0,0,1,5.71-9.56c2.83-6-3.67-28.17-3.67-28.17s-7,.67-11.66-12a37.53,37.53,0,0,1-2-8.16h0c-4.17,3-7.34,9.33-7.34,9.33s3.67,3,4.67,4.67-.67,4-.67,4-3,5-4.33,7-2,3-5,2a12.93,12.93,0,0,1-2.59-1.38,71.77,71.77,0,0,1-8-6.35c-1.46-1.31-2.77-2.58-3.7-3.61-3.34-3.66-1.67-9.33-1.67-9.33s2.67-6.67,4-8,5.33,1,5.33,1,15-16.83,16.67-17.67,12.73-5.72,14.19-6.19a41.69,41.69,0,0,1-1.44,4.11s1.25,3.5,10.25,4.75,24.5-1.75,24.5-1.75,4-.75,3.75-3a4.84,4.84,0,0,0-.84-1.9l.26-.18c.5-.17,6.33,1.5,6.33,1.5a6.32,6.32,0,0,1,3.17,1.83c1,1.33,20.16,22,20.66,23.17l.08.11c-3.72,2.56-10.2,7.08-10.91,8a4.45,4.45,0,0,0-.52,2.56,113.87,113.87,0,0,0-8.8-8c.23.27,3.82,4.59,3.82,7.83s-.67,5.66-2.33,6.66c0,0,5.08,16.67,7.58,23.42,2.33,6.3,5.76,23.29,6.21,25.51-1.75-2.11-3.67-4.63-4.46-4.76-1.5-.25-6.75-2.75-8.25-1.5a23.93,23.93,0,0,0-3.25,3.75S234,397,235.5,398l-.5,3.5s-.25.5.5,2.5,6.25,13,7.75,13.5a11.18,11.18,0,0,0,3.13.52,8,8,0,0,0,2.37-.27c1.75-.5,3.5-1.5,3.5-2.25,0-.26.77-.64,1.78-1l1,0s2.09,9.7,0,8.67-6.68,1.29-9.77,1.55l-5.8.46c-5.81.46-15.15,1.16-26.58,1.85a109.61,109.61,0,0,1-18.08-.46c-8.29-.88-14.14-2.41-15.08-2.88-1.54-.77.26-3.09-.26-5.14s4.12-5.66,5.66-10.28A45.3,45.3,0,0,0,186.35,403.87Z" fill="#efc2b9"/><path d="M238.15,401.49a50.25,50.25,0,0,0,6.77-.82c1.66-.5,2,1.33,2,1.33s2.16,4.5,3.5,6.67c1.23,2,2.16,3.5,1.66,4.16s-4.16,3.34-5.66,3.34l0,1.85a11.18,11.18,0,0,1-3.13-.52c-1.5-.5-7-11.5-7.75-13.5s-.5-2.5-.5-2.5l.5-3.5c1.5,1,1.75,1.75,1.75,2.25Z" fill="#edd7b9"/><path d="M245.59,584.56l.16,2.44s.5,3.75-1.25,4c-.33,0-1.08.08-2.08.11-3.59.12-10.41.14-12.67.14H229s-.5-15.25,0-16.75a1.37,1.37,0,0,1,1.14-.93c3.64,1.18,13.24,1.24,13.24,1.24v0c1.33.21,1.61.74,1.61.74Z" fill="#496672"/><path d="M244.92,591.17s1,3.5.33,4.16l-17.83.5,1.83-1.16.5-3v-.42c2.26,0,9.08,0,12.67-.14Z" fill="#725533"/><path d="M229.78,440.82c-5.88,1.65-13.11,1.83-17.69,1.73V443c-14.63,55.12-2.21,121.3-.52,129.76l-11,.36-2.81-.12s-7-86.67,3.33-126.67c0,0-6.33-17-6.33-19.33l.05-.43a109.61,109.61,0,0,0,18.08.46c11.43-.69,20.77-1.39,26.58-1.85.87,3.66,14.39,62.9,2.29,149.49a8.65,8.65,0,0,1,1.64.09v0s-9.6-.06-13.24-1.24a3.89,3.89,0,0,1,1.61.1C240.5,506,230.35,444.25,229.78,440.82Z" fill="#496672"/><path d="M189.94,302.14a17.53,17.53,0,0,0,.66-3.11h.06c-.23,1.08.83,1.73,3.59,2l1.46.11c2.46.16,6.75.38,10.54.44a37.47,37.47,0,0,0,7.25-.3c2.75-.75,5.75-2.75,6.75-2.75.78,0,4.26,3.31,5.91,5.85a4.84,4.84,0,0,1,.84,1.9c.25,2.25-3.75,3-3.75,3s-15.5,3-24.5,1.75-10.25-4.75-10.25-4.75A41.69,41.69,0,0,0,189.94,302.14Z" fill="#efc2b9"/><path d="M213.11,241.06l1.64-.56s2,0,2.75.75,4.5,5.5,5.25,9,.75,9.25.25,10.25-2.5,1.25-2.5,1.25L214.75,263l-.57.1a90.14,90.14,0,0,0-6.09-20.29l.33-.14Z" fill="#494949"/><path d="M211.56,572.76h.19a4.45,4.45,0,0,1,2.75.75s2,12.75,2.5,13.75c.21.42-.28.87-.91,1.26a12.65,12.65,0,0,1-2.09,1s-13.5,1-14.25,1a5.48,5.48,0,0,1-2-.75s-.85-4.68-1.61-9c-.54-3.06-1-5.94-1.14-6.77-.25-2,2.75-1,2.75-1l2.81.12Z" fill="#496672"/><path d="M216.88,596.75s1.5,5.37-1.38,6.25-17.38-.75-17.38-.75c-.5-1.82.22-3.8,0-4.17,4.38-.5,17.15-1.21,17.15-1.21Z" fill="#191919"/><path d="M216.25,588.75c1,3.62-1,8.12-1,8.12s-12.77.71-17.15,1.21c0-.08-.16-.08-.35,0a5.81,5.81,0,0,1-5.78-2.88l-.09-.12c-.76-.75-2.63-6.87-2-10,.57-2.86,5.46-4.15,6.26-4.35.76,4.3,1.61,9,1.61,9a5.48,5.48,0,0,0,2,.75c.75,0,14.25-1,14.25-1a12.65,12.65,0,0,0,2.09-1Z" fill="#725533"/><path d="M207,293.67c0,3.07,0,6.58-.78,7.7v.18c-3.79-.06-8.08-.28-10.54-.44l0-.44s-.17-1-.51-2.72c-1.15-5.81-4.16-19.81-8.6-30.95a7.21,7.21,0,0,0,5.44-1.33s2.34-1.34,2.34-3,.33-12.67,3.33-12.67c1.79,0,3.82,2,5.16,3.65a3.32,3.32,0,0,0-2.66,1.1c-.75,1,2.25,4.75,2.25,4.75,1.25,2,4.75,17.75,4.75,19s2.5,1,3.25.5-1-3.75-1-3.75-1.75-8.25-2.5-10-2-10.5-3-11.25l0,0c-1.14-4.26-3.88-15.31-2.54-18a2.88,2.88,0,0,1,2.63-1.79l0,.46s1.15,1.94,2.71,5.25c.41.87.84,1.84,1.3,2.89a90.14,90.14,0,0,1,6.09,20.29,63.61,63.61,0,0,1,.9,9.57c.34,20-1.66,24-1.66,24s-4.34-1.34-6-3Z" fill="#edd7b9"/><path d="M213.11,241.06l-4.69,1.61-.33.14c-.46-1.05-.89-2-1.3-2.89l.59,0a4.63,4.63,0,0,1,2.24-1S212.8,239.36,213.11,241.06Z" fill="#494949"/><path d="M204.41,255.64c0-.15-.21-.75-.45-1.66l0,0c1,.75,2.25,9.5,3,11.25s2.5,10,2.5,10,1.75,3.25,1,3.75-3.25.75-3.25-.5-3.5-17-4.75-19c0,0-3-3.75-2.25-4.75a3.32,3.32,0,0,1,2.66-1.1C203.74,254.64,204.3,255.49,204.41,255.64Z" fill="#edd7b9"/><path d="M186.64,267a7.25,7.25,0,0,1-2.56-1c-3.52-2.17-8.14-13.57-9.75-17.77l.34-.15c2.41.59,3.33-3.58,3.58-5.33s-3-5.25-3-5.25-2.25-2.5-4.5-2.75a2.47,2.47,0,0,0-1.63.37l0-.06c-.52-3-1.08-9.64,2.67-14.39,5-6.34,10.67-8,11.67-8.67s14,2,21,5,2.66,16.67,2.66,16.67l-3,.54h-.08a2.88,2.88,0,0,0-2.63,1.79c-1.34,2.67,1.4,13.72,2.54,18a1.92,1.92,0,0,0-1.05-.33c-1.34-1.63-3.37-3.65-5.16-3.65-3,0-3.33,11-3.33,12.67s-2.34,3-2.34,3A7.21,7.21,0,0,1,186.64,267Z" fill="#543919"/><path d="M192,595.24a5.81,5.81,0,0,0,5.78,2.88c-3.42,2.14-8.13.38-8.13.38V596S192.3,595.88,192,595.24Z" fill="#191919"/><path d="M195.75,300.67l0,.44-1.46-.11c-2.76-.23-3.82-.88-3.59-2a1.9,1.9,0,0,1,.09-.29c.5-1.25,4.25-.75,4.25-.75l.24-.05C195.58,299.67,195.75,300.67,195.75,300.67Z" fill="#edd7b9"/><path d="M180.05,386.85l.87,0s1.66-3.5,3.66-3.33a45.26,45.26,0,0,1,5.34,1l.12.06a21.62,21.62,0,0,0-2.35,7.77,63.77,63.77,0,0,1-1.34,11.54c-.72,0-3.35-.25-3.35-.25s-1.92-3.45-2.92-4.79-.16-6.33-.16-6.33l.12-.34c-2.43-1.55-15.8-10.53-21.13-15.61-5.68-5.41-8.93-11-8.66-13.94S155,346.5,155,346.5l.13-.56a71.77,71.77,0,0,0,8,6.35l-.46,1s-4.2,11.1-4.6,11.64S167,376.15,168,377.77C168.78,379.15,177.39,385,180.05,386.85Z" fill="#edd7b9"/><path d="M168.45,240.05l0,.24a16.35,16.35,0,0,1-1,2.3l-.16-.09c-.75-.5-.75-2.5-.75-2.5l1.25-3a3.8,3.8,0,0,1,1.37-1.88,2.47,2.47,0,0,1,1.63-.37c2.25.25,4.5,2.75,4.5,2.75s3.25,3.5,3,5.25-1.17,5.92-3.58,5.33l-.34.15c-.37-1-.58-1.56-.58-1.56h-.25A4.74,4.74,0,0,1,174,246V245a6.18,6.18,0,0,0-2-3.75A8.41,8.41,0,0,0,168.45,240.05Z" fill="#ef8573"/><path d="M171.08,260.33c1.34,1.34,6.67,13.34,5.67,21.34-.67,5.32-8,7.55-11.61,8.44,2.3-2.2,1-10.43-5.06-14.44-7-4.67-11.66-18.34-11.66-23s14.33-7,17-8a4.38,4.38,0,0,0,2-2.08,16.35,16.35,0,0,0,1-2.3l0-.24a8.41,8.41,0,0,1,3.55,1.2,6.18,6.18,0,0,1,2,3.75V246a4.74,4.74,0,0,0-.49.72C171.51,250.14,170,259.26,171.08,260.33Z" fill="#543919"/><path d="M194.75,427c0,2.33,6.33,19.33,6.33,19.33-10.33,40-3.33,126.67-3.33,126.67s-3-1-2.75,1c.1.83.6,3.71,1.14,6.77.76,4.3,1.61,9,1.61,9a5.48,5.48,0,0,0,2,.75c.75,0,14.25-1,14.25-1a12.65,12.65,0,0,0,2.09-1c.63-.39,1.12-.84.91-1.26-.5-1-2.5-13.75-2.5-13.75a4.45,4.45,0,0,0-2.75-.75h-.19l-11,.36" fill="none" stroke="#020202" stroke-linecap="round" stroke-linejoin="round" stroke-width="2"/><path d="M211.75,573.67s-.07-.31-.19-.91c-1.69-8.46-14.11-74.64.52-129.76" fill="none" stroke="#020202" stroke-linecap="round" stroke-linejoin="round" stroke-width="2"/><path d="M229.75,440.67l0,.15c.57,3.43,10.72,65.15,2,132.85a3.89,3.89,0,0,0-1.61-.1,1.37,1.37,0,0,0-1.14.93c-.5,1.5,0,16.75,0,16.75h.75c2.26,0,9.08,0,12.67-.14,1,0,1.75-.07,2.08-.11,1.75-.25,1.25-4,1.25-4l-.16-2.44L245,575.5s-.28-.53-1.61-.74a8.65,8.65,0,0,0-1.64-.09c12.1-86.59-1.42-145.83-2.29-149.49,0-.12,0-.18,0-.18" fill="none" stroke="#020202" stroke-miterlimit="10" stroke-width="2"/><path d="M178.42,326.67c-4.17,3-7.34,9.33-7.34,9.33s3.67,3,4.67,4.67-.67,4-.67,4-3,5-4.33,7-2,3-5,2a12.93,12.93,0,0,1-2.59-1.38,71.77,71.77,0,0,1-8-6.35c-1.46-1.31-2.77-2.58-3.7-3.61-3.34-3.66-1.67-9.33-1.67-9.33s2.67-6.67,4-8,5.33,1,5.33,1,15-16.83,16.67-17.67,12.73-5.72,14.19-6.19l.06,0" fill="none" stroke="#020202" stroke-miterlimit="10" stroke-width="2"/><path d="M170.92,340.17s-11.17-6-13.34-10.17" fill="none" stroke="#020202" stroke-linecap="round" stroke-miterlimit="10" stroke-width="2"/><path d="M155,346.5s-4.47,13.13-4.74,16.11,3,8.53,8.66,13.94c5.33,5.08,18.7,14.06,21.13,15.61l.34.21" fill="none" stroke="#020202" stroke-linecap="round" stroke-miterlimit="10" stroke-width="2"/><path d="M162.7,353.27s-4.2,11.1-4.6,11.64S167,376.15,168,377.77c.8,1.38,9.41,7.27,12.07,9.08l.79.53" fill="none" stroke="#020202" stroke-linecap="round" stroke-miterlimit="10" stroke-width="2"/><path d="M204.08,234.67s1.15,1.94,2.71,5.25c.41.87.84,1.84,1.3,2.89a90.14,90.14,0,0,1,6.09,20.29,63.61,63.61,0,0,1,.9,9.57c.34,20-1.66,24-1.66,24s-4.34-1.34-6-3" fill="none" stroke="#020202" stroke-linecap="round" stroke-miterlimit="10" stroke-width="2"/><path d="M207.08,288.67a40.09,40.09,0,0,0-.05,5c0,3.07,0,6.58-.78,7.7" fill="none" stroke="#020202" stroke-linecap="round" stroke-miterlimit="10" stroke-width="2"/><path d="M195.75,300.67s-.17-1-.51-2.72c-1.15-5.81-4.16-19.81-8.6-30.95l0-.08" fill="none" stroke="#020202" stroke-linecap="round" stroke-miterlimit="10" stroke-width="2"/><path d="M165.14,290.11c3.63-.89,10.94-3.12,11.61-8.44,1-8-4.33-20-5.67-21.34-1.07-1.07.43-10.19,2.42-13.66A4.74,4.74,0,0,1,174,246" fill="none" stroke="#020202" stroke-linecap="round" stroke-linejoin="round" stroke-width="2"/><path d="M165.14,290.11a1.94,1.94,0,0,1-1.39.56C162.41,290.67,163.31,290.56,165.14,290.11Z" fill="none" stroke="#020202" stroke-linecap="round" stroke-linejoin="round" stroke-width="2"/><path d="M168.42,240.29a16.35,16.35,0,0,1-1,2.3,4.38,4.38,0,0,1-2,2.08c-2.67,1-17,3.33-17,8s4.66,18.33,11.66,23c6,4,7.36,12.24,5.06,14.44" fill="none" stroke="#020202" stroke-linecap="round" stroke-linejoin="round" stroke-width="2"/><path d="M207.08,233.67S211.42,220,204.42,217s-20-5.67-21-5-6.67,2.33-11.67,8.67c-3.75,4.75-3.19,11.37-2.67,14.39" fill="none" stroke="#020202" stroke-linecap="round" stroke-linejoin="round" stroke-width="2"/><path d="M204.41,255.64c0-.15-.21-.75-.45-1.66-1.14-4.26-3.88-15.31-2.54-18a2.88,2.88,0,0,1,2.63-1.79h.08a5.59,5.59,0,0,1,2.62.79" fill="none" stroke="#020202" stroke-linecap="round" stroke-miterlimit="10" stroke-width="2"/><path d="M173.75,246.67s.21.59.58,1.56c1.61,4.2,6.23,15.6,9.75,17.77a7,7,0,0,0,8-.33s2.34-1.34,2.34-3,.33-12.67,3.33-12.67c1.79,0,3.82,2,5.16,3.65.83,1,1.39,1.84,1.5,2v0" fill="none" stroke="#020202" stroke-linecap="round" stroke-miterlimit="10" stroke-width="2"/><path d="M174.67,248.08c2.41.59,3.33-3.58,3.58-5.33s-3-5.25-3-5.25-2.25-2.5-4.5-2.75a2.47,2.47,0,0,0-1.63.37,3.8,3.8,0,0,0-1.37,1.88l-1.25,3s0,2,.75,2.5" fill="none" stroke="#020202" stroke-linecap="round" stroke-miterlimit="10" stroke-width="2"/><path d="M168,240l.45.05a8.41,8.41,0,0,1,3.55,1.2,6.18,6.18,0,0,1,2,3.75" fill="none" stroke="#020202" stroke-linecap="round" stroke-miterlimit="10" stroke-width="2"/><path d="M208.42,242.67l4.69-1.61,1.64-.56s2,0,2.75.75,4.5,5.5,5.25,9,.75,9.25.25,10.25-2.5,1.25-2.5,1.25L214.75,263" fill="none" stroke="#020202" stroke-linecap="round" stroke-linejoin="round" stroke-width="2"/><path d="M199.25,260.75s1.25-.5,1.75-3" fill="none" stroke="#020202" stroke-linecap="round" stroke-linejoin="round" stroke-width="2"/><path d="M203.5,274s2.5,0,3,2" fill="none" stroke="#020202" stroke-linecap="round" stroke-linejoin="round" stroke-width="2"/><path d="M204,254l0,0c1,.75,2.25,9.5,3,11.25s2.5,10,2.5,10,1.75,3.25,1,3.75-3.25.75-3.25-.5-3.5-17-4.75-19c0,0-3-3.75-2.25-4.75a3.32,3.32,0,0,1,2.66-1.1A1.92,1.92,0,0,1,204,254Z" fill="none" stroke="#020202" stroke-linecap="round" stroke-linejoin="round" stroke-width="2"/><path d="M195,298s-3.75-.5-4.25.75a1.9,1.9,0,0,0-.09.29c-.23,1.08.83,1.73,3.59,2l1.46.11c2.46.16,6.75.38,10.54.44a37.47,37.47,0,0,0,7.25-.3c2.75-.75,5.75-2.75,6.75-2.75.78,0,4.26,3.31,5.91,5.85a4.84,4.84,0,0,1,.84,1.9c.25,2.25-3.75,3-3.75,3s-15.5,3-24.5,1.75-10.25-4.75-10.25-4.75a41.69,41.69,0,0,0,1.44-4.11,17.53,17.53,0,0,0,.66-3.11,1,1,0,0,0,0-.16" fill="none" stroke="#020202" stroke-miterlimit="10" stroke-width="2"/><path d="M226.42,304.17c.5-.17,6.33,1.5,6.33,1.5a6.32,6.32,0,0,1,3.17,1.83c1,1.33,20.16,22,20.66,23.17" fill="none" stroke="#020202" stroke-linecap="round" stroke-miterlimit="10" stroke-width="2"/><path d="M236.42,333.33a27,27,0,0,0-5.84-3.33" fill="none" stroke="#020202" stroke-linecap="round" stroke-miterlimit="10" stroke-width="2"/><path d="M245.25,341.33l0,0a113.87,113.87,0,0,0-8.8-8" fill="none" stroke="#020202" stroke-linecap="round" stroke-miterlimit="10" stroke-width="2"/><path d="M232.92,327.5s-5,3-5,5.67" fill="none" stroke="#020202" stroke-linecap="round" stroke-miterlimit="10" stroke-width="2"/><path d="M178.64,314.11a45.43,45.43,0,0,0-.2,12.56,37.53,37.53,0,0,0,2,8.16c4.66,12.67,11.66,12,11.66,12s6.5,22.17,3.67,28.17a67.19,67.19,0,0,0-5.71,9.56,21.62,21.62,0,0,0-2.35,7.77,63.77,63.77,0,0,1-1.34,11.54,45.3,45.3,0,0,1-1.23,4.4c-1.54,4.62-6.17,8.22-5.66,10.28s-1.28,4.37.26,5.14c.94.47,6.79,2,15.08,2.88a109.61,109.61,0,0,0,18.08.46c11.43-.69,20.77-1.39,26.58-1.85l5.8-.46c3.09-.26,7.71-2.57,9.77-1.55s0-8.67,0-8.67" fill="none" stroke="#020202" stroke-linecap="round" stroke-miterlimit="10" stroke-width="2"/><path d="M251.71,396.78c0,.15,0,.22,0,.22" fill="none" stroke="#020202" stroke-miterlimit="10" stroke-width="2"/><path d="M236.43,333.34c.23.27,3.82,4.59,3.82,7.83s-.67,5.66-2.33,6.66c0,0,5.08,16.67,7.58,23.42,2.33,6.3,5.76,23.29,6.21,25.51" fill="none" stroke="#020202" stroke-miterlimit="10" stroke-width="2"/><path d="M236.42,333.33h0" fill="none" stroke="#020202" stroke-linecap="round" stroke-miterlimit="10" stroke-width="2"/><path d="M270.08,345.25a31.52,31.52,0,0,0,4-3.92c.84-1.16-.33-3.08-.33-3.08s-4-2-5.75-2.75-3.75-4.5-4.75-5.75-4-.75-4-.75l-2.59,1.78c-3.72,2.56-10.2,7.08-10.91,8a4.45,4.45,0,0,0-.52,2.56,18.08,18.08,0,0,0,.27,2.69,41.22,41.22,0,0,0,7.5,8c3.4,2.55,6.44-.08,7.27-.93l.23-.24" fill="none" stroke="#020202" stroke-miterlimit="10" stroke-width="2"/><path d="M268.17,343.5s4.91-3.92.33-3.5a10.49,10.49,0,0,0-3.41,1c-4,1.83-7.61,5.6-8.88,7l-.46.52s-2.16,3.19,2.68,1l.32-.15" fill="none" stroke="#020202" stroke-miterlimit="10" stroke-width="2"/><path d="M256.67,348s.67.55,1.76,1.48c.52.45,1.15,1,1.84,1.59,4.71,4.11,12.67,11.42,15.48,16.18,3.62,6.13-20,30.75-20.75,32.25-.35.7-1.75-.85-3.29-2.72a0,0,0,0,1,0,0c-1.75-2.11-3.67-4.63-4.46-4.76-1.5-.25-6.75-2.75-8.25-1.5a23.93,23.93,0,0,0-3.25,3.75S234,397,235.5,398s1.75,1.75,1.75,2.25" fill="none" stroke="#020202" stroke-miterlimit="10" stroke-width="2"/><path d="M235.5,398l-.5,3.5s-.25.5.5,2.5,6.25,13,7.75,13.5a11.18,11.18,0,0,0,3.13.52,8,8,0,0,0,2.37-.27c1.75-.5,3.5-1.5,3.5-2.25,0-.26.77-.64,1.78-1,1.92-.73,4.72-1.48,4.72-1.48s-.42-5.92-.67-7.67" fill="none" stroke="#020202" stroke-linecap="round" stroke-miterlimit="10" stroke-width="2"/><path d="M255.75,407.25l2-2.21c6.87-7.54,28.94-32,28.73-34.29-.23-2.52-2-9.62-16.6-25.33-.57-.61-1.16-1.24-1.78-1.88-.78-.82-1.6-1.67-2.45-2.54" fill="none" stroke="#020202" stroke-linecap="round" stroke-miterlimit="10" stroke-width="2"/><path d="M237.92,401.5h.23a50.25,50.25,0,0,0,6.77-.82c1.66-.5,2,1.33,2,1.33s2.16,4.5,3.5,6.67c1.23,2,2.16,3.5,1.66,4.16s-4.16,3.34-5.66,3.34" fill="none" stroke="#020202" stroke-linecap="round" stroke-miterlimit="10" stroke-width="2"/><path d="M180.92,386.83s1.66-3.5,3.66-3.33a45.26,45.26,0,0,1,5.34,1" fill="none" stroke="#020202" stroke-linecap="round" stroke-miterlimit="10" stroke-width="2"/><path d="M179.92,392.5s-.84,5,.16,6.33,2.92,4.79,2.92,4.79,2.63.24,3.35.25h0" fill="none" stroke="#020202" stroke-linecap="round" stroke-miterlimit="10" stroke-width="2"/><path d="M245.58,584.5s0,0,0,.06c.33.29,5.24.43,6.49.27s4.34-6.83,9.84-7.83,12.16-.33,13.66,1.17c.89.89,1.95,4.78,2.22,8.34.19,2.48,0,4.79-.88,5.82-2.17,2.5-11.5,10.84-24,7.34l-.34,4h-24l-1.16-7.84,1.83-1.16.5-3" fill="none" stroke="#020202" stroke-linecap="round" stroke-miterlimit="10" stroke-width="2"/><path d="M227.42,595.83l17.83-.5c.67-.66-.33-4.16-.33-4.16" fill="none" stroke="#020202" stroke-linecap="round" stroke-miterlimit="10" stroke-width="2"/><path d="M277.92,586.33l-.12.18c-.61.87-3.28,4.65-5.05,5.82-2,1.34-11.67,6.17-16.17,5a111.44,111.44,0,0,0-11.33-2" fill="none" stroke="#020202" stroke-linecap="round" stroke-miterlimit="10" stroke-width="2"/><path d="M230.12,573.56h0c3.64,1.18,13.24,1.24,13.24,1.24" fill="none" stroke="#020202" stroke-linecap="round" stroke-miterlimit="10" stroke-width="2"/><path d="M192,595.24c.33.64-2.35.76-2.35.76v2.5s4.71,1.76,8.13-.38c.19-.12.3-.12.35,0,.24.37-.48,2.35,0,4.17,0,0,14.5,1.62,17.38.75s1.38-6.25,1.38-6.25l-1.63.12s2-4.5,1-8.12" fill="none" stroke="#020202" stroke-linecap="round" stroke-linejoin="round" stroke-width="2"/><path d="M196.25,580.75l-.11,0c-.8.2-5.69,1.49-6.26,4.35-.63,3.13,1.24,9.25,2,10" fill="none" stroke="#020202" stroke-linecap="round" stroke-linejoin="round" stroke-width="2"/><path d="M191.88,595.12l.09.12a5.81,5.81,0,0,0,5.78,2.88l.35,0c4.38-.5,17.15-1.21,17.15-1.21" fill="none" stroke="#020202" stroke-linecap="round" stroke-linejoin="round" stroke-width="2"/><path d="M207.58,442.33s1.78.16,4.51.22c4.58.1,11.81-.08,17.69-1.73a21.11,21.11,0,0,0,5.47-2.32" fill="none" stroke="#020202" stroke-linecap="round" stroke-linejoin="round" stroke-width="2"/><path d="M207.38,239.87a4.63,4.63,0,0,1,2.24-1s3.18.49,3.49,2.19c0,0,0,0,0,.06" fill="none" stroke="#000" stroke-linecap="round" stroke-linejoin="round" stroke-width="2"/></svg>