<svg id="7a5dc365-cf6b-4a5e-a9c1-7dd2d28a3e87" data-name="a369894f-5f65-42d2-a76d-2a5f188f371b" xmlns="http://www.w3.org/2000/svg" width="1025" height="507.8" viewBox="0 0 1025 507.8"><title>brainstorm_p1-active</title><path d="M27.38,284.25l0,.05h0l0,0Z" fill="#f15a24"/><path d="M134.14,224a.94.94,0,0,1,0-.11h0V224Z" fill="#f15a24"/><path d="M60.12,360a1,1,0,0,1-.25-1.11c-.47-1.67-1-3.36-1.65-5-.19,4.17-.45,7.56-.79,10.48l4.16-.65a5.36,5.36,0,0,1-1.39-2.92C60.19,360.56,60.16,360.29,60.12,360Z" fill="#f15a24"/><path d="M165.19,458.28c-3.36-2.73-8.88-7.6-10.54-12.67a8.52,8.52,0,0,1,0-4.84,1,1,0,0,1,0-.45c.18-.61.36-1.25.54-1.91,1.38-4.9,3.09-11,7.33-14a7.63,7.63,0,0,1,1.59-.84,1,1,0,0,1,.08-.36l5.2-11.5a1,1,0,0,1,.16-.25,11,11,0,0,1,6-3.52c3.55-5.47,12.25-19.1,13.19-21.67a187.44,187.44,0,0,0,6.46-22.08,1,1,0,0,1,.27-.46c-.5-.39-1.61-.58-4.57-.17l.56,2.65a1,1,0,0,1-.82,1.19c-.49.08-48.64,8-65.94,9.9.24,2.56,1.92,20.77,2.15,24.85a7.83,7.83,0,0,0,.93,0,1,1,0,0,1,1.09,1.09,113,113,0,0,1-13.66,44.29A212,212,0,0,1,165.19,458.28Zm-42.9-15.84.59-1.26c.22-.49.44-1,.66-1.49s.37-.85.55-1.27.41-1,.62-1.5.35-.85.52-1.28.39-1,.58-1.51.33-.86.49-1.29.36-1,.54-1.53.31-.87.45-1.3.34-1,.5-1.54.28-.87.42-1.31.31-1,.46-1.56.26-.87.38-1.31.28-1.06.42-1.59.24-.87.35-1.31.26-1.08.39-1.61.21-.87.31-1.3.24-1.1.35-1.65.19-.86.27-1.29.22-1.15.32-1.72c.08-.41.16-.82.23-1.24.1-.61.2-1.22.29-1.83.06-.38.13-.76.18-1.15.1-.66.18-1.33.27-2,0-.34.09-.67.13-1q.18-1.5.32-3a5,5,0,0,0-2.13-4.56c-.38-4.77-1.09-12.7-1.59-18.11,17.19-2.15,50.67-7.57,59.91-9.08-1.23,4.41-2.62,8.78-4.16,13.06-.71,1.8-6.56,11.24-12,19.59a15,15,0,0,0-6.51,4.34,5,5,0,0,0-.79,1.23l-4.81,10.65c-.2.12-.39.25-.59.38-.34.25-.67.52-1,.79-4.68,3.93-6.47,10.29-7.92,15.46-.18.64-.36,1.27-.53,1.86a5,5,0,0,0-.19,1,12.43,12.43,0,0,0-.14,5.12,14.32,14.32,0,0,0,.25,1.42c0,.13.06.25.1.37a17.43,17.43,0,0,0,1.3,3,210.14,210.14,0,0,0-30.63-6l.08-.18C121.83,443.43,122.06,442.93,122.29,442.44Z" fill="#f15a24"/><path d="M118.94,402.8l-.71-.15v0l.72.15Z" fill="#f15a24"/><path d="M246.71,274.94l-2.3-4.3a5,5,0,0,0-5.88-2.42l-7.95,2.45c-1-2.48-3.31-3.82-4.71-4.62l-.63-.36c-3.39-2-6.9-1.24-8.58-.88-2.25.48-4.38,2.26-4.78,5.79l-1.27.6-21.34-27.75a5,5,0,0,0-6.77-1.09l-3.1,2.1a5,5,0,0,0-1.19,7.15l16.24,21.55c-1.7,1.2-3.42,3.32-5.89,6.38-.74.92-1.65,2-2.09,2.51a8.07,8.07,0,0,0-1.53,1.83l-55-.27-4-2.8a5,5,0,0,0-.65-5.09l-9-11.48c7.06-7.18,23.88-24.37,28.32-29.68.63-.26,1.62-.64,2.34-.91a36.16,36.16,0,0,0,5.42-2.35c.12-.07,12.1-7.88,13.75-11.88a5,5,0,0,0,.24-.76,12.18,12.18,0,0,0,.27-3.71l1-1.09a5,5,0,0,0,1.22-2.56l2.5-15.7a5,5,0,0,0,.06-.91c0-.1,0-.2,0-.3s0-.33,0-.49l0-.19v-.05a7.83,7.83,0,0,0-3.53-5.36,5.79,5.79,0,0,0-4.93-.34c-.3.11-.62.21-.93.31s-.76.23-1.25.43c-4-2.84-6.91-.72-7.51-.22l-.22.17a14.15,14.15,0,0,0-2,1.76,7.72,7.72,0,0,0-4.35-.64,7.54,7.54,0,0,0-5.94,3.93,6,6,0,0,0-.69,2.4c-.05.77,0,2.15,0,4.2a6.31,6.31,0,0,0-1.13-.22l-.15,0c-.75-.07-7.22-.58-10.88,2.49a6.81,6.81,0,0,0-2.47,4.69,8.19,8.19,0,0,0,2.05,6.3,7.68,7.68,0,0,0,.58.57c0,.67-.07,1.41-.13,2.09,0,.07,0,.15,0,.22a57.45,57.45,0,0,0,.22,8.11,5,5,0,0,0,.17.86c0,.2.06.4.1.59s0,.24.06.36.11.43.16.64,0,.2.08.3q.14.46.32.91c-3.05,4.71-14.45,17.21-22.28,23.81l-4.53-5.75c-2-2.78-3.93-5.85-4.91-7.65a9.47,9.47,0,0,0-.62-7.59c-1.08-2.17-3.94-4.56-10.69-9.91-1.74-1.38-3.39-2.69-4.54-3.67A19.26,19.26,0,0,0,77.6,215a50.56,50.56,0,0,0-9-3.39l0-.82a5,5,0,0,0,0-.93h.15c1.91,0,3.79-.1,5.57-.19l1.69-.09c5.65-.18,7.54-3,9.27-6.29a4.9,4.9,0,0,0,.28-.64A25,25,0,0,1,87,199.42,5.21,5.21,0,0,0,85.54,193c-.12-.09-.25-.17-.37-.25,0-.38,0-.75-.07-1.1a5.29,5.29,0,0,0,.93-3.9l-.12-.74c1.93-.36,3.73-.84,5.25-1.24,1.1-.29,2.15-.57,2.69-.65,3.17-.48,6-3.35,7.55-7.68a23.3,23.3,0,0,0,.5-13.06A32.71,32.71,0,0,0,94,150c-8.92-10-23.75-17.62-33.33-21.82-1.4-3.86-5.09-13.14-12.13-12-3.59.6-16.75,5.07-21,7.31-2.64,1.39-14.22,11.4-18.16,19.2a10.24,10.24,0,0,0-1.41,5,6.65,6.65,0,0,0,3.37,5.63,8.53,8.53,0,0,0,5.85.67c2.26,7.35,6.77,21.12,12.17,32.41a5,5,0,0,0,.42.69,59.61,59.61,0,0,0,6.66,11.22c-.19.49-.41,1-.65,1.61-13.46-1.25-18.63.91-20,1.66a5,5,0,0,0-2.54,4.11,27.94,27.94,0,0,1-.55,4.29,20.58,20.58,0,0,1-1.29,2.88C8.91,214.15,2.82,217.64.8,224.61c-2.23,7.68.34,19.88,2.11,23.29.58,1.09,3.23,7.69,6.6,16.41-2.37,1.13-4.89,3-5.33,6.08A6.52,6.52,0,0,0,7,276.61c.56.49,1.1,1,1.62,1.54a5,5,0,0,0,.47.58,43.74,43.74,0,0,1,10,17.31,5,5,0,0,0,.43,1,51.69,51.69,0,0,1,1.25,5.63c.08.47.16.93.27,1.38a5.94,5.94,0,0,0,1.14,2.5l.16.17a4.89,4.89,0,0,0,.37.38,5.79,5.79,0,0,0,.66.51l.66.4a34.53,34.53,0,0,0,12.31,4.6c4.38,9.58,9.89,27.32,6.27,51.36-.79,2.29-3.11,10.17-.08,16.63a13.53,13.53,0,0,0,8.14,7.14,45.07,45.07,0,0,0,14.1,2.08h.3c7.12,0,13.45-1.39,15.35-3.28a7.18,7.18,0,0,0,2-4h.07l1,.09h.11c2.89.2,6.17.28,9.63.28,6,0,12.54-.24,18.58-.54a112,112,0,0,1,1.38,14.62,5.21,5.21,0,0,0-4.42,4.64c0,.26-2.24,25.92-12,41.26-56.16,1.09-86,29.12-87.3,30.34a5,5,0,0,0-.72.87,18,18,0,0,0,11.9,29.84h0c.5,0,1,.07,1.5.07h.28a18,18,0,0,0,16-26.23,218.77,218.77,0,0,1,56-9.43c.1,4.76.33,10.06.69,13.86,0,.1,0,.2,0,.3a10,10,0,0,0-.1,1.2s0,.07,0,.11v15.8a9,9,0,0,0,9,9h5a9,9,0,0,0,9-9V483.9a7.74,7.74,0,0,0-.06-1.21c.29-3,.79-8.64,1.07-14l3.37.25.91.08,1.76.16A230.42,230.42,0,0,1,158.88,475l.53.13.88.23,1,.25.5.13c7.06,1.86,12.74,3.74,16.77,5.21,0,.16-.07.32-.11.48-.09.35-.18.69-.25,1s-.08.42-.12.63c-.09.53-.16,1.06-.2,1.6,0,0,0,0,0,0,0,.4,0,.79-.05,1.19,0,.21,0,.41,0,.61s0,.11,0,.17a18,18,0,0,0,17.63,17.57h.35a18,18,0,0,0,17.1-12.42H213q.86,0,1.72,0h.15c8.42-.63,12.28-6.25,13.33-11.23a5,5,0,0,0,1.29-3.15l.3-7s0-.05,0-.08v0a5,5,0,0,0-1.63-3.91l-2.7-2.45-.57-1a5,5,0,0,0-.33-.65l-.45-.74c-1.47-2.43-3.49-5.75-5.59-8.62l-.07-.1c-6-7.79-16-7.56-20.1-7.29l-.93.05h-.19c-2.82-.07-5.47-3-7.06-4.83-.48-.54-.89-1-1.31-1.41a19.3,19.3,0,0,1-1-4.18l.08-.18,0-.08c1.64-3.08,5.32-10.09,5.48-10.41a5,5,0,0,0,.41-3.56C208,401.35,212.2,372,212.63,368.87c.25-1.16.47-2.89.77-5.33.15-1.22.32-2.6.42-3.12a5.87,5.87,0,0,0-.85-4.53c-1.21-2.27-3.73-4.73-7.85-7.78a9.68,9.68,0,0,0-2.22-1.23c2.53-2.43,2.78-3.48,3-4.4a52.28,52.28,0,0,0,1.11-7.74q0-.17,0-.33c0-2.86-1.85-5.41-4.09-8.21-.22-.27-.4-.5-.52-.66-.9-1.28-1.91-2.73-12-4.37a5,5,0,0,0-.8-.06h-.43a7.28,7.28,0,0,0-.37-1.32c-.48-1.45-2.11-4.68-11.7-5l-1.08,0h-.42c-4,0-10.12,3.09-14.53,5.69a48.57,48.57,0,0,0-5.06,3.92c-1.12.93-2.75,2.28-3.48,2.81-.26.08-.61.2-1,.36-2.07.63-5.58,1.75-8.68,2.75L137.45,332a8.67,8.67,0,0,0-6,7.27l-7.66.32c-.11-.41-.2-.83-.32-1.23a5.07,5.07,0,0,0-.18-.51,9.91,9.91,0,0,1-.33-1.13c-.34-1.34-1-4-3.4-5.26,0,0,0-.09,0-.13.29-1.64,0-3.51-1-8.69-.66-3.58-1.48-8-2-12.43-.57-5.13-3-10.34-5.5-14.42l.49.28,0,0,1.06.61.12.07,1,.56.13.07.92.52.14.08.84.47.18.1.76.42.2.11.7.38.21.11.66.35.21.11.57.3.26.14.52.27.25.13.5.25.24.12.46.23.24.12.41.2.24.12.39.18.23.11.36.17.22.1.31.14.24.11.27.12.24.1.26.11.22.09.24.1.21.08.23.09.19.07.22.08.18.06h0a4.85,4.85,0,0,0,3.75.66c12.85.74,52.42-1.69,61.41-2.27l4.26,3a5,5,0,0,0,2.37.88c1.71.17,10.37,1,12.8,1a13.34,13.34,0,0,0,6.47-2.07l2.8.42a5,5,0,0,0,3.1-.54l4.3-2.3a5,5,0,0,0,1.73-1.54l3-4.23c2.74-.82,6.23-2.15,8.33-4.06a7.47,7.47,0,0,0,.81-.85,6.58,6.58,0,0,0,1.38-5.1,8.22,8.22,0,0,0-1.32-3.32l3.1-1.75A5,5,0,0,0,246.71,274.94Zm-94.28,52.35h0l-.07,0Zm90.36-49.12-8.07,4.57h0a1,1,0,0,1,.84.14c.32.22,3.14,2.25,3.46,4.41a2.58,2.58,0,0,1-.55,2c-1.59,2-6.92,3.53-8.47,3.95l-3.79,5.4a1,1,0,0,1-.35.31l-4.3,2.3a1,1,0,0,1-.62.11l-4.29-.64c-.93.66-3.4,2.25-5.56,2.25-2.32,0-12-1-12.4-1a1,1,0,0,1-.47-.18l-5.41-3.8c-4.88.32-50.74,3.27-63.07,2.31a1,1,0,0,1-1.32-.22c-2.85-.79-9.26-4.17-19.95-10.5l-.72-.43-.13.06a.94.94,0,0,1-.12.11l-4.1,2.41c2.17,2.76,8.33,11.2,9.19,18.92.51,4.55,1.34,9.08,2,12.72.78,4.22,1.15,6.3,1,7.26a12.77,12.77,0,0,1-1.41,3.4c-.23.42-.45.86-.63,1.24.42-.06.92-.17,1.27-.24a5.93,5.93,0,0,1,2.43-.24c1.24.37,1.56,1.66,1.87,2.91a12.31,12.31,0,0,0,.51,1.68l0,.1a37.83,37.83,0,0,1,1,4.25l14.86-.62c-.4-2.55-.09-6.23,3.22-7.3l5.36-1.71c3.19-1,6.8-2.17,8.81-2.79a11.09,11.09,0,0,1,1.06-.38l.25-.08.15-.06a52.27,52.27,0,0,0,4.25-3.35,52.84,52.84,0,0,1,4.53-3.55c2.63-1.54,9.1-5.14,12.51-5.14.09,0,8.54,0,9.26,2.41a1,1,0,0,1,0,.19,25,25,0,0,1,.08,3.8h4.48c5.58.91,8.73,1.82,9.36,2.71.14.2.38.5.67.86,1.69,2.12,3.21,4.15,3.21,5.71a48.26,48.26,0,0,1-1,7.21c-.29,1.24-4.68,5.08-8,7.36,3.53.35,7.39,1,9,2.24,7.68,5.69,7.23,7.6,7.06,8.32-.22,1-.5,3.15-.73,5.08-.17,1.36-.33,2.64-.45,3.36,0,.26-4.09,31.23-18.28,50.71-.28.34-.49.62-.71.91l-.36.48.6,1.57a1,1,0,0,1,0,.82c0,.08-4.42,8.44-5.81,11a3.67,3.67,0,0,0-.22.4,3.28,3.28,0,0,1-.16.3c-.18,1.28,1.06,6.91,2.06,7.77a15.36,15.36,0,0,1,1.21,1.29c2.05,2.32,5.88,6.63,10.86,6.27,8.28-.62,13.8,1.19,17.36,5.68a92,92,0,0,1,6,9c.62,1.08,1.06,1.87,1.23,2.17l3.18,2.89a1,1,0,0,1,.33.78l-.3,7a1,1,0,0,1-.71.92l-.32.1c-.19,2.32-1.49,9-9.9,9.54q-.93.07-1.86.07a25.49,25.49,0,0,1-3-.19,14,14,0,0,1-11.91,12.27,14.21,14.21,0,0,1-2,.15,14,14,0,0,1-11.9-21.33c-8.61-3.43-34.2-12.45-68.7-14.21-.17,6.55-.92,14.83-1.27,18.38a3.75,3.75,0,0,1,.09,1V499.6a5,5,0,0,1-5,5h-5a5,5,0,0,1-5-5V483.8a6.08,6.08,0,0,1,.19-1.38c-.36-3.62-.62-9.59-.77-18.19a222.82,222.82,0,0,0-66.57,11.44A14,14,0,0,1,22.41,500h0a14,14,0,0,1-10.22-23.57,1,1,0,0,1,.23-.34c.3-.29,30.8-28.93,86.92-29.26a1,1,0,0,1,.14-.78c10.92-16.09,13.31-43.94,13.33-44.22a1,1,0,0,1,1.27-.88,9.26,9.26,0,0,0,2.58.37h0c1.47-3.89-.57-17.91-1.53-23.25-5.44.33-13.64.73-21.4.73-3.52,0-7-.08-10-.29l-1-.09-3.8-.37c-.06,1.88-.31,4.71-1.28,5.67s-6.28,2.09-12.81,2.09a39.63,39.63,0,0,1-12.51-1.85,9.5,9.5,0,0,1-5.81-5c-2.58-5.51,0-12.92.36-13.95,3.87-27.08-3.09-46.56-7.78-56a30.52,30.52,0,0,1-13.48-4.68c-.48-.32-.56-.73-.82-2.27A54,54,0,0,0,23,294.8a47.77,47.77,0,0,0-11-18.91,29.84,29.84,0,0,0-2.52-2.43,2.59,2.59,0,0,1-1.32-2.52c.27-1.89,2.93-3.09,5.55-4l.47-.17h0l.05,0a1,1,0,0,1,.18,0,1,1,0,0,1,.19,0h0c-3.33-8.7-7.4-19.09-8.3-20.73C5,243.24,2.75,232.22,4.64,225.72c1.67-5.75,7.06-8.53,9.09-9.57.23-.12.41-.21.5-.27a18.93,18.93,0,0,0,2.42-5,32,32,0,0,0,.66-5.07,1,1,0,0,1,.51-.82c.2-.12,5.12-2.75,20.83-.82a1,1,0,0,1,0-.61,65.13,65.13,0,0,0,2.39-6.07,55.54,55.54,0,0,1-8-13.13C26.65,170.93,21.33,153.29,20,148.64c-1.71.8-4.77,1.94-6.55.95a2.64,2.64,0,0,1-1.32-2.33C11.87,142.61,25.72,129,29.43,127s16.6-6.37,19.8-6.9c3.39-.57,6.17,5.1,7.91,9.95A1,1,0,0,1,57,131c9.06,3.82,25,11.51,34.07,21.74,9.92,11.13,7.55,20.7,6.59,23.37-1,2.84-2.75,4.83-4.39,5.08-.76.12-1.85.4-3.11.74a43.57,43.57,0,0,1-8.88,1.66l.83,5a1,1,0,0,1-.35.93s-.35.29-.87.66a17.09,17.09,0,0,1-.17,7.06,5.1,5.1,0,0,0,1.22-.82,1,1,0,0,1,1.57,1.2,29,29,0,0,0-1.64,3.77l-.06.13c-1.37,2.64-2.26,4-5.85,4.14l-1.77.09c-1.71.09-3.51.19-5.33.19a30.65,30.65,0,0,1-6.57-.63l-1.54,3.38,1.83.48,1.2.32a1,1,0,0,1,.74,1l-.25,4.15c2.65.63,10.78,2.73,14.3,5.72,1.21,1,2.88,2.35,4.65,3.75,5.32,4.21,8.86,7.08,9.6,8.56,1.06,2.12,1,4.19-.27,5.62.29,1.36,3.35,6.26,6.19,10.25l7.17,9.1c9-6.39,27-26.21,27.52-29.47a7.84,7.84,0,0,1-1.3-4,52.9,52.9,0,0,1-.2-7.48,31.31,31.31,0,0,0,.12-4.8,3.82,3.82,0,0,1-2.62-4.27,2.73,2.73,0,0,1,.92-1.84c2.12-1.95,7.33-1.77,7.92-1.74a2.18,2.18,0,0,1,1.67.86c1.12,1.45.63,4.32.48,5.07-.12,2.17-.18,4.67-.12,5.91a8.94,8.94,0,0,1,1.69,0c.56-.74,1.64-2.14,2.13-2.72a22.76,22.76,0,0,0,.12-4.19c0-.95,0-1.77,0-2.29,0-.7,0-3.06-.1-5.15-.08-2.34-.15-4.55-.1-5.35.09-1.42,1.6-2.24,3.05-2.43s2.83.38,3.19,1.48.78,9.23,1,13.61l1.11-5.69a74.28,74.28,0,0,0,.7-7.92c-.29-1.44,1.26-2.61,2.28-3.38l.36-.28c1.13-.94,2.77.39,3.65,1.26a1,1,0,0,1,.29.71v5.76l.21,0c.4-2.55.77-5.05.79-5.4,0-1.07,1.13-1.42,2.45-1.82.39-.12.81-.25,1.19-.4a1.79,1.79,0,0,1,1.54.1c1.11.62,1.51,2.34,1.6,2.85a1,1,0,0,1,0,.34l-2.5,15.7a1,1,0,0,1-.24.51l-2.31,2.56a7.4,7.4,0,0,1,0,4l0,.11c-.9,2.19-10.74,9.15-12.11,10a36.07,36.07,0,0,1-4.78,2,29,29,0,0,0-3.48,1.46c-2.79,3.68-19.88,21.12-28.12,29.53l-3,3.06L122,278.08a1,1,0,0,1-.08,1.32l-2.16,2.16,8.77,6.14,59.24.29a4,4,0,0,1,1.47-3c.54-.55,1.46-1.69,2.44-2.91,3.73-4.61,5.07-6.05,6.23-6.05a27.53,27.53,0,0,0,3.15-.29,1.06,1.06,0,0,1,.33,0l-20-26.52a1,1,0,0,1,.24-1.43l3.1-2.1a1,1,0,0,1,1.35.22l23.52,30.57,1.08-.85.19-.11,5-2.38c-.18-1.48-.21-4,1.59-4.39,1.46-.32,3.67-.79,5.72.42l.69.39c1.53.87,3.11,1.77,3.11,3.47a10.84,10.84,0,0,1-.68,3.15l2.7-.81,10.69-3.3a1,1,0,0,1,1.18.48l2.3,4.3A1,1,0,0,1,242.79,278.17Z" fill="#f15a24"/></svg>