<svg id="10a94787-b3ec-42b9-aa46-7c4ae037ef2b" data-name="Layer 1" xmlns="http://www.w3.org/2000/svg" width="1025" height="507.8" viewBox="0 0 1025 507.8"><title>brainstorm_p5</title><g id="03f400e4-3ae9-4dcf-b951-17e2e57064d7" data-name="Layer 2"><path d="M1013.1,250.9c9.2,43.1,12.4,94.1-8,133-19.6,7.1-42.1,10.3-64.7,10.9-7.1.2-14.2.1-21.2-.3a321,321,0,0,1-43.4-5c-.3-.5.3-2.7.5-3.9.3-1.8.1-2.3,1.8-3,20.4,5.5,46.5,7.8,72.2,6.4,17.4-1,34.6-3.7,49.7-8.2,14.3-28.5,16-63.5,12.2-96.8-1.3-11.5-3.2-22.9-5.5-33.7C1006.3,249,1011.7,249.9,1013.1,250.9Z" fill="none" stroke="#1d1d1b" stroke-linecap="round" stroke-linejoin="round" stroke-width="6"/><path d="M964.5,275.5c-5.9,2.3-11.8,4.6-17.8,6.8-22.6,8.4-35.3,10.7-59.5,13.7a160.64,160.64,0,0,1-23.7.2l.2-6.8v-.1c28,.6,43.7-3.8,59.2-8.7a303.6,303.6,0,0,0,43.3-17.8c5.7-2.8,11.5-5.8,17.6-9a22.56,22.56,0,0,1,2.2-1.1c3.3-1.4,5.4-4.1,9.4-2.6,1.9.7,3.2,2.5,4.2,4.3,5.3,8.5,9.6,18,11,30.1,2.4,20.6-3.4,49-26,94.3l-.4-.2c-16.7,1.9-35.2-11.5-36.6-12.6.9-1.3,1.9-2.7,2.9-4.3a116.84,116.84,0,0,0,6.3-10.8l2.4-4.8a120,120,0,0,0,7.7-20.7c2-7,5.2-13.6,7-20.5h-.2c-1.3-6.5-7-20.9-9.3-29Z" fill="none" stroke="#1d1d1b" stroke-linecap="round" stroke-linejoin="round" stroke-width="6"/><path d="M1008.2,473.2a12.89,12.89,0,0,1,4.7,9.9,12.8,12.8,0,1,1-18.2-11.6,12.21,12.21,0,0,1,5.4-1.2A11.87,11.87,0,0,1,1008.2,473.2Z" fill="none" stroke="#1d1d1b" stroke-linecap="round" stroke-linejoin="round" stroke-width="6"/><path d="M921.8,450h-.3c-22.4-1.8-42.2,6.1-59.5,20.4v.1a12.21,12.21,0,0,0-5.4-1.2,13.21,13.21,0,0,0-8.2,2.9l-.1-.1a84.32,84.32,0,0,1,6.5-6.9c15.9-15.1,38.8-25.3,64.1-26.8V423.5c-.2-3.1-.2-24.7.3-27.8v-1.1c7,.3,14.1.4,21.2.3V396c0,1.1.2,5.7.2,6.8v35.5c26.3,1.3,50.7,14.5,67.7,34.8l-.1.1a12.93,12.93,0,0,0-8.1-2.9,12.21,12.21,0,0,0-5.4,1.2v-.1c-17.3-14.3-37.8-23-60.2-21.2h-.1c.2,3,.2,5.9.2,7a82.85,82.85,0,0,1-1.4,12.2h-9.8v-.1C922.1,465.1,921.6,457.4,921.8,450Z" fill="none" stroke="#1d1d1b" stroke-linecap="round" stroke-linejoin="round" stroke-width="6"/><path d="M959.6,184.9c-3.2,0-7.6-.1-16.5-.3-1.2,0-2.4-.1-3.6-.1h-1c-6.5-.3-13.2-.7-19.5-2.4a35,35,0,0,1-7.6-2.9c-.1-.1-.2-.1-.2-.3s-.4-3.8-.4-3.9c-.1-1.3-.9-5.7.1-9.8a4,4,0,0,1,4-3.8c4.5-.7,53.9-5.4,60.7-6.3,2.8,5,7.7,8.3,12.2,11.8s9,7.6,10.6,13.1a25.83,25.83,0,0,1,.8,6.8,30.43,30.43,0,0,1-.6,7.4c-.7,3.1-4.6,7.6-6.9,9.9l-.3.1c-.4-1-1-2.5-1.8-4.2a27,27,0,0,0-5.3-8.5c-4.9,2.8-9.1,5.1-13.5,8.2l-.3-.4-11-2.7V184.9h.1Z" fill="none" stroke="#1d1d1b" stroke-linecap="round" stroke-linejoin="round" stroke-width="6"/><path d="M981.8,212.1l.1.2c-1.8,1.5-4.3,3.8-6.1,5.3-2.7,2.2-5.6,4.7-6.4,8.1a16.14,16.14,0,0,0,.4,6.9c.9,3.9,1.9,7.3,3.1,11.1v.1q-3,1.65-6,3.6l-.1-.1c-1.8-4.2-2.2-5.7-3.8-10a56.17,56.17,0,0,1-2.4-9.6l-2.7-.3c-12.4.2-17.7.1-31.2.3a12.87,12.87,0,0,1-5.2-.7c-2.4-1.1-3.8-3.7-4.6-6.3-1.8-6-1.1-12.5-.4-18.8.8-6.8,1.4-12.4,2.2-19.2l.1-.4c6.3,1.7,13,2.1,19.5,2.4h1c1.2.1,2.4.1,3.6.1,8.9.2,13.3.3,16.5.3v11.7l11,2.7.3.4c4.4-3.1,8.6-5.4,13.5-8.2a31.14,31.14,0,0,1,5.3,8.5q1.2,2.55,1.8,4.2c.5,1.2.7,1.9.8,2.1A100.83,100.83,0,0,1,981.8,212.1Zm-58.3-17.7a3.75,3.75,0,0,0-.1-1.1,2.07,2.07,0,0,0-.6-1,2.2,2.2,0,0,0-1.2-.5,1.38,1.38,0,0,0-1.1.1,1.33,1.33,0,0,0-.6,1,7,7,0,0,0,.5,2.5,1.69,1.69,0,0,0,1.4.9h.3a1.8,1.8,0,0,0,.9-.6A2.36,2.36,0,0,0,923.5,194.4Zm26.7,2.3a3.75,3.75,0,0,0-.1-1.1,1.46,1.46,0,0,0-.6-.9,2.2,2.2,0,0,0-1.2-.5,3.75,3.75,0,0,0-1.1.1,1.33,1.33,0,0,0-.6,1,7.42,7.42,0,0,0,.5,2.5,1.69,1.69,0,0,0,1.4.9,1.74,1.74,0,0,0,1.2-.6A3.94,3.94,0,0,0,950.2,196.7Z" fill="none" stroke="#1d1d1b" stroke-linecap="round" stroke-linejoin="round" stroke-width="6"/><path d="M839.2,389.5c-2,1.2-4.1,2.5-6.1,3.9-14.3,10-28.5,26.1-27.5,49.5,0,0-.1,15.5,1.7,27.3l-8.6.3c.5-10.8-.4-27.7-.4-27.7-1-24.8,11.3-42.1,31.3-55.4,1-.6,1.9-1.3,2.9-1.9a39.72,39.72,0,0,1,3.5-2c15.8-8.4,35.8-10.5,52.5-7.1,14.4,2.9,30.8,2.8,45.5,3.1h.3c2.8-2.4,5.1-4.4,7.2-6.5a66.29,66.29,0,0,0,6.3-7.3c1.4,1.1,19.9,14.5,36.6,12.6l.4.2c-.4.8-.8,1.7-1.3,2.5l-.4,1a165.51,165.51,0,0,1-32.9,5.8c-1.6.1-3.2.2-4.9.2-16.8.4-33.6-1.9-50-5.1a119.27,119.27,0,0,0-17.1-2c-13.4-.5-27.1,1.5-38.4,8.1A1.79,1.79,0,0,1,839.2,389.5Z" fill="none" stroke="#1d1d1b" stroke-linecap="round" stroke-linejoin="round" stroke-width="6"/><path d="M983.8,253.6l.1.1c-6.1,3.2-11.9,6.1-17.6,9v-.1c.7-2,.5-2.9-.8-4.5a6.21,6.21,0,0,0-5.5-2.4c-.7.1-1.5.2-1.9-.3-.6-.7.2-1.7.9-2.3,2.6-2,5.3-4,8.1-5.8h0c1.9-1.3,3.9-2.4,6-3.6.8-.5,1.7-.9,2.5-1.4,1-.5,2.4-1,3.2-.2a2.62,2.62,0,0,1,.6,1.3l2.1,7.5C981.8,252.2,982.4,253.6,983.8,253.6Z" fill="none" stroke="#1d1d1b" stroke-linecap="round" stroke-linejoin="round" stroke-width="6"/><path d="M959.1,345.9l.2.1-2.4,4.8h-.1c-14.3-1.4-32.1-15.1-36-18.1a9,9,0,0,1-1.1-1l2.5-4.1.2-.3a146.7,146.7,0,0,0,17.8,11.6A60,60,0,0,0,959.1,345.9Z" fill="none" stroke="#1d1d1b" stroke-linecap="round" stroke-linejoin="round" stroke-width="6"/><path d="M950.1,195.6a4.1,4.1,0,0,1,.1,1.1,2.11,2.11,0,0,1-.5,1.3,1.43,1.43,0,0,1-1.2.6,1.69,1.69,0,0,1-1.4-.9,7,7,0,0,1-.5-2.5.89.89,0,0,1,.6-1,4.48,4.48,0,0,1,1.1-.1,3.08,3.08,0,0,1,1.2.5A2.07,2.07,0,0,1,950.1,195.6Z" fill="none" stroke="#1d1d1b" stroke-linecap="round" stroke-linejoin="round" stroke-width="6"/><path d="M941.3,373.1h0c-2.1,2.1-4.4,4.2-7.1,6.6h-.3c-16.7-6.3-28.3-17.3-43.9-25.9-7.5-4.1-15-8.3-23.2-10.6s-17.2-2.6-25,.8-12.1,10.9-12.2,19.5c-.1,7.6,2.4,13.4,6,19.8l.3.5a39.72,39.72,0,0,0-3.5,2,29,29,0,0,0-2.9,1.9l-.1-.1c-4.1-7.5-6.8-15.7-6.7-24.6.1-10.3,7.6-19.5,17.1-23.7s20.3-3.7,30.2-1,19,7.8,28,12.7C912.2,358.7,926.5,366.5,941.3,373.1Z" fill="none" stroke="#1d1d1b" stroke-linecap="round" stroke-linejoin="round" stroke-width="6"/><path d="M935.7,485.7v8.4a17.31,17.31,0,0,1-7.4,1.6,28,28,0,0,1-9-1.6v-8.4h16.4Z" fill="none" stroke="#1d1d1b" stroke-linecap="round" stroke-linejoin="round" stroke-width="6"/><polygon points="933.1 469.4 935.7 469.4 935.7 485.7 935.4 485.7 919.3 485.7 919.4 469.4 923.2 469.4 933.1 469.4" fill="none" stroke="#1d1d1b" stroke-linecap="round" stroke-linejoin="round" stroke-width="6"/><path d="M923.4,193.2a4.1,4.1,0,0,1,.1,1.1,12.73,12.73,0,0,0-1.3,1.9h-.3a1.69,1.69,0,0,1-1.4-.9,7,7,0,0,1-.5-2.5,1,1,0,0,1,.6-1,4.48,4.48,0,0,1,1.1-.1,3.08,3.08,0,0,1,1.2.5A4.67,4.67,0,0,1,923.4,193.2Z" fill="none" stroke="#1d1d1b" stroke-linecap="round" stroke-linejoin="round" stroke-width="6"/><path d="M923.5,194.4a2.84,2.84,0,0,1-.4,1.3,1.46,1.46,0,0,1-.9.6A12.74,12.74,0,0,1,923.5,194.4Z" fill="none" stroke="#1d1d1b" stroke-linecap="round" stroke-linejoin="round" stroke-width="6"/><path d="M922.4,327.4l-.2.3-2.5,4.1c-1.5-1.3-3.5-3.1-4.4-2.2-1.4,1.5-2.1,3.9-4,4.6a5.33,5.33,0,0,1-2.5.2c-2.3-.1-4.1-1.6-9.9-.9-1,.1-2.8-5.9,3.2-5,4.5-.3,7.9.1,4.5-3.3-2.1-2.1-2.7-6.6-2.7-10.4v-3.3l-8.4-.6a2.76,2.76,0,0,1-1.1-3c.3-1.2,1.9-1.4,3.2-1.4,1.5,0,2.9,0,4.4.1h2.1a7,7,0,0,1,2.9.4h.1a3,3,0,0,1,.8.4c1.6,1.1,1.9,3.4,2.2,5.4.6,3.9,3.7,8.1,7.8,11.1C919.3,325,920.9,326.2,922.4,327.4Z" fill="none" stroke="#1d1d1b" stroke-linecap="round" stroke-linejoin="round" stroke-width="6"/><path d="M902,306.5a3,3,0,0,1-2.2-1.4,5.85,5.85,0,0,1-1-1.7,2.15,2.15,0,0,1,.2-1.9,2.39,2.39,0,0,1,2.5-.9,4,4,0,0,1,2.2,1.6,11.88,11.88,0,0,1,1.3,2.5,4.1,4.1,0,0,0,2,2.1,13.53,13.53,0,0,0-2.9-.4,14.77,14.77,0,0,1-2.1.1Z" fill="none" stroke="#1d1d1b" stroke-linecap="round" stroke-linejoin="round" stroke-width="6"/><path d="M824.4,303.6l.5-.3a2.18,2.18,0,0,0,.8-.5l.1-.1h29a5.5,5.5,0,0,0,3.8,0c13.3,0,25-.1,25-.1.5.3.7,1.6.4,2.5-.5,2-1.6,4.5-2.3,4.6h-137c-.2,0-1.5-1.7-1.8-1.7a290.6,290.6,0,0,1-30-50.3,15.61,15.61,0,0,0-2.9-4.6c-.8-.8-1.9-1.4-2.4-2.4s.1-3,1.3-3h84.9c-.3,0,17.5,33.1,28.1,51.8C822.9,301,823.7,302.4,824.4,303.6Z" fill="none" stroke="#1d1d1b" stroke-linecap="round" stroke-linejoin="round" stroke-width="6"/><path d="M882.1,440.8l-14.7,14.1c-.2.2-4.6,2.5-4.8,2.7-1.8,1.8-4.9,4.7-7.8,7.4l-8.5,7.9c-3.7,3.7-13.1,9.8-16.5,8.5-2.4-.9-5.6-4.6-3.3-5.8,9.8-5.3,15-17.3,17.3-19.8,4.3-4.8,2.5-8.6,7.2-14.7,1.9-.5,3.6-.8,5.2-1.2,3.2-.8,5.8-1.7,8.6-4.5a9.8,9.8,0,0,0,2.1-2.8,11.56,11.56,0,0,0,.7-3.7V428c.1-1.3.1-2.5.1-3.7C867.5,424.3,880.4,429.8,882.1,440.8Z" fill="none" stroke="#1d1d1b" stroke-linecap="round" stroke-linejoin="round" stroke-width="6"/><path d="M867.4,428v.9a11.56,11.56,0,0,1-.7,3.7,9.8,9.8,0,0,1-2.1,2.8,15.38,15.38,0,0,1-8.6,4.5l-.2-.8c-.6-1-2-3.6-3.8-7.3l.3-.2,9.5-7,.3-.5c1.8,2.5,3.1,3.8,4.2,3.6Z" fill="none" stroke="#1d1d1b" stroke-linecap="round" stroke-linejoin="round" stroke-width="6"/><path d="M861.9,470.4a12.81,12.81,0,1,1-13.5,1.7,13,13,0,0,1,8.2-2.9A13.28,13.28,0,0,1,861.9,470.4Z" fill="none" stroke="#1d1d1b" stroke-linecap="round" stroke-linejoin="round" stroke-width="6"/><path d="M850.9,297c-.3-.1-.6-.1-.9-.2-1.6-.3-3.2-.5-4.8-.8-.8-.1-1.7-.3-2.5-.4a2.72,2.72,0,0,0-.9,0,2.84,2.84,0,0,0-1.1.8c-1.1,1.4-13.1,5.1-14.9,6.3a.1.1,0,0,0-.1.1,9.22,9.22,0,0,1-.8.5l-.5.3c-.7-1.2-1.5-2.6-2.3-4l.3-.1c2.5-1.6,6.7-3.5,10.2-5.3v-.1a39.49,39.49,0,0,0,1.2-4.4c.5-.9,5.4-5.3,6.4-5.4,2-.3,3.7.6,5.5,1.6s5.9,1.8,8.7,2.8c3.3.2,6.4.3,9.4.4v.1l-.2,6.8c-1.6-.1-3.2-.2-4.7-.4.5,1.4.5,2.9,1.1,5a2.46,2.46,0,0,1-1.3,2.1h-3.8a5.47,5.47,0,0,1-2-1.1c-.7-.6-.5-4-1.3-4.5A.88.88,0,0,1,850.9,297Z" fill="none" stroke="#1d1d1b" stroke-linecap="round" stroke-linejoin="round" stroke-width="6"/><path d="M862.2,424.3l-.3.5-9.5,7-.3.2c-6.3-12.5-17.5-36.2-18.6-37.9l-.4-.6c2.1-1.4,4.1-2.8,6.1-3.9C850.5,404,857.6,418,862.2,424.3Z" fill="none" stroke="#1d1d1b" stroke-linecap="round" stroke-linejoin="round" stroke-width="6"/><path d="M850.9,297c-.5.6-.9,1.3-1.4,1.9a8.34,8.34,0,0,1-2.7,2.6,3.19,3.19,0,0,1-1.4.3,2.22,2.22,0,0,1-2-1,.76.76,0,0,1-.2-.4.85.85,0,0,1,.3-.6c1.2-1.3.7-1.9,1.6-3.5V296c1.6.3,3.2.5,4.8.8C850.3,296.9,850.6,296.9,850.9,297Z" fill="none" stroke="#1d1d1b" stroke-linecap="round" stroke-linejoin="round" stroke-width="6"/><path d="M815.8,476.8a6.66,6.66,0,0,1-.2,2.8c-1.5,6.9.8,10.6-.7,17.5l-24,2.1c-.3,0-5.2-2.2-5.5-2.2-40.6,2.5-47.8-5.3-47.8-5.3-1.8-1-.5-9.5,4.5-9,3.8.4,19.8,2.3,28.8-2,7.7-3.7,14.8-3.5,20.8-5.8,2.8,1.6,3.9,3,5.2,3.9s2.6,1.3,5.8,1.2a12.17,12.17,0,0,0,3.8-.7,9,9,0,0,0,2.6-1.7c.3-.2.5-.5.8-.7,1.2-1.1,2.4-2.2,3.5-3.4l.4.4A8,8,0,0,1,815.8,476.8Z" fill="none" stroke="#1d1d1b" stroke-linecap="round" stroke-linejoin="round" stroke-width="6"/><path d="M808.6,477.2l.4.5a10.57,10.57,0,0,1-2.6,1.7,12.17,12.17,0,0,1-3.8.7c-3.2.1-4.5-.3-5.8-1.2l.6-.1c.7-1.3,1-4.3,1.2-8.1l8.6-.3C807.6,472.8,808.1,475.2,808.6,477.2Z" fill="none" stroke="#1d1d1b" stroke-linecap="round" stroke-linejoin="round" stroke-width="6"/><path d="M848.3,472.1a84.32,84.32,0,0,1,6.5-6.9c15.9-15.1,38.8-25.3,64.1-26.8,4.1-.2,8.3-.2,12.5,0" fill="none" stroke="#1d1d1b" stroke-linecap="round" stroke-linejoin="round" stroke-width="6"/><path d="M862,470.3c17.3-14.3,37.1-22.2,59.5-20.4" fill="none" stroke="#1d1d1b" stroke-linecap="round" stroke-linejoin="round" stroke-width="6"/><path d="M861.9,470.4a12.81,12.81,0,1,1-13.5,1.7,13,13,0,0,1,8.2-2.9A13.28,13.28,0,0,1,861.9,470.4Z" fill="none" stroke="#1d1d1b" stroke-linecap="round" stroke-linejoin="round" stroke-width="6"/><path d="M1008.3,473.1c-17-20.3-41.5-33.5-67.7-34.8-1.6-.1-3.2-.1-4.7-.1" fill="none" stroke="#1d1d1b" stroke-linecap="round" stroke-linejoin="round" stroke-width="6"/><path d="M994.6,471.3c-17.3-14.3-37.8-23-60.2-21.2" fill="none" stroke="#1d1d1b" stroke-linecap="round" stroke-linejoin="round" stroke-width="6"/><path d="M994.6,471.4a12.81,12.81,0,1,0,13.5,1.7,12.93,12.93,0,0,0-8.1-2.9A14.17,14.17,0,0,0,994.6,471.4Z" fill="none" stroke="#1d1d1b" stroke-linecap="round" stroke-linejoin="round" stroke-width="6"/><path d="M922.2,442.5c-.2,2.3-.4,4.9-.4,7.5-.2,7.4.3,15.1,1.4,19.3" fill="none" stroke="#1d1d1b" stroke-linecap="round" stroke-linejoin="round" stroke-width="6"/><path d="M933.6,443.3a52.78,52.78,0,0,1,.8,6.9c.2,3,.2,5.9.2,7a82.85,82.85,0,0,1-1.4,12.2h0" fill="none" stroke="#1d1d1b" stroke-linecap="round" stroke-linejoin="round" stroke-width="6"/><polyline points="919.3 494.1 919.3 485.7 919.4 469.4 923.2 469.4 933.1 469.4 935.7 469.4 935.7 485.7 935.7 494.1" fill="none" stroke="#1d1d1b" stroke-linecap="round" stroke-linejoin="round" stroke-width="6"/><path d="M919.3,494.1a27.51,27.51,0,0,0,9,1.6,17,17,0,0,0,7.4-1.6" fill="none" stroke="#1d1d1b" stroke-linecap="round" stroke-linejoin="round" stroke-width="6"/><polyline points="919.2 485.7 919.3 485.7 935.4 485.7" fill="none" stroke="#1d1d1b" stroke-linecap="round" stroke-linejoin="round" stroke-width="6"/><path d="M825.9,306.1c-.4-.8-.9-1.6-1.4-2.5-.7-1.2-1.5-2.6-2.3-4-10.6-18.7-28.4-51.8-28.1-51.8H709.2c-1.1,0-1.8,2-1.3,3a9.12,9.12,0,0,0,2.4,2.4,14.42,14.42,0,0,1,2.9,4.6,290.6,290.6,0,0,0,30,50.3c.2,0,1.6,1.7,1.8,1.7H882c.7-.1,1.8-2.7,2.3-4.6.2-.9.1-2.2-.4-2.5,0,.1-11.8.1-25,.1h-34" fill="none" stroke="#1d1d1b" stroke-linecap="round" stroke-linejoin="round" stroke-width="6"/><path d="M918.9,182.5c-.8,6.8-1.4,12.4-2.2,19.2-.7,6.3-1.5,12.7.4,18.8.8,2.6,2.2,5.2,4.6,6.3a13.11,13.11,0,0,0,5.2.7c13.4-.2,18.7-.1,31.2-.3h2.6" fill="none" stroke="#1d1d1b" stroke-linecap="round" stroke-linejoin="round" stroke-width="6"/><path d="M968.6,201.5l-.3.3c.9-.7,1.8-1.3,2.6-1.9,4.4-3.1,8.6-5.4,13.5-8.2a31.14,31.14,0,0,1,5.3,8.5q1.2,2.55,1.8,4.2c.5,1.2.7,1.9.8,2.1-3.4,2-6.9,3.9-10.5,5.6a134.53,134.53,0,0,1-18.6,7.1" fill="none" stroke="#1d1d1b" stroke-linecap="round" stroke-linejoin="round" stroke-width="6"/><path d="M926.9,191a17.62,17.62,0,0,0-3.4,3.3,12.73,12.73,0,0,0-1.3,1.9c-2.7,4.4-3.8,10-.4,14,4,4.7,12.8,2.8,16.7-.9" fill="none" stroke="#1d1d1b" stroke-linecap="round" stroke-linejoin="round" stroke-width="6"/><path d="M935.5,203.2a5.34,5.34,0,0,1,3.3-.4,6.07,6.07,0,0,1,2.6.8,4.7,4.7,0,0,1,2.1,2.7,6,6,0,0,1,0,3.5" fill="none" stroke="#1d1d1b" stroke-linecap="round" stroke-linejoin="round" stroke-width="6"/><path d="M975.6,155.2c-6.8.9-56.2,5.6-60.7,6.3a4,4,0,0,0-4,3.8c-1,4.1-.2,8.5-.1,9.8,0,.1.4,3.8.4,3.9s.1.2.2.3a41.07,41.07,0,0,0,7.6,2.9c6.3,1.7,13,2.1,19.5,2.4h1c1.2.1,2.4.1,3.6.1,8.9.2,13.3.3,16.5.3h1.6c4.3-.2,7.5-.7,20-1.8" fill="none" stroke="#1d1d1b" stroke-linecap="round" stroke-linejoin="round" stroke-width="6"/><path d="M975.6,155.2h0c-.1-.2.7-.1.4-.1C975.9,155.2,975.8,155.2,975.6,155.2Z" fill="none" stroke="#1d1d1b" stroke-linecap="round" stroke-linejoin="round" stroke-width="6"/><path d="M991.7,204.3c2.3-2.3,6.2-6.8,6.9-9.9a30.84,30.84,0,0,0,.6-7.4,25.83,25.83,0,0,0-.8-6.8c-1.6-5.5-6.1-9.6-10.6-13.1s-9.4-6.9-12.2-11.8" fill="none" stroke="#1d1d1b" stroke-linecap="round" stroke-linejoin="round" stroke-width="6"/><path d="M858.9,295.7c1.5.2,3.1.3,4.7.4,9.1.6,19.4.4,23.7-.2,24.2-3,36.8-5.3,59.5-13.7,5.9-2.2,11.9-4.5,17.8-6.8,6.4-2.5,12.8-5.1,19.1-7.8" fill="none" stroke="#1d1d1b" stroke-linecap="round" stroke-linejoin="round" stroke-width="6"/><path d="M986,252.6c3.3-1.4,5.4-4.1,9.4-2.6,1.9.7,3.2,2.5,4.2,4.3,5.3,8.5,9.6,18,11,30.1,2.4,20.6-3.4,49-26,94.3-.4.8-.8,1.7-1.3,2.5" fill="none" stroke="#1d1d1b" stroke-linecap="round" stroke-linejoin="round" stroke-width="6"/><path d="M983,382.2a165.51,165.51,0,0,1-32.9,5.8c-1.6.1-3.2.2-4.9.2-16.8.4-33.6-1.9-50-5.1a119.27,119.27,0,0,0-17.1-2c-13.4-.5-27.1,1.5-38.4,8.1-.2.1-.3.2-.5.3-2,1.2-4.1,2.5-6.1,3.9-14.3,10-28.5,26.1-27.5,49.5,0,0-.1,15.5,1.7,27.3a55.85,55.85,0,0,0,1.4,6.9" fill="none" stroke="#1d1d1b" stroke-linecap="round" stroke-linejoin="round" stroke-width="6"/><path d="M933.9,379.7c-14.6-.3-31.1-.2-45.5-3.1-16.7-3.4-36.7-1.3-52.5,7.1a39.72,39.72,0,0,0-3.5,2,29,29,0,0,0-2.9,1.9c-20.1,13.3-32.3,30.6-31.3,55.4,0,0,1,16.9.4,27.7-.2,3.8-.5,6.8-1.2,8.1" fill="none" stroke="#1d1d1b" stroke-linecap="round" stroke-linejoin="round" stroke-width="6"/><path d="M971.4,280.7c5,8.7,4.7,16.5,2.7,24-1.8,6.9-5,13.6-7,20.5a135.12,135.12,0,0,1-7.7,20.7l-2.4,4.8c-1.9,3.7-4.1,7.3-6.3,10.8-1,1.6-2,3-2.9,4.3a66.29,66.29,0,0,1-6.3,7.3c-2.1,2.1-4.4,4.1-7.2,6.5H934" fill="none" stroke="#1d1d1b" stroke-linecap="round" stroke-linejoin="round" stroke-width="6"/><polyline points="798.6 470.6 798.6 470.6 807.2 470.3" fill="none" stroke="#1d1d1b" stroke-linecap="round" stroke-linejoin="round" stroke-width="6"/><path d="M947.6,365.8h0c1.5,1.1,20,14.6,36.7,12.7" fill="none" stroke="#1d1d1b" stroke-linecap="round" stroke-linejoin="round" stroke-width="6"/><path d="M1012.1,284.2c-1.3-11.5-3.2-22.9-5.5-33.7-.3-1.6,5.1-.7,6.5.4,9.2,43.1,12.4,94.1-8,133-19.6,7.1-42.1,10.3-64.7,10.9-7.1.2-14.2.1-21.2-.3a321,321,0,0,1-43.4-5c-.3-.5.3-2.7.5-3.9.3-1.8.1-2.3,1.8-3,20.4,5.5,46.5,7.8,72.2,6.4,17.4-1,34.6-3.7,49.7-8.2C1014.2,352.5,1015.9,317.5,1012.1,284.2Z" fill="none" stroke="#1d1d1b" stroke-linecap="round" stroke-linejoin="round" stroke-width="6"/><path d="M960.8,227.5a40.91,40.91,0,0,0,2.4,9.6,85.82,85.82,0,0,0,3.8,10" fill="none" stroke="#1d1d1b" stroke-linecap="round" stroke-linejoin="round" stroke-width="6"/><path d="M972.9,243.6a87.17,87.17,0,0,1-3.1-11.1,16.14,16.14,0,0,1-.4-6.9c.8-3.4,3.7-5.9,6.4-8.1,1.8-1.5,4.3-3.8,6.1-5.3" fill="none" stroke="#1d1d1b" stroke-linecap="round" stroke-linejoin="round" stroke-width="6"/><path d="M983.8,253.6c-1.4,0-2-1.4-2.4-2.7l-2.1-7.5a3.1,3.1,0,0,0-.6-1.3c-.8-.8-2.2-.4-3.2.2-.8.4-1.7.9-2.5,1.4q-3,1.65-6,3.6h0a91.87,91.87,0,0,0-8.1,5.8c-.7.6-1.5,1.6-.9,2.3.4.5,1.2.4,1.9.3a6.46,6.46,0,0,1,5.5,2.4c1.3,1.6,1.5,2.5.8,4.5" fill="none" stroke="#1d1d1b" stroke-linecap="round" stroke-linejoin="round" stroke-width="6"/><path d="M813.7,473.9a6.07,6.07,0,0,1,2.1,2.9,6.66,6.66,0,0,1-.2,2.8c-1.5,6.9.8,10.6-.7,17.5" fill="none" stroke="#1d1d1b" stroke-linecap="round" stroke-linejoin="round" stroke-width="6"/><path d="M814.9,497.2l-24,2.1c-.3,0-5.2-2.2-5.5-2.2-40.6,2.5-47.8-5.3-47.8-5.3-1.8-1-.5-9.5,4.5-9,3.8.4,19.8,2.3,28.8-2,7.7-3.7,14.8-3.5,20.8-5.8,2.8,1.6,3.9,3,5.2,3.9s2.6,1.3,5.8,1.2a12.17,12.17,0,0,0,3.8-.7,9,9,0,0,0,2.6-1.7c.3-.2.5-.5.8-.7,1.2-1.1,2.4-2.2,3.5-3.4l.2-.2" fill="none" stroke="#1d1d1b" stroke-linecap="round" stroke-linejoin="round" stroke-width="6"/><path d="M867.4,428c.1-1.3.1-2.5.1-3.7,0,0,12.9,5.5,14.5,16.6L867.3,455c-.2.2-4.6,2.5-4.8,2.7-1.8,1.8-4.9,4.7-7.8,7.4l-8.5,7.9c-3.7,3.7-13.1,9.8-16.5,8.5-2.4-.9-5.6-4.6-3.3-5.8,9.8-5.3,15-17.3,17.3-19.8,4.3-4.8,2.5-8.6,7.2-14.7,1.9-.5,3.6-.8,5.2-1.2,3.2-.8,5.8-1.7,8.6-4.5a9.8,9.8,0,0,0,2.1-2.8,11.56,11.56,0,0,0,.7-3.7A3.75,3.75,0,0,1,867.4,428Z" fill="none" stroke="#1d1d1b" stroke-linecap="round" stroke-linejoin="round" stroke-width="6"/><path d="M829.4,387.5c-4.1-7.5-6.8-15.7-6.7-24.6.1-10.3,7.6-19.5,17.1-23.7s20.3-3.7,30.2-1,19,7.8,28,12.7c14.2,7.8,28.5,15.6,43.3,22.2" fill="none" stroke="#1d1d1b" stroke-linecap="round" stroke-linejoin="round" stroke-width="6"/><path d="M855.9,439.2c-.6-1-2-3.6-3.8-7.3-6.3-12.5-17.5-36.2-18.6-37.9" fill="none" stroke="#1d1d1b" stroke-linecap="round" stroke-linejoin="round" stroke-width="6"/><path d="M835.6,383.2c-3.6-6.4-6.1-12.1-6-19.8.1-8.5,4.4-16,12.2-19.5s16.8-3.1,25-.8,15.7,6.5,23.2,10.6c15.6,8.6,27.3,19.7,43.9,25.9h0" fill="none" stroke="#1d1d1b" stroke-linecap="round" stroke-linejoin="round" stroke-width="6"/><path d="M866.4,428c-1.1.2-2.5-1.2-4.2-3.6-4.6-6.4-11.7-20.3-23-34.8v-.1" fill="none" stroke="#1d1d1b" stroke-linecap="round" stroke-linejoin="round" stroke-width="6"/><path d="M922.2,218.3a80.82,80.82,0,0,0,17.7-.8" fill="none" stroke="#1d1d1b" stroke-linecap="round" stroke-linejoin="round" stroke-width="6"/><path d="M973.9,304.7c-1.3-6.5-7-20.9-9.3-29" fill="none" stroke="#1d1d1b" stroke-linecap="round" stroke-linejoin="round" stroke-width="6"/><path d="M907,306.9a3,3,0,0,1,.8.4c1.6,1.1,1.9,3.4,2.2,5.4.6,3.9,3.7,8.1,7.8,11.1,1.5,1.2,3.1,2.4,4.7,3.6A146.7,146.7,0,0,0,940.3,339a61.4,61.4,0,0,0,18.9,6.9" fill="none" stroke="#1d1d1b" stroke-linecap="round" stroke-linejoin="round" stroke-width="6"/><path d="M956.9,350.8c-14.3-1.4-32.1-15.1-36-18.1a9,9,0,0,1-1.1-1c-1.5-1.3-3.5-3.1-4.4-2.2-1.4,1.5-2.1,3.9-4,4.6a5.33,5.33,0,0,1-2.5.2c-2.3-.1-4.1-1.6-9.9-.9-1,.1-2.8-5.9,3.2-5,4.5-.3,7.9.1,4.5-3.3-2.1-2.1-2.7-6.6-2.7-10.4v-3.3l-8.4-.6a2.76,2.76,0,0,1-1.1-3c.3-1.2,1.9-1.4,3.2-1.4,1.5,0,2.9,0,4.4.1h2.1a7,7,0,0,1,2.9.4" fill="none" stroke="#1d1d1b" stroke-linecap="round" stroke-linejoin="round" stroke-width="6"/><polyline points="922.2 327.6 919.8 331.7 919.7 331.8" fill="none" stroke="#1d1d1b" stroke-linecap="round" stroke-linejoin="round" stroke-width="6"/><polyline points="863.7 289.3 863.6 296.1 863.6 296.1" fill="none" stroke="#1d1d1b" stroke-linecap="round" stroke-linejoin="round" stroke-width="6"/><path d="M902,306.5h0a3.15,3.15,0,0,1-2.3-1.4,5.85,5.85,0,0,1-1-1.7,2.15,2.15,0,0,1,.2-1.9,2.39,2.39,0,0,1,2.5-.9,4,4,0,0,1,2.2,1.6,11.88,11.88,0,0,1,1.3,2.5,4.1,4.1,0,0,0,2,2.1h.3" fill="none" stroke="#1d1d1b" stroke-linecap="round" stroke-linejoin="round" stroke-width="6"/><path d="M822.4,299.5c2.5-1.6,6.7-3.5,10.2-5.3,2.9-1.5,5.3-2.9,6-4a3.11,3.11,0,0,1,.7-.9c1-.7,2.3.1,3.4.8a9.58,9.58,0,0,0,3.2,1.2" fill="none" stroke="#1d1d1b" stroke-linecap="round" stroke-linejoin="round" stroke-width="6"/><path d="M851.7,291.6a12.41,12.41,0,0,1,2.7.3c1.4.4,3,.8,3.7,2a7.1,7.1,0,0,1,.8,1.8c.5,1.4.5,2.9,1.1,5a2.46,2.46,0,0,1-1.3,2.1,6.12,6.12,0,0,1-5.8-1.1c-.7-.6-.5-4-1.3-4.5a4.87,4.87,0,0,0-.7-.3c-.3-.1-.6-.1-.9-.2-1.6-.3-3.2-.5-4.8-.8-.8-.1-1.7-.3-2.5-.4a2.72,2.72,0,0,0-.9,0,2.84,2.84,0,0,0-1.1.8c-1.1,1.4-13.1,5.1-14.9,6.3a.1.1,0,0,0-.1.1,9.22,9.22,0,0,1-.8.5" fill="none" stroke="#1d1d1b" stroke-linecap="round" stroke-linejoin="round" stroke-width="6"/><path d="M832.5,294.1a39.49,39.49,0,0,0,1.2-4.4c.5-.9,5.4-5.3,6.4-5.4,2-.3,3.7.6,5.5,1.6s5.9,1.8,8.7,2.8c3.3.2,6.4.3,9.4.4,28,.6,43.7-3.8,59.2-8.7a303.6,303.6,0,0,0,43.3-17.8c5.7-2.8,11.5-5.8,17.6-9a22.56,22.56,0,0,1,2.2-1.1" fill="none" stroke="#1d1d1b" stroke-linecap="round" stroke-linejoin="round" stroke-width="6"/><path d="M845.1,296.3c-.9,1.6-.4,2.2-1.6,3.5a.86.86,0,0,0-.3.6.76.76,0,0,0,.2.4,2.46,2.46,0,0,0,2,1,3.19,3.19,0,0,0,1.4-.3,9.53,9.53,0,0,0,2.7-2.6c.5-.6.9-1.3,1.4-1.9h0" fill="none" stroke="#1d1d1b" stroke-linecap="round" stroke-linejoin="round" stroke-width="6"/><path d="M911.4,324.7a2.15,2.15,0,0,1,2.8,1.8" fill="none" stroke="#1d1d1b" stroke-linecap="round" stroke-linejoin="round" stroke-width="6"/><path d="M909.2,330.8a2.24,2.24,0,0,0,1.4,2.2" fill="none" stroke="#1d1d1b" stroke-linecap="round" stroke-linejoin="round" stroke-width="6"/><path d="M857.9,294.5a4.41,4.41,0,0,0-3.8,1.5" fill="none" stroke="#1d1d1b" stroke-linecap="round" stroke-linejoin="round" stroke-width="6"/><path d="M919.1,395.7c-.4,3.1-.4,24.6-.3,27.8v14" fill="none" stroke="#1d1d1b" stroke-linecap="round" stroke-linejoin="round" stroke-width="6"/><path d="M940.4,396c0,1.1.2,5.7.2,6.8v35" fill="none" stroke="#1d1d1b" stroke-linecap="round" stroke-linejoin="round" stroke-width="6"/><polyline points="959.6 185.1 959.6 196.8 970.6 199.5" fill="none" stroke="#1d1d1b" stroke-linecap="round" stroke-linejoin="round" stroke-width="6"/><line x1="861.9" y1="424.8" x2="852.4" y2="431.8" fill="none" stroke="#1d1d1b" stroke-linecap="round" stroke-linejoin="round" stroke-width="6"/><path d="M1013.1,250.9c9.2,43.1,12.4,94.1-8,133-19.6,7.1-42.1,10.3-64.7,10.9-7.1.2-14.2.1-21.2-.3a321,321,0,0,1-43.4-5c-.3-.5.3-2.7.5-3.9.3-1.8.1-2.3,1.8-3,20.4,5.5,46.5,7.8,72.2,6.4,17.4-1,34.6-3.7,49.7-8.2,14.3-28.5,16-63.5,12.2-96.8-1.3-11.5-3.2-22.9-5.5-33.7C1006.3,249,1011.7,249.9,1013.1,250.9Z" fill="#333435"/><path d="M964.5,275.5c-5.9,2.3-11.8,4.6-17.8,6.8-22.6,8.4-35.3,10.7-59.5,13.7a160.64,160.64,0,0,1-23.7.2l.2-6.8v-.1c28,.6,43.7-3.8,59.2-8.7a303.6,303.6,0,0,0,43.3-17.8c5.7-2.8,11.5-5.8,17.6-9a22.56,22.56,0,0,1,2.2-1.1c3.3-1.4,5.4-4.1,9.4-2.6,1.9.7,3.2,2.5,4.2,4.3,5.3,8.5,9.6,18,11,30.1,2.4,20.6-3.4,49-26,94.3l-.4-.2c-16.7,1.9-35.2-11.5-36.6-12.6.9-1.3,1.9-2.7,2.9-4.3a116.84,116.84,0,0,0,6.3-10.8l2.4-4.8a120,120,0,0,0,7.7-20.7c2-7,5.2-13.6,7-20.5h-.2c-1.3-6.5-7-20.9-9.3-29Z" fill="#ecf4a4"/><path d="M1008.2,473.2a12.89,12.89,0,0,1,4.7,9.9,12.8,12.8,0,1,1-18.2-11.6,12.21,12.21,0,0,1,5.4-1.2A11.87,11.87,0,0,1,1008.2,473.2Z" fill="#333435"/><path d="M921.8,450h-.3c-22.4-1.8-42.2,6.1-59.5,20.4v.1a12.21,12.21,0,0,0-5.4-1.2,13.21,13.21,0,0,0-8.2,2.9l-.1-.1a84.32,84.32,0,0,1,6.5-6.9c15.9-15.1,38.8-25.3,64.1-26.8V423.5c-.2-3.1-.2-24.7.3-27.8v-1.1c7,.3,14.1.4,21.2.3V396c0,1.1.2,5.7.2,6.8v35.5c26.3,1.3,50.7,14.5,67.7,34.8l-.1.1a12.93,12.93,0,0,0-8.1-2.9,12.21,12.21,0,0,0-5.4,1.2v-.1c-17.3-14.3-37.8-23-60.2-21.2h-.1c.2,3,.2,5.9.2,7a82.85,82.85,0,0,1-1.4,12.2h-9.8v-.1C922.1,465.1,921.6,457.4,921.8,450Z" fill="#333435"/><path d="M959.6,184.9c-3.2,0-7.6-.1-16.5-.3-1.2,0-2.4-.1-3.6-.1h-1c-6.5-.3-13.2-.7-19.5-2.4a35,35,0,0,1-7.6-2.9c-.1-.1-.2-.1-.2-.3s-.4-3.8-.4-3.9c-.1-1.3-.9-5.7.1-9.8a4,4,0,0,1,4-3.8c4.5-.7,53.9-5.4,60.7-6.3,2.8,5,7.7,8.3,12.2,11.8s9,7.6,10.6,13.1a25.83,25.83,0,0,1,.8,6.8,30.43,30.43,0,0,1-.6,7.4c-.7,3.1-4.6,7.6-6.9,9.9l-.3.1c-.4-1-1-2.5-1.8-4.2a27,27,0,0,0-5.3-8.5c-4.9,2.8-9.1,5.1-13.5,8.2l-.3-.4-11-2.7V184.9h.1Z" fill="#543919"/><path d="M981.8,212.1l.1.2c-1.8,1.5-4.3,3.8-6.1,5.3-2.7,2.2-5.6,4.7-6.4,8.1a16.14,16.14,0,0,0,.4,6.9c.9,3.9,1.9,7.3,3.1,11.1v.1q-3,1.65-6,3.6l-.1-.1c-1.8-4.2-2.2-5.7-3.8-10a56.17,56.17,0,0,1-2.4-9.6l-2.7-.3c-12.4.2-17.7.1-31.2.3a12.87,12.87,0,0,1-5.2-.7c-2.4-1.1-3.8-3.7-4.6-6.3-1.8-6-1.1-12.5-.4-18.8.8-6.8,1.4-12.4,2.2-19.2l.1-.4c6.3,1.7,13,2.1,19.5,2.4h1c1.2.1,2.4.1,3.6.1,8.9.2,13.3.3,16.5.3v11.7l11,2.7.3.4c4.4-3.1,8.6-5.4,13.5-8.2a31.14,31.14,0,0,1,5.3,8.5q1.2,2.55,1.8,4.2c.5,1.2.7,1.9.8,2.1A100.83,100.83,0,0,1,981.8,212.1Zm-58.3-17.7a3.75,3.75,0,0,0-.1-1.1,2.07,2.07,0,0,0-.6-1,2.2,2.2,0,0,0-1.2-.5,1.38,1.38,0,0,0-1.1.1,1.33,1.33,0,0,0-.6,1,7,7,0,0,0,.5,2.5,1.69,1.69,0,0,0,1.4.9h.3a1.8,1.8,0,0,0,.9-.6A2.36,2.36,0,0,0,923.5,194.4Zm26.7,2.3a3.75,3.75,0,0,0-.1-1.1,1.46,1.46,0,0,0-.6-.9,2.2,2.2,0,0,0-1.2-.5,3.75,3.75,0,0,0-1.1.1,1.33,1.33,0,0,0-.6,1,7.42,7.42,0,0,0,.5,2.5,1.69,1.69,0,0,0,1.4.9,1.74,1.74,0,0,0,1.2-.6A3.94,3.94,0,0,0,950.2,196.7Z" fill="#edd7b9"/><path d="M839.2,389.5c-2,1.2-4.1,2.5-6.1,3.9-14.3,10-28.5,26.1-27.5,49.5,0,0-.1,15.5,1.7,27.3l-8.6.3c.5-10.8-.4-27.7-.4-27.7-1-24.8,11.3-42.1,31.3-55.4,1-.6,1.9-1.3,2.9-1.9a39.72,39.72,0,0,1,3.5-2c15.8-8.4,35.8-10.5,52.5-7.1,14.4,2.9,30.8,2.8,45.5,3.1h.3c2.8-2.4,5.1-4.4,7.2-6.5a66.29,66.29,0,0,0,6.3-7.3c1.4,1.1,19.9,14.5,36.6,12.6l.4.2c-.4.8-.8,1.7-1.3,2.5l-.4,1a165.51,165.51,0,0,1-32.9,5.8c-1.6.1-3.2.2-4.9.2-16.8.4-33.6-1.9-50-5.1a119.27,119.27,0,0,0-17.1-2c-13.4-.5-27.1,1.5-38.4,8.1A1.79,1.79,0,0,1,839.2,389.5Z" fill="#496672"/><path d="M983.8,253.6l.1.1c-6.1,3.2-11.9,6.1-17.6,9v-.1c.7-2,.5-2.9-.8-4.5a6.21,6.21,0,0,0-5.5-2.4c-.7.1-1.5.2-1.9-.3-.6-.7.2-1.7.9-2.3,2.6-2,5.3-4,8.1-5.8h0c1.9-1.3,3.9-2.4,6-3.6.8-.5,1.7-.9,2.5-1.4,1-.5,2.4-1,3.2-.2a2.62,2.62,0,0,1,.6,1.3l2.1,7.5C981.8,252.2,982.4,253.6,983.8,253.6Z" fill="#ecf4a4"/><path d="M959.1,345.9l.2.1-2.4,4.8h-.1c-14.3-1.4-32.1-15.1-36-18.1a9,9,0,0,1-1.1-1l2.5-4.1.2-.3a146.7,146.7,0,0,0,17.8,11.6A60,60,0,0,0,959.1,345.9Z" fill="#fcce95"/><path d="M950.1,195.6a4.1,4.1,0,0,1,.1,1.1,2.11,2.11,0,0,1-.5,1.3,1.43,1.43,0,0,1-1.2.6,1.69,1.69,0,0,1-1.4-.9,7,7,0,0,1-.5-2.5.89.89,0,0,1,.6-1,4.48,4.48,0,0,1,1.1-.1,3.08,3.08,0,0,1,1.2.5A2.07,2.07,0,0,1,950.1,195.6Z"/><path d="M941.3,373.1h0c-2.1,2.1-4.4,4.2-7.1,6.6h-.3c-16.7-6.3-28.3-17.3-43.9-25.9-7.5-4.1-15-8.3-23.2-10.6s-17.2-2.6-25,.8-12.1,10.9-12.2,19.5c-.1,7.6,2.4,13.4,6,19.8l.3.5a39.72,39.72,0,0,0-3.5,2,29,29,0,0,0-2.9,1.9l-.1-.1c-4.1-7.5-6.8-15.7-6.7-24.6.1-10.3,7.6-19.5,17.1-23.7s20.3-3.7,30.2-1,19,7.8,28,12.7C912.2,358.7,926.5,366.5,941.3,373.1Z" fill="#496672"/><path d="M935.7,485.7v8.4a17.31,17.31,0,0,1-7.4,1.6,28,28,0,0,1-9-1.6v-8.4h16.4Z" fill="#333435"/><polygon points="933.1 469.4 935.7 469.4 935.7 485.7 935.4 485.7 919.3 485.7 919.4 469.4 923.2 469.4 933.1 469.4" fill="#333435"/><path d="M923.4,193.2a4.1,4.1,0,0,1,.1,1.1,12.73,12.73,0,0,0-1.3,1.9h-.3a1.69,1.69,0,0,1-1.4-.9,7,7,0,0,1-.5-2.5,1,1,0,0,1,.6-1,4.48,4.48,0,0,1,1.1-.1,3.08,3.08,0,0,1,1.2.5A4.67,4.67,0,0,1,923.4,193.2Z"/><path d="M923.5,194.4a2.84,2.84,0,0,1-.4,1.3,1.46,1.46,0,0,1-.9.6A12.74,12.74,0,0,1,923.5,194.4Z"/><path d="M922.4,327.4l-.2.3-2.5,4.1c-1.5-1.3-3.5-3.1-4.4-2.2-1.4,1.5-2.1,3.9-4,4.6a5.33,5.33,0,0,1-2.5.2c-2.3-.1-4.1-1.6-9.9-.9-1,.1-2.8-5.9,3.2-5,4.5-.3,7.9.1,4.5-3.3-2.1-2.1-2.7-6.6-2.7-10.4v-3.3l-8.4-.6a2.76,2.76,0,0,1-1.1-3c.3-1.2,1.9-1.4,3.2-1.4,1.5,0,2.9,0,4.4.1h2.1a7,7,0,0,1,2.9.4h.1a3,3,0,0,1,.8.4c1.6,1.1,1.9,3.4,2.2,5.4.6,3.9,3.7,8.1,7.8,11.1C919.3,325,920.9,326.2,922.4,327.4Z" fill="#edd7b9"/><path d="M902,306.5a3,3,0,0,1-2.2-1.4,5.85,5.85,0,0,1-1-1.7,2.15,2.15,0,0,1,.2-1.9,2.39,2.39,0,0,1,2.5-.9,4,4,0,0,1,2.2,1.6,11.88,11.88,0,0,1,1.3,2.5,4.1,4.1,0,0,0,2,2.1,13.53,13.53,0,0,0-2.9-.4,14.77,14.77,0,0,1-2.1.1Z" fill="#edd7b9"/><path d="M824.4,303.6l.5-.3a2.18,2.18,0,0,0,.8-.5l.1-.1h29a5.5,5.5,0,0,0,3.8,0c13.3,0,25-.1,25-.1.5.3.7,1.6.4,2.5-.5,2-1.6,4.5-2.3,4.6h-137c-.2,0-1.5-1.7-1.8-1.7a290.6,290.6,0,0,1-30-50.3,15.61,15.61,0,0,0-2.9-4.6c-.8-.8-1.9-1.4-2.4-2.4s.1-3,1.3-3h84.9c-.3,0,17.5,33.1,28.1,51.8C822.9,301,823.7,302.4,824.4,303.6Z" fill="#afb2b2"/><path d="M882.1,440.8l-14.7,14.1c-.2.2-4.6,2.5-4.8,2.7-1.8,1.8-4.9,4.7-7.8,7.4l-8.5,7.9c-3.7,3.7-13.1,9.8-16.5,8.5-2.4-.9-5.6-4.6-3.3-5.8,9.8-5.3,15-17.3,17.3-19.8,4.3-4.8,2.5-8.6,7.2-14.7,1.9-.5,3.6-.8,5.2-1.2,3.2-.8,5.8-1.7,8.6-4.5a9.8,9.8,0,0,0,2.1-2.8,11.56,11.56,0,0,0,.7-3.7V428c.1-1.3.1-2.5.1-3.7C867.5,424.3,880.4,429.8,882.1,440.8Z" fill="#213a6d"/><path d="M867.4,428v.9a11.56,11.56,0,0,1-.7,3.7,9.8,9.8,0,0,1-2.1,2.8,15.38,15.38,0,0,1-8.6,4.5l-.2-.8c-.6-1-2-3.6-3.8-7.3l.3-.2,9.5-7,.3-.5c1.8,2.5,3.1,3.8,4.2,3.6Z" fill="#496672"/><path d="M861.9,470.4a12.81,12.81,0,1,1-13.5,1.7,13,13,0,0,1,8.2-2.9A13.28,13.28,0,0,1,861.9,470.4Z" fill="#333435"/><path d="M850.9,297c-.3-.1-.6-.1-.9-.2-1.6-.3-3.2-.5-4.8-.8-.8-.1-1.7-.3-2.5-.4a2.72,2.72,0,0,0-.9,0,2.84,2.84,0,0,0-1.1.8c-1.1,1.4-13.1,5.1-14.9,6.3a.1.1,0,0,0-.1.1,9.22,9.22,0,0,1-.8.5l-.5.3c-.7-1.2-1.5-2.6-2.3-4l.3-.1c2.5-1.6,6.7-3.5,10.2-5.3v-.1a39.49,39.49,0,0,0,1.2-4.4c.5-.9,5.4-5.3,6.4-5.4,2-.3,3.7.6,5.5,1.6s5.9,1.8,8.7,2.8c3.3.2,6.4.3,9.4.4v.1l-.2,6.8c-1.6-.1-3.2-.2-4.7-.4.5,1.4.5,2.9,1.1,5a2.46,2.46,0,0,1-1.3,2.1h-3.8a5.47,5.47,0,0,1-2-1.1c-.7-.6-.5-4-1.3-4.5A.88.88,0,0,1,850.9,297Z" fill="#edd7b9"/><path d="M862.2,424.3l-.3.5-9.5,7-.3.2c-6.3-12.5-17.5-36.2-18.6-37.9l-.4-.6c2.1-1.4,4.1-2.8,6.1-3.9C850.5,404,857.6,418,862.2,424.3Z" fill="#496672"/><path d="M850.9,297c-.5.6-.9,1.3-1.4,1.9a8.34,8.34,0,0,1-2.7,2.6,3.19,3.19,0,0,1-1.4.3,2.22,2.22,0,0,1-2-1,.76.76,0,0,1-.2-.4.85.85,0,0,1,.3-.6c1.2-1.3.7-1.9,1.6-3.5V296c1.6.3,3.2.5,4.8.8C850.3,296.9,850.6,296.9,850.9,297Z" fill="#edd7b9"/><path d="M815.8,476.8a6.66,6.66,0,0,1-.2,2.8c-1.5,6.9.8,10.6-.7,17.5l-24,2.1c-.3,0-5.2-2.2-5.5-2.2-40.6,2.5-47.8-5.3-47.8-5.3-1.8-1-.5-9.5,4.5-9,3.8.4,19.8,2.3,28.8-2,7.7-3.7,14.8-3.5,20.8-5.8,2.8,1.6,3.9,3,5.2,3.9s2.6,1.3,5.8,1.2a12.17,12.17,0,0,0,3.8-.7,9,9,0,0,0,2.6-1.7c.3-.2.5-.5.8-.7,1.2-1.1,2.4-2.2,3.5-3.4l.4.4A8,8,0,0,1,815.8,476.8Z" fill="#213a6d"/><path d="M808.6,477.2l.4.5a10.57,10.57,0,0,1-2.6,1.7,12.17,12.17,0,0,1-3.8.7c-3.2.1-4.5-.3-5.8-1.2l.6-.1c.7-1.3,1-4.3,1.2-8.1l8.6-.3C807.6,472.8,808.1,475.2,808.6,477.2Z" fill="#496672"/><path d="M848.3,472.1a84.32,84.32,0,0,1,6.5-6.9c15.9-15.1,38.8-25.3,64.1-26.8,4.1-.2,8.3-.2,12.5,0" fill="none" stroke="#000" stroke-linecap="round" stroke-linejoin="round" stroke-width="2"/><path d="M862,470.3c17.3-14.3,37.1-22.2,59.5-20.4" fill="none" stroke="#000" stroke-linecap="round" stroke-linejoin="round" stroke-width="2"/><path d="M861.9,470.4a12.81,12.81,0,1,1-13.5,1.7,13,13,0,0,1,8.2-2.9A13.28,13.28,0,0,1,861.9,470.4Z" fill="none" stroke="#000" stroke-linecap="round" stroke-linejoin="round" stroke-width="2"/><path d="M1008.3,473.1c-17-20.3-41.5-33.5-67.7-34.8-1.6-.1-3.2-.1-4.7-.1" fill="none" stroke="#000" stroke-linecap="round" stroke-linejoin="round" stroke-width="2"/><path d="M994.6,471.3c-17.3-14.3-37.8-23-60.2-21.2" fill="none" stroke="#000" stroke-linecap="round" stroke-linejoin="round" stroke-width="2"/><path d="M994.6,471.4a12.81,12.81,0,1,0,13.5,1.7,12.93,12.93,0,0,0-8.1-2.9A14.17,14.17,0,0,0,994.6,471.4Z" fill="none" stroke="#000" stroke-linecap="round" stroke-linejoin="round" stroke-width="2"/><path d="M922.2,442.5c-.2,2.3-.4,4.9-.4,7.5-.2,7.4.3,15.1,1.4,19.3" fill="none" stroke="#000" stroke-linecap="round" stroke-linejoin="round" stroke-width="2"/><path d="M933.6,443.3a52.78,52.78,0,0,1,.8,6.9c.2,3,.2,5.9.2,7a82.85,82.85,0,0,1-1.4,12.2h0" fill="none" stroke="#000" stroke-linecap="round" stroke-linejoin="round" stroke-width="2"/><polyline points="919.3 494.1 919.3 485.7 919.4 469.4 923.2 469.4 933.1 469.4 935.7 469.4 935.7 485.7 935.7 494.1" fill="none" stroke="#000" stroke-linecap="round" stroke-linejoin="round" stroke-width="2"/><path d="M919.3,494.1a27.51,27.51,0,0,0,9,1.6,17,17,0,0,0,7.4-1.6" fill="none" stroke="#000" stroke-linecap="round" stroke-linejoin="round" stroke-width="2"/><polyline points="919.2 485.7 919.3 485.7 935.4 485.7" fill="none" stroke="#000" stroke-linecap="round" stroke-linejoin="round" stroke-width="2"/><path d="M825.9,306.1c-.4-.8-.9-1.6-1.4-2.5-.7-1.2-1.5-2.6-2.3-4-10.6-18.7-28.4-51.8-28.1-51.8H709.2c-1.1,0-1.8,2-1.3,3a9.12,9.12,0,0,0,2.4,2.4,14.42,14.42,0,0,1,2.9,4.6,290.6,290.6,0,0,0,30,50.3c.2,0,1.6,1.7,1.8,1.7H882c.7-.1,1.8-2.7,2.3-4.6.2-.9.1-2.2-.4-2.5,0,.1-11.8.1-25,.1h-34" fill="none" stroke="#000" stroke-linecap="round" stroke-linejoin="round" stroke-width="2"/><path d="M918.9,182.5c-.8,6.8-1.4,12.4-2.2,19.2-.7,6.3-1.5,12.7.4,18.8.8,2.6,2.2,5.2,4.6,6.3a13.11,13.11,0,0,0,5.2.7c13.4-.2,18.7-.1,31.2-.3h2.6" fill="none" stroke="#000" stroke-linecap="round" stroke-linejoin="round" stroke-width="2"/><path d="M968.6,201.5l-.3.3c.9-.7,1.8-1.3,2.6-1.9,4.4-3.1,8.6-5.4,13.5-8.2a31.14,31.14,0,0,1,5.3,8.5q1.2,2.55,1.8,4.2c.5,1.2.7,1.9.8,2.1-3.4,2-6.9,3.9-10.5,5.6a134.53,134.53,0,0,1-18.6,7.1" fill="none" stroke="#000" stroke-linecap="round" stroke-linejoin="round" stroke-width="2"/><path d="M926.9,191a17.62,17.62,0,0,0-3.4,3.3,12.73,12.73,0,0,0-1.3,1.9c-2.7,4.4-3.8,10-.4,14,4,4.7,12.8,2.8,16.7-.9" fill="none" stroke="#000" stroke-linecap="round" stroke-linejoin="round" stroke-width="2"/><path d="M935.5,203.2a5.34,5.34,0,0,1,3.3-.4,6.07,6.07,0,0,1,2.6.8,4.7,4.7,0,0,1,2.1,2.7,6,6,0,0,1,0,3.5" fill="none" stroke="#000" stroke-linecap="round" stroke-linejoin="round" stroke-width="2"/><path d="M975.6,155.2c-6.8.9-56.2,5.6-60.7,6.3a4,4,0,0,0-4,3.8c-1,4.1-.2,8.5-.1,9.8,0,.1.4,3.8.4,3.9s.1.2.2.3a41.07,41.07,0,0,0,7.6,2.9c6.3,1.7,13,2.1,19.5,2.4h1c1.2.1,2.4.1,3.6.1,8.9.2,13.3.3,16.5.3h1.6c4.3-.2,7.5-.7,20-1.8" fill="none" stroke="#000" stroke-linecap="round" stroke-linejoin="round" stroke-width="2"/><path d="M975.6,155.2h0c-.1-.2.7-.1.4-.1C975.9,155.2,975.8,155.2,975.6,155.2Z" fill="none" stroke="#000" stroke-linecap="round" stroke-linejoin="round" stroke-width="2"/><path d="M991.7,204.3c2.3-2.3,6.2-6.8,6.9-9.9a30.84,30.84,0,0,0,.6-7.4,25.83,25.83,0,0,0-.8-6.8c-1.6-5.5-6.1-9.6-10.6-13.1s-9.4-6.9-12.2-11.8" fill="none" stroke="#000" stroke-linecap="round" stroke-linejoin="round" stroke-width="2"/><path d="M858.9,295.7c1.5.2,3.1.3,4.7.4,9.1.6,19.4.4,23.7-.2,24.2-3,36.8-5.3,59.5-13.7,5.9-2.2,11.9-4.5,17.8-6.8,6.4-2.5,12.8-5.1,19.1-7.8" fill="none" stroke="#000" stroke-linecap="round" stroke-linejoin="round" stroke-width="2"/><path d="M986,252.6c3.3-1.4,5.4-4.1,9.4-2.6,1.9.7,3.2,2.5,4.2,4.3,5.3,8.5,9.6,18,11,30.1,2.4,20.6-3.4,49-26,94.3-.4.8-.8,1.7-1.3,2.5" fill="none" stroke="#000" stroke-linecap="round" stroke-linejoin="round" stroke-width="2"/><path d="M983,382.2a165.51,165.51,0,0,1-32.9,5.8c-1.6.1-3.2.2-4.9.2-16.8.4-33.6-1.9-50-5.1a119.27,119.27,0,0,0-17.1-2c-13.4-.5-27.1,1.5-38.4,8.1-.2.1-.3.2-.5.3-2,1.2-4.1,2.5-6.1,3.9-14.3,10-28.5,26.1-27.5,49.5,0,0-.1,15.5,1.7,27.3a55.85,55.85,0,0,0,1.4,6.9" fill="none" stroke="#000" stroke-linecap="round" stroke-linejoin="round" stroke-width="2"/><path d="M933.9,379.7c-14.6-.3-31.1-.2-45.5-3.1-16.7-3.4-36.7-1.3-52.5,7.1a39.72,39.72,0,0,0-3.5,2,29,29,0,0,0-2.9,1.9c-20.1,13.3-32.3,30.6-31.3,55.4,0,0,1,16.9.4,27.7-.2,3.8-.5,6.8-1.2,8.1" fill="none" stroke="#000" stroke-linecap="round" stroke-linejoin="round" stroke-width="2"/><path d="M971.4,280.7c5,8.7,4.7,16.5,2.7,24-1.8,6.9-5,13.6-7,20.5a135.12,135.12,0,0,1-7.7,20.7l-2.4,4.8c-1.9,3.7-4.1,7.3-6.3,10.8-1,1.6-2,3-2.9,4.3a66.29,66.29,0,0,1-6.3,7.3c-2.1,2.1-4.4,4.1-7.2,6.5H934" fill="none" stroke="#000" stroke-linecap="round" stroke-linejoin="round" stroke-width="2"/><polyline points="798.6 470.6 798.6 470.6 807.2 470.3" fill="none" stroke="#000" stroke-linecap="round" stroke-linejoin="round" stroke-width="2"/><path d="M947.6,365.8h0c1.5,1.1,20,14.6,36.7,12.7" fill="none" stroke="#000" stroke-linecap="round" stroke-linejoin="round" stroke-width="2"/><path d="M1012.1,284.2c-1.3-11.5-3.2-22.9-5.5-33.7-.3-1.6,5.1-.7,6.5.4,9.2,43.1,12.4,94.1-8,133-19.6,7.1-42.1,10.3-64.7,10.9-7.1.2-14.2.1-21.2-.3a321,321,0,0,1-43.4-5c-.3-.5.3-2.7.5-3.9.3-1.8.1-2.3,1.8-3,20.4,5.5,46.5,7.8,72.2,6.4,17.4-1,34.6-3.7,49.7-8.2C1014.2,352.5,1015.9,317.5,1012.1,284.2Z" fill="none" stroke="#000" stroke-linecap="round" stroke-linejoin="round" stroke-width="2"/><path d="M960.8,227.5a40.91,40.91,0,0,0,2.4,9.6,85.82,85.82,0,0,0,3.8,10" fill="none" stroke="#000" stroke-linecap="round" stroke-linejoin="round" stroke-width="2"/><path d="M972.9,243.6a87.17,87.17,0,0,1-3.1-11.1,16.14,16.14,0,0,1-.4-6.9c.8-3.4,3.7-5.9,6.4-8.1,1.8-1.5,4.3-3.8,6.1-5.3" fill="none" stroke="#000" stroke-linecap="round" stroke-linejoin="round" stroke-width="2"/><path d="M983.8,253.6c-1.4,0-2-1.4-2.4-2.7l-2.1-7.5a3.1,3.1,0,0,0-.6-1.3c-.8-.8-2.2-.4-3.2.2-.8.4-1.7.9-2.5,1.4q-3,1.65-6,3.6h0a91.87,91.87,0,0,0-8.1,5.8c-.7.6-1.5,1.6-.9,2.3.4.5,1.2.4,1.9.3a6.46,6.46,0,0,1,5.5,2.4c1.3,1.6,1.5,2.5.8,4.5" fill="none" stroke="#000" stroke-linecap="round" stroke-linejoin="round" stroke-width="2"/><path d="M813.7,473.9a6.07,6.07,0,0,1,2.1,2.9,6.66,6.66,0,0,1-.2,2.8c-1.5,6.9.8,10.6-.7,17.5" fill="none" stroke="#000" stroke-linecap="round" stroke-linejoin="round" stroke-width="2"/><path d="M814.9,497.2l-24,2.1c-.3,0-5.2-2.2-5.5-2.2-40.6,2.5-47.8-5.3-47.8-5.3-1.8-1-.5-9.5,4.5-9,3.8.4,19.8,2.3,28.8-2,7.7-3.7,14.8-3.5,20.8-5.8,2.8,1.6,3.9,3,5.2,3.9s2.6,1.3,5.8,1.2a12.17,12.17,0,0,0,3.8-.7,9,9,0,0,0,2.6-1.7c.3-.2.5-.5.8-.7,1.2-1.1,2.4-2.2,3.5-3.4l.2-.2" fill="none" stroke="#000" stroke-linecap="round" stroke-linejoin="round" stroke-width="2"/><path d="M867.4,428c.1-1.3.1-2.5.1-3.7,0,0,12.9,5.5,14.5,16.6L867.3,455c-.2.2-4.6,2.5-4.8,2.7-1.8,1.8-4.9,4.7-7.8,7.4l-8.5,7.9c-3.7,3.7-13.1,9.8-16.5,8.5-2.4-.9-5.6-4.6-3.3-5.8,9.8-5.3,15-17.3,17.3-19.8,4.3-4.8,2.5-8.6,7.2-14.7,1.9-.5,3.6-.8,5.2-1.2,3.2-.8,5.8-1.7,8.6-4.5a9.8,9.8,0,0,0,2.1-2.8,11.56,11.56,0,0,0,.7-3.7A3.75,3.75,0,0,1,867.4,428Z" fill="none" stroke="#000" stroke-linecap="round" stroke-linejoin="round" stroke-width="2"/><path d="M829.4,387.5c-4.1-7.5-6.8-15.7-6.7-24.6.1-10.3,7.6-19.5,17.1-23.7s20.3-3.7,30.2-1,19,7.8,28,12.7c14.2,7.8,28.5,15.6,43.3,22.2" fill="none" stroke="#000" stroke-linecap="round" stroke-linejoin="round" stroke-width="2"/><path d="M855.9,439.2c-.6-1-2-3.6-3.8-7.3-6.3-12.5-17.5-36.2-18.6-37.9" fill="none" stroke="#000" stroke-linecap="round" stroke-linejoin="round" stroke-width="2"/><path d="M835.6,383.2c-3.6-6.4-6.1-12.1-6-19.8.1-8.5,4.4-16,12.2-19.5s16.8-3.1,25-.8,15.7,6.5,23.2,10.6c15.6,8.6,27.3,19.7,43.9,25.9h0" fill="none" stroke="#000" stroke-linecap="round" stroke-linejoin="round" stroke-width="2"/><path d="M866.4,428c-1.1.2-2.5-1.2-4.2-3.6-4.6-6.4-11.7-20.3-23-34.8v-.1" fill="none" stroke="#000" stroke-linecap="round" stroke-linejoin="round" stroke-width="2"/><path d="M922.2,218.3a80.82,80.82,0,0,0,17.7-.8" fill="none" stroke="#000" stroke-linecap="round" stroke-linejoin="round" stroke-width="2"/><path d="M973.9,304.7c-1.3-6.5-7-20.9-9.3-29" fill="none" stroke="#000" stroke-linecap="round" stroke-linejoin="round" stroke-width="2"/><path d="M907,306.9a3,3,0,0,1,.8.4c1.6,1.1,1.9,3.4,2.2,5.4.6,3.9,3.7,8.1,7.8,11.1,1.5,1.2,3.1,2.4,4.7,3.6A146.7,146.7,0,0,0,940.3,339a61.4,61.4,0,0,0,18.9,6.9" fill="none" stroke="#000" stroke-linecap="round" stroke-linejoin="round" stroke-width="2"/><path d="M956.9,350.8c-14.3-1.4-32.1-15.1-36-18.1a9,9,0,0,1-1.1-1c-1.5-1.3-3.5-3.1-4.4-2.2-1.4,1.5-2.1,3.9-4,4.6a5.33,5.33,0,0,1-2.5.2c-2.3-.1-4.1-1.6-9.9-.9-1,.1-2.8-5.9,3.2-5,4.5-.3,7.9.1,4.5-3.3-2.1-2.1-2.7-6.6-2.7-10.4v-3.3l-8.4-.6a2.76,2.76,0,0,1-1.1-3c.3-1.2,1.9-1.4,3.2-1.4,1.5,0,2.9,0,4.4.1h2.1a7,7,0,0,1,2.9.4" fill="none" stroke="#000" stroke-linecap="round" stroke-linejoin="round" stroke-width="2"/><polyline points="922.2 327.6 919.8 331.7 919.7 331.8" fill="none" stroke="#000" stroke-linecap="round" stroke-linejoin="round" stroke-width="2"/><polyline points="863.7 289.3 863.6 296.1 863.6 296.1" fill="none" stroke="#000" stroke-linecap="round" stroke-linejoin="round" stroke-width="2"/><path d="M902,306.5h0a3.15,3.15,0,0,1-2.3-1.4,5.85,5.85,0,0,1-1-1.7,2.15,2.15,0,0,1,.2-1.9,2.39,2.39,0,0,1,2.5-.9,4,4,0,0,1,2.2,1.6,11.88,11.88,0,0,1,1.3,2.5,4.1,4.1,0,0,0,2,2.1h.3" fill="none" stroke="#000" stroke-linecap="round" stroke-linejoin="round" stroke-width="2"/><path d="M822.4,299.5c2.5-1.6,6.7-3.5,10.2-5.3,2.9-1.5,5.3-2.9,6-4a3.11,3.11,0,0,1,.7-.9c1-.7,2.3.1,3.4.8a9.58,9.58,0,0,0,3.2,1.2" fill="none" stroke="#000" stroke-linecap="round" stroke-linejoin="round" stroke-width="2"/><path d="M851.7,291.6a12.41,12.41,0,0,1,2.7.3c1.4.4,3,.8,3.7,2a7.1,7.1,0,0,1,.8,1.8c.5,1.4.5,2.9,1.1,5a2.46,2.46,0,0,1-1.3,2.1,6.12,6.12,0,0,1-5.8-1.1c-.7-.6-.5-4-1.3-4.5a4.87,4.87,0,0,0-.7-.3c-.3-.1-.6-.1-.9-.2-1.6-.3-3.2-.5-4.8-.8-.8-.1-1.7-.3-2.5-.4a2.72,2.72,0,0,0-.9,0,2.84,2.84,0,0,0-1.1.8c-1.1,1.4-13.1,5.1-14.9,6.3a.1.1,0,0,0-.1.1,9.22,9.22,0,0,1-.8.5" fill="none" stroke="#000" stroke-linecap="round" stroke-linejoin="round" stroke-width="2"/><path d="M832.5,294.1a39.49,39.49,0,0,0,1.2-4.4c.5-.9,5.4-5.3,6.4-5.4,2-.3,3.7.6,5.5,1.6s5.9,1.8,8.7,2.8c3.3.2,6.4.3,9.4.4,28,.6,43.7-3.8,59.2-8.7a303.6,303.6,0,0,0,43.3-17.8c5.7-2.8,11.5-5.8,17.6-9a22.56,22.56,0,0,1,2.2-1.1" fill="none" stroke="#000" stroke-linecap="round" stroke-linejoin="round" stroke-width="2"/><path d="M845.1,296.3c-.9,1.6-.4,2.2-1.6,3.5a.86.86,0,0,0-.3.6.76.76,0,0,0,.2.4,2.46,2.46,0,0,0,2,1,3.19,3.19,0,0,0,1.4-.3,9.53,9.53,0,0,0,2.7-2.6c.5-.6.9-1.3,1.4-1.9h0" fill="none" stroke="#000" stroke-linecap="round" stroke-linejoin="round" stroke-width="2"/><path d="M911.4,324.7a2.15,2.15,0,0,1,2.8,1.8" fill="none" stroke="#000" stroke-linecap="round" stroke-linejoin="round" stroke-width="2"/><path d="M909.2,330.8a2.24,2.24,0,0,0,1.4,2.2" fill="none" stroke="#000" stroke-linecap="round" stroke-linejoin="round" stroke-width="2"/><path d="M857.9,294.5a4.41,4.41,0,0,0-3.8,1.5" fill="none" stroke="#000" stroke-linecap="round" stroke-linejoin="round" stroke-width="2"/><path d="M919.1,395.7c-.4,3.1-.4,24.6-.3,27.8v14" fill="none" stroke="#000" stroke-linecap="round" stroke-linejoin="round" stroke-width="2"/><path d="M940.4,396c0,1.1.2,5.7.2,6.8v35" fill="none" stroke="#000" stroke-linecap="round" stroke-linejoin="round" stroke-width="2"/><polyline points="959.6 185.1 959.6 196.8 970.6 199.5" fill="none" stroke="#000" stroke-linecap="round" stroke-linejoin="round" stroke-width="2"/><line x1="861.9" y1="424.8" x2="852.4" y2="431.8" fill="none" stroke="#000" stroke-linecap="round" stroke-linejoin="round" stroke-width="2"/></g></svg>