<svg id="2c29cb59-16de-44a4-a763-77e88abb8d5c" data-name="6ee3748b-9139-4717-a549-6143d18af73f" xmlns="http://www.w3.org/2000/svg" width="1025" height="507.8" viewBox="0 0 1025 507.8"><title>brainstorm_p3-active</title><path d="M476.3,436.64a92.53,92.53,0,0,1,45.1-14.39V407a41.52,41.52,0,0,1-9.7,2.18c-.63.05-1.49.1-2.51.1-5.12,0-14.15-1.25-16.35-9.75-.14-.51-.29-1.06-.45-1.62-1.16-4.11-2.6-9.22-1.76-13.33a9.32,9.32,0,0,1,4.24-6.5c5.52-3.29,14.95-.46,23.27,2,2.08.63,4,1.21,5.89,1.7a1,1,0,0,1-.12-.55,12.3,12.3,0,0,1,.63-2.79,32,32,0,0,1-4.2-2.38,6.14,6.14,0,0,1-2.81-3.66,1,1,0,0,1,0-.22,4.73,4.73,0,0,1,.37-2c-2.79-1.84-5.87-3.71-9.18-5.55-11.2-1.27-23.18-2-36.61-2.37a1,1,0,0,1-.16,0,61.21,61.21,0,0,0-21.29,14.33c-10.6,10.6-12.48,23-5.45,35.82a1,1,0,0,1,.18-.09c4-1,7.57,2.8,10.41,5.86.72.77,1.4,1.51,2,2.08a3.49,3.49,0,0,1,.89,1c0,.08.05.15.08.23a21.29,21.29,0,0,1,8.54.81c4.72,1.44,10.64,6.56,9.49,12.45C476.65,435.42,476.48,436,476.3,436.64Zm-6.62-17.7c-.46-.19-.92-.36-1.38-.51a22.79,22.79,0,0,0-7.75-1l-.15-.15c-.49-.47-1.08-1.1-1.69-1.77-2.62-2.82-6.35-6.82-11.12-7.26a30.23,30.23,0,0,1-1.71-4.58c-2.36-8.67.16-16.78,7.57-24.19l.07-.07a57.16,57.16,0,0,1,19.08-13c12.66.32,24,1.05,34.63,2.22,2.14,1.2,4.17,2.41,6.09,3.61,0,.06,0,.13,0,.19a5,5,0,0,0,.18,1.11,10.31,10.31,0,0,0,.48,1.31c-7.62-2.11-15.47-3.49-21.16-.1a13.22,13.22,0,0,0-6.1,9.13c-1,5.06.55,10.69,1.83,15.22l.43,1.54c2.08,8,9.63,12.75,20.07,12.75,1,0,2,0,3.06-.13a45.56,45.56,0,0,0,5.31-.87v6.21l-1.19.13-1.29.14-2.09.27-1.13.16c-.8.12-1.6.26-2.4.4l-.8.14a96.64,96.64,0,0,0-9.72,2.32l-.17.05q-1.51.45-3,.94l-.32.11q-1.43.48-2.85,1l-.31.12q-1.44.54-2.87,1.13l-.19.08a96.71,96.71,0,0,0-8.75,4.15C478.79,424.8,474.43,420.78,469.68,418.94Z" fill="#f15a24"/><path d="M624.5,234a15.24,15.24,0,0,1-.8-1.4c-1-1.94-2.32-4.35-4.86-5.62l-.14-.06a97.17,97.17,0,0,0-36.79-12.43c-.08-2-.18-3.94-.3-5.94.18-.25.34-.5.51-.76l.23-.35q.45-.72.84-1.46c.06-.12.12-.25.18-.37.19-.38.37-.77.54-1.16.08-.19.15-.38.22-.57.13-.34.26-.68.38-1s.13-.41.2-.62.2-.69.28-1,.1-.42.15-.63c.08-.37.15-.75.21-1.13,0-.18.07-.36.09-.55.08-.56.13-1.13.16-1.7a24.81,24.81,0,0,0-.8-7.49c-.06-.25-.14-.49-.21-.74s-.08-.31-.13-.46a34.65,34.65,0,0,0-5.91-11.11h0l-.05-.07c0-.31-.08-.63-.12-.94l-.07-.58q-.13-1.1-.25-2.18c-.12-1-.24-2.08-.37-3.13A10.34,10.34,0,0,0,579.5,165c.05-.85.09-1.78.1-2.77,0,0,0-.05,0-.08,0-.26,0-.51,0-.78a27.52,27.52,0,0,0-3-13.07,12.41,12.41,0,0,0-.75-1.2,11.85,11.85,0,0,0-2.62-2.84c-.08-.33-.15-.63-.21-1-.4-2.38-.83-4.74-1.27-7.09s-.84-4.58-1.24-6.93h0c-1-5.63-2-11.26-3-16.79l0-.21h0s0-.09,0-.14a5.35,5.35,0,0,0-4.37-4.24,5,5,0,0,0-1.87.13,50.52,50.52,0,0,0-12.17,1.26,87.35,87.35,0,0,0-15.11,5c-.13,0-.25.12-.37.18l-.26.13c-.1.05-.21.09-.3.15a5,5,0,0,0-1.83,6.85q1,3.68,2,7.36t1.93,7.18s0,0,0,.06a5,5,0,0,0,.45,2c4.62,17.22,9.34,34.66,14,51.85l.53,2c2,7.41,4,15,5.39,22.61a101.59,101.59,0,0,0-37.31,11.94,5,5,0,0,0-2.18,2.42,230.5,230.5,0,0,0-9.12,25.36l-.08.28q-.29,1-.57,2c-.15.54-.3,1.08-.45,1.62l-.23.88q-.35,1.32-.69,2.63v0q-.64,2.55-1.21,5.09c-5.83-10.78-10.24-19.07-11-20.72a5,5,0,0,0-4.71-3.31H403a6.26,6.26,0,0,0-5.3,3.08,7.84,7.84,0,0,0-1.15,4.53,6.74,6.74,0,0,0,.68,2.72,5,5,0,0,0,.34.58,14,14,0,0,0,3.17,3.33,9.38,9.38,0,0,1,1.6,2.68l.13.29A296.26,296.26,0,0,0,433,311.18a5,5,0,0,0,.91.94l.15.16c1,1.1,2.38,2.62,4.75,2.62h61.42a99.21,99.21,0,0,0,2.47,13.91c-5,0-10.07-.28-15-.53l-5.85-.28c-18.82-.78-33.78,1.09-45.69,5.73a5.57,5.57,0,0,0-1.13.4,12.35,12.35,0,0,0-9.39,12.09,11.86,11.86,0,0,0,.08,1.31c.58,4.71,4.49,9.62,11.7,9.87a7.83,7.83,0,0,0,.49,4.42l.16.51a5.34,5.34,0,0,0,2.2,2.8,46,46,0,0,0-10.83,16c-.13.28-.24.56-.34.83l0,.11a5.06,5.06,0,0,0-.24.56c-4.61,12.89-3,26.16,4.19,36.86-2.65,6.15,0,10.14,1.4,11.67.91,1,1.83,2,2.74,3s1.69,1.83,2.54,2.77a10.72,10.72,0,0,0,2.75,2.44c0,.17,0,.33-.06.51l0,.12a14.76,14.76,0,0,1-2.17,6l-.37.08c-6.43,1.19-11.34,3.73-14.59,7.54A22.06,22.06,0,0,0,420,468.58a31.67,31.67,0,0,0,5.05,16.51,24.57,24.57,0,0,0,7.15,7.27l.33.2a26.21,26.21,0,0,0,8.4,3,5,5,0,0,0,.85.07H442a5,5,0,0,0,1.2-.15,30.25,30.25,0,0,0,15.44-9.34l.08-.09.25-.32a17.7,17.7,0,0,0,2.58.2h.15a17.68,17.68,0,0,0,11.95-4.71c.2-.18.42-.36.61-.55a18.09,18.09,0,0,0,1-24.39c14.92-10.91,30.94-16.5,46.87-16.35,0,1,0,1.83,0,2.31,0,.07,0,.13,0,.2.11,2.7.36,5.4.72,8.09a5,5,0,0,0-1.92,3.91v24.7a5,5,0,0,0,.06.75s0,.08,0,.13v0c0,.09,0,.17.06.26s.08.29.12.44l.08.22.07.19c.06.15.14.29.22.43l.1.19.08.13.13.17c.1.13.19.26.3.39l.13.14.18.18.34.29.21.16.13.1a5,5,0,0,0,.61.34l0,0h0l.12.05.06,0a22.13,22.13,0,0,0,9.13,2h.25A32.92,32.92,0,0,0,544,483.81l.15-.07.3-.13.37-.19.19-.12.2-.14.34-.27.22-.19.11-.1a5,5,0,0,0,.34-.39l.15-.18.07-.1.12-.2a5,5,0,0,0,.26-.45l.06-.13c0-.09.08-.18.11-.28s.1-.27.14-.41l.06-.24c0-.07,0-.15,0-.22s0-.27.05-.41,0-.22,0-.33,0-.11,0-.16v-7.4a5,5,0,0,0,0-2l-.09-15.31a5,5,0,0,0-3-4.52,101.58,101.58,0,0,0,.59-10.17c16.36-.33,32,5,46.77,15.75a17.81,17.81,0,1,0,26.21-.87,5,5,0,0,0-.59-.89c-15.7-18.51-39.3-30.93-65.31-34.5V400.31a15.84,15.84,0,0,0,5.46-3.8l.12-.14c3.61-4.19,4.38-11,1.86-16.45a14.22,14.22,0,0,0-2.75-4c2.65.14,5.29.23,7.92.23h1.68c14.59,0,26.91-3.48,36.67-10.32a5,5,0,0,0,1.29-.88,11.94,11.94,0,0,0,4-6.67c0-.15,0-.3.08-.45s.09-.5.12-.76,0-.48,0-.71,0-.32,0-.48,0-.07,0-.11,0-.06,0-.09,0-.21,0-.32q-.46-6.07-.52-12.15a184.13,184.13,0,0,1,3.25-36.23c1.69-8.76,3.79-17.64,5.81-26.22,2.51-10.64,5.11-21.63,7-32.68l0-.14a6.06,6.06,0,0,0,.12-.71c.52-3.23,1-6,1.54-8.85a5.14,5.14,0,0,0,.09-1.18A4.93,4.93,0,0,0,624.5,234ZM492.9,247.84v0h0Zm128.79-10.25c-.57,3-1,5.78-1.58,9.11a2.36,2.36,0,0,1-.08.44,1.82,1.82,0,0,1,0,.23c-1.88,10.92-4.46,21.86-7,32.44-2,8.62-4.14,17.54-5.85,26.38a188.18,188.18,0,0,0-2.78,49.53,8,8,0,0,1-2.94,6.23,1,1,0,0,1-.63.31c-9,6.52-20.71,9.83-34.72,9.83h-1.55a144.16,144.16,0,0,1-16.65-1v3.36a26.77,26.77,0,0,1,5.14,3.34,1,1,0,0,1,.29.44,10,10,0,0,1,2.38,3.31c1.89,4.12,1.37,9.13-1.25,12.17a11.87,11.87,0,0,1-6.56,3.61v25a1,1,0,0,1-.09.41c26.42,2.76,50.52,15,66.26,33.64a1,1,0,0,1,.09.17,13.77,13.77,0,0,1-3.25,22.92,13.81,13.81,0,0,1-13-24.31c-17.74-14.31-36.94-20.83-57.09-19.37a86.72,86.72,0,0,1-1.18,17.54h2.57a1,1,0,0,1,1,1l.1,15.88a.93.93,0,0,1,0,.85v8s0,0,0,0a1,1,0,0,1,0,.21.76.76,0,0,1-.4.57,1,1,0,0,1-.19.11h0a28.94,28.94,0,0,1-9.32,1.66h-.2a18.1,18.1,0,0,1-7.59-1.68h0a.93.93,0,0,1-.11-.08,1,1,0,0,1-.19-.14,3.6,3.6,0,0,1-.2-.32,1,1,0,0,1,0-.21,1,1,0,0,1,0-.15V454.4a1,1,0,0,1,1-1h1.41a84.25,84.25,0,0,1-1.21-11.16c0-1,0-3.5.15-6.19-19.67-1.34-39.55,5.64-57.59,20.21,4.24,2.2,6.75,6.53,6.75,11.84a13.78,13.78,0,0,1-13.72,13.8h-.12a13.42,13.42,0,0,1-4.28-.69,21.26,21.26,0,0,1-1.62,2.23,26.29,26.29,0,0,1-13.42,8.13l-.24,0-.1,0-.1,0h-.17a22.22,22.22,0,0,1-7.12-2.51,20.63,20.63,0,0,1-6.05-6.13c-4.78-7.36-6.88-18.83-.22-26.59,2.66-3.12,6.83-5.22,12.38-6.23a13.11,13.11,0,0,1,2.78-.32,1,1,0,0,1,.08-1,18.79,18.79,0,0,0,3.13-8.26c.07-.44.11-.84.15-1.22a11.72,11.72,0,0,1,.56-2.85l-.4,0a4.33,4.33,0,0,1-1.6-.3,6,6,0,0,1-2.51-2c-.88-1-1.77-1.94-2.65-2.89s-1.81-2-2.72-3c-2.11-2.31-2-5.65.22-9.23C429.89,409,428,396.57,432.56,384l0-.11a5.09,5.09,0,0,0,.21-.5,7,7,0,0,1,.29-.7c3.13-8,9-15,17.39-20.75h-7.6a1.31,1.31,0,0,1-1.05-.8l-.17-.52c-.54-1.66-.58-1.89-.13-3.36.08-.26.18-.58.29-1a1,1,0,0,1,1.07-.71l.11,0c6.71.1,12,.2,17.86.4,2.95-1.46,6-2.7,8.36-3.63a28.75,28.75,0,0,1,2.87-1c-12.06-2.12-23.27-1.46-33.38,2l-.14,0a.94.94,0,0,1-.14,0h-.54c-5.52,0-7.9-3.43-8.25-6.45a8.39,8.39,0,0,1,7.06-9h0l.28-.08c11.45-4.56,26-6.4,44.51-5.63l5.85.28c6.75.34,13.72.68,20.59.46a95.22,95.22,0,0,1-4.11-22H438.8c-.61,0-1-.46-1.79-1.31-.19-.21-.36-.4-.48-.51a1,1,0,0,1-.33-.29,292.2,292.2,0,0,1-30.1-50.47,13.49,13.49,0,0,0-2.65-4.26,10.08,10.08,0,0,1-2.57-2.6l-.07-.12a3.58,3.58,0,0,1,.3-3.26A2.27,2.27,0,0,1,403,246.8h84.9a1,1,0,0,1,1,.77c.58,1.34,7.73,14.75,16.61,31.06a203.64,203.64,0,0,1,14.19-48.12,1,1,0,0,1,.44-.48,97.5,97.5,0,0,1,40.13-11.86c-1.34-9.22-3.8-18.44-6.19-27.36l-.52-1.95c-4.7-17.25-9.43-34.74-14.07-52a1,1,0,0,1-.3-1.12c-1.37-5.21-2.79-10.57-4.27-16a1,1,0,0,1-.4-.78,1,1,0,0,1,.56-.9,1.12,1.12,0,0,1,.33-.16A83.37,83.37,0,0,1,550,113.13,46.53,46.53,0,0,1,561.92,112a1,1,0,0,1,1.57.64,1,1,0,0,1,.1.29q1.51,8.63,3,17c.4,2.34.82,4.65,1.24,7s.85,4.68,1.26,7a15.63,15.63,0,0,0,.35,1.63c.1.39.2.8.29,1.27a8.63,8.63,0,0,1,3.35,3.39c2,3.72,2.8,8.34,2.42,14.54a6.33,6.33,0,0,1-1.18,3.52l-.06.08a3.79,3.79,0,0,1-.81.69c.24,1.73.43,3.4.62,5.09s.37,3.17.59,4.84a9.61,9.61,0,0,1,.67.86c3,3.94,6.63,10.17,6.27,17.22a17.42,17.42,0,0,1-4.08,10.27c.19,2.64.31,5.31.41,7.91,0,1,.08,1.94.13,2.92a93.1,93.1,0,0,1,38.65,12.29,1,1,0,0,1,.2.16l.12.12.08,0c1.25.73,2.11,2.29,2.94,3.79a12.38,12.38,0,0,0,1.39,2.19A1,1,0,0,1,621.68,237.59Z" fill="#f15a24"/></svg>