<svg id="09de9218-751e-48bb-8996-916bbd745f96" data-name="Layer 1" xmlns="http://www.w3.org/2000/svg" width="1025" height="507.8" viewBox="0 0 1025 507.8"><title>brainstorm_p4</title><path d="M798.5,467.8a6.89,6.89,0,0,0-3.1-3,7.53,7.53,0,0,0-3-.4c-7.7.1-15,1-20.6,5.5l-.2.1c-8.9-.8-19.3-13.3-19.3-13.3-1.8.7-21.8,5.4-27.2,5a9,9,0,0,1-1.8-.2l-.1.4c-5.9,8.6,2.7,17.2,2.7,17.2l.26-.05,4.74,10.85,9.4.4,11,.4-1.48-6.48a74.91,74.91,0,0,0,7.08,5.38l7.9.6.2-2.8.09-.06L764.9,490c10.8.6,22.3.1,31.5-5.6a6.66,6.66,0,0,0,1.44-1.34l.06,0C801,479.3,800.7,471.7,798.5,467.8Zm-.9,15c.27-.48,1.7-2.57,1.39-4.33.45,1.69-.93,3.78-1.34,4.37Z" fill="none" stroke="#1d1d1b" stroke-linecap="round" stroke-linejoin="round" stroke-width="6"/><path d="M770.9,190.8c.8.6,4-2.4,4-2.4l1.6-4s-6.2-5.4-9.1-4.7a20.48,20.48,0,0,0-5.9,3l1.3,2.9.4.3-1.7,2.4h-2.2a40.88,40.88,0,0,1,5.2,2l5.9,4.5S770.1,190.3,770.9,190.8Z" fill="none" stroke="#1d1d1b" stroke-linecap="round" stroke-linejoin="round" stroke-width="6"/><path d="M723.5,461.3a9,9,0,0,0,1.8.2c5.4.4,25.4-4.3,27.2-5s6.4-5.4,6.4-5.4-.7-5.8-2.5-9-5-6.4-8.6-5.7-11.1-3.2-13.6-1.8l-.79-.1c9-68.51,2.89-178.6,2.89-178.6l-.2-.1-1.36.31,1.56-.41a44.88,44.88,0,0,1,5.6-1.2c1.4,0,10.6-1.1,13.6-2.5a76.7,76.7,0,0,1,7.2-2.9s5.2-11.1.7-26.5v-.3c-.9.5-1.5.9-1.5.9l-5.9,2.1h0l5.9-2.1s.6-.4,1.5-.9c.2-.1.5-.3.7-.4,2.1-1.3,5.2-3.2,5.9-4.1,1.1-1.4,1.6-6.2,1.6-6.2l-1.1-16.7-5.9-4.5a29.2,29.2,0,0,0-5.2-2c-.3,0-.6-.1-.8-.1h-.2a43.54,43.54,0,0,0-1.1-6.29c-.5-1,.2-3.3,1-4.3a23.35,23.35,0,0,0,.7-4.5l.2-.4c.9.3,1.9.6,2.4.3.9-.2,0,9.5,0,9.5a19,19,0,0,1,5.9-3c2.9-.8,9.1,4.7,9.1,4.7s3,.3,4.3-1.6,1.3-10.5,1.6-12.1-3.7-11-4.8-13.4-4.6-6.2-4.6-6.2v-8.9s1.1-12.1,1.1-13.4-.8-13.9-.8-15-3.36-5.49-4.16-6.52c15.25-1,24.26-14.18,23.86-13.68-22.3,2.3-20.7-14.8-21.6-18.4s-2.7-4.7-4-7,2.3-8.5,2.3-8.5,2.2-3,.5-5.9-3.9-13.3-4.7-15.1,1.3-13.5.8-16.7-3.6-2.3-3.6-2.3l-1.2-.1a5.5,5.5,0,0,1-.9.7c-2.8,2.1-5.6,4.2-8.5,6.3l.05.05A135.86,135.86,0,0,1,740.7,34.1a7.24,7.24,0,0,1-4.1,1.4h-.06a9,9,0,0,0,4-1.39c4.1-2.4,8-5,11.9-7.8,2.8-2,5.7-4.2,8.5-6.3.3-.2.6-.5.9-.7a7.55,7.55,0,0,0,1.1-1.4,4.19,4.19,0,0,0-.9-4.5,7.2,7.2,0,0,0-4.1-2.2c-6.9-3-14.6-5.4-21.8-3.3-5.7,1.6-11.8,5.4-16.4,9.1a67,67,0,0,0-12.2,13.3c-2.5,3.4-4.8,7-7.1,10.6-.64,1-1.28,1.93-1.92,2.92l-.08,0a15.76,15.76,0,0,0-2.6,7.8,16.19,16.19,0,0,0,2.5,8.5c1,1.6,3.1,2.9,3.5,4.9s-1.4,3.6-3.1,4.5c-3.7,2.1-8.4,1.5-12.3.7a15.91,15.91,0,0,1-9.9-5.5c-6.4-8.3,1.9,16,4.2,17.6s22.3,9,37.6-.5l.26-.09,0,.09c.69,1.68,1.39,3.46,2.08,5.05L701.6,93.8s-4,.7-9.7,8.2S660,145,660,145s-9-1.5-9.7.7l-.5,1.8-2.7-2.4c1.2,1.4.8,4.9-.7,6.8a6.39,6.39,0,0,1-2.94,1.54A5.9,5.9,0,0,0,646.1,152c1.5-1.9,1.9-5.5.7-6.8l-.3-.2-2,1.1,2.8-6.7c.7-2.3,2-5.1,1.6-7.5a5.45,5.45,0,0,0-1.2-2.4c-.5-.6-1.6-.5-1.6-.6a3.47,3.47,0,0,0-1-2.5,3.36,3.36,0,0,0-3.6.2l-4.4,5.7-4.7,5.8v0l4.6-5.67,4.4-5.7c.2-1.2.3-2.5.4-3.7.1-1.36-3.85-1.77-4.91-1.15a13.36,13.36,0,0,1,.61-1.85c.6-1.3,1.4-2.8,1.1-4.3s-2.4-2.2-3.7-2.2c-3,.2-3.9,3.3-5.1,5.6-.7,1.4-1.5,2.7-2.1,4.1l-2.2,4.8,0-.09,0-.11v-.1l-3.3-7.7,1.5-11-2-1.7a2.11,2.11,0,0,0-2.6,1.3c-1,1.9-4.2,10.5-4.2,10.5a9.12,9.12,0,0,0,.5,3c.5,1.1,1.6,5.4,1.6,5.4l3.8,10.8s2.3,4.4,3.4,5.1,7.7,5.5,7.7,5.5h1.6l1.2,3.2s-1.7.3-1.1,1.5,2.9,1.2,2.9,1.2l.38,0,3.32,2.54s-2.9,1.5-2.2,3.6,1.9,5.4,1.9,5.4a10.56,10.56,0,0,0,5.5,1.8c2.9,0,9.5-.4,9.5-.4l6.2,2,4.8-1.3a54.92,54.92,0,0,0,5.6-2.7,18.2,18.2,0,0,0,1.6-2.8,69.2,69.2,0,0,1,.5-7,59.38,59.38,0,0,1,3.1-5.2l12.9-6.8c-.7,5.6,2.8,9.6,4,10.8a19.28,19.28,0,0,0,4.3,2.4c3.4,1.4,8.3,2.4,12.2.2,1.36-.72,2.06-.21,2.47.78,0,.12,0,.23-.07.32-.09.28-.1.39-.19.48,0-.07,0-.16.09-.28-.4-1.2-1.2-1.9-2.6-1.1-3.9,2.3-8.7,1.2-12.2-.2l-.1.2c2.4,1.5,1.2,5,1.2,5-1,2.8-2.7,5.6-2.2,8.3,3.7,18.9,1.1,26.7,0,39.8v.2l-2.7-.3-1.5,16.2h.2l.8.1h.1l-.1.39c-1,3.1-3.6.3-3.5,2.5a3.24,3.24,0,0,0,2.4,3.1c1.8.6,4.1.4,6.1.3a31.66,31.66,0,0,1,4.3-.5v-.4a13.21,13.21,0,0,0,2-3.8l.1-.69h.08l-.08.59a10.42,10.42,0,0,1-2,3.8v.4a10.33,10.33,0,0,1,4.8.8,14.8,14.8,0,0,0,1.3.8l.09-.09v.09l-.1.1c2.8,1.5,6.9,3,8.9,2.5l.7-.2c-.5-2.4-1.2-5.3-1.6-7.6h-.1l-8.16-.7,0-.19,8.12.68c-.3-2-.6-3.6-.8-4.4,0-1.5-2.3-7.2-4.1-11.6h0c-1.18-3-2.26-5.3-2.26-5.3-1.15-1.51-.65-9.07.59-8.66-1,.83-1.35,7.27-.29,8.56,0,0,1,2.4,2.3,5.4,1.8,4.4,4.1,10.1,4.1,11.6a30.67,30.67,0,0,0,.7,4.4c.4,2.4,1.1,5.4,1.6,7.7s.9,4,.9,4l5.4,13.6a8.27,8.27,0,0,0,1.4,1.6,5,5,0,0,0,4.1,1.5c.33,0,.72-.12,1.14-.2l-1.34.3a5,5,0,0,1-4.1-1.5h-.11a8.34,8.34,0,0,1-1.29-1.5l-5.4-13.6s-.4-1.7-.9-4l-.7.2c-2.1.4-6.1-1-8.9-2.5-.5-.3-.9-.6-1.3-.8a9,9,0,0,0-4.8-.8,31.65,31.65,0,0,0-4.3.5c-2,.1-4.4.3-6.1-.3l-.1.4s-1.8,26.7-4,32.1-14.5,56.6-11,132.9a82.74,82.74,0,0,1,8.6-1.5c-5.9.9-11.7,2.8-11.8,3.2-3.7,11.2,6.2,51,6.2,51s-2.4,5.3-3.2,7.5-13.2,12.6-13.2,12.6l-5.3-.8c-3.1-2.9-9.2-5.4-16.4-5.3-9.7,0-12.9,11.6-12.9,11.6l-1.47.59,0-.09-1.2.5.5,7.5s12.9,3,16.1,4.3,20.7.3,22.3.3,12.9-2.5,12.6-3.8,1.9-4,1.9-4c1.4-5.6,5.7-8.7,9.2-10.4l.3.4,1.6,14s8.6-1.3,9.9-3.2,1.3-8.6,1.3-13.2a24.73,24.73,0,0,0-.4-3.6h0c-.81-4.38-2.38-9.4-2-10,2.9-4.3,2.5-52.4-1.3-57.5-1.5-2.1-5.7-2.4-10.2-1.9h0v.2a10.71,10.71,0,0,0-2.4.1l2.4-.3c-.2-3.2-3.9-54.1.3-80.4a211.74,211.74,0,0,1,13-47.1c.8-2.4,3.4-11.7,3.9-14.1v-.5c2.7.3,7,.7,10.6.9a51.64,51.64,0,0,1,7.8.5h.3s9.1,73,0,179.9c-.1,1.2-.2,2.5-.3,3.7l-1.94.35c-.17,0-.26-.07-.26-.05l2.2-.4c.1-1.3.2-2.5.3-3.7h-.4s-9.1,2.6-7,4.4,2.5,2.9,3.2,5.4,1.8,8.2,1.1,11.1C720.4,459,720,460.7,723.5,461.3ZM708.41,229.05V229l0-.16Zm5.59-61c-.06,0-.14-.2-.24-.5.1.24.18.39.24.4s3.16,5.94,2.3,9.72C717,173.94,714,168.1,714,168.1ZM707.46,95h0s.08.23.24.61C707.61,95.32,707.51,95.1,707.46,95ZM754.2,77h-.8a1,1,0,0,0-.21,0,1.43,1.43,0,0,1,.61-.24,2.15,2.15,0,0,1,.8,0,1.55,1.55,0,0,0,.61-.13A1.8,1.8,0,0,1,754.2,77Zm-40,73.24a1.21,1.21,0,0,1-.49-.06v-.07A1.61,1.61,0,0,0,714.19,150.24Zm40.35-40.72c-.33-.82-.67-1.61-1-2.36C753.87,107.9,754.2,108.7,754.54,109.51Zm2.76,9.69,0,.05c-.06.09-.06,0,0-.15a1.26,1.26,0,0,0,.06-.43A1.44,1.44,0,0,1,757.3,119.2Zm-9.16,95a.74.74,0,0,0,.26-.07l-.08.05ZM746,222c1.35-.09,3-1.23,3.12-1.1A10.36,10.36,0,0,1,746,222Zm4.93,2.76h0s3.34-1.67,3.51-1.47C754.24,223.13,750.9,224.8,750.9,224.8Zm6.5-36.5a1.64,1.64,0,0,1,.86,0,1.59,1.59,0,0,0-.66,0l-.81.27,0-.06Zm1.48-72.81c1-3,1.93-6.92.72-9l0-.06C760.87,108.54,759.93,112.51,758.88,115.49Zm3.92,40.61c-.8,2.3-2.5,7.8-3.1,9.9l-.2-.1c.7-8.3,1.6-19,1.8-21.1l2.2,10.1A7.46,7.46,0,0,0,762.8,156.1ZM762,54.45A22.73,22.73,0,0,0,759.6,56a.14.14,0,0,1-.09,0A11.17,11.17,0,0,1,762,54.45ZM743,46.75a2.2,2.2,0,0,0-.56-.51A2.2,2.2,0,0,1,743,46.75Zm-17.18-1.67a1.87,1.87,0,0,0-1.48,1A1.87,1.87,0,0,1,725.78,45.09Zm-1.78,5a14.79,14.79,0,0,0,.3,3.53c.4.9.9,1.2,1.5,1.1a46.57,46.57,0,0,0,.5-9.5,35.9,35.9,0,0,1-.5,9.5c-.7.2-1.2-.2-1.5-1.1A14.27,14.27,0,0,1,724,50.07ZM718.3,30.3a11.42,11.42,0,0,0-2.6.9l.1.2s-.7,15.7,1.6,23.1c-1.3,1.2-2.7,5.3-3.3,9.3a16.61,16.61,0,0,0,0,5.9c.41,1.63,1.81,5.33,3.4,9.35-1.64-4-3-7.72-3.5-9.45a16.61,16.61,0,0,1,0-5.9l-.4-.1S699.07,63,698.93,51.84c.23,11,14.67,11.66,14.67,11.66l.4.1c.6-4,2-8.1,3.3-9.3-2.3-7.3-1.6-23.1-1.6-23.1l0-.07a11.54,11.54,0,0,1,2.43-.83,18.75,18.75,0,0,1,3.78-.36A18.72,18.72,0,0,0,718.3,30.3Zm2.46,56.63a.19.19,0,0,1,0,.07,27.76,27.76,0,0,0,2.6,5.2,16.82,16.82,0,0,0,1,1.8c1,1.3,5.5,4.3,8.2,3.8a6.67,6.67,0,0,0,1.07-.37,6.72,6.72,0,0,1-1.37.47c-2.7.5-7.1-2.5-8.2-3.8a9.84,9.84,0,0,1-1-1.76l.08,0c-.7-1.3-1.5-3.2-2.5-5.2-.63,0-11.19,5.37-13.25,6.42l.15-.12S718.35,87.86,720.76,86.93ZM712.2,159.1l0,0a6.35,6.35,0,0,0,.06,1.71A4.16,4.16,0,0,1,712.2,159.1Zm-.7,31c0,1.91,0,5.13,2.1,6.41a5.39,5.39,0,0,1,2.18,2.14,5.86,5.86,0,0,0-2.18-2c-2.1-1.4-2.1-4.6-2.1-6.5ZM726,198.4a17.89,17.89,0,0,1-10,2.9h0a17.47,17.47,0,0,0,9.73-2.9c5.6-3.8,29-14.8,29-14.8l0,.12C752.2,184.92,731.26,194.83,726,198.4Zm6.5,242.9v-.1h0v.1Z" fill="none" stroke="#1d1d1b" stroke-linecap="round" stroke-linejoin="round" stroke-width="6"/><path d="M679.8,481.9l11,4-1.6-14-.2-.4C685.5,473.2,681.2,476.4,679.8,481.9Z" fill="none" stroke="#1d1d1b" stroke-linecap="round" stroke-linejoin="round" stroke-width="6"/><path d="M771.8,469.9c5.6-4.5,12.9-5.4,20.6-5.5a7.53,7.53,0,0,1,3,.4,6.89,6.89,0,0,1,3.1,3c2.2,3.9,2.5,11.5-.6,15.3l-.3-.2c.5-.7,3.4-4.9-.6-6.3-4.3-1.6-17.7-.8-21.5,2.7a119.28,119.28,0,0,1-10.5,8.1l-.2,2.8-7.9-.6s-5.6-3.8-7.3-5.6-7-6.5-10.2-6.7h-1.9c-4.2.3-11.6,1.8-11.6,1.8s-8.6-8.6-2.7-17.2l.1-.4a9,9,0,0,0,1.8.2c5.4.4,25.4-4.3,27.2-5,0,0,10.4,12.5,19.3,13.3Z" fill="#725533"/><path d="M797.6,482.8l.3.2a6.73,6.73,0,0,1-1.5,1.4c-9.2,5.7-20.7,6.2-31.5,5.6l.2-2.8a119.28,119.28,0,0,0,10.5-8.1c3.8-3.5,17.2-4.3,21.5-2.7C800.9,477.9,798,482.1,797.6,482.8Z" fill="#191919"/><path d="M769,107.2a31.47,31.47,0,0,1-9.4-.9,40.58,40.58,0,0,1-8.7-3.5s1.7-10-3-10.5h-.1c1.4-5.7,3.4-12.9,3.4-12.9h-.1c.6-1.1,1.4-2.4,2.3-2.4h.8c1.1,0,1.8-1.1,2.5-1.8,5-4.9,8.2-18.2,5.9-20.7-.5-.6-3.2,1.6-3.4,1.7-.7.2-.4-5.7-.4-5.7s0-18.1.4-19,1.4-5-.7-4.6a31,31,0,0,1-6.1-.2l-.2-.2c2.9-2.1,5.7-4.2,8.5-6.3a5.5,5.5,0,0,0,.9-.7l1.2.1s3.1-.9,3.6,2.3-1.6,14.9-.8,16.7,3,12.1,4.7,15.1-.5,5.9-.5,5.9-3.6,6.2-2.3,8.5,3.1,3.4,4,7-.7,20.7,21.6,18.4C793.5,93,784.4,106.3,769,107.2Z" fill="#543919"/><path d="M759.2,172.8l-.2.4a23.35,23.35,0,0,1-.7,4.5c-.8,1-1.5,3.3-1,4.3a43.65,43.65,0,0,1,1.1,6.3,1.7,1.7,0,0,0-1,0l-.9.3-1.8-5s-23.4,11-29,14.8a17.47,17.47,0,0,1-10,2.9v-.5c.8-1.6,0-3-2.1-4.3s-2.1-4.6-2.1-6.5,2.1-7.5,4.3-11-1.8-11-1.8-11c-.5-.1-2.3-8.6-1.7-9.1.1-.1.1-.2.2-.5.5-1.9,1-8.3,1-8.3s1.8.9,1.1-1.8a5.24,5.24,0,0,1,1.3-4.7s2.5-2.9,5.1-6.1a81.87,81.87,0,0,0,6-7.9c1.1-2.3,6.3-10,7.9-10s4.3-1.6,4.3-1.6,4.3-7.5,5-7.9,5.4-8.4,6.8-7.5,7,14.7,6.3,16.5,4.7-8.8,2.3-12.7l.1-.3a28.28,28.28,0,0,0,9.4.9c.4.5,4.3,5.6,4.3,6.7s.8,13.7.8,15-1.1,13.4-1.1,13.4V151s3.5,3.8,4.6,6.2,5.1,11.8,4.8,13.4-.3,10.2-1.6,12.1-4.3,1.6-4.3,1.6-6.2-5.5-9.1-4.7a19,19,0,0,0-5.9,3s.9-9.7,0-9.5C761.1,173.4,760.1,173.1,759.2,172.8Zm-46.3-10.2v0Zm48.4-17.8c-.2,2.1-1.1,12.8-1.8,21.1l.2.1c.6-2.1,2.3-7.6,3.1-9.9a7.46,7.46,0,0,1,.7-1.2Z" fill="#efc2b9"/><path d="M763.2,185.9l-.4-.3-1.3-2.9a20.48,20.48,0,0,1,5.9-3c2.9-.7,9.1,4.7,9.1,4.7l-1.6,4s-3.2,3-4,2.4-.5,4-.5,4l-5.9-4.5a40.89,40.89,0,0,0-5.2-2h2.2Z" fill="#efc2b9"/><path d="M748.9,221.3c1.1-1.4-2.4,1.6-4,.5s-1.9-3.8-.5-4.8,3.7-2.7,4-2.9c-.2.1-1,.3-2.4-1.1-1.6-1.6,0-3.8,1.1-4.6s5.6-4.6,5.6-4.6l5.4-7v-4.3l-1.4-3.9.9-.3a3.33,3.33,0,0,1,1,0c.2,0,.5.1.8.1a29.2,29.2,0,0,1,5.2,2l5.9,4.5,1.1,16.7s-.5,4.8-1.6,6.2c-.7.9-3.8,2.8-5.9,4.1-.2.1-.5.3-.7.4-.9.5-1.5.9-1.5.9l-5.9,2.1s-1.9-1.4-1.6-1.9-3.5,1.4-3.5,1.4S747.8,222.6,748.9,221.3Z" fill="#edd7b9"/><path d="M763.4,222.6c4.5,15.4-.7,26.5-.7,26.5a76.69,76.69,0,0,0-7.2,2.9c-3,1.4-12.2,2.5-13.6,2.5a44.89,44.89,0,0,0-5.6,1.2,60.27,60.27,0,0,1-6,1.4,5,5,0,0,1-4.1-1.5,8.27,8.27,0,0,1-1.4-1.6l-5.4-13.6s-.4-1.7-.9-4-1.2-5.3-1.6-7.7a30.67,30.67,0,0,1-.7-4.4c0-1.5-2.3-7.2-4.1-11.6-1.3-3-2.3-5.4-2.3-5.4-1.3-1.6-.5-11,1.1-8.1.7,1.3,2.7,2,5.1,2.1a17.89,17.89,0,0,0,10-2.9c5.6-3.8,29-14.8,29-14.8l1.8,5,1.4,3.9v4.3l-5.4,7s-4.6,3.8-5.6,4.6-2.7,3-1.1,4.6c1.4,1.4,2.2,1.2,2.4,1.1-.3.2-2.7,1.9-4,2.9a3.22,3.22,0,0,0,.5,4.8c1.6,1.1,5.1-1.9,4-.5s1.9,3.5,1.9,3.5,3.8-1.9,3.5-1.4,1.6,1.9,1.6,1.9l5.9-2.1s.6-.4,1.5-.9Z" fill="#e0e2e2"/><path d="M762,13.4a4.19,4.19,0,0,1,.9,4.5,7.55,7.55,0,0,1-1.1,1.4c-.3.2-.6.5-.9.7-2.8,2.1-5.7,4.3-8.5,6.3-3.9,2.8-7.8,5.4-11.9,7.8a8.74,8.74,0,0,1-4.1,1.4c-2.2-.1-3.4-1.8-4.8-3.2-1.8-1.8-3.6-2-6.2-2.2a25.44,25.44,0,0,0-7.3.2,11.42,11.42,0,0,0-2.6.9,30.21,30.21,0,0,0-7.9,5.9c-2.5,2.3-5.3,4.6-7,7.5l-2.3-.5c.7-1.1,1.4-2.1,2.1-3.2,2.3-3.6,4.6-7.2,7.1-10.6A67,67,0,0,1,719.7,17c4.6-3.7,10.7-7.5,16.4-9.1,7.2-2.1,14.9.3,21.8,3.3A7.2,7.2,0,0,1,762,13.4Z" fill="#543919"/><path d="M739.1,84.2l.4-.8c.4-.8,1.3-3.1,2.2-3.3-1.3.2-2.5.5-3.8.6-4.1.4-8.5,0-11.9-2.4-1.1-.8-2.6-1.9-3.1-3.2l2.6,6.4,2,4.9s-.5,1.1.9,2.4,5.3.5,6.2.3C736.3,88.8,738.2,85.7,739.1,84.2ZM720.8,87a.1.1,0,0,0-.1-.1c-.7-1.6-1.4-3.4-2.1-5.1-2-5-4-10.1-4.5-12.1a16.61,16.61,0,0,1,0-5.9c.6-4,2-8.1,3.3-9.3-2.3-7.4-1.6-23.1-1.6-23.1l-.1-.2a11.42,11.42,0,0,1,2.6-.9,25.54,25.54,0,0,1,7.3-.2c2.5.2,4.4.4,6.2,2.2,1.4,1.4,2.6,3.1,4.8,3.2a7.24,7.24,0,0,0,4.1-1.4,135.34,135.34,0,0,0,11.9-7.8l.2.2a31,31,0,0,0,6.1.2c2.1-.4,1.1,3.8.7,4.6s-.4,19-.4,19-.4,5.9.4,5.7c.2-.1,2.9-2.2,3.4-1.7,2.3,2.5-.8,15.8-5.9,20.7-.8.8-1.5,1.8-2.5,1.8a2.15,2.15,0,0,0-.8,0c-.9.1-1.7,1.3-2.3,2.4a4.37,4.37,0,0,1-.6,1c-.9,1.4-1.9,2.8-2.8,4.1-1.5,2.1-2.8,4.3-4.4,6.3-1.3,1.6-8.4,6.6-11.1,7.2s-7.2-2.5-8.2-3.8a16.82,16.82,0,0,1-1-1.8A27.76,27.76,0,0,1,720.8,87Zm20.4-32.3a14.91,14.91,0,0,0,2-7.6,2,2,0,0,0-2.7-.9,25.53,25.53,0,0,0-.7,7.5C740.3,55.4,741.2,54.8,741.2,54.7Zm-15.4,0a35.9,35.9,0,0,0,.5-9.5c-.7-.3-1.4,0-2,.9a23.5,23.5,0,0,0,0,7.5C724.6,54.5,725.1,54.9,725.8,54.7Z" fill="#edd7b9"/><path d="M759.6,106.5c2.3,3.9-3,14.5-2.3,12.7s-4.8-15.6-6.3-16.5a38.63,38.63,0,0,0,8.7,3.5Z" fill="#efc2b9"/><path d="M732.5,441.3v-.2q.45-3.15.9-6.6l.8.1c2.5-1.4,10,2.5,13.6,1.8s6.8,2.5,8.6,5.7,2.5,9,2.5,9-4.7,4.7-6.4,5.4-21.8,5.4-27.2,5a9,9,0,0,1-1.8-.2c-3.5-.6-3.1-2.3-2.5-4.8.7-2.9-.4-8.6-1.1-11.1s-1.1-3.6-3.2-5.4,7-4.4,7-4.4h.4c-.1,1.2-.2,2.4-.3,3.7l-2.2.4C721.6,439.6,727.2,441.6,732.5,441.3Z" fill="#725533"/><path d="M748,92.2h0c4.8.5,3,10.5,3,10.5-1.4-.9-6.1,7.2-6.8,7.5s-5,7.9-5,7.9-2.7,1.6-4.3,1.6-6.8,7.7-7.9,10c-.5,1.2-3.3,4.7-6,7.9l-.3-.7c-1.4-.9-2.7-7.5-2.2-9.5s2.7-12.2,2.7-12.2l-1.4-4.1a42,42,0,0,1-.7-5c0-.7-1-1.1-2.3-1.6l.1-.4c-3.1-5.7,6.1-11.8,6.1-11.8h.1a10.16,10.16,0,0,0,1,1.8c1.1,1.3,5.5,4.3,8.2,3.8s9.8-5.6,11.1-7.2c1.6-2,3-4.2,4.4-6.3.9-1.4,1.9-2.8,2.8-4.1a8.79,8.79,0,0,0,.6-1h.1C751.4,79.3,749.4,86.5,748,92.2Z" fill="#edd7b9"/><path d="M749.7,483.7l1.6,7-11-.4v-.4L737.6,477a12,12,0,0,1,1.9,0C742.7,477.2,748.1,481.8,749.7,483.7Z" fill="#191919"/><path d="M743.2,47.1a14.21,14.21,0,0,1-2,7.6c0,.1-.9.7-1.4-1a25.53,25.53,0,0,1,.7-7.5A2,2,0,0,1,743.2,47.1Z"/><path d="M737.6,477l2.7,12.9v.4l-9.4-.4-4.8-11A103.4,103.4,0,0,1,737.6,477Z" fill="#191919"/><path d="M739.1,84.2c-.9,1.6-2.9,4.6-4.5,5-.9.2-4.7,1.1-6.2-.3s-.9-2.4-.9-2.4l-2-4.9.1-.1C725.7,81.5,729.6,85.8,739.1,84.2Z" fill="#020202"/><path d="M736.3,255.9s6.1,110.2-2.9,178.7l-.9,6.6v.2a30.67,30.67,0,0,1-10.9-1.6l2.2-.4c.1-1.2.2-2.5.3-3.7,9.1-106.9,0-179.9,0-179.9a.77.77,0,0,1-.3-.1H726a5,5,0,0,0,4.1,1.5c1.4-.3,3.8-.9,6-1.4Z" fill="#496672"/><path d="M726.3,45.2a46.57,46.57,0,0,1-.5,9.5c-.6.1-1.1-.2-1.5-1.1a23.53,23.53,0,0,1,0-7.5C724.9,45.2,725.6,44.9,726.3,45.2Z"/><path d="M705.4,254.4v.5c-.5,2.4-3.1,11.7-3.9,14.1a211.74,211.74,0,0,0-13,47.1c-4.2,26.3-.5,77.2-.3,80.4l-2.4.3h-.1a82.73,82.73,0,0,0-8.6,1.5c-3.5-76.3,8.8-127.5,11-132.9s4-32.1,4-32.1l.1-.4c1.7.6,4.1.4,6.1.3a31.66,31.66,0,0,1,4.3-.5,9,9,0,0,1,4.8.8c.4.2.8.5,1.3.8,2.8,1.5,6.8,2.9,8.9,2.5l.7-.2c.5,2.3.9,4,.9,4l5.4,13.6a8.27,8.27,0,0,0,1.4,1.6h-2.2a51.63,51.63,0,0,0-7.8-.5C712.4,255.1,708.1,254.7,705.4,254.4Z" fill="#496672"/><path d="M723.2,92.3h0c-.1,0-9.2,6.1-6.2,11.9l-.1.4a32.16,32.16,0,0,1-4.2-1.6,8.63,8.63,0,0,1-1.8-1.6,26.52,26.52,0,0,1-3.4-6.4l-1.6-.3c.7-.6,1.2-1,1.2-1s12.9-6.6,13.6-6.6C721.7,89.1,722.5,91,723.2,92.3Z" fill="#efc2b9"/><path d="M710.2,101.6l.8-.4a4.55,4.55,0,0,0,1.8,1.6,19.94,19.94,0,0,0,4.2,1.6c1.3.4,2.3.8,2.3,1.6a42,42,0,0,0,.7,5l1.4,4.1s-2.2,10.2-2.7,12.2.7,8.6,2.2,9.5l.3.7c-2.6,3.2-5.1,6.1-5.1,6.1a5.24,5.24,0,0,0-1.3,4.7c.7,2.7-1.1,1.8-1.1,1.8s-.6,6.4-1,8.3c-.4-1.2-1.1-1.9-2.6-1.1-3.9,2.2-8.8,1.2-12.2-.2a19.28,19.28,0,0,1-4.3-2.4c-1.2-1.2-4.7-5.2-4-10.8l-12.9,6.8a59.37,59.37,0,0,0-3.1,5.2,69.2,69.2,0,0,0-.5,7,18.2,18.2,0,0,1-1.6,2.8,54.92,54.92,0,0,1-5.6,2.7l-4.8,1.3-6.2-2s-6.6.4-9.5.4a10.56,10.56,0,0,1-5.5-1.8s-1.2-3.2-1.9-5.4,2.2-3.6,2.2-3.6l-3.4-2.6s8-.8,9.6-2.8,1.9-5.4.7-6.8l2.7,2.4.5-1.8c.7-2.2,9.7-.7,9.7-.7s26.2-35.5,31.9-43,9.7-8.2,9.7-8.2l19.5-7.1a.1.1,0,0,0,.1.1c-.8,0-13.6,6.6-13.6,6.6s-.5.4-1.2,1c-2.6,2.2-8.6,7.6-8.6,11.4C697.3,106.3,706.3,101.6,710.2,101.6Z" fill="#efc2b9"/><path d="M718.6,81.7l-.3.1c-15.3,9.5-35.3,2.1-37.6.5s-10.6-25.9-4.2-17.6a15.91,15.91,0,0,0,9.9,5.5c3.9.8,8.6,1.4,12.3-.7,1.7-.9,3.5-2.4,3.1-4.5s-2.5-3.3-3.5-4.9a16.19,16.19,0,0,1-2.5-8.5,15.76,15.76,0,0,1,2.6-7.8l2.3.5a8.49,8.49,0,0,0-.9,2.2c-5.1,16.3,13.8,17.1,13.8,17.1l.4.1a16.61,16.61,0,0,0,0,5.9C714.6,71.7,716.5,76.7,718.6,81.7Z" fill="#543919"/><path d="M718.4,236.5l-.7.2c-2,.5-6.1-1-8.9-2.5l.1-.1-.5-5,.1-.9,8.2.7h.1C717.2,231.2,717.9,234.1,718.4,236.5Z" fill="#efc2b9"/><path d="M716.7,228.7h0l-8.3-.7-3.8-.3-11.3-.9-.8-.1h-.2l1.5-16.2,2.7.3,15,1.9h.3c1.8,4.4,4.1,10.1,4.1,11.6C716.1,225.1,716.4,226.7,716.7,228.7Z" fill="#725533"/><path d="M714,168.1s3.9,7.5,1.8,11-4.3,9.1-4.3,11,0,5.1,2.1,6.5,3,2.7,2.1,4.3v.5c-2.4-.1-4.4-.8-5.1-2.1-1.6-3-2.4,6.4-1.1,8.1,0,0,1.1,2.4,2.3,5.4h-.3l-15-1.9v-.3c1.1-13.1,3.7-20.9,0-39.8-.5-2.7,1.2-5.5,2.2-8.3,0,0,1.2-3.5-1.2-5l.1-.2c3.5,1.4,8.3,2.5,12.2.2,1.4-.8,2.2-.1,2.6,1.1-.1.3-.1.4-.2.5C711.8,159.5,713.6,168,714,168.1Z" fill="#efc2b9"/><path d="M715.6,31l.1.2S715,47,717.3,54.3c-1.3,1.2-2.7,5.3-3.3,9.3l-.4-.1s-18.9-.8-13.8-17.1a14.46,14.46,0,0,1,.9-2.2c1.6-2.9,4.5-5.2,7-7.5C710.1,34.7,712.6,32.4,715.6,31Z" fill="#382412"/><path d="M710.9,101.3l-.8.4c-3.8,0-12.9,4.7-12.9,4.3,0-3.7,6-9.2,8.6-11.4l1.6.3C707.5,94.9,708.9,98.8,710.9,101.3Z" fill="#efc2b9"/><path d="M708.4,229l.5,5-.1.1a14.8,14.8,0,0,1-1.3-.8,10.33,10.33,0,0,0-4.8-.8v-.4a10.42,10.42,0,0,0,2-3.8l.1-.7,3.8.3Z" fill="#efc2b9"/><path d="M693.4,226.8l11.3.9-.1.7a13.21,13.21,0,0,1-2,3.8v.4a31.66,31.66,0,0,0-4.3.5c-2,.1-4.3.3-6.1-.3a3.24,3.24,0,0,1-2.4-3.1c-.1-2.2,2.5.6,3.5-2.5Z" fill="#efc2b9"/><path d="M689,471.5c-3.5,1.7-7.8,4.8-9.2,10.4,0,0-2.2,2.7-1.9,4s-11,3.8-12.6,3.8-19.1,1.1-22.3-.3-16.1-4.3-16.1-4.3l-.5-7.5,1.2-.5.2.5s10.8,4.8,16.9,6.4,19.3,3,22.8,1.6l5.2-1.2s6.8-12.8,9.8-13.7,14-6.7,18.8-4.8h.4a24.73,24.73,0,0,1,.4,3.6c0,4.6,0,11.3-1.3,13.2s-9.9,3.2-9.9,3.2l-1.6-14Z" fill="#191919"/><path d="M658.4,470.3h0l5.3.8s12.4-10.5,13.2-12.6,3.2-7.5,3.2-7.5-9.9-39.8-6.2-51c.1-.4,5.9-2.3,11.8-3.2h.1a10.71,10.71,0,0,1,2.4-.1v-.2c4.5-.5,8.7-.2,10.2,1.9,3.8,5.1,4.2,53.2,1.3,57.5-.4.6,1.2,5.7,2,10.1h-.4c-4.8-1.8-15.8,4-18.8,4.8s-9.8,13.7-9.8,13.7l-5.2,1.2c-3.5,1.3-16.7,0-22.8-1.6s-16.9-6.4-16.9-6.4l-.2-.5,1.5-.6S632.3,465,642,465C649.2,464.9,655.3,467.4,658.4,470.3Z" fill="#725533"/><path d="M689.2,471.9l1.6,14-11-4c1.4-5.5,5.7-8.7,9.2-10.4Z" fill="#191919"/><path d="M646.1,128.9c0,.1,1.1,0,1.6.6a5.45,5.45,0,0,1,1.2,2.4c.4,2.4-.9,5.2-1.6,7.5l-2.8,6.7,2-1.1.3.2c1.2,1.3.8,4.9-.7,6.8s-9.6,2.8-9.6,2.8-2.3,0-2.9-1.2,1.1-1.5,1.1-1.5l-1.2-3.2h-1.6s-6.6-4.8-7.7-5.5-3.4-5.1-3.4-5.1L617,127.5s-1.1-4.3-1.6-5.4a9.12,9.12,0,0,1-.5-3s3.2-8.6,4.2-10.5a2.11,2.11,0,0,1,2.6-1.3l2,1.7-1.5,11,3.3,7.7v.1a1.74,1.74,0,0,0,0,1.5c.4.7,4,3,4.8,3.3l2.5.2-.4,5.3,4.7-5.8,4.4-5.7a3.36,3.36,0,0,1,3.6-.2A3.47,3.47,0,0,1,646.1,128.9Z" fill="#edd7b9"/><path d="M636.8,121.9c.9-.7,5.1-.3,5,1.1-.1,1.2-.2,2.5-.4,3.7l-4.4,5.7-4.7,5.8.4-5.3.2-2.8,3.9-8.2Z" fill="#edd7b9"/><path d="M638.6,115.7c.3,1.5-.5,3-1.1,4.3a10.07,10.07,0,0,0-.6,1.9l-4,8.2-.2,2.8-2.5-.2c-.8-.3-4.4-2.6-4.8-3.3a1.74,1.74,0,0,1,0-1.5v-.1l.1.2,2.2-4.8c.6-1.4,1.4-2.7,2.1-4.1,1.2-2.3,2.1-5.4,5.1-5.6C636.2,113.5,638.2,114.2,638.6,115.7Z" fill="#edd7b9"/><path d="M636.8,121.9a13,13,0,0,1,.6-1.9c.6-1.3,1.5-2.8,1.1-4.3s-2.3-2.3-3.8-2.2c-3,.3-3.9,3.3-5.1,5.6-.7,1.3-1.5,2.7-2.1,4.1l-2.2,4.8-.1-.2-3.3-7.7,1.5-11-2-1.7a2.27,2.27,0,0,0-2.6,1.3c-.9,1.9-4.2,10.5-4.2,10.5a9.12,9.12,0,0,0,.5,3c.5,1.1,1.6,5.4,1.6,5.4l3.8,10.8s2.3,4.4,3.4,5.1,7.7,5.5,7.7,5.5h1.6l1.2,3.2s-1.7.3-1.1,1.5,2.9,1.2,2.9,1.2l3.4,2.6s-2.8,1.5-2.2,3.6,1.9,5.4,1.9,5.4a10.56,10.56,0,0,0,5.5,1.8c2.9,0,9.5-.4,9.5-.4l6.2,2,4.8-1.3s5.1-2.1,5.6-2.7a18.2,18.2,0,0,0,1.6-2.8s.3-6.1.5-7,3.1-5.2,3.1-5.2l12.9-6.8.3-.1" fill="none" stroke="#000" stroke-linecap="round" stroke-linejoin="round" stroke-width="2"/><path d="M720.8,86.8h0l-19.6,7.1s-3.9.7-9.7,8.2-31.9,43-31.9,43-8.9-1.4-9.7.7l-.5,1.8-2.7-2.4-.3-.2-2,1.1,2.8-6.7c.6-2.3,2-5.1,1.6-7.5a4.57,4.57,0,0,0-1.2-2.4c-.5-.5-1.6-.5-1.6-.6a3,3,0,0,0-1.1-2.4,3.57,3.57,0,0,0-3.6.2c.2-1.2.3-2.5.4-3.7.2-1.5-4.1-1.8-5-1.1" fill="none" stroke="#000" stroke-linecap="round" stroke-linejoin="round" stroke-width="2"/><polyline points="646.1 128.9 642.5 136.3 638.3 142.2" fill="none" stroke="#000" stroke-linecap="round" stroke-linejoin="round" stroke-width="2"/><polyline points="632.7 132.9 632.3 138.2 637 132.4 641.4 126.7" fill="none" stroke="#000" stroke-linecap="round" stroke-linejoin="round" stroke-width="2"/><polyline points="636.8 121.9 636.8 121.9 632.9 130.1 632.7 132.9" fill="none" stroke="#000" stroke-linecap="round" stroke-linejoin="round" stroke-width="2"/><path d="M627.6,123.2l-2.3,4.6v.1a1.74,1.74,0,0,0,0,1.5c.4.7,4,3,4.8,3.3" fill="none" stroke="#000" stroke-linecap="round" stroke-linejoin="round" stroke-width="2"/><line x1="625" y1="128.8" x2="624.9" y2="134" fill="none" stroke="#000" stroke-linecap="round" stroke-linejoin="round" stroke-width="2"/><path d="M659.7,145.2s4-.4,5.8.8,4.6,5.2,4.6,5.2" fill="none" stroke="#000" stroke-linecap="round" stroke-linejoin="round" stroke-width="2"/><path d="M712.9,162l.3-4.6s23.3,3.1,27.4,1.8,9.7-1.8,16-9.2c.5-.5-1.2-12.9-3-14.7" fill="none" stroke="#000" stroke-linecap="round" stroke-linejoin="round" stroke-width="2"/><path d="M712.8,163.1v-1" fill="none" stroke="#000" stroke-linecap="round" stroke-linejoin="round" stroke-width="2"/><path d="M712.9,162.1v.5" fill="none" stroke="#000" stroke-linecap="round" stroke-linejoin="round" stroke-width="2"/><path d="M712.9,162.1h0" fill="none" stroke="#000" stroke-linecap="round" stroke-linejoin="round" stroke-width="2"/><path d="M692.6,130.9c-.9.7-2.1,6.1-3.1,12.2a2.2,2.2,0,0,0-.1.8c-.6,5.7,2.9,9.6,4,10.8a15.87,15.87,0,0,0,4.3,2.4c3.5,1.4,8.3,2.5,12.2.2,1.4-.8,2.2-.1,2.6,1.1a11.21,11.21,0,0,1,.3,3.6" fill="none" stroke="#000" stroke-linecap="round" stroke-linejoin="round" stroke-width="2"/><path d="M720.8,87h0c-.8,0-13.7,6.6-13.7,6.6s-.5.4-1.2,1c-2.6,2.2-8.6,7.6-8.6,11.4,0,.4,9-4.3,12.9-4.3h.4" fill="none" stroke="#000" stroke-linecap="round" stroke-linejoin="round" stroke-width="2"/><path d="M707.5,94.9a26.52,26.52,0,0,0,3.4,6.4,4.55,4.55,0,0,0,1.8,1.6,19.94,19.94,0,0,0,4.2,1.6c1.3.4,2.3.8,2.3,1.6a42,42,0,0,0,.7,5l1.4,4.1s-2.2,10.2-2.7,12.2.7,8.6,2.2,9.5" fill="none" stroke="#000" stroke-linecap="round" stroke-linejoin="round" stroke-width="2"/><path d="M714,168.1c-.5-.1-2.3-8.6-1.7-9.1.1-.1.1-.2.2-.5.5-1.9,1-8.3,1-8.3s1.8.9,1.1-1.8a5.24,5.24,0,0,1,1.3-4.7s2.5-2.9,5.1-6.1a81.87,81.87,0,0,0,6-7.9c1.1-2.3,6.3-10,7.9-10s4.3-1.6,4.3-1.6,4.3-7.5,5-7.9,5.4-8.4,6.8-7.5,7,14.7,6.3,16.5,4.7-8.8,2.3-12.7" fill="none" stroke="#000" stroke-linecap="round" stroke-linejoin="round" stroke-width="2"/><path d="M723.1,92.4s-9.1,6.1-6.1,11.8" fill="none" stroke="#000" stroke-linecap="round" stroke-linejoin="round" stroke-width="2"/><path d="M715.7,31.3s-.7,15.8,1.6,23.1c-1.3,1.2-2.7,5.3-3.3,9.3a16.61,16.61,0,0,0,0,5.9,109.64,109.64,0,0,0,4.5,12.1c.7,1.8,1.5,3.5,2.1,5.1a.1.1,0,0,0,.1.1c.9,2.1,1.8,4,2.4,5.3a10.16,10.16,0,0,0,1,1.8c1.1,1.3,5.5,4.3,8.2,3.8s9.8-5.6,11.1-7.2c1.6-2,3-4.2,4.4-6.3.9-1.4,1.9-2.8,2.8-4.1a8.79,8.79,0,0,0,.6-1c.6-1.1,1.4-2.4,2.3-2.4h.8c1.1,0,1.8-1.1,2.5-1.8,5-4.9,8.2-18.2,5.9-20.7-.5-.6-3.2,1.6-3.4,1.7-.7.2-.4-5.7-.4-5.7s0-18.1.4-19,1.4-5-.7-4.6a31,31,0,0,1-6.1-.2" fill="none" stroke="#000" stroke-linecap="round" stroke-linejoin="round" stroke-width="2"/><path d="M718.2,81.9c-15.3,9.5-35.3,2.1-37.6.5S670,56.5,676.4,64.8a15.91,15.91,0,0,0,9.9,5.5c3.9.8,8.6,1.4,12.3-.7,1.7-.9,3.5-2.4,3.1-4.5s-2.5-3.3-3.5-4.9a16.19,16.19,0,0,1-2.5-8.5,15.76,15.76,0,0,1,2.6-7.8c.7-1.1,1.4-2.1,2.1-3.2,2.3-3.6,4.6-7.2,7.1-10.6a67,67,0,0,1,12.2-13.3c4.6-3.7,10.7-7.5,16.4-9.1,7.2-2.1,14.9.3,21.8,3.3a10.8,10.8,0,0,1,4.1,2.5,4.19,4.19,0,0,1,.9,4.5,7.55,7.55,0,0,1-1.1,1.4c-.3.2-.6.5-.9.7-2.8,2.1-5.7,4.3-8.5,6.3-3.9,2.8-7.8,5.4-11.9,7.8a8.74,8.74,0,0,1-4.1,1.4c-2.2-.1-3.4-1.8-4.8-3.2-1.8-1.8-3.6-2-6.2-2.2a25.44,25.44,0,0,0-7.3.2,11.42,11.42,0,0,0-2.6.9,30.21,30.21,0,0,0-7.9,5.9c-2.5,2.3-5.3,4.6-7,7.5a8.49,8.49,0,0,0-.9,2.2C694.6,63.2,713.5,64,713.5,64" fill="none" stroke="#000" stroke-linecap="round" stroke-linejoin="round" stroke-width="2"/><path d="M763.1,19.3s3.1-.9,3.6,2.3-1.6,14.9-.8,16.7,3,12.1,4.7,15.1-.5,5.9-.5,5.9-3.6,6.2-2.3,8.5,3.1,3.4,4,7-.7,20.7,21.6,18.4c0,0-9,13.2-24.4,14.1a31.47,31.47,0,0,1-9.4-.9,40.58,40.58,0,0,1-8.7-3.5s1.7-10-3-10.5" fill="none" stroke="#000" stroke-linecap="round" stroke-linejoin="round" stroke-width="2"/><path d="M751.4,79.3s-2,7.2-3.4,12.9a41.8,41.8,0,0,0-1.3,6.7" fill="none" stroke="#000" stroke-linecap="round" stroke-linejoin="round" stroke-width="2"/><path d="M733.4,55.6a17.14,17.14,0,0,0-7.1,3.3c-3.2,2.6-2.6,7.2-.1,10.2,1.7,2.1,4.6,2.8,7.6,2.2" fill="none" stroke="#000" stroke-linecap="round" stroke-linejoin="round" stroke-width="2"/><path d="M737.4,69.2a2.36,2.36,0,0,0,1.6-3.1,2.49,2.49,0,0,0-3.4-1.2" fill="none" stroke="#000" stroke-linecap="round" stroke-linejoin="round" stroke-width="2"/><path d="M725.5,81.5l-2.6-6.4a8,8,0,0,0,3.1,3.2c3.5,2.3,7.9,2.8,11.9,2.4,1.3-.1,2.5-.4,3.8-.6-.9.2-1.8,2.5-2.2,3.3l-.4.8c-.9,1.6-2.9,4.6-4.5,5-.9.2-4.7,1.1-6.2-.3s-.9-2.4-.9-2.4Z" fill="none" stroke="#000" stroke-linecap="round" stroke-linejoin="round" stroke-width="2"/><path d="M725.7,81.5s4,4.3,13.5,2.7h0" fill="none" stroke="#000" stroke-linecap="round" stroke-linejoin="round" stroke-width="2"/><path d="M652,149.1s3.8-2.2,5-.7" fill="none" stroke="#000" stroke-linecap="round" stroke-linejoin="round" stroke-width="2"/><path d="M649,157.6a4.19,4.19,0,0,0,3,2.1" fill="none" stroke="#000" stroke-linecap="round" stroke-linejoin="round" stroke-width="2"/><path d="M648,158.1s6.5-4.2,3.5-8.8" fill="none" stroke="#000" stroke-linecap="round" stroke-linejoin="round" stroke-width="2"/><path d="M639.8,157.4s1.1,1.8,4.5,1.6" fill="none" stroke="#000" stroke-linecap="round" stroke-linejoin="round" stroke-width="2"/><path d="M636.4,154.8s8-.8,9.6-2.8,1.9-5.4.7-6.8c-.1-.1-.2-.2-.3-.2" fill="none" stroke="#000" stroke-linecap="round" stroke-linejoin="round" stroke-width="2"/><path d="M748.3,214h0c-.2.1-1,.4-2.4-1.1-1.6-1.6,0-3.8,1.1-4.6s5.6-4.6,5.6-4.6l5.4-7v-4.3l-1.4-3.9-1.8-5s-23.4,11-29,14.8a17.47,17.47,0,0,1-10,2.9c-2.4-.1-4.4-.8-5.1-2.1-1.6-3-2.4,6.4-1.1,8.1,0,0,1.1,2.4,2.3,5.4,1.8,4.4,4.1,10.1,4.1,11.6a32.94,32.94,0,0,0,.7,4.4c.5,2.5,1.1,5.4,1.6,7.7s.9,4,.9,4l5.4,13.6a8.27,8.27,0,0,0,1.4,1.6,5,5,0,0,0,4.1,1.5c1.4-.3,3.8-.9,6-1.4a44.88,44.88,0,0,1,5.6-1.2c1.4,0,10.6-1.1,13.6-2.5s7.2-2.9,7.2-2.9,5.2-11.1.7-26.5" fill="none" stroke="#000" stroke-linecap="round" stroke-linejoin="round" stroke-width="2"/><path d="M769,107.1h0c.4.5,4.3,5.7,4.3,6.7s.8,13.7.8,15-1.1,13.4-1.1,13.4v8.9s3.5,3.8,4.6,6.2,5.1,11.8,4.8,13.4-.3,10.2-1.6,12.1-4.3,1.6-4.3,1.6l-1.6,4s-3.2,3-4,2.4-.5,4-.5,4l1.1,16.7s-.5,4.8-1.6,6.2c-.7.9-3.8,2.8-5.9,4.1-.2.1-.5.3-.7.4-.9.5-1.5.9-1.5.9l-5.9,2.1s-1.9-1.4-1.6-1.9-3.5,1.4-3.5,1.4-3-2.1-1.9-3.5-2.4,1.6-4,.5-1.9-3.8-.5-4.8,3.7-2.7,4-2.9" fill="none" stroke="#000" stroke-linecap="round" stroke-linejoin="round" stroke-width="2"/><polyline points="748.3 214 754.8 208.9 760.5 202.7" fill="none" stroke="#000" stroke-linecap="round" stroke-linejoin="round" stroke-width="2"/><polyline points="748.9 221.3 755.1 216.6 764.1 208.4" fill="none" stroke="#000" stroke-linecap="round" stroke-linejoin="round" stroke-width="2"/><polyline points="754.2 223.4 760.9 219.3 767.7 212.2" fill="none" stroke="#000" stroke-linecap="round" stroke-linejoin="round" stroke-width="2"/><path d="M776.5,184.5s-6.2-5.5-9.1-4.7a19,19,0,0,0-5.9,3l1.3,2.9" fill="none" stroke="#000" stroke-linecap="round" stroke-linejoin="round" stroke-width="2"/><polyline points="761.4 188.5 763.2 185.9 764.8 183.7" fill="none" stroke="#000" stroke-linecap="round" stroke-linejoin="round" stroke-width="2"/><path d="M768.7,151.6s-3.5,1.2-5.2,3.3a7.46,7.46,0,0,0-.7,1.2c-.8,2.3-2.5,7.7-3.1,9.9l-.3.9s-2.5,4.3-2.3,4.8a4.29,4.29,0,0,0,2.1,1.1,7.18,7.18,0,0,0,2.4.5c.9-.2,0,9.5,0,9.5" fill="none" stroke="#000" stroke-linecap="round" stroke-linejoin="round" stroke-width="2"/><path d="M759,173.2a23.35,23.35,0,0,1-.7,4.5c-.8,1-1.5,3.3-1,4.3a43.65,43.65,0,0,1,1.1,6.3v.2" fill="none" stroke="#000" stroke-linecap="round" stroke-linejoin="round" stroke-width="2"/><path d="M761.3,144.4v.4c-.2,2.1-1.1,12.8-1.8,21.1" fill="none" stroke="#000" stroke-linecap="round" stroke-linejoin="round" stroke-width="2"/><path d="M764.4,172.4s2.5-1.1,3.8-.7,1.6-5.5,1.6-5.5" fill="none" stroke="#000" stroke-linecap="round" stroke-linejoin="round" stroke-width="2"/><path d="M772.5,171.9a5.38,5.38,0,0,1,3.2,1.1c1.3,1.1,2.7,2.5,2.7,2.5l.3-3.2" fill="none" stroke="#000" stroke-linecap="round" stroke-linejoin="round" stroke-width="2"/><path d="M763.5,155h0l-2.3-10.3-1.3-6s-.2-7.5-2.5-8.8" fill="none" stroke="#000" stroke-linecap="round" stroke-linejoin="round" stroke-width="2"/><path d="M759.6,122.1s-4.5,8.2-3.9,10.6" fill="none" stroke="#000" stroke-linecap="round" stroke-linejoin="round" stroke-width="2"/><path d="M688.7,118.3s2.5,4.5,2.5,7-.5,7.2-.5,7.2" fill="none" stroke="#000" stroke-linecap="round" stroke-linejoin="round" stroke-width="2"/><path d="M693.4,227.2c-1,3.1-3.6.3-3.5,2.5a3.24,3.24,0,0,0,2.4,3.1c1.7.6,4.1.4,6.1.3a31.66,31.66,0,0,1,4.3-.5,9,9,0,0,1,4.8.8c.4.2.8.5,1.3.8,2.8,1.5,6.8,2.9,8.9,2.5" fill="none" stroke="#000" stroke-linecap="round" stroke-linejoin="round" stroke-width="2"/><path d="M696.7,210.5c1.1-13.1,3.7-20.9,0-39.8-.5-2.7,1.2-5.5,2.2-8.3,0,0,1.2-3.5-1.2-5" fill="none" stroke="#000" stroke-linecap="round" stroke-linejoin="round" stroke-width="2"/><path d="M685.8,396.7a10.71,10.71,0,0,1,2.4-.1v-.2c-.2-3.2-3.9-54.1.3-80.4a215.83,215.83,0,0,1,13-47.1c.8-2.4,3.4-11.7,3.9-14.1" fill="none" stroke="#000" stroke-linecap="round" stroke-linejoin="round" stroke-width="2"/><path d="M692.2,233.2s-1.9,26.7-4,32.1-14.5,56.6-11,132.9a78.45,78.45,0,0,1,8.6-1.5" fill="none" stroke="#000" stroke-linecap="round" stroke-linejoin="round" stroke-width="2"/><path d="M702.7,254.3a13.88,13.88,0,0,1,2.7.1c2.7.2,7,.7,10.7.7a51.63,51.63,0,0,1,7.8.5.44.44,0,0,1,.3.1s9.1,73,0,179.9c-.1,1.2-.2,2.4-.3,3.7" fill="none" stroke="#000" stroke-linecap="round" stroke-linejoin="round" stroke-width="2"/><path d="M736.3,255.9s6.1,110.2-2.9,178.7l-.9,6.6" fill="none" stroke="#000" stroke-linecap="round" stroke-linejoin="round" stroke-width="2"/><path d="M723.7,435.6s-9.2,2.6-7,4.4,2.5,2.9,3.2,5.4,1.8,8.2,1.1,11.1c-.6,2.5-1,4.2,2.5,4.8a9,9,0,0,0,1.8.2c5.4.4,25.4-4.3,27.2-5s6.4-5.4,6.4-5.4-.7-5.7-2.5-9-5-6.4-8.6-5.7-11.1-3.2-13.6-1.8" fill="none" stroke="#000" stroke-linecap="round" stroke-linejoin="round" stroke-width="2"/><path d="M721.6,439.6a30.13,30.13,0,0,0,10.9,1.6,15,15,0,0,0,4.2-.9" fill="none" stroke="#000" stroke-linecap="round" stroke-linejoin="round" stroke-width="2"/><path d="M752.4,456.5s10.4,12.5,19.3,13.3" fill="none" stroke="#000" stroke-linecap="round" stroke-linejoin="round" stroke-width="2"/><path d="M767.4,474.8a21,21,0,0,1,4.4-4.9c5.6-4.5,12.9-5.4,20.6-5.5a7.53,7.53,0,0,1,3,.4,6.89,6.89,0,0,1,3.1,3c2.2,3.9,2.5,11.5-.6,15.3a6.73,6.73,0,0,1-1.5,1.4c-9.2,5.7-20.7,6.2-31.5,5.6l-7.9-.6s-5.6-3.8-7.3-5.6-7-6.5-10.2-6.7h-1.9c-4.2.3-11.6,1.8-11.6,1.8s-8.6-8.6-2.7-17.2" fill="none" stroke="#000" stroke-linecap="round" stroke-linejoin="round" stroke-width="2"/><polyline points="726 478.9 730.9 489.9 740.3 490.2 751.3 490.7 749.7 483.7" fill="none" stroke="#000" stroke-linecap="round" stroke-linejoin="round" stroke-width="2"/><polyline points="737.6 477 737.6 477 740.3 489.9" fill="none" stroke="#000" stroke-linecap="round" stroke-linejoin="round" stroke-width="2"/><path d="M797.5,482.9h0c.6-.8,3.4-5-.5-6.4-4.3-1.6-17.7-.8-21.5,2.7a119.28,119.28,0,0,1-10.5,8.1" fill="none" stroke="#000" stroke-linecap="round" stroke-linejoin="round" stroke-width="2"/><path d="M658.5,470.3l5.2.8s12.4-10.5,13.2-12.6,3.2-7.5,3.2-7.5-9.9-39.8-6.2-51c.1-.4,5.9-2.3,11.8-3.2h.1l2.4-.3c4.5-.5,8.7-.2,10.2,1.9,3.8,5.1,4.2,53.2,1.3,57.5-.4.6,1.2,5.7,2,10.1a24.73,24.73,0,0,1,.4,3.6c0,4.6,0,11.3-1.3,13.2s-9.9,3.2-9.9,3.2l-11-4s-2.2,2.7-1.9,4-11,3.8-12.6,3.8-19.1,1.1-22.3-.3-16.1-4.3-16.1-4.3l-.5-7.5,1.2-.5,1.5-.6s3.2-11.6,12.9-11.6c7.1-.1,13.2,2.4,16.4,5.3a6.9,6.9,0,0,1,2,2.9" fill="none" stroke="#000" stroke-linecap="round" stroke-linejoin="round" stroke-width="2"/><path d="M693.8,469.7a21.63,21.63,0,0,0-4.8,1.7c-3.5,1.7-7.8,4.8-9.2,10.4" fill="none" stroke="#000" stroke-linecap="round" stroke-linejoin="round" stroke-width="2"/><line x1="689.2" y1="471.9" x2="690.8" y2="485.8" fill="none" stroke="#000" stroke-linecap="round" stroke-linejoin="round" stroke-width="2"/><path d="M627.7,477.5s10.8,4.8,16.9,6.4,19.3,3,22.8,1.6l5.2-1.2s6.8-12.8,9.8-13.7,14-6.7,18.8-4.8" fill="none" stroke="#000" stroke-linecap="round" stroke-linejoin="round" stroke-width="2"/><path d="M714,168.1s3.9,7.5,1.8,11-4.3,9.1-4.3,11,0,5.1,2.1,6.5,3,2.7,2.1,4.3" fill="none" stroke="#000" stroke-linecap="round" stroke-linejoin="round" stroke-width="2"/><path d="M770.4,195l-5.9-4.5a40.89,40.89,0,0,0-5.2-2,2.2,2.2,0,0,0-.8-.1,1.7,1.7,0,0,0-1,0" fill="none" stroke="#000" stroke-linecap="round" stroke-linejoin="round" stroke-width="2"/><polyline points="692.4 227 692.4 226.7 693.9 210.5 696.6 210.8 711.7 212.7" fill="none" stroke="#000" stroke-linecap="round" stroke-linejoin="round" stroke-width="2"/><polyline points="692.7 226.7 693.4 226.8 704.7 227.8 708.5 228.1 716.7 228.7" fill="none" stroke="#000" stroke-linecap="round" stroke-linejoin="round" stroke-width="2"/><path d="M702.7,232.2a10.42,10.42,0,0,0,2-3.8" fill="none" stroke="#000" stroke-linecap="round" stroke-linejoin="round" stroke-width="2"/><line x1="708.9" y1="234" x2="708.4" y2="229" fill="none" stroke="#000" stroke-linecap="round" stroke-linejoin="round" stroke-width="2"/></svg>