<svg id="f2c957d2-c68e-4c22-ad3c-9330f40a2976" data-name="75d7e658-0cad-4aa4-90a4-9f457581517c" xmlns="http://www.w3.org/2000/svg" width="1025" height="507.8" viewBox="0 0 1025 507.8"><title>brainstorm_p5-active</title><path d="M1012.08,294.72c-.35,21.88-9,49.09-26.59,84.43l-.29.59a20.9,20.9,0,0,1-1.06,2,4.39,4.39,0,0,0-.87,1.43c-3.19.9-6.41,1.7-9.65,2.41A196.15,196.15,0,0,0,999.3,380C1010.45,357.52,1014.72,328.87,1012.08,294.72Zm-21.6,83.47a345.55,345.55,0,0,0,16.75-39.41,127.49,127.49,0,0,1-10.75,37.85C994.53,377.17,992.52,377.68,990.48,378.18Z" fill="#f15a24"/><path d="M842.58,296.49a1.77,1.77,0,0,0-.5,0,1.85,1.85,0,0,0-.61.47c-.71.9-3.47,2-9.15,4.09l-2.06.76H843a3.41,3.41,0,0,1-.35-.36,1.75,1.75,0,0,1-.42-.88,1,1,0,0,1,0-.22,1.87,1.87,0,0,1,.59-1.25,2.66,2.66,0,0,0,.71-1.39,8.5,8.5,0,0,1,.31-1h0C843.37,296.61,843,296.54,842.58,296.49Z" fill="#f15a24"/><path d="M851.1,298.41l-.08.11c-.24.35-.48.7-.75,1a10.14,10.14,0,0,1-2.17,2.26h3.7a8,8,0,0,1-.49-2.12C851.26,299.31,851.19,298.79,851.1,298.41Z" fill="#f15a24"/><path d="M1012.39,470.26c-.09-.12-.16-.25-.25-.37q-.84-1-1.69-2l-.59-.66-1.14-1.27-.71-.76-1.06-1.12-.78-.79-1-1-.82-.79-1-1-.84-.78-1-1-.86-.76-1.06-.92-.89-.74-1.07-.88-.91-.73-1.08-.84-.93-.71-1.09-.81-1-.69-1.1-.77-1-.67-1.1-.73-1-.66-1.09-.69-1-.65-1.09-.65-1.07-.63-1-.58-1.16-.65-.72-.38q-1.73-.92-3.49-1.78l-.12-.06-1.58-.74-.65-.3-1.52-.67-.73-.32-1.5-.62-.76-.31-1.51-.58-.77-.29-1.53-.54-.78-.27-1.54-.51-.77-.24-1.56-.47-.77-.22L960,436.3l-.76-.2-1.6-.39-.75-.17-1.62-.36-.75-.15-1.63-.32-.76-.13-1.63-.27-.78-.12L948.1,434l-.84-.1-1.57-.18h-.1V402.8c0-.53,0-1.82-.09-3.18,23.27-1,43.87-4.71,61.29-11a5,5,0,0,0,2.72-2.38c17.72-33.79,20.57-79.67,8.46-136.37a5,5,0,0,0-.27-.86c0-.09-.09-.18-.14-.27a5,5,0,0,0-.28-.52c-.06-.1-.14-.19-.21-.29a5,5,0,0,0-.33-.42c-.09-.09-.19-.18-.28-.26s-.18-.19-.29-.27l-.13-.09-.05,0-.13-.08-.28-.18h0a15,15,0,0,0-8.44-1.83l-.47.06-.21,0a6.15,6.15,0,0,0-2.54,1,5.35,5.35,0,0,0-1.33,1.41l-.21.32-.07.12a5.49,5.49,0,0,0-.47,1.07,11.22,11.22,0,0,0-4.69-3.42c-5.15-1.93-8.79.22-11.19,1.65l-.32.18-1.37-4.89a7.62,7.62,0,0,0-1.68-3.42l-.25-.27a6.47,6.47,0,0,0-4-1.84,7.62,7.62,0,0,0-2.3.1c-.38-1.33-.74-2.74-1.1-4.2-.09-.38-.18-.76-.26-1.14q0-.16-.08-.33a11.18,11.18,0,0,1-.41-3.33,11.06,11.06,0,0,1,.1-1.13c.49-1.72,2.48-3.45,4.69-5.25.93-.77,2-1.76,3.15-2.74s2.08-1.84,2.95-2.56l.2-.17.68-.34,1.28-.65.8-.41c2.19-1.14,4.43-2.37,6.78-3.76a5,5,0,0,0,2.39-5.08c2.37-2.65,5.45-6.65,6.28-10.33a35.84,35.84,0,0,0,.72-6.48q0-1.09,0-2.19a30.83,30.83,0,0,0-1-8l0-.16c-2-6.9-7.36-11.78-12.33-15.65L989,161.54c-3.1-2.37-6-4.63-8-7.34a5,5,0,0,0-2.28-3.36,5.6,5.6,0,0,0-3.51-.71h-.25c-3.21.43-16.71,1.77-29.75,3.08-16.54,1.65-27.78,2.78-30.71,3.19a9,9,0,0,0-8.53,8,25.5,25.5,0,0,0-.54,6,42.86,42.86,0,0,0,.33,4.44c0,.25.05.45.07.61s.07.77.22,2.13c.08.76.16,1.51.18,1.77a5.37,5.37,0,0,0,1.67,3.51,5,5,0,0,0,1.28.92q2,1,4.17,1.83c-.24,2.1-.47,4.12-.7,6.14-.35,3.09-.7,6.19-1.1,9.61-.72,6.45-1.53,13.76.59,20.82,1.79,5.8,5,8.3,7.3,9.38l.42.17a17.82,17.82,0,0,0,7.07,1c6.58-.1,11.2-.12,15.68-.15,4.28,0,8.35,0,13.84-.13a61.15,61.15,0,0,0,1.86,6.51l0,.11c.49,1.32.87,2.38,1.21,3.33s.74,2.07,1.16,3.16c-1.68,1.18-3.32,2.4-4.91,3.67l-.13.1c-3.71,3.18-3.38,7-1.5,9.28a6,6,0,0,0,4.46,2.18,299.61,299.61,0,0,1-37.21,14.87c-15.71,5-30.89,9-57.41,8.47h-.32c-2.66-.09-5.41-.18-8.29-.34-1.1-.36-2.26-.68-3.4-1a30,30,0,0,1-3.84-1.22,14.35,14.35,0,0,0-7.34-2.28,10.18,10.18,0,0,0-1.43.11h0c-3.65.61-9.37,6.72-10,7.92a5,5,0,0,0-.52,1.39c-.15.71-.33,1.41-.52,2.11l-1.31.65-1.69.84-.19.09-1,.49c-10.16-18.12-23.84-43.62-25.31-46.69a5.57,5.57,0,0,0-5-3.45H708.9a6.29,6.29,0,0,0-5.33,3.07,7.52,7.52,0,0,0-.44,7.16,9.93,9.93,0,0,0,2.85,3.28c.14.12.29.23.42.35a10.59,10.59,0,0,1,1.88,3l.1.23A296.18,296.18,0,0,0,738.89,311a5,5,0,0,0,1.15,1.11l.22.25a6.65,6.65,0,0,0,3,2.15,4.91,4.91,0,0,0,1.72.31H882a5,5,0,0,0,.7,0c1.09-.16,4.42-.63,6.43-8.28l0-.19a8.59,8.59,0,0,0-.5-5.43l5.34-.68a7.18,7.18,0,0,0-.42,2,6.79,6.79,0,0,0-2.45,1.66,6.5,6.5,0,0,0-1.59,2.84,7.77,7.77,0,0,0,3.1,8.39,5,5,0,0,0,2.48.87l3.78.27a27.34,27.34,0,0,0,1.09,7.22,7.89,7.89,0,0,0-5.08,2.41,7.17,7.17,0,0,0-.8,1,8.54,8.54,0,0,0-.09,8.84,5.57,5.57,0,0,0,5.35,2.87h.1a13.39,13.39,0,0,1,5.84.37,15.91,15.91,0,0,0,3,.55,10.41,10.41,0,0,0,4.56-.43l.17-.06a8.44,8.44,0,0,0,3.18-2.11,10.82,10.82,0,0,0,.72-.81c.27.24.54.47.83.69,11.7,9,22.4,15,31.44,17.65-.92,1.57-1.88,3.12-2.88,4.63l-.06.1c-.7,1.11-1.41,2.14-2.1,3.13a4.16,4.16,0,0,0-1,1.33q-1.42,1.84-3,3.58-6.37-2.93-12.68-6.11l-.18-.09-3.49-1.79c-7.43-3.83-15.07-8-23.45-12.6l-1.31-.71c-8.74-4.77-17.78-9.7-27.76-12.42-12.42-3.39-24-3-33.54,1.25-11.9,5.26-20,16.6-20.08,28.22,0,0,0,.06,0,.09h0a52.21,52.21,0,0,0,5.26,23,80.11,80.11,0,0,0-18.77,18.58l-.22.32c-.3.44-.6.87-.89,1.31-7.18,10.88-10.43,23.19-9.87,37.14,0,.17,1,16.58.41,27a5,5,0,0,0-3.7-.05,44.69,44.69,0,0,1-7.22,1.8,54.33,54.33,0,0,0-13.94,4.16c-3.38,1.62-10.58,3.2-25.67,1.59l-.48-.05c-4.56-.45-8.53,2.51-10.12,7.57a13.78,13.78,0,0,0-.64,4.3,7.52,7.52,0,0,0,2.6,6.1c2.94,2.61,13.8,8.58,50.21,6.46l1.55.65c3,1.27,3.54,1.5,4.7,1.5l.44,0,24-2.1a5,5,0,0,0,4.45-4v-.07c0-.13.06-.25.07-.38a33.14,33.14,0,0,0,.37-9.75c0-.3,0-.6-.07-.89-.06-.88-.11-1.73-.1-2.6a18.15,18.15,0,0,1,.39-3.68,11.57,11.57,0,0,0,.37-2.18c.86,3.37,4.14,6.45,7.09,7.55a7.7,7.7,0,0,0,2.76.48,16.3,16.3,0,0,0,6.11-1.46l.24-.1c.41-.17.81-.36,1.21-.55l.36-.18.26-.13a17.8,17.8,0,1,0,31.2-13.75c14.71-10.76,30.36-16,46.71-15.72,0,.08,0,.15,0,.22,0,3.27.23,6.73.59,9.86a5,5,0,0,0-3,4.52l-.1,15.79a5,5,0,0,0-.05.54,4.8,4.8,0,0,0,0,.48v7.92c0,.05,0,.1,0,.15s0,.22,0,.33,0,.28.05.42l0,.21.06.24c0,.14.09.28.14.42s.07.18.11.27l.06.13a5,5,0,0,0,.26.45l.12.2.06.09.14.17a5,5,0,0,0,.35.41l.1.1.22.19.35.28.2.13.19.12.38.19.3.13.1,0,0,0h0l.25.08a32.43,32.43,0,0,0,10.36,1.81h.25a22.15,22.15,0,0,0,9.13-2l.06,0,.08,0,0,0h0l0,0a5,5,0,0,0,.6-.34l.12-.09.21-.16.34-.29.17-.17.14-.14c.11-.12.2-.25.3-.38l.13-.17.08-.12.11-.2c.08-.14.15-.28.22-.42l.07-.19.08-.23c0-.14.09-.29.12-.44s0-.17.06-.26h0s0-.09,0-.14a5,5,0,0,0,.06-.75V469.4a5,5,0,0,0-1.83-3.84c.36-2.71.62-5.44.73-8.16,0-.07,0-.13,0-.2s0-.28,0-.45v-.2c0-.12,0-.23,0-.36s0-.24,0-.37v-.27c0-.17,0-.35,0-.54v0c16-.15,32,5.47,46.94,16.41a17.77,17.77,0,0,0,2.28,25.48l0,0c.32.26.66.5,1,.74l.71.48.36.21a17.67,17.67,0,0,0,9.19,2.57h0a17.79,17.79,0,0,0,12.69-30.26C1012.67,470.51,1012.52,470.39,1012.39,470.26ZM799,247.09l0,0c0-.07,0-.15,0-.22C799,246.92,799,247,799,247.09Zm23.54,225.24a6.28,6.28,0,0,0-1.88,3.56,5,5,0,0,0-.15-.6s0-.07,0-.1l0-.11,0-.15c0-.11-.1-.22-.15-.33a11,11,0,0,0-1.87-3.07l-.32-.37L818,471a4.87,4.87,0,0,0-5.84-2.37,210.68,210.68,0,0,1-1.53-25.71c0-.08,0-.16,0-.25-.82-19.28,10-33,20.79-41.74,1.45,3,3.41,7,5.22,10.76,3.68,7.62,7.85,16.24,10.94,22.37.45.92.87,1.76,1.26,2.54a5.69,5.69,0,0,0-1.87,1.53,25.84,25.84,0,0,0-4.59,9.5,10.74,10.74,0,0,1-2.33,4.87,29.09,29.09,0,0,0-2.91,4.23,57.61,57.61,0,0,1-7.77,10.47,22.79,22.79,0,0,1-5.16,3.95A6.62,6.62,0,0,0,822.59,472.34ZM1013,487.76a13.81,13.81,0,1,1-20.1-16.57c-18-14.5-37.79-21.46-57.41-20.15.15,2.69.15,5.16.15,6.16a84.14,84.14,0,0,1-1.21,11.2h1.31a1,1,0,0,1,1,1v24.7a1,1,0,0,1,0,.14,1,1,0,0,1,0,.22,3.59,3.59,0,0,1-.2.32,1,1,0,0,1-.18.13.94.94,0,0,1-.12.09h0a18.13,18.13,0,0,1-7.59,1.68h-.2A28.43,28.43,0,0,1,919,495h0a1,1,0,0,1-.2-.12.76.76,0,0,1-.39-.56,1,1,0,0,1,0-.22v-8.2a.88.88,0,0,1,0-.22,1.07,1.07,0,0,1,.05-.28l.1-16a1,1,0,0,1,1-1H922a86.74,86.74,0,0,1-1.18-17.54c-20.16-1.46-39.35,5.07-57.09,19.37a13.81,13.81,0,1,1-19.72,6c-3.84,3-9.58,6.44-13.18,6.44a4,4,0,0,1-1.44-.24c-2.08-.78-4.61-3.28-4.73-5.33a2.35,2.35,0,0,1,1.33-2.29c7.07-3.82,11.77-11.42,14.57-16a27.58,27.58,0,0,1,2.45-3.62,14.54,14.54,0,0,0,3.22-6.45,22.07,22.07,0,0,1,3.92-8.18,1,1,0,0,1,.54-.36c1.09-.29,2.1-.51,3.07-.72l1.07-.24c-.74-1.29-2-3.77-3.59-6.94-3.08-6.1-7.28-14.8-11-22.47-3.35-6.92-6.52-13.47-7.38-15-12.72,9.12-27.22,24.71-26.22,48,0,.2-.08,15.61,1.69,27.19a55,55,0,0,0,1.19,6c1.09-1,2.19-2,3.19-3.11l.23-.23a1,1,0,0,1,1.41,0,1,1,0,0,1,.28.66,7,7,0,0,1,2.16,3.12,1,1,0,0,1,0,.18,7.6,7.6,0,0,1-.23,3.22,26.82,26.82,0,0,0-.31,8.39,28.88,28.88,0,0,1-.37,9h0a1,1,0,0,1-.89.87l-24,2.1h0c-.38,0-.64-.09-3.21-1.18-.88-.37-2.07-.87-2.46-1-38.29,2.35-47.21-4.49-48.31-5.51-1.39-.94-1.41-3.69-.68-6,1-3.26,3.22-5,5.9-4.78l.44,0c12.87,1.38,22.23.72,27.83-2a51.09,51.09,0,0,1,13-3.84,47.47,47.47,0,0,0,7.89-2,1,1,0,0,1,.85.07,22.88,22.88,0,0,1,4,2.92l.6.51a37.49,37.49,0,0,0,.8-6.91h0c.59-10.62-.39-27.4-.4-27.57-.92-22.86,9.21-41.1,31-55.76-4.43-8.32-6.55-16.32-6.46-24.41.1-10.08,7.21-20,17.7-24.6,8.67-3.83,19.34-4.19,30.87-1,9.53,2.6,18.36,7.42,26.9,12.07l1.31.72c15.64,8.59,28.75,15.68,42.73,21.94a65.46,65.46,0,0,0,5.41-6.27.89.89,0,0,1,.59-.79l.25-.36c.78-1.11,1.58-2.27,2.39-3.56,1.86-3,3.79-6.13,5.53-9.36C946,350.22,933.94,344,920.3,333.5a10,10,0,0,1-.82-.74.91.91,0,0,1-.71-.63c-.77-.67-2.15-1.83-2.7-1.87a12,12,0,0,0-1.14,1.61,6.86,6.86,0,0,1-3.18,3.17,6.41,6.41,0,0,1-2.95.26,11.76,11.76,0,0,1-2.36-.44,17.37,17.37,0,0,0-7.32-.46,1.59,1.59,0,0,1-1.55-.95,4.54,4.54,0,0,1,0-4.55c.6-.9,1.9-1.88,4.68-1.5l1.68-.09A17.62,17.62,0,0,0,907,327a6.19,6.19,0,0,0-1-1.2c-2.6-2.6-3-8.08-3-11.11v-2.37l-7.47-.53a1,1,0,0,1-.5-.17,3.76,3.76,0,0,1-1.5-4.09c.35-1.41,1.75-2.14,4.17-2.14h1a6.81,6.81,0,0,1-.93-1.65,3.17,3.17,0,0,1,.29-2.79,3.4,3.4,0,0,1,3.58-1.33,5,5,0,0,1,2.79,2,12.86,12.86,0,0,1,1.41,2.71,3.07,3.07,0,0,0,1.31,1.45h.06a1,1,0,0,1,.83.48,4,4,0,0,1,.34.21c1.9,1.31,2.28,3.85,2.59,5.89l0,.18c.54,3.49,3.37,7.49,7.4,10.44,1.51,1.21,3.11,2.41,4.66,3.57a146.59,146.59,0,0,0,17.73,11.56,60.3,60.3,0,0,0,18,6.67,134.48,134.48,0,0,0,7.34-19.87c.94-3.24,2.15-6.47,3.32-9.59C970.73,312,972,308.48,973,305a1,1,0,0,1,0-.12c-.74-3.69-3-10.1-5.12-16.3-1.52-4.37-3-8.51-3.94-11.84-6,2.32-11.58,4.46-16.72,6.38C923.78,291.79,911,294,887.42,296.89a104.66,104.66,0,0,1-12.35.57c-3.68,0-7.69-.11-11.54-.36-1.1-.07-2.21-.15-3.31-.26.06.32.12.64.18,1a22.8,22.8,0,0,0,.56,2.61,1,1,0,0,1,0,.3,3.44,3.44,0,0,1-.21,1.07c11,0,21.83,0,22.91-.08a1,1,0,0,1,.71.12c1.2.72,1,2.82.86,3.57s-1.43,5.13-3.14,5.37H745c-.53,0-.83-.32-1.63-1.17-.2-.21-.49-.52-.63-.65a1,1,0,0,1-.35-.29,292.1,292.1,0,0,1-30.1-50.47,13.48,13.48,0,0,0-2.65-4.26,10.08,10.08,0,0,1-2.57-2.6l-.07-.12a3.57,3.57,0,0,1,.3-3.26,2.27,2.27,0,0,1,1.89-1.19h84.9a1,1,0,0,1,1,.78c.91,2.14,17.2,32.43,27.49,50.64,1.69-1,3.88-2.08,6.17-3.21l2.87-1.43a38.72,38.72,0,0,0,1.11-4.08,1,1,0,0,1,.1-.28c.53-1,5.65-5.76,7.17-5.91,2.34-.35,4.33.75,6.08,1.72a26.77,26.77,0,0,0,4.72,1.58c1.26.35,2.57.71,3.7,1.11,3.12.19,6.07.28,8.92.38h.31c27.26.57,42.79-3.57,58.87-8.65a303.71,303.71,0,0,0,42.78-17.56c.42-1.35.26-1.9-.76-3.16a5.47,5.47,0,0,0-4.65-2,2.81,2.81,0,0,1-2.75-.67c-.66-.77-.75-2.16,1-3.68a93.14,93.14,0,0,1,7.56-5.46,87.28,87.28,0,0,1-3.57-9.49,41.69,41.69,0,0,1-2.35-9.2h-1.8c-6.29.1-10.7.13-15.37.15-4.51,0-9.17.05-15.81.15-.31,0-.62,0-.93,0a14,14,0,0,1-4.61-.79c-2.41-1.1-4.14-3.43-5.23-6.95-1.9-6.1-1.19-12.45-.5-18.6l.07-.61c.4-3.38.75-6.45,1.09-9.53s.67-5.94,1-9.16a42.14,42.14,0,0,1-6.89-2.7,1,1,0,0,1-.26-.18,1.42,1.42,0,0,1-.5-1l-.19-1.85c-.21-2-.21-2-.21-2.05s0-.39-.08-.73a27.08,27.08,0,0,1,.19-9.22,5,5,0,0,1,4.91-4.65c2.55-.38,16.27-1.75,30.78-3.2,12.73-1.27,25.88-2.58,29.58-3.05a1.63,1.63,0,0,1,1.41,0,1,1,0,0,1,.44,1.13.85.85,0,0,1-.09.17c2.42,3.79,6.21,6.73,9.9,9.56l1.58,1.22c4.46,3.47,9.26,7.81,10.95,13.61a26.92,26.92,0,0,1,.84,7.09,31.66,31.66,0,0,1-.62,7.58c-.83,3.69-5.39,8.59-6.88,10.11.16.42.29.76.37,1s.09.28.13.34a1,1,0,0,1-.39,1.3c-3.57,2.1-6.89,3.87-10.11,5.41a1,1,0,0,1-.16.19c-.9.75-2,1.69-3,2.64s-2.16,1.91-3.06,2.66c-2.8,2.28-5.36,4.57-6.07,7.56a15.2,15.2,0,0,0,.39,6.4,87.24,87.24,0,0,0,2.74,10c.51-.29,1-.58,1.55-.83,1.28-.77,3.16-1.21,4.35,0l.08.09a4.1,4.1,0,0,1,.79,1.72l2.08,7.43c.45,1.46.87,1.85,1.24,1.94.64-.35,1.31-.69,2-1a1,1,0,0,1,.36-.08c.71-.33,1.38-.71,2-1.1,2.16-1.28,4.4-2.6,7.75-1.35,2.35.87,3.82,3.13,4.72,4.75a75.47,75.47,0,0,1,9.52,21.72c-1.15-8.26-2.61-16.57-4.37-24.83a1.55,1.55,0,0,1,.75-1.67c1.59-1,6,0,7.35,1.08a1,1,0,0,1,.36.58c11.9,55.76,9.18,100.74-8.09,133.67a1,1,0,0,1-.54.48c-18,6.53-39.58,10.2-64.09,10.93a1,1,0,0,1,0,.23c0,.54,0,2,.1,3.37s.1,2.88.1,3.43v34.56c25.49,1.54,50,14.29,67.47,35.1a1,1,0,0,1,.19.35,13.88,13.88,0,0,1,3.26,4.4A13.72,13.72,0,0,1,1013,487.76Zm-106-189.48c13.49-2.23,25.09-5.2,41.47-11.29,4.26-1.56,8.52-3.19,12.69-4.81.81,2.46,1.74,5.15,2.71,7.93,2,5.67,4,11.51,4.82,15-.84,2.88-1.92,5.75-3.06,8.77-1.22,3.25-2.49,6.6-3.51,10.17a115.4,115.4,0,0,1-5.65,16.06,56.17,56.17,0,0,1-7.28-2.41l-.15-.06-.47-.21a56,56,0,0,1-5.9-3,142,142,0,0,1-17.19-11.21l-.18-.11c-1.46-1.1-3-2.22-4.32-3.31l-.17-.13a19.52,19.52,0,0,1-2.13-1.81,11.9,11.9,0,0,1-3.58-5.9l0-.17c-.33-2.21-.81-5.4-3.16-7.69a8.26,8.26,0,0,0-1.18-1l0,0a5,5,0,0,0-1.22-.86,16.85,16.85,0,0,0-1.59-2.93A9,9,0,0,0,906.95,298.29Z" fill="#f15a24"/><path d="M889.52,354.58l-.93-.51c-7-3.85-14.31-7.83-22.06-10-6.36-1.78-15.74-3.1-24.32.75C835,348,830.7,355,830.6,363.41c-.09,7.09,2.11,12.55,5.7,19,15.21-7.81,34.68-10.35,52.3-6.76,12.52,2.52,26.38,2.75,39.79,3h.52c-8.24-3.69-15.29-8.45-22.69-13.46C900.94,361.57,895.48,357.86,889.52,354.58Zm0,16.92A86.8,86.8,0,0,0,838,377a28.32,28.32,0,0,1-3.37-13.47c.09-6.88,3.53-12.46,9.2-14.94,6-2.61,13.67-2.81,21.65-.57,7.31,2,14.05,5.74,21.2,9.65l.94.51c5.81,3.2,11.18,6.84,16.38,10.36,2.67,1.81,5.38,3.64,8.17,5.42A150.58,150.58,0,0,1,889.5,371.5Z" fill="#f15a24"/><path d="M880.87,382.27a213.48,213.48,0,0,0,37.94,5.58c-7.36-.85-15.23-2.1-23.8-3.78A118.8,118.8,0,0,0,880.87,382.27Z" fill="#f15a24"/><path d="M874.94,390c-.38-.64-.24-1.57.16-3.53.08-.38.16-.75.21-1s.07-.48.1-.68a3.05,3.05,0,0,1,1.51-2.69c-14.39-.38-26.6,2.22-36.29,7.75a265.57,265.57,0,0,1,16.62,24.92c2.24,3.69,4.17,6.87,5.75,9.07,2.26,3.19,3.06,3.21,3.21,3.2a.92.92,0,0,1,.22,0c0-.92.05-1.8.05-2.72a1,1,0,0,1,1.39-.92c.55.23,13.44,5.85,15.1,17.38a1,1,0,0,1-.3.86l-9.15,8.78a107.74,107.74,0,0,1,44.26-12.91v-14c-.09-2.84-.11-24.67.31-27.93a1,1,0,0,1,0-.13,323.14,323.14,0,0,1-42.53-5A1,1,0,0,1,874.94,390Zm38.86,33.56V433.8l-.54.07c-1.33.14-2.66.3-4,.49l-1.58.26c-1,.16-2,.31-3,.5-.6.11-1.2.24-1.81.37-.9.18-1.81.36-2.7.57-.63.14-1.26.31-1.89.46-.86.21-1.71.42-2.56.65l-1.92.55c-.82.24-1.65.48-2.46.74l-1.93.64c-.8.27-1.59.54-2.38.83h0c-1.8-11.24-12.33-17.69-16.8-20a5,5,0,0,0-2.52-.68h0a5,5,0,0,0-2.46.56c-1.32-2-2.89-4.56-4.65-7.46-3.5-5.76-8.09-13.31-13.85-21.18,7-3.12,15.12-4.84,24.4-5.15-.43,2.09-.75,4.07.41,6a5,5,0,0,0,3.38,2.35,327.25,327.25,0,0,0,39,4.8C913.69,406.73,913.73,420.94,913.8,423.57Z" fill="#f15a24"/></svg>