<svg id="630edc59-3b0f-4a48-a8e8-952755e977db" data-name="d3234ac2-2ea0-43ff-b202-7bf8880b8b7c" xmlns="http://www.w3.org/2000/svg" width="1025" height="507.8" viewBox="0 0 1025 507.8"><title>brainstorm_p2-active</title><path d="M249,455.69c-3.12-.35-5.19-3-6.89-5.42-.22-.39-.44-.74-.67-1.07-2.8,1.87-5.55,3.88-8.18,6A13.77,13.77,0,0,1,237,475.44a43.73,43.73,0,0,1,6.11-3.16c2.68-1.14,4.89-3.83,6-7.39a40.68,40.68,0,0,0,1.41-9.24,5,5,0,0,1-1.59,0Zm-2.75,3.73c-.07.47-.16.94-.25,1.41,0,.26-.09.52-.14.78q-.23,1.08-.52,2.16a10.47,10.47,0,0,1-1.43,2.83,17.63,17.63,0,0,0-4.29-11.18l.87-.62a13.76,13.76,0,0,0,5.78,4.34C246.23,459.22,246.23,459.32,246.21,459.42Z" fill="#f15a24"/><path d="M283.62,360.93a223.48,223.48,0,0,1-33.53-4.46.94.94,0,0,1-.13-.06l-.52.32c-11.9,9-18.71,23.15-17.35,36.05,1.19,10.78,7.75,20.22,12.59,26.39a92.76,92.76,0,0,0,10.15,11.07,15.56,15.56,0,0,0,1.38-2.12,1,1,0,0,1,.74-.52,1,1,0,0,1,.86.28l.56.56A109.45,109.45,0,0,1,290,422.26l-6.39-61.16A1,1,0,0,1,283.62,360.93Zm2,57.6-.73.07c-.9.08-1.8.15-2.69.25-.66.07-1.31.18-2,.26s-1.58.2-2.37.32-1.37.24-2.06.35-1.51.25-2.26.39-1.38.29-2.07.44-1.48.3-2.21.47-1.36.34-2,.51-1.48.36-2.21.57-1.33.39-2,.58-1.48.43-2.22.66l-1.55.52a5.27,5.27,0,0,0-2.08-.44,5,5,0,0,0-2.65.81,88.87,88.87,0,0,1-6.65-7.6c-7.21-9.18-10.94-16.92-11.76-24.34q-.11-1.07-.14-2.15c-.25-10.59,5.47-21.84,15-29.49a227.73,227.73,0,0,0,29,4Z" fill="#f15a24"/><path d="M307.6,361.56,304.2,423h.22a1,1,0,0,1,1-.86,89.75,89.75,0,0,1,42.67,10.56,81.48,81.48,0,0,0,5.48-8.07c6.91-11.58,10.16-24.26,9.16-35.7-.81-9.31-4.41-22.38-16.77-32.26a.94.94,0,0,1-.14.06,244.41,244.41,0,0,1-38.24,4.58A1,1,0,0,1,307.6,361.56Zm3.81,3.53a248.74,248.74,0,0,0,33.37-4.13C355,369.8,358,381.15,358.72,389.33q.17,2,.16,4c-.06,9.51-3.11,19.74-8.78,29.25-1,1.69-2.08,3.34-3.21,5A92.74,92.74,0,0,0,308.48,418Z" fill="#f15a24"/><path d="M397.79,241.26c-2.68-8.92-8.27-16.44-13.22-23.08a43.14,43.14,0,0,0-5.82-6.81l-.24-.21a43.53,43.53,0,0,0-9.08-5.84c-1.32-.68-2.69-1.41-4.09-2.15-6.37-3.39-13.59-7.24-20.74-8.84l-.49-.08a17.07,17.07,0,0,0-4,0c-.41-.58-.84-1.14-1.3-1.69a7.29,7.29,0,0,0,1.13-1c5.19-5.84,7.82-14.11,7.82-24.58,0-1.8,0-5.55-2.63-8.39a5,5,0,0,0-2.1-1.34c-.09-2.48-.26-5-.41-7.34q-.08-1.19-.15-2.29a34.55,34.55,0,0,0,.47-11.91c-.09-1-.22-1.94-.36-2.9a20.81,20.81,0,0,0,5.46-4.24,4.91,4.91,0,0,0,.32-.38,25.71,25.71,0,0,0,3.74-7,7,7,0,0,0,.11-5.46,5,5,0,0,0-1-1.56c-.12-.13-.25-.23-.38-.35a6.93,6.93,0,0,0-1.78-1.26l-.12-.06a5,5,0,0,0-1.4-.57q-1.58-.38-3.19-.64a7.12,7.12,0,0,0-1.55-2.34,5.05,5.05,0,0,0-.38-.34,10,10,0,0,0-6.93-2.22,28.8,28.8,0,0,0-3.13.14c-.1-.23-.2-.45-.32-.67a10.62,10.62,0,0,0-4.15-4.48l-.29-.16a10.79,10.79,0,0,0-10.12.22,31.88,31.88,0,0,0-11.21-1.44,11.24,11.24,0,0,0-5,1.47q-.82-.3-1.67-.52l-.1,0A10.1,10.1,0,0,0,290.7,103a8.6,8.6,0,0,0-1.24,1.29l-.36,0-.9.05c-4.84.39-9.51,3.21-12.83,7.73l-.11.16a45.4,45.4,0,0,0-5.46,11.1,33,33,0,0,0-1.6,5.4c0,.08,0,.17,0,.25a16.86,16.86,0,0,0,.13,5.76c-.18,2.14-.33,4.4-.45,6.82a5,5,0,0,0-1.63.23,5.73,5.73,0,0,0-3.66,4,5,5,0,0,0-.22,1,81.25,81.25,0,0,0-.12,18.18,28.49,28.49,0,0,0,1.64,8.2,8.06,8.06,0,0,0,3.63,4.52c0,.34.09.68.15,1a9.78,9.78,0,0,0-4.39,3.78,10,10,0,0,0-1.35,6.21,10,10,0,0,0-2.23,4,9.35,9.35,0,0,0-.2,1q-4.19,0-8.39.31c-1.27.08-2.54.18-3.8.31l-.19,0c-3.87.55-8,1.28-11.74,3.54a21.38,21.38,0,0,0-3.26,2.42c-3.66,3.18-6.1,7.33-8.16,11.45-.57,1.15-1.12,2.3-1.66,3.46a39.9,39.9,0,0,1-5,8.78c-.14.17-.33.35-.52.55-1.36,1.39-4.46,4.56-3.2,8.6,0,1.42-.38,5.47-.61,7.71a48.58,48.58,0,0,0-.43,5.58c0,1.13.25,3.37.36,4.12,1.06,6.86,4.74,13.68,10.65,19.71a91.33,91.33,0,0,0,12,10.42l1.4,4.21c1.92,5.79,3.91,11.75,5.92,17.68a5,5,0,0,0-.69,1.82,21.31,21.31,0,0,0-.26,2.85s0,0,0,.07v0a11.32,11.32,0,0,0,.71,4.28l.06.15a7.25,7.25,0,0,0,6.08,4.48l.44,0h.11a10.08,10.08,0,0,0,1.78-.2h6c0,1,.07,2.23.07,3.52-22.28,12.66-39.65,36.16-44.64,60.71a45.75,45.75,0,0,0-.86,9.36,46.35,46.35,0,0,0,4.7,20c.9,1.8,1.87,3.57,2.88,5.31q1.92,3.34,4.11,6.52t4.53,6.1a86.17,86.17,0,0,0,7,8.19A93.71,93.71,0,0,0,214,453.86l-.09.13a17.76,17.76,0,0,0,12,30.8,23.68,23.68,0,0,0-.38,3c-.43,7.43,4.05,13.59,11.47,15.71a32.94,32.94,0,0,0,8.69,1.16c6.84,0,13.42-2.13,18.1-6.1,7.18-6.18,10.23-16.13,9.33-30.4a12,12,0,0,1,0-2,3.5,3.5,0,0,1,.85-.78,4.9,4.9,0,0,0,.4-.29c1.7-1.36,3.49-2.71,5.23-4l2.27-1.71a5,5,0,0,0,2-4.38q-.06-.78-.17-1.54c0-.17-.06-.33-.09-.49-.06-.34-.11-.68-.18-1s-.09-.38-.14-.57-.14-.59-.22-.88-.13-.4-.19-.6-.17-.54-.26-.81-.16-.4-.23-.6-.2-.51-.3-.76-.19-.39-.28-.59-.22-.48-.35-.71-.21-.38-.32-.57-.25-.45-.39-.67-.24-.37-.36-.55-.28-.43-.43-.63-.27-.35-.4-.53-.3-.4-.46-.59l-.44-.5c-.17-.19-.33-.37-.5-.55l-.48-.47-.54-.51-.51-.44-.19-.16a72.44,72.44,0,0,1,10-.5c0,3.63.25,7.11.57,10.09a5,5,0,0,0-2.94,4.51l-.09,15.31a4.71,4.71,0,0,0,0,1.91L283.8,479a5,5,0,0,0,3.33,4.77,32.93,32.93,0,0,0,10.61,1.89H298a22.9,22.9,0,0,0,9.45-2.05,5,5,0,0,0,2.82-5.47V454.4a5,5,0,0,0-1.92-3.91c.36-2.69.61-5.39.72-8.09,0-.07,0-.13,0-.2,0-.47,0-1.28,0-2.27A67.11,67.11,0,0,1,330.42,443c-.27.43-.54.86-.8,1.3a8.41,8.41,0,0,0-1.19,3.4,5,5,0,0,0,0,.66,5,5,0,0,0,0,.67,7.69,7.69,0,0,0,.15.83c-7.44,5.73-13.27,13.8-9.73,21.34a11,11,0,0,0,3.52,4.23l.38.3,0,.09a21.29,21.29,0,0,1-.27,5.48,36.83,36.83,0,0,0-.42,6.28,17.17,17.17,0,0,0,1.27,6,5,5,0,0,0,.34.68,18.44,18.44,0,0,0,4,4.69,36,36,0,0,0,22.86,8.18h.1a35.63,35.63,0,0,0,9.15-1.19,16.63,16.63,0,0,0,5.14-2.29l.2-.14c3.82-2.83,5.71-7.77,5.2-13.58a25.15,25.15,0,0,0-.67-3.83A17.89,17.89,0,0,0,387.39,470c0-.06,0-.11,0-.17,0-.41.06-.82.07-1.24,0-.17,0-.33,0-.5s0-.12,0-.19c0-.41,0-.83-.07-1.24,0-.21,0-.43,0-.65,0-.4-.13-.79-.2-1.19a17.83,17.83,0,0,0-.59-2.34v0c-.17-.51-.38-1-.59-1.5,0-.07,0-.14-.08-.2v0a17.82,17.82,0,0,0-3.87-5.43c-.07-.1-.12-.19-.2-.29l-.07-.11h0l-.08-.09a103.37,103.37,0,0,0-14.72-14.41h0l-.05,0-.5-.39-.16-.13c9.15-14.71,14.87-35.69,14.74-53.2a65.4,65.4,0,0,0-.82-10.24C377,357.46,362.69,334,346.36,320.54c0-1.22,0-2.48,0-3.61,0-.16,0-.32,0-.47s0-.16,0-.24,0-.15,0-.23H358.7a5,5,0,0,0,2.52-.68c3.68-2.15,3.68-6.34,3.68-7.72h0v-.09c0-.57,0-1-.06-1.48,0-.27,0-.55,0-.92a5,5,0,0,0-.22-1.37c2.51-7.86,4.39-14.17,5.91-19.92a47.7,47.7,0,0,0,18.28-11.5,43,43,0,0,0,5.36-6.41A28.63,28.63,0,0,0,397.79,241.26Zm-38.58,70.6a1,1,0,0,1-.5.14h-16v0c-.32.73-.41,6-.29,10.46,16,12.4,30.74,36.22,33.79,54.55,3.18,19.18-3.58,46.92-15.43,63.67,1.21.87,2.44,1.76,3.58,2.73a99.3,99.3,0,0,1,14.32,14,1,1,0,0,1,.19.36,13.9,13.9,0,0,1-3.52,23,13.86,13.86,0,0,1-5.75,1.25,14,14,0,0,1-6.92-1.84,21.25,21.25,0,0,1,3.63,10c.39,4.3-1,8-3.6,10a12.69,12.69,0,0,1-3.95,1.77,32,32,0,0,1-28.48-6.2,14.4,14.4,0,0,1-3.12-3.66l-.07-.14a13.17,13.17,0,0,1-1-4.65,33.52,33.52,0,0,1,.39-5.62,23.45,23.45,0,0,0,.23-6.72,4,4,0,0,0-1.87-2.81,7,7,0,0,1-2.35-2.76c-3.83-8.17,9.61-17.34,11.16-18.36a1,1,0,0,1,.29-.12,3.63,3.63,0,0,1-1.53-2.52,1,1,0,0,1,0-.25,4.39,4.39,0,0,1,.65-1.82,56.89,56.89,0,0,1,3.66-5.44,71,71,0,0,0-31.76-4.9c.14,2.65.14,5.09.14,6.08a84.36,84.36,0,0,1-1.21,11.2h1.41a1,1,0,0,1,1,1v24.27h0a1,1,0,0,1-.49,1.33A18.87,18.87,0,0,1,298,481.7h-.14a29,29,0,0,1-9.33-1.66h0a1,1,0,0,1-.19-.11,1,1,0,0,1-.14-.09,4.31,4.31,0,0,1-.22-.31,1,1,0,0,1,0-.16,1,1,0,0,1,0-.22s0,0,0,0v-8a.93.93,0,0,1,0-.85l.1-15.88a1,1,0,0,1,1-1h2.57A86.55,86.55,0,0,1,290.38,436,70.73,70.73,0,0,0,268,437.61c.7.63,1.41,1.23,2.11,1.82a1,1,0,0,1,.16,1.37l-.21.31c5.57,2.43,9.18,7.67,9.71,14.21a1,1,0,0,1-.39.88l-2.26,1.7c-1.76,1.32-3.58,2.69-5.32,4.08a7.66,7.66,0,0,0-2.29,2.26c-.63,1.11-.53,2.75-.44,4.19.82,12.94-1.78,21.81-7.95,27.12-3.95,3.34-9.55,5.14-15.43,5.14a29.19,29.19,0,0,1-7.69-1c-5.5-1.57-8.85-6.13-8.53-11.62a14.77,14.77,0,0,1,3.16-8.93A14,14,0,0,1,226,480.8h0a13.78,13.78,0,0,1-8.8-24.39,89.64,89.64,0,0,1,20.49-17.75c1.22-.76,2.48-1.53,3.77-2.26A93.27,93.27,0,0,1,231,424.91a86.88,86.88,0,0,1-11.1-17.27A42.23,42.23,0,0,1,216.42,381c4.91-24.17,22.43-47.31,44.7-59.11.09-4.11-.06-8.76-.49-9.66a1,1,0,0,1-.18-.23h-9.81a6.07,6.07,0,0,1-1.41.2h-.11a3.26,3.26,0,0,1-2.74-2,7.37,7.37,0,0,1-.47-2.81,17.4,17.4,0,0,1,.21-2.33,1,1,0,0,1,1-.84H359.8a1,1,0,0,1,1,1c0,.42,0,.78,0,1.13s.05.79.05,1.27C360.9,308.66,360.9,310.87,359.2,311.86Zm31.52-48.1c-5.41,8-15.09,14.9-23.63,16.85-1.65,6.45-3.71,13.46-6.65,22.6a1,1,0,0,1-1,.69h0l-111.4-.5a1,1,0,0,1-.94-.68c-2.19-6.41-4.34-12.9-6.43-19.17l-1.83-5.5a1,1,0,0,1-.27-.14,87.37,87.37,0,0,1-12.24-10.52c-5.33-5.45-8.64-11.51-9.57-17.54-.1-.71-.31-2.88-.31-3.65s.13-2.32.41-5,.83-8.15.56-9c-.79-1.93.9-3.65,2.13-4.92.28-.28.54-.54.73-.78,2.35-2.79,3.91-6.12,5.56-9.64.53-1.12,1.06-2.25,1.61-3.37,2.33-4.67,5.14-9.37,9.79-12.11,3.1-1.86,6.62-2.49,10.26-3a82.81,82.81,0,0,1,16.51-.52,5.55,5.55,0,0,1-.53-4.15,5.82,5.82,0,0,1,2.8-3.5,7.08,7.08,0,0,1,.42-5.65c1-1.7,3-2.72,5.77-3.07a20.85,20.85,0,0,1-1.27-6.91,2.43,2.43,0,0,1-.4.06,2.4,2.4,0,0,1-1.13-.28,4,4,0,0,1-2.09-2.51,24.32,24.32,0,0,1-1.44-7.23,77,77,0,0,1,.11-17.36,1,1,0,0,1,0-.2,1.94,1.94,0,0,1,1.13-1.43,1,1,0,0,1,.41,0,2.22,2.22,0,0,1,1.45.73c.29.31.6.62.93.94s1,1,1.43,1.5c.11-5.2.34-9.76.7-14v0a11.58,11.58,0,0,1-.2-5,20.52,20.52,0,0,1,1.47-4.92,41,41,0,0,1,5-10.16c2.65-3.61,6.27-5.84,9.95-6.14l.77,0a4.5,4.5,0,0,0,2.48-.54,5.64,5.64,0,0,0,.74-.83,8.79,8.79,0,0,1,.68-.79,5.91,5.91,0,0,1,5.46-1.36,16.31,16.31,0,0,1,3.39,1.4,3.09,3.09,0,0,1,.34-.49,6.11,6.11,0,0,1,4.16-1.74A27.72,27.72,0,0,1,318.23,106a6.53,6.53,0,0,1,7.75-1.08,6.72,6.72,0,0,1,3.3,6.22,26.56,26.56,0,0,1,6.49-.64,6,6,0,0,1,4.26,1.33l.11.11A3.56,3.56,0,0,1,341,115a37.73,37.73,0,0,1,5.77.92,3,3,0,0,1,1.6.89,1,1,0,0,1,.2.31,3,3,0,0,1-.11,2.47,21.73,21.73,0,0,1-3.22,6.11,16.89,16.89,0,0,1-7,4.6c.07.49.15,1,.22,1.47.21,1.4.43,2.85.57,4.24a29.69,29.69,0,0,1-.55,11.24,1,1,0,0,1,.05.19c.05.84.11,1.73.17,2.66.27,3.94.56,8.33.42,12.16a9.4,9.4,0,0,1,2-1.26,1,1,0,0,1,1.16.23c1.38,1.49,1.56,3.61,1.56,5.68,0,9.49-2.31,16.88-6.85,22a3.26,3.26,0,0,1-1.41,1,1.09,1.09,0,0,1-.35.06,2.6,2.6,0,0,1-2.21-1.23,8.38,8.38,0,0,1-.9-1.46,16.47,16.47,0,0,1-4,5.82,17.61,17.61,0,0,1-3.48,2.42v.66l3.05-1.1c1.43-.53,2.86-1.05,4.32-1.56a4.54,4.54,0,0,1,1.27-.25,1,1,0,0,1,.34,0,2.6,2.6,0,0,1,1.4,1,22,22,0,0,1,3.14,4.5,13.24,13.24,0,0,1,5.38-.48c6.72,1.51,13.68,5.22,19.83,8.49,1.44.77,2.84,1.51,4.2,2.21a31.08,31.08,0,0,1,13.67,11.63c4.74,6.36,10.15,13.6,12.63,21.88A24.67,24.67,0,0,1,390.73,263.76Z" fill="#f15a24"/><path d="M358.92,453.5a1,1,0,0,1-.1.18,50,50,0,0,1-6,7,1,1,0,0,1-.39.23,5.66,5.66,0,0,1-4.22-.27c-1.07,1.32-.86,3.68-.24,5.61a31.46,31.46,0,0,0,2.19,5.36,19.68,19.68,0,0,1,7.17,3.19c-.16-.29-.31-.59-.45-.89a13.93,13.93,0,0,1,5.6-17.77c-1.24-1-2.4-1.89-3.55-2.7Z" fill="#f15a24"/></svg>