<svg id="c07f3bdd-ffa6-4b1a-b2ce-3bbb8ca2dde2" data-name="Layer 1" xmlns="http://www.w3.org/2000/svg" width="1025" height="507.8" viewBox="0 0 1025 507.8"><title>brainstorm_p3</title><path d="M513.9,296c-.7-1.3-1.4-2.6-2.2-3.9-1.9-3.4-3.9-7-5.9-10.7-9-16.5-18.1-33.5-17.9-33.5H403c-1.1,0-1.8,2-1.3,3a9.12,9.12,0,0,0,2.4,2.4,14.42,14.42,0,0,1,2.9,4.6,290.6,290.6,0,0,0,30,50.3c.2,0,1.5,1.7,1.8,1.7h114c.7-.1,1.8-2.7,2.3-4.6.3-.9.1-2.2-.4-2.5.2.1-24,.1-36,.1l1.2,3.3C518.1,303.4,516.1,299.9,513.9,296Z" fill="none" stroke="#1d1d1b" stroke-linecap="round" stroke-linejoin="round" stroke-width="6"/><path d="M444.1,450.7a12.31,12.31,0,0,0-3.3.3c-4.4.8-8.9,2.5-11.8,5.9-6.1,7.1-4.5,18,.3,25.4a19.7,19.7,0,0,0,5.7,5.8,21.27,21.27,0,0,0,6.8,2.4,25,25,0,0,0,12.9-7.8,27.3,27.3,0,0,0,2.1-3,42.35,42.35,0,0,0,4.7-12.4c1-3.8,2-7.6,2.7-11.5a61.5,61.5,0,0,0,1.2-8.3,17,17,0,0,0,8.6-8.3,16.35,16.35,0,0,0,1.6-4.7c1-5.1-4.2-9.8-8.8-11.3-3.2-1-5.4-.9-8.8-.7h-.3v.5a14.32,14.32,0,0,1-2.7,6.9c-1.7,2.3-4.2,3.2-6,5.2l-.3.3c-1.2,1.6-1.1,3.2-1.4,5.2a19.7,19.7,0,0,1-3.3,8.7Z" fill="none" stroke="#1d1d1b" stroke-linecap="round" stroke-linejoin="round" stroke-width="6"/><path d="M461.1,356.9a76.8,76.8,0,0,0-7.4,4.1c-8.6,5.3-15.9,12.4-19.7,22.1-.2.4-.3.8-.5,1.2-4.4,12.3-2.6,24.8,5.4,34.8a17.4,17.4,0,0,0,1.2,1.4l3.2,3.5.1.2a10.82,10.82,0,0,0,4.6-5.7,40,40,0,0,1-3.2-4.8c-.2-.3-.3-.6-.5-.9-7.4-13.5-5.2-26.1,5.6-37A64.53,64.53,0,0,1,472.1,361a57.57,57.57,0,0,1,13.3-3.3c5,.3,8.6.5,13.2.8l.1-.2a115.27,115.27,0,0,0-22.6-7.5v.1c-2.4.8-4.1,1.1-6.5,2.1C466.7,354.3,463.8,355.5,461.1,356.9Z" fill="none" stroke="#1d1d1b" stroke-linecap="round" stroke-linejoin="round" stroke-width="6"/><path d="M517.9,360.2c-1-.5-2-1.1-3-1.6-22-11.7-54.2-21.5-77.9-19.4l-.1-.3c-8.6,1.8-8.7,13.9,1.5,13.5,12.3-4.2,25.3-4,37.6-1.3a119.85,119.85,0,0,1,22.6,7.5,112,112,0,0,1,10.4,5.2q5.4,3,9.9,6h0c.2-.2.3-.4.5-.6a6.56,6.56,0,0,1,3-1.5,30,30,0,0,1,5.2-1.1h0A56.24,56.24,0,0,0,517.9,360.2Z" fill="none" stroke="#1d1d1b" stroke-linecap="round" stroke-linejoin="round" stroke-width="6"/><path d="M509.4,333.7c-9.2.4-18.6-.3-27.8-.7-14.4-.6-30.7.2-44.2,5.6a.6.6,0,0,0-.4.1l.1.3c23.6-2,55.9,7.8,77.9,19.4l.1-.3c7.1.9,12.9,1.3,20.1,1.9s13.9,1,19.3-3.8c3.1-2.7,4.3-9.3,6.6-12.7s2.6-7.8,4.9-11.3,8.9-23,10.5-27.5v-.2a48.62,48.62,0,0,1-13.2-.8c-3.6-.9-6.2-1.6-8.4-2l-.2.7c.5.3.7,1.6.4,2.5-.5,2-1.6,4.5-2.3,4.6H528.9c-2.3,4.7-6.3,17.8-7.6,22.6A53.25,53.25,0,0,1,509.4,333.7Z" fill="none" stroke="#1d1d1b" stroke-linecap="round" stroke-linejoin="round" stroke-width="6"/><path d="M443.4,424.2l-.1-.2c-1.1-1.2-2.2-2.3-3.2-3.5-.4-.5-.8-.9-1.2-1.4l-.1.1c-1.9,2.9-2.9,6.2-.7,8.6,1.8,2,3.6,3.9,5.4,5.9a5.65,5.65,0,0,0,2.1,1.7,3.21,3.21,0,0,0,1.7.2l1.5.1.3-.3c1.8-2,4.4-2.9,6-5.2a14.32,14.32,0,0,0,2.7-6.9v-.5a1.08,1.08,0,0,0-.2-.8,1.78,1.78,0,0,0-.7-.8c-2.9-2.8-7-8.8-11.5-7.7l-.8.4a40,40,0,0,0,3.2,4.8A9.46,9.46,0,0,1,443.4,424.2Z" fill="none" stroke="#1d1d1b" stroke-linecap="round" stroke-linejoin="round" stroke-width="6"/><path d="M456.9,479.8l.6.3a11.58,11.58,0,0,0,4.2.7A12.76,12.76,0,0,0,474.5,468c0-5.4-2.8-9.7-7.4-11.5a7.27,7.27,0,0,0-2.1-.6l-.6-.1c-.8,3.9-1.8,7.8-2.7,11.5A52.24,52.24,0,0,1,456.9,479.8Z" fill="none" stroke="#1d1d1b" stroke-linecap="round" stroke-linejoin="round" stroke-width="6"/><path d="M546.7,423.6l.2-1.3V396.5a10.33,10.33,0,0,1-3.5-.2c-6.4-1.5-12.7,5.5-18.6,8.3a24.42,24.42,0,0,1-2.4,1v17.6a91.82,91.82,0,0,0-48.2,16,17.35,17.35,0,0,1-8.6,8.3,79,79,0,0,1-1.2,8.3l.6.1a8.3,8.3,0,0,1,2.1.6v-.3c17.3-14.3,37.8-23,60.2-21.2h.1c-.2,3-.2,5.9-.2,7a82.85,82.85,0,0,0,1.4,12.2h9.8v-.1c1.1-4.2,1.6-11.9,1.4-19.3h.4c22.4-1.8,42.2,6.1,59.5,20.4v.1a12.21,12.21,0,0,1,5.4-1.2,13.21,13.21,0,0,1,8.2,2.9l.1-.1C598.3,439.1,574.1,426.2,546.7,423.6Z" fill="none" stroke="#1d1d1b" stroke-linecap="round" stroke-linejoin="round" stroke-width="6"/><path d="M522.4,405.6a24.43,24.43,0,0,0,2.4-1c6-2.8,12.2-9.8,18.6-8.3a10.19,10.19,0,0,0,3.5.2,10.85,10.85,0,0,0,6.8-3.4c4.4-5.1,1.8-16-6.1-16h-.7c-3.1.2-6.6,1.8-9.3,3-2.4,1-3.9,3.7-6.5,3.8a24.61,24.61,0,0,1-6.6-.9c-12-3-30.2-11.4-32.9,1.8-.9,4.4,1,10.1,2.2,14.5,2,7.7,10.6,9.5,17.8,8.9A40.56,40.56,0,0,0,522.4,405.6Z" fill="none" stroke="#1d1d1b" stroke-linecap="round" stroke-linejoin="round" stroke-width="6"/><path d="M528.9,309.8h-24a92.63,92.63,0,0,0,4.5,23.9,94.15,94.15,0,0,0,11.9-1.3C522.6,327.6,526.6,314.5,528.9,309.8Z" fill="none" stroke="#1d1d1b" stroke-linecap="round" stroke-linejoin="round" stroke-width="6"/><path d="M506.1,281.2l-.2.1c2,3.7,4,7.3,5.9,10.7l.1-.1c3.1.3,6-1.2,8.6-3.3a36.51,36.51,0,0,0,7.7-9.4c3-5.5,8-21.8,10.4-33.6.7-3.6-1.3-8.6,16-7.7l.3-.1a63.45,63.45,0,0,1-1.9-8.4c-.6-3.6,4.5-3.8,7.2-3.9H562c-.1-2.1-.3-4.3-.6-6.4h-.2a95.87,95.87,0,0,0-40.5,11.8C513.8,246.9,508.5,264,506.1,281.2Z" fill="none" stroke="#1d1d1b" stroke-linecap="round" stroke-linejoin="round" stroke-width="6"/><path d="M511.9,292l-.1.1c.7,1.3,1.5,2.6,2.2,3.9,2.9-.4,4.6-.5,6.8-1.8h0c.6-2.5,1-5.1,1.6-5.4h-1.9C517.9,290.8,515,292.3,511.9,292Z" fill="none" stroke="#1d1d1b" stroke-linecap="round" stroke-linejoin="round" stroke-width="6"/><path d="M515.1,358.3l-.1.3c1,.5,2,1.1,3,1.6,25.6,2.4,40.3,5.1,45.6,5.3,9.7.4,19.8-.6,28.2-5.5,3.6-2.1,6.9-4.6,6.6-8.8-2.4-32.7,6-65.1,14.3-96.8,1.1-4.1,1.9-8.2,2.7-12.3.4-2.1.7-4.1,1.1-6.2.2-1,.9-3.2.1-4.2l-.3-.3a91.52,91.52,0,0,0-38.7-12.2h-.3c.1,2.9.1,5.8.1,8.7h.4a54.82,54.82,0,0,1,8.3,3.6h0a1.9,1.9,0,0,1,.9,2c-.2,2.9-1.1,5.7-1,8.6a4,4,0,0,1-.3,2.2l-.2.2.4.2c6.3,4.2,8,8.1,11.5,13.2a5.51,5.51,0,0,1,1.2,2.7h0c0,.2.1.5.1.7,2.2,13.6,0,35.2-14.6,41.8a20.81,20.81,0,0,1-7.5,1.5v.2c-1.6,4.5-8.2,23.9-10.5,27.5s-2.6,7.8-4.9,11.3-3.5,9.9-6.6,12.7c-5.4,4.8-12.1,4.3-19.3,3.8S522.2,359.2,515.1,358.3Z" fill="none" stroke="#1d1d1b" stroke-linecap="round" stroke-linejoin="round" stroke-width="6"/><path d="M520.7,294.1h0c-2.2,1.3-3.9,1.5-6.8,1.8,2.2,3.9,4.2,7.5,5.8,10.2l-1.2-3.3c12,0,36.2,0,36-.1l.2-.7a50.59,50.59,0,0,0-7.1-1v-.1l.7-4.8V296a118.58,118.58,0,0,1-12.7-4.5c-.8-.3-1.9-.8-3.2-1.2a39.47,39.47,0,0,0-5.2-1.4c-2-.4-3.9-.5-5,.1C521.8,289,521.3,291.6,520.7,294.1Z" fill="none" stroke="#1d1d1b" stroke-linecap="round" stroke-linejoin="round" stroke-width="6"/><path d="M519.1,369.6a3.75,3.75,0,0,0-.8,2.5,5.22,5.22,0,0,0,2.4,3.1,31,31,0,0,0,4.7,2.6h.4a10.17,10.17,0,0,1,4.2-4.5,10.51,10.51,0,0,1,9.3-.5l.2-.5-.1-.1c-2.1-1.5-3.5-2.9-5.6-4.4h0a5.37,5.37,0,0,0-1.6-1,6.67,6.67,0,0,0-3.4-.4,2.77,2.77,0,0,0-.9.1,22.93,22.93,0,0,0-5.2,1.1,7.71,7.71,0,0,0-3,1.5A1,1,0,0,0,519.1,369.6Z" fill="none" stroke="#1d1d1b" stroke-linecap="round" stroke-linejoin="round" stroke-width="6"/><path d="M562.1,232.1c0-2.2,0-4.4-.2-6.6h-1.8c-2.7.1-7.8.3-7.2,3.9a73.47,73.47,0,0,0,1.9,8.4l-.3.1c-17.3-1-15.3,4-16,7.7-2.4,11.8-7.4,28.1-10.4,33.6a34.91,34.91,0,0,1-7.7,9.4h1.9c1.1-.5,3-.4,5-.1v-.2c8-9.1,10-24.1,13-31.6h.2c-.4,11.5-5.7,23.8-7.9,32.7l-.2.5c1.3.4,2.4.9,3.2,1.2a118.58,118.58,0,0,0,12.7,4.5c2.1.6,4.1,1.3,6,1.8,7,2.1,15.8,3.9,23,2.6,3.5-9.2,7.6-21.3,11.2-30.5A36.84,36.84,0,0,1,590,266a12.71,12.71,0,0,1,1.8-2.7c1.6-1.7,4.2-2.8,6.4-2h.2c0-.2-.1-.5-.1-.7h0a6.6,6.6,0,0,0-1.2-2.7c-3.5-5.1-5.1-9-11.5-13.2l-.4-.2.2-.2a2.82,2.82,0,0,0,.3-2.2c-.1-2.9.8-5.7,1-8.6a1.9,1.9,0,0,0-.9-2h0a46.33,46.33,0,0,0-8.3-3.6h-.4v3.5h.5c2.8,1,4.6,2.4,4.1,3.2a1.8,1.8,0,0,1-1.6.6H577A45.6,45.6,0,0,1,562.1,232.1Z" fill="none" stroke="#1d1d1b" stroke-linecap="round" stroke-linejoin="round" stroke-width="6"/><path d="M539.3,372.8a10.49,10.49,0,0,0-9.3.5,10.72,10.72,0,0,0-4.2,4.5,11.37,11.37,0,0,0-1,3.6l-.4,1.6a25.65,25.65,0,0,0,6.6.9c2.6-.2,4.1-2.8,6.5-3.8,2.8-1.2,6.3-2.8,9.3-3h0v-2a44.49,44.49,0,0,0-7.5-2.9h0l.1.1Z" fill="none" stroke="#1d1d1b" stroke-linecap="round" stroke-linejoin="round" stroke-width="6"/><path d="M525.9,470.7v8.4a17.31,17.31,0,0,0,7.4,1.6,28,28,0,0,0,9-1.6v-8.4H525.9Z" fill="none" stroke="#1d1d1b" stroke-linecap="round" stroke-linejoin="round" stroke-width="6"/><polygon points="528.5 454.4 525.9 454.4 525.9 470.7 526.3 470.7 542.3 470.7 542.2 454.4 538.4 454.4 528.5 454.4" fill="none" stroke="#1d1d1b" stroke-linecap="round" stroke-linejoin="round" stroke-width="6"/><path d="M546.9,370a142.57,142.57,0,0,0,19.3,1.1c12.3,0,24.5-2.6,34.5-9.9a.1.1,0,0,0,.1-.1,6.73,6.73,0,0,0,2.6-5.4,189.12,189.12,0,0,1,2.8-49.8c3.8-19.7,9.4-39,12.8-58.8,0-.2.1-.4.1-.6.5-3.1,1-6.2,1.6-9.2-1.3-1.5-2.3-4.9-4.1-5.8h-.2c.8,1,.1,3.2-.1,4.2-.4,2.1-.7,4.1-1.1,6.2-.8,4.1-1.6,8.2-2.7,12.3-8.3,31.7-16.7,64.1-14.3,96.8.3,4.2-2.9,6.7-6.6,8.8-8.4,4.9-18.5,5.9-28.2,5.5-5.3-.2-20-2.9-45.6-5.3a106.76,106.76,0,0,1,9.9,6.3h0a2.77,2.77,0,0,0,.9-.1,6.42,6.42,0,0,1,3.4.4,8.64,8.64,0,0,1,1.6,1h0l.1-.1A97.06,97.06,0,0,0,546.9,370Z" fill="none" stroke="#1d1d1b" stroke-linecap="round" stroke-linejoin="round" stroke-width="6"/><path d="M527.4,288.5v.2a44.15,44.15,0,0,1,5.2,1.4l.2-.5c2.2-9,7.6-21.2,7.9-32.7h-.2C537.4,264.3,535.4,279.3,527.4,288.5Z" fill="none" stroke="#1d1d1b" stroke-linecap="round" stroke-linejoin="round" stroke-width="6"/><path d="M535.7,119c1.5,5.7,3.1,11.4,4.6,17.1a37.48,37.48,0,0,0,11-2c4.9-1.5,9-3.2,14.1-4h.2c-1-5.7-2-11.4-3-17h-.1a45.49,45.49,0,0,0-12.2,1.1A73.45,73.45,0,0,0,535.7,119Z" fill="none" stroke="#1d1d1b" stroke-linecap="round" stroke-linejoin="round" stroke-width="6"/><path d="M576.4,207.1a16.37,16.37,0,0,0,4.2-10.1c.3-6-2.4-11.9-6.1-16.6a8.75,8.75,0,0,1-.8-1c-.5-3.7-.8-7-1.3-10.6l-.1-.2c-2.7.8-5.4-4.1-6.2-6a21,21,0,0,1-.8-2.3,19.89,19.89,0,0,1-.7-8.4c.5-3.6,2.2-5,4.1-4.4v-.1a30.06,30.06,0,0,0-.7-3.2c-.8-4.7-1.7-9.3-2.5-14h-.2c-5,.8-9.2,2.5-14.1,4a38.08,38.08,0,0,1-11,2q7.05,26.25,14.2,52.5c2.7,10.1,5.5,20.2,6.9,30.5.3,2.1.5,4.3.6,6.4s.2,4.4.2,6.6a45.07,45.07,0,0,0,14.9,3.1l.1-1.3v-6c0-2.9-.1-5.8-.1-8.7-.1-4.2-.3-8.2-.6-12.2ZM551,163.4a20.86,20.86,0,0,1-.6-7.9c.7-5.5,4.1-5.5,6.4-1,2,3.9,2.3,8.6,2,13.1a5.74,5.74,0,0,1-.8,2.9c-2.5,2.9-5.5-2.8-6.3-4.9A14.16,14.16,0,0,1,551,163.4Z" fill="none" stroke="#1d1d1b" stroke-linecap="round" stroke-linejoin="round" stroke-width="6"/><path d="M577.4,300.2c-7.3,1.3-16-.5-23-2.6q-2.85-.9-6-1.8v.1s2,3.3-.7,4.8v.1a55.16,55.16,0,0,1,7.1,1c2.2.5,4.7,1.1,8.4,2a53.09,53.09,0,0,0,13.2.8,23.19,23.19,0,0,0,7.5-1.5c14.6-6.6,16.8-28.2,14.6-41.8h-.2c-2.2-.8-4.8.3-6.4,2a12.7,12.7,0,0,0-1.8,2.7l.3.1c2.8,2.5.8,3.2,1.3,6.7a41.16,41.16,0,0,1-.3,13.1C589.8,295.1,584.3,299,577.4,300.2Z" fill="none" stroke="#1d1d1b" stroke-linecap="round" stroke-linejoin="round" stroke-width="6"/><path d="M548.4,296l-.7,4.8C550.4,299.3,548.4,296,548.4,296Z" fill="none" stroke="#1d1d1b" stroke-linecap="round" stroke-linejoin="round" stroke-width="6"/><path d="M550.4,155.6a21.17,21.17,0,0,0,.6,7.9,18.66,18.66,0,0,0,.7,2.2c.8,2.1,3.8,7.8,6.3,4.9a4.52,4.52,0,0,0,.8-2.9c.3-4.5,0-9.1-2-13.1C554.5,150,551,150.1,550.4,155.6Z" fill="none" stroke="#1d1d1b" stroke-linecap="round" stroke-linejoin="round" stroke-width="6"/><path d="M564.6,151.9a19.89,19.89,0,0,0,.7,8.4,15.55,15.55,0,0,0,.8,2.3c.9,2,3.6,6.9,6.2,6a2.8,2.8,0,0,0,1.2-.8,5.39,5.39,0,0,0,1-3c.3-4.8,0-9.8-2.3-14a6.87,6.87,0,0,0-3.4-3.4C566.8,146.8,565.1,148.3,564.6,151.9Z" fill="none" stroke="#1d1d1b" stroke-linecap="round" stroke-linejoin="round" stroke-width="6"/><path d="M588.6,269.7c-3.5,9.2-7.6,21.3-11.2,30.5,6.8-1.2,12.4-5.2,14-14.2a44.2,44.2,0,0,0,.3-13.1c-.5-3.5,1.5-4.2-1.3-6.7l-.3-.1A27.5,27.5,0,0,0,588.6,269.7Z" fill="none" stroke="#1d1d1b" stroke-linecap="round" stroke-linejoin="round" stroke-width="6"/><path d="M599.7,455.4a12.81,12.81,0,1,0,13.5,1.7,13,13,0,0,0-8.2-2.9A13.68,13.68,0,0,0,599.7,455.4Z" fill="none" stroke="#1d1d1b" stroke-linecap="round" stroke-linejoin="round" stroke-width="6"/><path d="M613.3,457.1c-15.1-17.9-39.3-30.8-66.6-33.4a114.23,114.23,0,0,0-16.6-.3" fill="none" stroke="#1d1d1b" stroke-linecap="round" stroke-linejoin="round" stroke-width="6"/><path d="M599.6,455.3c-17.3-14.3-37.1-22.2-59.5-20.4" fill="none" stroke="#1d1d1b" stroke-linecap="round" stroke-linejoin="round" stroke-width="6"/><path d="M599.7,455.4a12.81,12.81,0,1,0,13.5,1.7,13,13,0,0,0-8.2-2.9A13.68,13.68,0,0,0,599.7,455.4Z" fill="none" stroke="#1d1d1b" stroke-linecap="round" stroke-linejoin="round" stroke-width="6"/><path d="M474.1,439.3h0a91.68,91.68,0,0,1,48.3-16.1c1.1,0,2.3-.1,3.4-.1" fill="none" stroke="#1d1d1b" stroke-linecap="round" stroke-linejoin="round" stroke-width="6"/><path d="M467,456.3c17.3-14.3,37.8-23,60.2-21.2" fill="none" stroke="#1d1d1b" stroke-linecap="round" stroke-linejoin="round" stroke-width="6"/><path d="M464.9,456a8.3,8.3,0,0,1,2.1.6c4.6,1.8,7.4,6,7.4,11.5a12.76,12.76,0,0,1-12.8,12.8,12.34,12.34,0,0,1-4.2-.7" fill="none" stroke="#1d1d1b" stroke-linecap="round" stroke-linejoin="round" stroke-width="6"/><path d="M539.4,427.5c.2,2.3.4,4.9.4,7.5.2,7.4-.3,15.1-1.4,19.3" fill="none" stroke="#1d1d1b" stroke-linecap="round" stroke-linejoin="round" stroke-width="6"/><path d="M528.1,428.3a52.78,52.78,0,0,0-.8,6.9c-.2,3-.2,5.9-.2,7a82.85,82.85,0,0,0,1.4,12.2h0" fill="none" stroke="#1d1d1b" stroke-linecap="round" stroke-linejoin="round" stroke-width="6"/><polyline points="542.3 479.1 542.3 470.7 542.2 454.4 538.4 454.4 528.5 454.4 525.9 454.4 525.9 470.7 525.9 479.1" fill="none" stroke="#1d1d1b" stroke-linecap="round" stroke-linejoin="round" stroke-width="6"/><path d="M542.3,479.1a28,28,0,0,1-9,1.6,17,17,0,0,1-7.4-1.6" fill="none" stroke="#1d1d1b" stroke-linecap="round" stroke-linejoin="round" stroke-width="6"/><polyline points="542.4 470.7 542.3 470.7 526.3 470.7" fill="none" stroke="#1d1d1b" stroke-linecap="round" stroke-linejoin="round" stroke-width="6"/><path d="M585.7,244.8c6.3,4.2,8,8.1,11.5,13.2a5.51,5.51,0,0,1,1.2,2.7" fill="none" stroke="#1d1d1b" stroke-linecap="round" stroke-linejoin="round" stroke-width="6"/><path d="M535.7,118.9h0c1.6,5.8,3.1,11.5,4.6,17.2q7.05,26.25,14.2,52.5c2.7,10.1,5.5,20.2,6.9,30.5.3,2.1.5,4.3.6,6.4s.2,4.4.2,6.6v.2" fill="none" stroke="#1d1d1b" stroke-linecap="round" stroke-linejoin="round" stroke-width="6"/><path d="M576.5,207.1c.3,4,.4,8,.6,12.1.1,2.9.1,5.8.1,8.7v6" fill="none" stroke="#1d1d1b" stroke-linecap="round" stroke-linejoin="round" stroke-width="6"/><path d="M572.4,168.8c.5,3.6.8,6.9,1.3,10.6v.1" fill="none" stroke="#1d1d1b" stroke-linecap="round" stroke-linejoin="round" stroke-width="6"/><path d="M562.5,112.8a.37.37,0,0,0,.1.3c1,5.7,2,11.4,3,17,.8,4.7,1.7,9.3,2.5,14,.2,1.3.5,2,.7,3.2" fill="none" stroke="#1d1d1b" stroke-linecap="round" stroke-linejoin="round" stroke-width="6"/><path d="M535.5,119c.1,0,.1-.1.2-.1a82.15,82.15,0,0,1,14.5-4.8,45.49,45.49,0,0,1,12.2-1.1" fill="none" stroke="#1d1d1b" stroke-linecap="round" stroke-linejoin="round" stroke-width="6"/><path d="M540.1,136.1h.3a37.48,37.48,0,0,0,11-2c4.9-1.5,9-3.2,14.1-4" fill="none" stroke="#1d1d1b" stroke-linecap="round" stroke-linejoin="round" stroke-width="6"/><path d="M561.7,167.6c4.1,3.8,8.5,7.5,12,11.8a8.75,8.75,0,0,1,.8,1c3.7,4.8,6.4,10.6,6.1,16.6a16.37,16.37,0,0,1-4.2,10.1,13.16,13.16,0,0,1-5.8,3.7" fill="none" stroke="#1d1d1b" stroke-linecap="round" stroke-linejoin="round" stroke-width="6"/><path d="M551,163.4a18.66,18.66,0,0,0,.7,2.2c.8,2.1,3.8,7.8,6.3,4.9a4.52,4.52,0,0,0,.8-2.9c.3-4.5,0-9.1-2-13.1-2.3-4.6-5.8-4.5-6.4,1A20.86,20.86,0,0,0,551,163.4Z" fill="none" stroke="#1d1d1b" stroke-linecap="round" stroke-linejoin="round" stroke-width="6"/><path d="M568.7,147.4c-1.9-.6-3.6.8-4.1,4.4a19.89,19.89,0,0,0,.7,8.4,15.55,15.55,0,0,0,.8,2.3c.9,2,3.6,6.9,6.2,6a2.8,2.8,0,0,0,1.2-.8,5.39,5.39,0,0,0,1-3c.3-4.8,0-9.8-2.3-14A7.6,7.6,0,0,0,568.7,147.4Z" fill="none" stroke="#1d1d1b" stroke-linecap="round" stroke-linejoin="round" stroke-width="6"/><path d="M598.4,260.7c0,.2.1.5.1.7,2.2,13.6,0,35.2-14.6,41.8a20.81,20.81,0,0,1-7.5,1.5,48.62,48.62,0,0,1-13.2-.8c-3.6-.9-6.2-1.6-8.4-2a50.59,50.59,0,0,0-7.1-1c-1.6-.1-3.3-.2-5.6-.2" fill="none" stroke="#1d1d1b" stroke-linecap="round" stroke-linejoin="round" stroke-width="6"/><path d="M548.4,296s2,3.3-.7,4.8" fill="none" stroke="#1d1d1b" stroke-linecap="round" stroke-linejoin="round" stroke-width="6"/><path d="M524.6,292.5c.5,2.5-1.4,11.5-5.5,7.9-.4-.4-.7-1.4-.2-1.6.8-.3,1.4-2.4,1.9-4.6.6-2.5,1-5.1,1.6-5.4,1.1-.5,3-.4,5-.1a44.15,44.15,0,0,1,5.2,1.4c1.3.4,2.4.9,3.2,1.2a118.58,118.58,0,0,0,12.7,4.5c2.1.6,4.1,1.3,6,1.8,7,2.1,15.8,3.9,23,2.6,6.8-1.2,12.4-5.2,14-14.2a44.2,44.2,0,0,0,.3-13.1c-.5-3.5,1.5-4.2-1.3-6.7" fill="none" stroke="#1d1d1b" stroke-linecap="round" stroke-linejoin="round" stroke-width="6"/><path d="M519.7,306.1c-1.6-2.7-3.6-6.2-5.8-10.2-.7-1.3-1.4-2.6-2.2-3.9-1.9-3.4-3.9-7-5.9-10.7-9-16.5-18.1-33.5-17.9-33.5H403c-1.1,0-1.8,2-1.3,3a9.12,9.12,0,0,0,2.4,2.4,14.42,14.42,0,0,1,2.9,4.6,290.6,290.6,0,0,0,30,50.3c.2,0,1.5,1.7,1.8,1.7h114c.7-.1,1.8-2.7,2.3-4.6.3-.9.1-2.2-.4-2.5.2.1-24,.1-36,.1" fill="none" stroke="#1d1d1b" stroke-linecap="round" stroke-linejoin="round" stroke-width="6"/><path d="M504.8,309.7h0a94.18,94.18,0,0,0,4.5,24h0" fill="none" stroke="#1d1d1b" stroke-linecap="round" stroke-linejoin="round" stroke-width="6"/><path d="M561.1,219.1a95.87,95.87,0,0,0-40.5,11.8c-6.8,16-12.1,33.1-14.5,50.4" fill="none" stroke="#1d1d1b" stroke-linecap="round" stroke-linejoin="round" stroke-width="6"/><path d="M517.7,360.1h.2c25.6,2.4,40.3,5.1,45.6,5.3,9.7.4,19.8-.6,28.2-5.5,3.6-2.1,6.9-4.6,6.6-8.8-2.4-32.7,6-65.1,14.3-96.8,1.1-4.1,1.9-8.2,2.7-12.3.4-2.1.7-4.1,1.1-6.2.2-1,.9-3.2.1-4.2l-.3-.3a91.52,91.52,0,0,0-38.7-12.2" fill="none" stroke="#1d1d1b" stroke-linecap="round" stroke-linejoin="round" stroke-width="6"/><path d="M485.4,357.8c5,.3,8.6.5,13.2.8" fill="none" stroke="#1d1d1b" stroke-linecap="round" stroke-linejoin="round" stroke-width="6"/><path d="M443,356.5c6.6.1,12,.2,18,.4h.1" fill="none" stroke="#1d1d1b" stroke-linecap="round" stroke-linejoin="round" stroke-width="6"/><path d="M453.9,360.9h-11" fill="none" stroke="#1d1d1b" stroke-linecap="round" stroke-linejoin="round" stroke-width="6"/><path d="M509,363.7c-12.3-1.4-24.6-2.1-36.9-2.4" fill="none" stroke="#1d1d1b" stroke-linecap="round" stroke-linejoin="round" stroke-width="6"/><path d="M600.5,361.3a.1.1,0,0,0,.1-.1c-9.9,7.3-22.2,9.9-34.5,9.9a142.56,142.56,0,0,1-19.3-1.1c-4-.5-8.2-1.3-13-2.3" fill="none" stroke="#1d1d1b" stroke-linecap="round" stroke-linejoin="round" stroke-width="6"/><path d="M616.6,231.6c1.7,1,2.8,4.4,4.1,5.8-.6,3.1-1.1,6.1-1.6,9.2,0,.2-.1.4-.1.6-3.4,19.8-9,39.1-12.8,58.8a189.12,189.12,0,0,0-2.8,49.8,7,7,0,0,1-2.6,5.4.1.1,0,0,0-.1.1" fill="none" stroke="#1d1d1b" stroke-linecap="round" stroke-linejoin="round" stroke-width="6"/><path d="M529.2,293.9a7.08,7.08,0,0,1-2.5,7.8" fill="none" stroke="#1d1d1b" stroke-linecap="round" stroke-linejoin="round" stroke-width="6"/><path d="M533.9,296.7c-.2,1.6-1.6,3-.7,4.3.7,1,3,1,4,1,1.7,0,3.6-.2,4.7-1.5" fill="none" stroke="#1d1d1b" stroke-linecap="round" stroke-linejoin="round" stroke-width="6"/><path d="M577.6,231.5c2.8,1,4.6,2.4,4.1,3.2a1.8,1.8,0,0,1-1.6.6H577a47.16,47.16,0,0,1-14.9-3.1c-.9-.3-1.7-.7-2.6-1.1-.3-.1-.7-.4-.7-.7,0-.5.8-.6,1.3-.4" fill="none" stroke="#1d1d1b" stroke-linecap="round" stroke-linejoin="round" stroke-width="6"/><path d="M586,231.5a1.9,1.9,0,0,1,.9,2c-.2,2.9-1.1,5.7-1,8.6a4,4,0,0,1-.3,2.2l-.2.2a3.16,3.16,0,0,1-2.2.5,44.76,44.76,0,0,1-6.3-.6" fill="none" stroke="#1d1d1b" stroke-linecap="round" stroke-linejoin="round" stroke-width="6"/><path d="M561.4,225.5h-1.2c-2.7.1-7.8.3-7.2,3.9a73.47,73.47,0,0,0,1.9,8.4,20.63,20.63,0,0,0,1.2,3.5" fill="none" stroke="#1d1d1b" stroke-linecap="round" stroke-linejoin="round" stroke-width="6"/><path d="M586,231.6h0a46.33,46.33,0,0,0-8.3-3.6" fill="none" stroke="#1d1d1b" stroke-linecap="round" stroke-linejoin="round" stroke-width="6"/><path d="M438.4,352.3c-10.2.4-10.1-11.8-1.5-13.5.1,0,.3-.1.4-.1,13.5-5.4,29.8-6.2,44.2-5.6,9.2.4,18.5,1.1,27.8.7a94.15,94.15,0,0,0,11.9-1.3c1.3-4.8,5.3-17.9,7.6-22.6" fill="none" stroke="#1d1d1b" stroke-linecap="round" stroke-linejoin="round" stroke-width="6"/><path d="M437.1,339.1c23.6-2,55.9,7.8,77.9,19.4,1,.5,2,1.1,3,1.6a106.76,106.76,0,0,1,9.9,6.3" fill="none" stroke="#1d1d1b" stroke-linecap="round" stroke-linejoin="round" stroke-width="6"/><path d="M438.4,352.3c12.3-4.2,25.3-4,37.6-1.3a119.85,119.85,0,0,1,22.6,7.5,112,112,0,0,1,10.4,5.2q5.4,3,9.9,6" fill="none" stroke="#1d1d1b" stroke-linecap="round" stroke-linejoin="round" stroke-width="6"/><path d="M487,357.6c-.6.1-1.1.1-1.6.2a63.15,63.15,0,0,0-13.3,3.3,61.82,61.82,0,0,0-22.2,14.8c-10.8,10.8-13,23.5-5.6,37,.2.3.3.6.5.9a40,40,0,0,0,3.2,4.8c.1.1.1.2.2.3" fill="none" stroke="#1d1d1b" stroke-linecap="round" stroke-linejoin="round" stroke-width="6"/><path d="M476.1,351.1c-2.4.8-4.1,1.1-6.5,2.1-2.8,1.1-5.7,2.3-8.5,3.7a76.8,76.8,0,0,0-7.4,4.1c-8.6,5.3-15.9,12.4-19.7,22.1-.2.4-.3.8-.5,1.2-4.4,12.3-2.6,24.8,5.4,34.8a17.4,17.4,0,0,0,1.2,1.4l3.2,3.5" fill="none" stroke="#1d1d1b" stroke-linecap="round" stroke-linejoin="round" stroke-width="6"/><path d="M529.7,339.8c-13.8,1.8-27.7,3.9-41.2,7.4" fill="none" stroke="#1d1d1b" stroke-linecap="round" stroke-linejoin="round" stroke-width="6"/><path d="M522.4,405.6a24.43,24.43,0,0,0,2.4-1c6-2.8,12.2-9.8,18.6-8.3a10.19,10.19,0,0,0,3.5.2,10.85,10.85,0,0,0,6.8-3.4c4.4-5.1,1.8-16-6.1-16h-.7c-3.1.2-6.6,1.8-9.3,3-2.4,1-3.9,3.7-6.5,3.8a24.61,24.61,0,0,1-6.6-.9c-12-3-30.2-11.4-32.9,1.8-.9,4.4,1,10.1,2.2,14.5,2,7.7,10.6,9.5,17.8,8.9A40.56,40.56,0,0,0,522.4,405.6Z" fill="none" stroke="#1d1d1b" stroke-linecap="round" stroke-linejoin="round" stroke-width="6"/><path d="M523.7,386.8a51.52,51.52,0,0,0-10.8-2.1,17.71,17.71,0,0,0-10.6,2.4c-3.1,2-5.5,5.4-5.4,9.1" fill="none" stroke="#1d1d1b" stroke-linecap="round" stroke-linejoin="round" stroke-width="6"/><path d="M552.4,378.6a25.75,25.75,0,0,0-5.5-3.5,44.49,44.49,0,0,0-7.5-2.9" fill="none" stroke="#1d1d1b" stroke-linecap="round" stroke-linejoin="round" stroke-width="6"/><path d="M539.6,372.3h0c-2.2-1.6-3.6-3-5.7-4.5h0a5.37,5.37,0,0,0-1.6-1,6.67,6.67,0,0,0-3.4-.4,2.77,2.77,0,0,0-.9.1,22.93,22.93,0,0,0-5.2,1.1,7.71,7.71,0,0,0-3,1.5,2.65,2.65,0,0,0-.5.6,3.75,3.75,0,0,0-.8,2.5,5.22,5.22,0,0,0,2.4,3.1,31,31,0,0,0,4.7,2.6" fill="none" stroke="#1d1d1b" stroke-linecap="round" stroke-linejoin="round" stroke-width="6"/><path d="M576.4,305c-1.6,4.5-8.2,23.9-10.5,27.5s-2.6,7.8-4.9,11.3-3.5,9.9-6.6,12.7c-5.4,4.8-12.1,4.3-19.3,3.8s-13-1-20.1-1.9" fill="none" stroke="#1d1d1b" stroke-linecap="round" stroke-linejoin="round" stroke-width="6"/><path d="M554.6,238c-17.3-1-15.3,4-16,7.7-2.4,11.8-7.4,28.1-10.4,33.6a34.91,34.91,0,0,1-7.7,9.4c-2.5,2.1-5.5,3.6-8.6,3.3" fill="none" stroke="#1d1d1b" stroke-linecap="round" stroke-linejoin="round" stroke-width="6"/><path d="M564.6,233.5h.4a5.28,5.28,0,0,0-2.5.8,4.53,4.53,0,0,0-1.5,2.1,7.38,7.38,0,0,0,2.2,8.6c.2-.1.1.4-.1.6l-13.2,44.8" fill="none" stroke="#1d1d1b" stroke-linecap="round" stroke-linejoin="round" stroke-width="6"/><path d="M540.4,251.4a33.33,33.33,0,0,1,.2,5.5c-.4,11.5-5.7,23.8-7.9,32.7" fill="none" stroke="#1d1d1b" stroke-linecap="round" stroke-linejoin="round" stroke-width="6"/><path d="M520.7,294.1c-2.2,1.3-3.9,1.5-6.8,1.8h0" fill="none" stroke="#1d1d1b" stroke-linecap="round" stroke-linejoin="round" stroke-width="6"/><path d="M540.4,256.9c-3,7.4-5,22.4-13,31.6" fill="none" stroke="#1d1d1b" stroke-linecap="round" stroke-linejoin="round" stroke-width="6"/><path d="M598.3,261.5c-2.2-.8-4.8.3-6.4,2a12.7,12.7,0,0,0-1.8,2.7,21.7,21.7,0,0,0-1.5,3.5c-3.5,9.2-7.6,21.3-11.2,30.5h0" fill="none" stroke="#1d1d1b" stroke-linecap="round" stroke-linejoin="round" stroke-width="6"/><path d="M442.8,356.5c-.7,2.5-.8,1.8,0,4.3" fill="none" stroke="#1d1d1b" stroke-linecap="round" stroke-linejoin="round" stroke-width="6"/><path d="M458.2,422.6a20.17,20.17,0,0,1,8.8.7c4.6,1.4,9.8,6.2,8.8,11.3a20.07,20.07,0,0,1-1.6,4.7,17.35,17.35,0,0,1-8.6,8.3,79,79,0,0,1-1.2,8.3c-.8,3.9-1.8,7.8-2.7,11.5-1.1,4.3-2.4,8.7-4.7,12.4a20.25,20.25,0,0,1-2.1,3,25.39,25.39,0,0,1-12.9,7.8" fill="none" stroke="#1d1d1b" stroke-linecap="round" stroke-linejoin="round" stroke-width="6"/><path d="M445.6,413.3c4.4-1.1,8.5,4.9,11.5,7.7a2.7,2.7,0,0,1,.7.8,2.35,2.35,0,0,1,.2.8v.5a14.32,14.32,0,0,1-2.7,6.9c-1.7,2.3-4.2,3.2-6,5.2l-.3.3c-1.2,1.6-1.1,3.2-1.4,5.2a19.7,19.7,0,0,1-3.3,8.7" fill="none" stroke="#1d1d1b" stroke-linecap="round" stroke-linejoin="round" stroke-width="6"/><path d="M447.4,435.5a3.33,3.33,0,0,1-1.7-.2,5,5,0,0,1-2.1-1.7c-1.8-2-3.6-3.9-5.4-5.9-2.2-2.4-1.3-5.7.7-8.6" fill="none" stroke="#1d1d1b" stroke-linecap="round" stroke-linejoin="round" stroke-width="6"/><path d="M446.6,451.5a4.51,4.51,0,0,0-2.5-.7,12.31,12.31,0,0,0-3.3.3c-4.4.8-8.9,2.5-11.8,5.9-6.1,7.1-4.5,18,.3,25.4a19.7,19.7,0,0,0,5.7,5.8,21.27,21.27,0,0,0,6.8,2.4" fill="none" stroke="#1d1d1b" stroke-linecap="round" stroke-linejoin="round" stroke-width="6"/><path d="M448.5,416.5a11.8,11.8,0,0,1-.4,2,11.21,11.21,0,0,1-4.6,5.7,7.22,7.22,0,0,1-2,.9" fill="none" stroke="#1d1d1b" stroke-linecap="round" stroke-linejoin="round" stroke-width="6"/><line x1="546.9" y1="396.8" x2="546.9" y2="422.4" fill="none" stroke="#1d1d1b" stroke-linecap="round" stroke-linejoin="round" stroke-width="6"/><path d="M546.9,370h0v7.2" fill="none" stroke="#1d1d1b" stroke-linecap="round" stroke-linejoin="round" stroke-width="6"/><polyline points="522.4 405.5 522.4 405.6 522.4 422.6" fill="none" stroke="#1d1d1b" stroke-linecap="round" stroke-linejoin="round" stroke-width="6"/><path d="M539.7,372.9c-.1,0-.2-.1-.3-.1a10.49,10.49,0,0,0-9.3.5,10.72,10.72,0,0,0-4.2,4.5,11.37,11.37,0,0,0-1,3.6" fill="none" stroke="#1d1d1b" stroke-linecap="round" stroke-linejoin="round" stroke-width="6"/><path d="M513.9,296c-.7-1.3-1.4-2.6-2.2-3.9-1.9-3.4-3.9-7-5.9-10.7-9-16.5-18.1-33.5-17.9-33.5H403c-1.1,0-1.8,2-1.3,3a9.12,9.12,0,0,0,2.4,2.4,14.42,14.42,0,0,1,2.9,4.6,290.6,290.6,0,0,0,30,50.3c.2,0,1.5,1.7,1.8,1.7h114c.7-.1,1.8-2.7,2.3-4.6.3-.9.1-2.2-.4-2.5.2.1-24,.1-36,.1l1.2,3.3C518.1,303.4,516.1,299.9,513.9,296Z" fill="#afb2b2"/><path d="M444.1,450.7a12.31,12.31,0,0,0-3.3.3c-4.4.8-8.9,2.5-11.8,5.9-6.1,7.1-4.5,18,.3,25.4a19.7,19.7,0,0,0,5.7,5.8,21.27,21.27,0,0,0,6.8,2.4,25,25,0,0,0,12.9-7.8,27.3,27.3,0,0,0,2.1-3,42.35,42.35,0,0,0,4.7-12.4c1-3.8,2-7.6,2.7-11.5a61.5,61.5,0,0,0,1.2-8.3,17,17,0,0,0,8.6-8.3,16.35,16.35,0,0,0,1.6-4.7c1-5.1-4.2-9.8-8.8-11.3-3.2-1-5.4-.9-8.8-.7h-.3v.5a14.32,14.32,0,0,1-2.7,6.9c-1.7,2.3-4.2,3.2-6,5.2l-.3.3c-1.2,1.6-1.1,3.2-1.4,5.2a19.7,19.7,0,0,1-3.3,8.7Z" fill="#213a6d"/><path d="M461.1,356.9a76.8,76.8,0,0,0-7.4,4.1c-8.6,5.3-15.9,12.4-19.7,22.1-.2.4-.3.8-.5,1.2-4.4,12.3-2.6,24.8,5.4,34.8a17.4,17.4,0,0,0,1.2,1.4l3.2,3.5.1.2a10.82,10.82,0,0,0,4.6-5.7,40,40,0,0,1-3.2-4.8c-.2-.3-.3-.6-.5-.9-7.4-13.5-5.2-26.1,5.6-37A64.53,64.53,0,0,1,472.1,361a57.57,57.57,0,0,1,13.3-3.3c5,.3,8.6.5,13.2.8l.1-.2a115.27,115.27,0,0,0-22.6-7.5v.1c-2.4.8-4.1,1.1-6.5,2.1C466.7,354.3,463.8,355.5,461.1,356.9Z" fill="#aad3f7"/><path d="M517.9,360.2c-1-.5-2-1.1-3-1.6-22-11.7-54.2-21.5-77.9-19.4l-.1-.3c-8.6,1.8-8.7,13.9,1.5,13.5,12.3-4.2,25.3-4,37.6-1.3a119.85,119.85,0,0,1,22.6,7.5,112,112,0,0,1,10.4,5.2q5.4,3,9.9,6h0c.2-.2.3-.4.5-.6a6.56,6.56,0,0,1,3-1.5,30,30,0,0,1,5.2-1.1h0A56.24,56.24,0,0,0,517.9,360.2Z" fill="#aad3f7"/><path d="M509.4,333.7c-9.2.4-18.6-.3-27.8-.7-14.4-.6-30.7.2-44.2,5.6a.6.6,0,0,0-.4.1l.1.3c23.6-2,55.9,7.8,77.9,19.4l.1-.3c7.1.9,12.9,1.3,20.1,1.9s13.9,1,19.3-3.8c3.1-2.7,4.3-9.3,6.6-12.7s2.6-7.8,4.9-11.3,8.9-23,10.5-27.5v-.2a48.62,48.62,0,0,1-13.2-.8c-3.6-.9-6.2-1.6-8.4-2l-.2.7c.5.3.7,1.6.4,2.5-.5,2-1.6,4.5-2.3,4.6H528.9c-2.3,4.7-6.3,17.8-7.6,22.6A53.25,53.25,0,0,1,509.4,333.7Z" fill="#aad3f7"/><path d="M443.4,424.2l-.1-.2c-1.1-1.2-2.2-2.3-3.2-3.5-.4-.5-.8-.9-1.2-1.4l-.1.1c-1.9,2.9-2.9,6.2-.7,8.6,1.8,2,3.6,3.9,5.4,5.9a5.65,5.65,0,0,0,2.1,1.7,3.21,3.21,0,0,0,1.7.2l1.5.1.3-.3c1.8-2,4.4-2.9,6-5.2a14.32,14.32,0,0,0,2.7-6.9v-.5a1.08,1.08,0,0,0-.2-.8,1.78,1.78,0,0,0-.7-.8c-2.9-2.8-7-8.8-11.5-7.7l-.8.4a40,40,0,0,0,3.2,4.8A9.46,9.46,0,0,1,443.4,424.2Z" fill="#aad3f7"/><path d="M456.9,479.8l.6.3a11.58,11.58,0,0,0,4.2.7A12.76,12.76,0,0,0,474.5,468c0-5.4-2.8-9.7-7.4-11.5a7.27,7.27,0,0,0-2.1-.6l-.6-.1c-.8,3.9-1.8,7.8-2.7,11.5A52.24,52.24,0,0,1,456.9,479.8Z" fill="#333435"/><path d="M546.7,423.6l.2-1.3V396.5a10.33,10.33,0,0,1-3.5-.2c-6.4-1.5-12.7,5.5-18.6,8.3a24.42,24.42,0,0,1-2.4,1v17.6a91.82,91.82,0,0,0-48.2,16,17.35,17.35,0,0,1-8.6,8.3,79,79,0,0,1-1.2,8.3l.6.1a8.3,8.3,0,0,1,2.1.6v-.3c17.3-14.3,37.8-23,60.2-21.2h.1c-.2,3-.2,5.9-.2,7a82.85,82.85,0,0,0,1.4,12.2h9.8v-.1c1.1-4.2,1.6-11.9,1.4-19.3h.4c22.4-1.8,42.2,6.1,59.5,20.4v.1a12.21,12.21,0,0,1,5.4-1.2,13.21,13.21,0,0,1,8.2,2.9l.1-.1C598.3,439.1,574.1,426.2,546.7,423.6Z" fill="#333435"/><path d="M522.4,405.6a24.43,24.43,0,0,0,2.4-1c6-2.8,12.2-9.8,18.6-8.3a10.19,10.19,0,0,0,3.5.2,10.85,10.85,0,0,0,6.8-3.4c4.4-5.1,1.8-16-6.1-16h-.7c-3.1.2-6.6,1.8-9.3,3-2.4,1-3.9,3.7-6.5,3.8a24.61,24.61,0,0,1-6.6-.9c-12-3-30.2-11.4-32.9,1.8-.9,4.4,1,10.1,2.2,14.5,2,7.7,10.6,9.5,17.8,8.9A40.56,40.56,0,0,0,522.4,405.6Z" fill="#213a6d"/><path d="M528.9,309.8h-24a92.63,92.63,0,0,0,4.5,23.9,94.15,94.15,0,0,0,11.9-1.3C522.6,327.6,526.6,314.5,528.9,309.8Z" fill="#333435"/><path d="M506.1,281.2l-.2.1c2,3.7,4,7.3,5.9,10.7l.1-.1c3.1.3,6-1.2,8.6-3.3a36.51,36.51,0,0,0,7.7-9.4c3-5.5,8-21.8,10.4-33.6.7-3.6-1.3-8.6,16-7.7l.3-.1a63.45,63.45,0,0,1-1.9-8.4c-.6-3.6,4.5-3.8,7.2-3.9H562c-.1-2.1-.3-4.3-.6-6.4h-.2a95.87,95.87,0,0,0-40.5,11.8C513.8,246.9,508.5,264,506.1,281.2Z" fill="#333435"/><path d="M511.9,292l-.1.1c.7,1.3,1.5,2.6,2.2,3.9,2.9-.4,4.6-.5,6.8-1.8h0c.6-2.5,1-5.1,1.6-5.4h-1.9C517.9,290.8,515,292.3,511.9,292Z" fill="#aad3f7"/><path d="M515.1,358.3l-.1.3c1,.5,2,1.1,3,1.6,25.6,2.4,40.3,5.1,45.6,5.3,9.7.4,19.8-.6,28.2-5.5,3.6-2.1,6.9-4.6,6.6-8.8-2.4-32.7,6-65.1,14.3-96.8,1.1-4.1,1.9-8.2,2.7-12.3.4-2.1.7-4.1,1.1-6.2.2-1,.9-3.2.1-4.2l-.3-.3a91.52,91.52,0,0,0-38.7-12.2h-.3c.1,2.9.1,5.8.1,8.7h.4a54.82,54.82,0,0,1,8.3,3.6h0a1.9,1.9,0,0,1,.9,2c-.2,2.9-1.1,5.7-1,8.6a4,4,0,0,1-.3,2.2l-.2.2.4.2c6.3,4.2,8,8.1,11.5,13.2a5.51,5.51,0,0,1,1.2,2.7h0c0,.2.1.5.1.7,2.2,13.6,0,35.2-14.6,41.8a20.81,20.81,0,0,1-7.5,1.5v.2c-1.6,4.5-8.2,23.9-10.5,27.5s-2.6,7.8-4.9,11.3-3.5,9.9-6.6,12.7c-5.4,4.8-12.1,4.3-19.3,3.8S522.2,359.2,515.1,358.3Z" fill="#333435"/><path d="M520.7,294.1h0c-2.2,1.3-3.9,1.5-6.8,1.8,2.2,3.9,4.2,7.5,5.8,10.2l-1.2-3.3c12,0,36.2,0,36-.1l.2-.7a50.59,50.59,0,0,0-7.1-1v-.1l.7-4.8V296a118.58,118.58,0,0,1-12.7-4.5c-.8-.3-1.9-.8-3.2-1.2a39.47,39.47,0,0,0-5.2-1.4c-2-.4-3.9-.5-5,.1C521.8,289,521.3,291.6,520.7,294.1Z" fill="#edd7b9"/><path d="M519.1,369.6a3.75,3.75,0,0,0-.8,2.5,5.22,5.22,0,0,0,2.4,3.1,31,31,0,0,0,4.7,2.6h.4a10.17,10.17,0,0,1,4.2-4.5,10.51,10.51,0,0,1,9.3-.5l.2-.5-.1-.1c-2.1-1.5-3.5-2.9-5.6-4.4h0a5.37,5.37,0,0,0-1.6-1,6.67,6.67,0,0,0-3.4-.4,2.77,2.77,0,0,0-.9.1,22.93,22.93,0,0,0-5.2,1.1,7.71,7.71,0,0,0-3,1.5A1,1,0,0,0,519.1,369.6Z" fill="#aad3f7"/><path d="M562.1,232.1c0-2.2,0-4.4-.2-6.6h-1.8c-2.7.1-7.8.3-7.2,3.9a73.47,73.47,0,0,0,1.9,8.4l-.3.1c-17.3-1-15.3,4-16,7.7-2.4,11.8-7.4,28.1-10.4,33.6a34.91,34.91,0,0,1-7.7,9.4h1.9c1.1-.5,3-.4,5-.1v-.2c8-9.1,10-24.1,13-31.6h.2c-.4,11.5-5.7,23.8-7.9,32.7l-.2.5c1.3.4,2.4.9,3.2,1.2a118.58,118.58,0,0,0,12.7,4.5c2.1.6,4.1,1.3,6,1.8,7,2.1,15.8,3.9,23,2.6,3.5-9.2,7.6-21.3,11.2-30.5A36.84,36.84,0,0,1,590,266a12.71,12.71,0,0,1,1.8-2.7c1.6-1.7,4.2-2.8,6.4-2h.2c0-.2-.1-.5-.1-.7h0a6.6,6.6,0,0,0-1.2-2.7c-3.5-5.1-5.1-9-11.5-13.2l-.4-.2.2-.2a2.82,2.82,0,0,0,.3-2.2c-.1-2.9.8-5.7,1-8.6a1.9,1.9,0,0,0-.9-2h0a46.33,46.33,0,0,0-8.3-3.6h-.4v3.5h.5c2.8,1,4.6,2.4,4.1,3.2a1.8,1.8,0,0,1-1.6.6H577A45.6,45.6,0,0,1,562.1,232.1Z" fill="#aad3f7"/><path d="M539.3,372.8a10.49,10.49,0,0,0-9.3.5,10.72,10.72,0,0,0-4.2,4.5,11.37,11.37,0,0,0-1,3.6l-.4,1.6a25.65,25.65,0,0,0,6.6.9c2.6-.2,4.1-2.8,6.5-3.8,2.8-1.2,6.3-2.8,9.3-3h0v-2a44.49,44.49,0,0,0-7.5-2.9h0l.1.1Z" fill="#213a6d"/><path d="M525.9,470.7v8.4a17.31,17.31,0,0,0,7.4,1.6,28,28,0,0,0,9-1.6v-8.4H525.9Z" fill="#333435"/><polygon points="528.5 454.4 525.9 454.4 525.9 470.7 526.3 470.7 542.3 470.7 542.2 454.4 538.4 454.4 528.5 454.4" fill="#333435"/><path d="M546.9,370a142.57,142.57,0,0,0,19.3,1.1c12.3,0,24.5-2.6,34.5-9.9a.1.1,0,0,0,.1-.1,6.73,6.73,0,0,0,2.6-5.4,189.12,189.12,0,0,1,2.8-49.8c3.8-19.7,9.4-39,12.8-58.8,0-.2.1-.4.1-.6.5-3.1,1-6.2,1.6-9.2-1.3-1.5-2.3-4.9-4.1-5.8h-.2c.8,1,.1,3.2-.1,4.2-.4,2.1-.7,4.1-1.1,6.2-.8,4.1-1.6,8.2-2.7,12.3-8.3,31.7-16.7,64.1-14.3,96.8.3,4.2-2.9,6.7-6.6,8.8-8.4,4.9-18.5,5.9-28.2,5.5-5.3-.2-20-2.9-45.6-5.3a106.76,106.76,0,0,1,9.9,6.3h0a2.77,2.77,0,0,0,.9-.1,6.42,6.42,0,0,1,3.4.4,8.64,8.64,0,0,1,1.6,1h0l.1-.1A97.06,97.06,0,0,0,546.9,370Z" fill="#333435"/><path d="M527.4,288.5v.2a44.15,44.15,0,0,1,5.2,1.4l.2-.5c2.2-9,7.6-21.2,7.9-32.7h-.2C537.4,264.3,535.4,279.3,527.4,288.5Z" fill="#333435"/><path d="M535.7,119c1.5,5.7,3.1,11.4,4.6,17.1a37.48,37.48,0,0,0,11-2c4.9-1.5,9-3.2,14.1-4h.2c-1-5.7-2-11.4-3-17h-.1a45.49,45.49,0,0,0-12.2,1.1A73.45,73.45,0,0,0,535.7,119Z" fill="#543919"/><path d="M576.4,207.1a16.37,16.37,0,0,0,4.2-10.1c.3-6-2.4-11.9-6.1-16.6a8.75,8.75,0,0,1-.8-1c-.5-3.7-.8-7-1.3-10.6l-.1-.2c-2.7.8-5.4-4.1-6.2-6a21,21,0,0,1-.8-2.3,19.89,19.89,0,0,1-.7-8.4c.5-3.6,2.2-5,4.1-4.4v-.1a30.06,30.06,0,0,0-.7-3.2c-.8-4.7-1.7-9.3-2.5-14h-.2c-5,.8-9.2,2.5-14.1,4a38.08,38.08,0,0,1-11,2q7.05,26.25,14.2,52.5c2.7,10.1,5.5,20.2,6.9,30.5.3,2.1.5,4.3.6,6.4s.2,4.4.2,6.6a45.07,45.07,0,0,0,14.9,3.1l.1-1.3v-6c0-2.9-.1-5.8-.1-8.7-.1-4.2-.3-8.2-.6-12.2ZM551,163.4a20.86,20.86,0,0,1-.6-7.9c.7-5.5,4.1-5.5,6.4-1,2,3.9,2.3,8.6,2,13.1a5.74,5.74,0,0,1-.8,2.9c-2.5,2.9-5.5-2.8-6.3-4.9A14.16,14.16,0,0,1,551,163.4Z" fill="#edd7b9"/><path d="M577.4,300.2c-7.3,1.3-16-.5-23-2.6q-2.85-.9-6-1.8v.1s2,3.3-.7,4.8v.1a55.16,55.16,0,0,1,7.1,1c2.2.5,4.7,1.1,8.4,2a53.09,53.09,0,0,0,13.2.8,23.19,23.19,0,0,0,7.5-1.5c14.6-6.6,16.8-28.2,14.6-41.8h-.2c-2.2-.8-4.8.3-6.4,2a12.7,12.7,0,0,0-1.8,2.7l.3.1c2.8,2.5.8,3.2,1.3,6.7a41.16,41.16,0,0,1-.3,13.1C589.8,295.1,584.3,299,577.4,300.2Z" fill="#aad3f7"/><path d="M548.4,296l-.7,4.8C550.4,299.3,548.4,296,548.4,296Z" fill="#aad3f7"/><path d="M550.4,155.6a21.17,21.17,0,0,0,.6,7.9,18.66,18.66,0,0,0,.7,2.2c.8,2.1,3.8,7.8,6.3,4.9a4.52,4.52,0,0,0,.8-2.9c.3-4.5,0-9.1-2-13.1C554.5,150,551,150.1,550.4,155.6Z" fill="#fff"/><path d="M564.6,151.9a19.89,19.89,0,0,0,.7,8.4,15.55,15.55,0,0,0,.8,2.3c.9,2,3.6,6.9,6.2,6a2.8,2.8,0,0,0,1.2-.8,5.39,5.39,0,0,0,1-3c.3-4.8,0-9.8-2.3-14a6.87,6.87,0,0,0-3.4-3.4C566.8,146.8,565.1,148.3,564.6,151.9Z" fill="#fff"/><path d="M588.6,269.7c-3.5,9.2-7.6,21.3-11.2,30.5,6.8-1.2,12.4-5.2,14-14.2a44.2,44.2,0,0,0,.3-13.1c-.5-3.5,1.5-4.2-1.3-6.7l-.3-.1A27.5,27.5,0,0,0,588.6,269.7Z" fill="#333435"/><path d="M599.7,455.4a12.81,12.81,0,1,0,13.5,1.7,13,13,0,0,0-8.2-2.9A13.68,13.68,0,0,0,599.7,455.4Z" fill="#333435"/><path d="M613.3,457.1c-15.1-17.9-39.3-30.8-66.6-33.4a114.23,114.23,0,0,0-16.6-.3" fill="none" stroke="#000" stroke-linecap="round" stroke-linejoin="round" stroke-width="2"/><path d="M599.6,455.3c-17.3-14.3-37.1-22.2-59.5-20.4" fill="none" stroke="#000" stroke-linecap="round" stroke-linejoin="round" stroke-width="2"/><path d="M599.7,455.4a12.81,12.81,0,1,0,13.5,1.7,13,13,0,0,0-8.2-2.9A13.68,13.68,0,0,0,599.7,455.4Z" fill="none" stroke="#000" stroke-linecap="round" stroke-linejoin="round" stroke-width="2"/><path d="M474.1,439.3h0a91.68,91.68,0,0,1,48.3-16.1c1.1,0,2.3-.1,3.4-.1" fill="none" stroke="#000" stroke-linecap="round" stroke-linejoin="round" stroke-width="2"/><path d="M467,456.3c17.3-14.3,37.8-23,60.2-21.2" fill="none" stroke="#000" stroke-linecap="round" stroke-linejoin="round" stroke-width="2"/><path d="M464.9,456a8.3,8.3,0,0,1,2.1.6c4.6,1.8,7.4,6,7.4,11.5a12.76,12.76,0,0,1-12.8,12.8,12.34,12.34,0,0,1-4.2-.7" fill="none" stroke="#000" stroke-linecap="round" stroke-linejoin="round" stroke-width="2"/><path d="M539.4,427.5c.2,2.3.4,4.9.4,7.5.2,7.4-.3,15.1-1.4,19.3" fill="none" stroke="#000" stroke-linecap="round" stroke-linejoin="round" stroke-width="2"/><path d="M528.1,428.3a52.78,52.78,0,0,0-.8,6.9c-.2,3-.2,5.9-.2,7a82.85,82.85,0,0,0,1.4,12.2h0" fill="none" stroke="#000" stroke-linecap="round" stroke-linejoin="round" stroke-width="2"/><polyline points="542.3 479.1 542.3 470.7 542.2 454.4 538.4 454.4 528.5 454.4 525.9 454.4 525.9 470.7 525.9 479.1" fill="none" stroke="#000" stroke-linecap="round" stroke-linejoin="round" stroke-width="2"/><path d="M542.3,479.1a28,28,0,0,1-9,1.6,17,17,0,0,1-7.4-1.6" fill="none" stroke="#000" stroke-linecap="round" stroke-linejoin="round" stroke-width="2"/><polyline points="542.4 470.7 542.3 470.7 526.3 470.7" fill="none" stroke="#000" stroke-linecap="round" stroke-linejoin="round" stroke-width="2"/><path d="M585.7,244.8c6.3,4.2,8,8.1,11.5,13.2a5.51,5.51,0,0,1,1.2,2.7" fill="none" stroke="#000" stroke-linecap="round" stroke-linejoin="round" stroke-width="2"/><path d="M535.7,118.9h0c1.6,5.8,3.1,11.5,4.6,17.2q7.05,26.25,14.2,52.5c2.7,10.1,5.5,20.2,6.9,30.5.3,2.1.5,4.3.6,6.4s.2,4.4.2,6.6v.2" fill="none" stroke="#000" stroke-linecap="round" stroke-linejoin="round" stroke-width="2"/><path d="M576.5,207.1c.3,4,.4,8,.6,12.1.1,2.9.1,5.8.1,8.7v6" fill="none" stroke="#000" stroke-linecap="round" stroke-linejoin="round" stroke-width="2"/><path d="M572.4,168.8c.5,3.6.8,6.9,1.3,10.6v.1" fill="none" stroke="#000" stroke-linecap="round" stroke-linejoin="round" stroke-width="2"/><path d="M562.5,112.8a.37.37,0,0,0,.1.3c1,5.7,2,11.4,3,17,.8,4.7,1.7,9.3,2.5,14,.2,1.3.5,2,.7,3.2" fill="none" stroke="#000" stroke-linecap="round" stroke-linejoin="round" stroke-width="2"/><path d="M535.5,119c.1,0,.1-.1.2-.1a82.15,82.15,0,0,1,14.5-4.8,45.49,45.49,0,0,1,12.2-1.1" fill="none" stroke="#000" stroke-linecap="round" stroke-linejoin="round" stroke-width="2"/><path d="M540.1,136.1h.3a37.48,37.48,0,0,0,11-2c4.9-1.5,9-3.2,14.1-4" fill="none" stroke="#000" stroke-linecap="round" stroke-linejoin="round" stroke-width="2"/><path d="M561.7,167.6c4.1,3.8,8.5,7.5,12,11.8a8.75,8.75,0,0,1,.8,1c3.7,4.8,6.4,10.6,6.1,16.6a16.37,16.37,0,0,1-4.2,10.1,13.16,13.16,0,0,1-5.8,3.7" fill="none" stroke="#000" stroke-linecap="round" stroke-linejoin="round" stroke-width="2"/><path d="M551,163.4a18.66,18.66,0,0,0,.7,2.2c.8,2.1,3.8,7.8,6.3,4.9a4.52,4.52,0,0,0,.8-2.9c.3-4.5,0-9.1-2-13.1-2.3-4.6-5.8-4.5-6.4,1A20.86,20.86,0,0,0,551,163.4Z" fill="none" stroke="#000" stroke-linecap="round" stroke-linejoin="round" stroke-width="2"/><path d="M568.7,147.4c-1.9-.6-3.6.8-4.1,4.4a19.89,19.89,0,0,0,.7,8.4,15.55,15.55,0,0,0,.8,2.3c.9,2,3.6,6.9,6.2,6a2.8,2.8,0,0,0,1.2-.8,5.39,5.39,0,0,0,1-3c.3-4.8,0-9.8-2.3-14A7.6,7.6,0,0,0,568.7,147.4Z" fill="none" stroke="#000" stroke-linecap="round" stroke-linejoin="round" stroke-width="2"/><path d="M598.4,260.7c0,.2.1.5.1.7,2.2,13.6,0,35.2-14.6,41.8a20.81,20.81,0,0,1-7.5,1.5,48.62,48.62,0,0,1-13.2-.8c-3.6-.9-6.2-1.6-8.4-2a50.59,50.59,0,0,0-7.1-1c-1.6-.1-3.3-.2-5.6-.2" fill="none" stroke="#000" stroke-linecap="round" stroke-linejoin="round" stroke-width="2"/><path d="M548.4,296s2,3.3-.7,4.8" fill="none" stroke="#000" stroke-linecap="round" stroke-linejoin="round" stroke-width="2"/><path d="M524.6,292.5c.5,2.5-1.4,11.5-5.5,7.9-.4-.4-.7-1.4-.2-1.6.8-.3,1.4-2.4,1.9-4.6.6-2.5,1-5.1,1.6-5.4,1.1-.5,3-.4,5-.1a44.15,44.15,0,0,1,5.2,1.4c1.3.4,2.4.9,3.2,1.2a118.58,118.58,0,0,0,12.7,4.5c2.1.6,4.1,1.3,6,1.8,7,2.1,15.8,3.9,23,2.6,6.8-1.2,12.4-5.2,14-14.2a44.2,44.2,0,0,0,.3-13.1c-.5-3.5,1.5-4.2-1.3-6.7" fill="none" stroke="#000" stroke-linecap="round" stroke-linejoin="round" stroke-width="2"/><path d="M519.7,306.1c-1.6-2.7-3.6-6.2-5.8-10.2-.7-1.3-1.4-2.6-2.2-3.9-1.9-3.4-3.9-7-5.9-10.7-9-16.5-18.1-33.5-17.9-33.5H403c-1.1,0-1.8,2-1.3,3a9.12,9.12,0,0,0,2.4,2.4,14.42,14.42,0,0,1,2.9,4.6,290.6,290.6,0,0,0,30,50.3c.2,0,1.5,1.7,1.8,1.7h114c.7-.1,1.8-2.7,2.3-4.6.3-.9.1-2.2-.4-2.5.2.1-24,.1-36,.1" fill="none" stroke="#000" stroke-linecap="round" stroke-linejoin="round" stroke-width="2"/><path d="M504.8,309.7h0a94.18,94.18,0,0,0,4.5,24h0" fill="none" stroke="#000" stroke-linecap="round" stroke-linejoin="round" stroke-width="2"/><path d="M561.1,219.1a95.87,95.87,0,0,0-40.5,11.8c-6.8,16-12.1,33.1-14.5,50.4" fill="none" stroke="#000" stroke-linecap="round" stroke-linejoin="round" stroke-width="2"/><path d="M517.7,360.1h.2c25.6,2.4,40.3,5.1,45.6,5.3,9.7.4,19.8-.6,28.2-5.5,3.6-2.1,6.9-4.6,6.6-8.8-2.4-32.7,6-65.1,14.3-96.8,1.1-4.1,1.9-8.2,2.7-12.3.4-2.1.7-4.1,1.1-6.2.2-1,.9-3.2.1-4.2l-.3-.3a91.52,91.52,0,0,0-38.7-12.2" fill="none" stroke="#000" stroke-linecap="round" stroke-linejoin="round" stroke-width="2"/><path d="M485.4,357.8c5,.3,8.6.5,13.2.8" fill="none" stroke="#000" stroke-linecap="round" stroke-linejoin="round" stroke-width="2"/><path d="M443,356.5c6.6.1,12,.2,18,.4h.1" fill="none" stroke="#000" stroke-linecap="round" stroke-linejoin="round" stroke-width="2"/><path d="M453.9,360.9h-11" fill="none" stroke="#000" stroke-linecap="round" stroke-linejoin="round" stroke-width="2"/><path d="M509,363.7c-12.3-1.4-24.6-2.1-36.9-2.4" fill="none" stroke="#000" stroke-linecap="round" stroke-linejoin="round" stroke-width="2"/><path d="M600.5,361.3a.1.1,0,0,0,.1-.1c-9.9,7.3-22.2,9.9-34.5,9.9a142.56,142.56,0,0,1-19.3-1.1c-4-.5-8.2-1.3-13-2.3" fill="none" stroke="#000" stroke-linecap="round" stroke-linejoin="round" stroke-width="2"/><path d="M616.6,231.6c1.7,1,2.8,4.4,4.1,5.8-.6,3.1-1.1,6.1-1.6,9.2,0,.2-.1.4-.1.6-3.4,19.8-9,39.1-12.8,58.8a189.12,189.12,0,0,0-2.8,49.8,7,7,0,0,1-2.6,5.4.1.1,0,0,0-.1.1" fill="none" stroke="#000" stroke-linecap="round" stroke-linejoin="round" stroke-width="2"/><path d="M529.2,293.9a7.08,7.08,0,0,1-2.5,7.8" fill="none" stroke="#000" stroke-linecap="round" stroke-linejoin="round" stroke-width="2"/><path d="M533.9,296.7c-.2,1.6-1.6,3-.7,4.3.7,1,3,1,4,1,1.7,0,3.6-.2,4.7-1.5" fill="none" stroke="#000" stroke-linecap="round" stroke-linejoin="round" stroke-width="2"/><path d="M577.6,231.5c2.8,1,4.6,2.4,4.1,3.2a1.8,1.8,0,0,1-1.6.6H577a47.16,47.16,0,0,1-14.9-3.1c-.9-.3-1.7-.7-2.6-1.1-.3-.1-.7-.4-.7-.7,0-.5.8-.6,1.3-.4" fill="none" stroke="#000" stroke-linecap="round" stroke-linejoin="round" stroke-width="2"/><path d="M586,231.5a1.9,1.9,0,0,1,.9,2c-.2,2.9-1.1,5.7-1,8.6a4,4,0,0,1-.3,2.2l-.2.2a3.16,3.16,0,0,1-2.2.5,44.76,44.76,0,0,1-6.3-.6" fill="none" stroke="#000" stroke-linecap="round" stroke-linejoin="round" stroke-width="2"/><path d="M561.4,225.5h-1.2c-2.7.1-7.8.3-7.2,3.9a73.47,73.47,0,0,0,1.9,8.4,20.63,20.63,0,0,0,1.2,3.5" fill="none" stroke="#000" stroke-linecap="round" stroke-linejoin="round" stroke-width="2"/><path d="M586,231.6h0a46.33,46.33,0,0,0-8.3-3.6" fill="none" stroke="#000" stroke-linecap="round" stroke-linejoin="round" stroke-width="2"/><path d="M438.4,352.3c-10.2.4-10.1-11.8-1.5-13.5.1,0,.3-.1.4-.1,13.5-5.4,29.8-6.2,44.2-5.6,9.2.4,18.5,1.1,27.8.7a94.15,94.15,0,0,0,11.9-1.3c1.3-4.8,5.3-17.9,7.6-22.6" fill="none" stroke="#000" stroke-linecap="round" stroke-linejoin="round" stroke-width="2"/><path d="M437.1,339.1c23.6-2,55.9,7.8,77.9,19.4,1,.5,2,1.1,3,1.6a106.76,106.76,0,0,1,9.9,6.3" fill="none" stroke="#000" stroke-linecap="round" stroke-linejoin="round" stroke-width="2"/><path d="M438.4,352.3c12.3-4.2,25.3-4,37.6-1.3a119.85,119.85,0,0,1,22.6,7.5,112,112,0,0,1,10.4,5.2q5.4,3,9.9,6" fill="none" stroke="#000" stroke-linecap="round" stroke-linejoin="round" stroke-width="2"/><path d="M487,357.6c-.6.1-1.1.1-1.6.2a63.15,63.15,0,0,0-13.3,3.3,61.82,61.82,0,0,0-22.2,14.8c-10.8,10.8-13,23.5-5.6,37,.2.3.3.6.5.9a40,40,0,0,0,3.2,4.8c.1.1.1.2.2.3" fill="none" stroke="#000" stroke-linecap="round" stroke-linejoin="round" stroke-width="2"/><path d="M476.1,351.1c-2.4.8-4.1,1.1-6.5,2.1-2.8,1.1-5.7,2.3-8.5,3.7a76.8,76.8,0,0,0-7.4,4.1c-8.6,5.3-15.9,12.4-19.7,22.1-.2.4-.3.8-.5,1.2-4.4,12.3-2.6,24.8,5.4,34.8a17.4,17.4,0,0,0,1.2,1.4l3.2,3.5" fill="none" stroke="#000" stroke-linecap="round" stroke-linejoin="round" stroke-width="2"/><path d="M529.7,339.8c-13.8,1.8-27.7,3.9-41.2,7.4" fill="none" stroke="#000" stroke-linecap="round" stroke-linejoin="round" stroke-width="2"/><path d="M522.4,405.6a24.43,24.43,0,0,0,2.4-1c6-2.8,12.2-9.8,18.6-8.3a10.19,10.19,0,0,0,3.5.2,10.85,10.85,0,0,0,6.8-3.4c4.4-5.1,1.8-16-6.1-16h-.7c-3.1.2-6.6,1.8-9.3,3-2.4,1-3.9,3.7-6.5,3.8a24.61,24.61,0,0,1-6.6-.9c-12-3-30.2-11.4-32.9,1.8-.9,4.4,1,10.1,2.2,14.5,2,7.7,10.6,9.5,17.8,8.9A40.56,40.56,0,0,0,522.4,405.6Z" fill="none" stroke="#000" stroke-linecap="round" stroke-linejoin="round" stroke-width="2"/><path d="M523.7,386.8a51.52,51.52,0,0,0-10.8-2.1,17.71,17.71,0,0,0-10.6,2.4c-3.1,2-5.5,5.4-5.4,9.1" fill="none" stroke="#000" stroke-linecap="round" stroke-linejoin="round" stroke-width="2"/><path d="M552.4,378.6a25.75,25.75,0,0,0-5.5-3.5,44.49,44.49,0,0,0-7.5-2.9" fill="none" stroke="#000" stroke-linecap="round" stroke-linejoin="round" stroke-width="2"/><path d="M539.6,372.3h0c-2.2-1.6-3.6-3-5.7-4.5h0a5.37,5.37,0,0,0-1.6-1,6.67,6.67,0,0,0-3.4-.4,2.77,2.77,0,0,0-.9.1,22.93,22.93,0,0,0-5.2,1.1,7.71,7.71,0,0,0-3,1.5,2.65,2.65,0,0,0-.5.6,3.75,3.75,0,0,0-.8,2.5,5.22,5.22,0,0,0,2.4,3.1,31,31,0,0,0,4.7,2.6" fill="none" stroke="#000" stroke-linecap="round" stroke-linejoin="round" stroke-width="2"/><path d="M576.4,305c-1.6,4.5-8.2,23.9-10.5,27.5s-2.6,7.8-4.9,11.3-3.5,9.9-6.6,12.7c-5.4,4.8-12.1,4.3-19.3,3.8s-13-1-20.1-1.9" fill="none" stroke="#000" stroke-linecap="round" stroke-linejoin="round" stroke-width="2"/><path d="M554.6,238c-17.3-1-15.3,4-16,7.7-2.4,11.8-7.4,28.1-10.4,33.6a34.91,34.91,0,0,1-7.7,9.4c-2.5,2.1-5.5,3.6-8.6,3.3" fill="none" stroke="#000" stroke-linecap="round" stroke-linejoin="round" stroke-width="2"/><path d="M564.6,233.5h.4a5.28,5.28,0,0,0-2.5.8,4.53,4.53,0,0,0-1.5,2.1,7.38,7.38,0,0,0,2.2,8.6c.2-.1.1.4-.1.6l-13.2,44.8" fill="none" stroke="#000" stroke-linecap="round" stroke-linejoin="round" stroke-width="2"/><path d="M540.4,251.4a33.33,33.33,0,0,1,.2,5.5c-.4,11.5-5.7,23.8-7.9,32.7" fill="none" stroke="#000" stroke-linecap="round" stroke-linejoin="round" stroke-width="2"/><path d="M520.7,294.1c-2.2,1.3-3.9,1.5-6.8,1.8h0" fill="none" stroke="#000" stroke-linecap="round" stroke-linejoin="round" stroke-width="2"/><path d="M540.4,256.9c-3,7.4-5,22.4-13,31.6" fill="none" stroke="#000" stroke-linecap="round" stroke-linejoin="round" stroke-width="2"/><path d="M598.3,261.5c-2.2-.8-4.8.3-6.4,2a12.7,12.7,0,0,0-1.8,2.7,21.7,21.7,0,0,0-1.5,3.5c-3.5,9.2-7.6,21.3-11.2,30.5h0" fill="none" stroke="#000" stroke-linecap="round" stroke-linejoin="round" stroke-width="2"/><path d="M442.8,356.5c-.7,2.5-.8,1.8,0,4.3" fill="none" stroke="#000" stroke-linecap="round" stroke-linejoin="round" stroke-width="2"/><path d="M458.2,422.6a20.17,20.17,0,0,1,8.8.7c4.6,1.4,9.8,6.2,8.8,11.3a20.07,20.07,0,0,1-1.6,4.7,17.35,17.35,0,0,1-8.6,8.3,79,79,0,0,1-1.2,8.3c-.8,3.9-1.8,7.8-2.7,11.5-1.1,4.3-2.4,8.7-4.7,12.4a20.25,20.25,0,0,1-2.1,3,25.39,25.39,0,0,1-12.9,7.8" fill="none" stroke="#000" stroke-linecap="round" stroke-linejoin="round" stroke-width="2"/><path d="M445.6,413.3c4.4-1.1,8.5,4.9,11.5,7.7a2.7,2.7,0,0,1,.7.8,2.35,2.35,0,0,1,.2.8v.5a14.32,14.32,0,0,1-2.7,6.9c-1.7,2.3-4.2,3.2-6,5.2l-.3.3c-1.2,1.6-1.1,3.2-1.4,5.2a19.7,19.7,0,0,1-3.3,8.7" fill="none" stroke="#000" stroke-linecap="round" stroke-linejoin="round" stroke-width="2"/><path d="M447.4,435.5a3.33,3.33,0,0,1-1.7-.2,5,5,0,0,1-2.1-1.7c-1.8-2-3.6-3.9-5.4-5.9-2.2-2.4-1.3-5.7.7-8.6" fill="none" stroke="#000" stroke-linecap="round" stroke-linejoin="round" stroke-width="2"/><path d="M446.6,451.5a4.51,4.51,0,0,0-2.5-.7,12.31,12.31,0,0,0-3.3.3c-4.4.8-8.9,2.5-11.8,5.9-6.1,7.1-4.5,18,.3,25.4a19.7,19.7,0,0,0,5.7,5.8,21.27,21.27,0,0,0,6.8,2.4" fill="none" stroke="#000" stroke-linecap="round" stroke-linejoin="round" stroke-width="2"/><path d="M448.5,416.5a11.8,11.8,0,0,1-.4,2,11.21,11.21,0,0,1-4.6,5.7,7.22,7.22,0,0,1-2,.9" fill="none" stroke="#000" stroke-linecap="round" stroke-linejoin="round" stroke-width="2"/><line x1="546.9" y1="396.8" x2="546.9" y2="422.4" fill="none" stroke="#000" stroke-linecap="round" stroke-linejoin="round" stroke-width="2"/><path d="M546.9,370h0v7.2" fill="none" stroke="#000" stroke-linecap="round" stroke-linejoin="round" stroke-width="2"/><polyline points="522.4 405.5 522.4 405.6 522.4 422.6" fill="none" stroke="#000" stroke-linecap="round" stroke-linejoin="round" stroke-width="2"/><path d="M539.7,372.9c-.1,0-.2-.1-.3-.1a10.49,10.49,0,0,0-9.3.5,10.72,10.72,0,0,0-4.2,4.5,11.37,11.37,0,0,0-1,3.6" fill="none" stroke="#000" stroke-linecap="round" stroke-linejoin="round" stroke-width="2"/></svg>