<svg id="006de997-f055-4a38-b032-ff32d2fe6c9b" data-name="663bfa42-0255-4629-a10b-deacdf0c852b" xmlns="http://www.w3.org/2000/svg" width="1025" height="507.8" viewBox="0 0 1025 507.8"><title>brainstorm_p4-active</title><path d="M761.19,157.76c.25-.78.48-1.47.66-2a8.63,8.63,0,0,1,.56-1l-.7-3.18Z" fill="#f15a24"/><path d="M760.64,182.31a60.23,60.23,0,0,0,.31-8.05,8.14,8.14,0,0,1-1-.18,24.37,24.37,0,0,1-.66,3.87,1,1,0,0,1-.19.38,4.74,4.74,0,0,0-.89,3.23,1,1,0,0,1,.08.2,44.93,44.93,0,0,1,1,5.72l.29.07c.34.1.67.23,1,.35l1.26-1.83-1.28-2.86A1,1,0,0,1,760.64,182.31Z" fill="#f15a24"/><path d="M802.89,465.41a12,12,0,0,0-5.31-5.11,4.84,4.84,0,0,0-.54-.22,12.53,12.53,0,0,0-4.83-.67l-1.4,0-.48,0-.94,0-.58,0-.86,0-.62,0-.84.07-.63.06-.84.09-.63.08-.86.12-.61.09-.88.15-.58.11-.94.2-.52.12-1,.27-.41.11q-.65.18-1.29.39l-.15,0a29.62,29.62,0,0,0-2.91,1.13l-.16.08c-.41.19-.82.39-1.22.6l-.34.18c-.34.18-.68.37-1,.57l-.42.26-.35.22c-3.4-1-7.57-4.21-10.86-7.38.82-.75,1.69-1.6,2.61-2.55l.2-.22.16-.18.19-.27.14-.2c.06-.09.11-.19.16-.28l.11-.21c0-.1.08-.2.12-.3s.06-.14.09-.21.06-.21.09-.32,0-.14.06-.22,0-.23.06-.34,0-.14,0-.21,0-.25,0-.37,0-.13,0-.19,0-.29,0-.43,0-.09,0-.13h0v-.12c-.14-1.07-.94-6.76-3-10.55l-.06-.12,0,0,0,0-.06-.11c-3.12-5.61-8-8.66-12.81-8.2q-.49,0-1,.14a22.81,22.81,0,0,1-4.58-1l-1-.26-.25-.07-1-.26-.12,0-.93-.21c7.07-60.81,3.4-150.14,2.45-170.05l.92-.17c2.54-.16,11.46-1.2,15.19-2.94a72,72,0,0,1,6.73-2.71,5,5,0,0,0,2.9-2.61c.23-.49,5.18-11.33,1.86-26.54,2.62-1.67,4-2.71,4.85-3.79,1.65-2.09,2.34-5.93,2.64-8.77a5,5,0,0,0,0-.85l-1.1-16.7c0-.07,0-.13,0-.19a21.51,21.51,0,0,0,2.85-2.33,5,5,0,0,0,1.22-1.79L780,189a9,9,0,0,0,4-2.32l.2-.22c.16-.18.31-.36.46-.56s.22-.25.32-.39c1.46-2.13,1.87-5.34,2.24-11.75.05-.89.12-2,.15-2.25.17-.9.68-3.64-5.17-16.4a30.26,30.26,0,0,0-4.15-6v-6.79c.35-3.82,1.1-12.28,1.1-13.63,0-.74-.14-3.22-.43-8.3-.16-2.75-.36-6.17-.37-6.7a6.23,6.23,0,0,0-.78-3c12.49-4,19.56-14.19,19.91-14.7a5,5,0,0,0-4.64-7.79c-14.4,1.48-15.2-5.94-15.83-11.91a20.29,20.29,0,0,0-.41-2.73,17,17,0,0,0-3.47-6.8c-.22-.28-.41-.53-.58-.76a19.62,19.62,0,0,1,1.72-4A10.56,10.56,0,0,0,775,50.94c-.75-1.32-2.1-6.42-2.83-9.16-.65-2.46-1-3.9-1.4-4.89,0-1.18.28-4.27.5-6.36.48-4.68.75-7.67.43-9.69a7.74,7.74,0,0,0-3.42-5.47l-.1-.06a9.16,9.16,0,0,0-2.51-5.36A12.25,12.25,0,0,0,761.35,7a15.7,15.7,0,0,0-1.64-.69c-6.94-3-16-6.06-25-3.45C726.81,5.11,719.39,10.63,716.5,13a72,72,0,0,0-13.07,14.24c-2.58,3.52-5,7.23-7.25,10.82-.33.52-.66,1-1,1.51s-.74,1.11-1.06,1.61a20.78,20.78,0,0,0-3.42,10.27q0,.17,0,.33A21.15,21.15,0,0,0,694,62.85a14.72,14.72,0,0,0,2,2.43c-2.26,1.1-5.74.6-8.55,0l-.29-.05a10.9,10.9,0,0,1-6.73-3.7c-1-1.27-3.43-4.3-7.06-3.43a5.28,5.28,0,0,0-2.69,1.59,5.77,5.77,0,0,0-1.49,2.94c-.18.95-.65,3.46,2.6,12.64,3.31,9.34,5.12,10.6,6,11.21,2.1,1.46,9,4.12,17.43,4.92A36.36,36.36,0,0,0,687.54,99c-4.93,6.38-24,32.3-30.12,40.58a26,26,0,0,0-4.91-.06l0-.07c.81-2.35,1.82-5.27,1.29-8.41,0-.08,0-.17,0-.25a10.39,10.39,0,0,0-2.24-4.53,6.09,6.09,0,0,0-1.3-1.17,8.42,8.42,0,0,0-1.58-2.24,5,5,0,0,0-1.11-.85,8.24,8.24,0,0,0-.91-.43,5.93,5.93,0,0,0-1.9-3l-.21-.17-.31-.25a6.79,6.79,0,0,0-.62-.4l0,0a8.59,8.59,0,0,0-.05-3q0-.15-.07-.3a7.58,7.58,0,0,0-3.63-4.57l-.11-.07-.36-.19-.48-.23h0a9.47,9.47,0,0,0-4.48-.84h-.16a8.85,8.85,0,0,0-5.79,2.9l.24-1.75a5,5,0,0,0-1.72-4.49l-2-1.7a5,5,0,0,0-1.78-1,7.09,7.09,0,0,0-5.49.57h0l-.18.1a7.25,7.25,0,0,0-3.21,3.42c-1,2.1-4,9.9-4.32,10.79a5,5,0,0,0-.33,1.78,14.1,14.1,0,0,0,.77,4.64,4.07,4.07,0,0,0,.16.4c.21.51.83,2.66,1.33,4.61,0,.14.08.28.13.42l3.8,10.8a5,5,0,0,0,.29.66c2.92,5.58,4.48,6.58,5.15,7s3.92,2.76,7,5a6,6,0,0,0,.63,3.23,6.84,6.84,0,0,0,3.6,3.23,7.06,7.06,0,0,0,.16,3.31c.66,2.31,2,5.72,2.05,5.86a5,5,0,0,0,1.85,2.31,15.54,15.54,0,0,0,8.1,2.65h.19c2.37,0,6.89-.24,8.86-.35l5.31,1.71a5,5,0,0,0,2.84.07l4.8-1.3a5,5,0,0,0,.54-.18l.06,0a5.08,5.08,0,0,0,.61-.21c1.26-.52,2.51-1.11,3.74-1.72l.94-.49c.48-.25,1-.48,1.43-.74a5,5,0,0,0,1.68-1.52,23.21,23.21,0,0,0,2-3.57,5,5,0,0,0,.46-2c0-1.85.16-3.73.36-5.58.54-1,1.12-2,1.72-2.91l5.42-2.86a21,21,0,0,0,4.12,6.42,5.06,5.06,0,0,0,.6.56,20.83,20.83,0,0,0,3.46,2.18l.15.18c-.2.54-.43,1.09-.66,1.63-1,2.49-2.33,5.58-1.68,9.13,2.74,14,1.84,21.52.8,30.24-.15,1.26-.3,2.55-.45,3.88a4.87,4.87,0,0,0-3.12,4.15l-1.35,14.57a5.32,5.32,0,0,0-1,.75,5.78,5.78,0,0,0-1.69,4.48,8.22,8.22,0,0,0,2.15,5.35c-.89,12.19-2.37,25.59-3.49,28.33-2,5-14.6,55.28-11.5,131.8a5.26,5.26,0,0,0-2.85,3.23c-3.61,11.29,3.4,42.4,5.72,52-.72,1.64-1.83,4.19-2.45,5.75a20.69,20.69,0,0,1-1.46,1.56l-.1.1-1,1c-1.33,1.27-3,2.8-4.77,4.37l-.38.34,0,0-2.45,2.14-1.57-.24C656,462,649,459.89,642.1,460H642c-9.17,0-14.51,7.1-16.82,12.69l-.7.29a5,5,0,0,0-3.07,4.95l.5,7.5a5.24,5.24,0,0,0,4,4.65c5.16,1.16,13.29,3.17,15.19,4,1.75.77,4.79,1.13,10.38,1.13,3.12,0,7-.11,12-.33l1.94-.08c.12,0,13.39-1.6,16.42-5.41a5.53,5.53,0,0,0,.69-1.12l6.68,2.43a5,5,0,0,0,2.46.24c10.75-1.62,12.59-4.31,13.28-5.32,1.86-2.72,2.17-7.14,2.17-16h0v-.09c0-.06,0-.12,0-.19a29.87,29.87,0,0,0-.48-4.33c0-.09,0-.17-.07-.26-.34-1.81-.78-3.64-1.17-5.28-.21-.89-.49-2-.63-2.75,1.45-4.57,2.06-14.4,1.82-29.33-.43-26.73-3.18-30.66-4.13-31.92-1.86-2.57-5-3.93-9.55-4.13-.59-9.54-1.31-24-1.38-38.61-.06-13.05.4-26.16,1.94-35.84q.89-5.74,2.11-11.43l.07-.34c.17-.81.37-1.61.55-2.41.71-3.1,1.46-6.18,2.31-9.25a206.75,206.75,0,0,1,7.66-22.56c0-.1.08-.2.11-.3.6-1.81,2.07-6.94,3.08-10.76,2.06.18,4.32.36,6.4.48h.33q1.76,0,3.51.09c1.66,16.36,7.17,81.86-.16,171.33-7.09,2.54-7.65,5.18-7.93,6.53a5.62,5.62,0,0,0,1.37,5l0,0c.12.14.26.26.4.39l.18.17c1,.9,1.08,1,1.64,3,.85,3,1.37,7.28,1.05,8.59-.46,1.91-1.15,4.8.61,7.47.08.12.18.22.26.33-2.75,7.93,1.64,15.58,5,19.17l4.29,9.63c0,.1.1.18.15.27s.11.23.18.34.12.17.18.25.15.21.23.31l.21.22c.09.09.17.19.27.28l.25.19c.1.08.19.16.3.23l.28.17.31.18.32.13.32.13.34.09.33.08.36,0,.33,0,9.4.4h0l11,.4h.18a5,5,0,0,0,.55,0l.16,0,.39-.06.17,0,.36-.1.17-.07.33-.14.17-.09.31-.17.16-.11.29-.2.15-.13.26-.23.12-.13a5,5,0,0,0,1.63.42l7.9.6h.38a5,5,0,0,0,.75-.07c1.89.09,3.84.16,5.88.16,9,0,19-1.24,27.61-6.55l.18-.12a11.54,11.54,0,0,0,2.56-2.37C806.31,480.7,806,471,802.89,465.41Zm-4.22,18.32a7.67,7.67,0,0,1-1.71,1.59c-7.81,4.84-17.18,6-25.56,6-2.28,0-4.48-.08-6.56-.2l-7.92-.6a1,1,0,0,1-.49-.17c-.16-.11-2.82-1.92-5-3.64l.87,3.79a1,1,0,0,1-1,1.22h0l-11-.5-9.39-.3a1,1,0,0,1-.88-.59l-4.75-10.65c-.69-.73-8.38-9.12-3.22-17.7a3.59,3.59,0,0,1-1.93-1.35c-.81-1.22-.44-2.74-.06-4.34.6-2.48-.28-7.69-1.09-10.6-.7-2.48-.93-3.3-2.87-4.9a1.72,1.72,0,0,1-.67-1.71c.41-2,5-3.57,7.88-4.38,8.4-99.63.9-170.4,0-178.16a51.27,51.27,0,0,0-7.18-.43c-2.79,0-5.91-.28-8.41-.5l-1.43-.12c-.68,3-3,11.41-3.83,13.74a215.36,215.36,0,0,0-13,46.94c-3.59,22.46-1.45,62.79-.35,79.26,5.22-.44,8.62.36,10.08,2.4,2.72,3.65,3.25,23.59,3.35,29.61,0,2.56.33,24.82-1.93,28.85a34.09,34.09,0,0,0,.85,4.1c.41,1.69.87,3.61,1.2,5.43a25.6,25.6,0,0,1,.42,3.74c0,6.39-.11,11.81-1.47,13.8s-8.46,3.3-10.58,3.63a1,1,0,0,1-.49,0l-10.31-3.75a5.88,5.88,0,0,0-1.27,2.58,1.3,1.3,0,0,1-.28,1.12c-1.48,1.86-12.18,3.9-13.29,3.9-.28,0-1,0-2.12.08-4.05.18-8.22.33-11.77.33-4.14,0-7.46-.2-8.81-.79-3.08-1.35-15.79-4.21-15.92-4.24a1,1,0,0,1-.78-.91l-.5-7.5a1,1,0,0,1,.61-1l2.28-.93C629.17,473.56,633,464,642.1,464c6.44-.1,13,2,16.84,5.36l4.46.69c5.89-5,12.12-10.75,12.56-11.9.7-1.83,2.55-6,3.08-7.24-1-4.14-9.7-40.3-6.1-51.22.14-.57,1.48-1.17,3.24-1.73-3.46-76.15,9.07-127.85,11.08-133,1.91-4.9,3.7-28.61,3.91-31.51a4.25,4.25,0,0,1-2.28-3.72,2,2,0,0,1,.49-1.5,2.07,2.07,0,0,1,1.71-.44,2.52,2.52,0,0,0,.69,0,1,1,0,0,1-.38-.77v-.3l1.5-16.29a1,1,0,0,1,.36-.68,1,1,0,0,1,.74-.22l1.76.2c.23-2.6.52-5,.79-7.33,1.08-9.05,2-16.87-.84-31.48-.43-2.34.52-4.62,1.44-6.82.28-.67.56-1.34.8-2,0,0,.9-2.76-.79-3.82a1,1,0,0,1-.36-.43,16.82,16.82,0,0,1-4-2.33l-.12-.11a14.93,14.93,0,0,1-4.32-9.8l-11.55,6.09a38.17,38.17,0,0,0-2.82,4.66c-.12.52-.33,3.91-.47,6.82a1,1,0,0,1-.09.37,19.26,19.26,0,0,1-1.69,3c-.49.59-2.5,1.6-6,3.05l-.12,0-4.8,1.3a1,1,0,0,1-.26,0,1,1,0,0,1-.31,0l-6-1.94c-1.12.07-6.71.39-9.37.39a11.58,11.58,0,0,1-6.06-2,1,1,0,0,1-.37-.46c-.05-.14-1.32-3.37-1.93-5.49a3.83,3.83,0,0,1,1.47-3.91l-2.07-1.58c-.82-.06-2.74-.34-3.44-1.74a1.87,1.87,0,0,1,0-1.71,2,2,0,0,1,.77-.81l-.61-1.64h-.91a1,1,0,0,1-.59-.19c-.07,0-6.59-4.79-7.65-5.47-1.23-.78-3.18-4.39-3.75-5.48l-.06-.13-3.8-10.8c-.33-1.26-1.19-4.48-1.57-5.32a10.16,10.16,0,0,1-.59-3.42,1,1,0,0,1,.07-.36c.14-.35,3.33-8.66,4.23-10.57a3.26,3.26,0,0,1,3.73-1.85,1,1,0,0,1,.42.21l2,1.7a1,1,0,0,1,.34.9L622.93,120l2.39,5.57.19-.37,1.09-2.38c.49-1.16,1.12-2.3,1.72-3.41l.4-.74c.18-.34.35-.71.53-1.08,1-2.11,2.26-4.73,5.35-5,2-.13,4.33.93,4.87,2.94.44,1.65-.31,3.21-.91,4.45l-.25.52,0,.13a7,7,0,0,1,3.35.67,1.88,1.88,0,0,1,1.08,1.91l0,.23c0,.59-.1,1.2-.16,1.8a4.56,4.56,0,0,1,2.85.44l.18.12a4,4,0,0,1,1.4,2.37,2.89,2.89,0,0,1,1.37.69,5.56,5.56,0,0,1,1.48,2.94c.33,2-.38,4.11-1,6-.23.68-.45,1.33-.6,1.93a1.07,1.07,0,0,1,0,.13L646.36,144h0l.16,0,.12,0a1.53,1.53,0,0,1,.69.41l1.5,1.33.07-.25c.93-2.44,6.54-2,10.22-1.51,3.16-4.3,26.19-35.59,31.56-42.53,5.52-7.14,9.5-8.38,10.21-8.55l18.4-6.66c-.22-.55-.46-1.11-.7-1.69s-.39-.95-.59-1.42a35,35,0,0,1-17.8,4.51c-10.35,0-19-3.65-20.2-4.46-2.21-1.54-7.53-16.73-6.95-19.82a1.48,1.48,0,0,1,1.08-1.28c1-.25,1.94.66,3,2.07a14.87,14.87,0,0,0,9.25,5.12c3.89.8,8.28,1.34,11.66-.58,1.37-.72,2.91-1.9,2.61-3.44a5.86,5.86,0,0,0-1.83-2.73,11.46,11.46,0,0,1-1.53-1.83,17.18,17.18,0,0,1-2.65-9,16.82,16.82,0,0,1,2.77-8.36c.34-.54.7-1.07,1.05-1.61s.69-1,1-1.58c2.27-3.55,4.62-7.23,7.14-10.66A67.89,67.89,0,0,1,719.06,16c5.57-4.48,11.68-7.86,16.77-9.29,7.84-2.29,16.13.59,22.47,3.35a11.73,11.73,0,0,1,4.4,2.7,5.19,5.19,0,0,1,1.19,5.4,3.82,3.82,0,0,1,2.19.55,3.71,3.71,0,0,1,1.61,2.71c.26,1.66-.09,5.06-.46,8.67-.29,2.8-.72,7-.41,7.78a48.82,48.82,0,0,1,1.44,4.9c.94,3.52,2.22,8.34,3.22,10.11,1.88,3.32-.19,6.46-.53,6.94-1.33,2.31-3,6.24-2.27,7.46A16,16,0,0,0,770,69.24a13.14,13.14,0,0,1,2.76,5.32,17.62,17.62,0,0,1,.31,2.18c.6,5.63,1.84,17.36,20.22,15.46a1,1,0,0,1,1,.48,1,1,0,0,1,0,1.08c-.36.53-8.71,12.53-23.21,14.35,1.34,1.83,3.29,4.66,3.29,5.69,0,.44.18,3.6.36,6.65.22,3.75.44,7.63.44,8.35,0,1.31-1,12.25-1.1,13.49v8.42a32.26,32.26,0,0,1,4.51,6.17c.05.12,5.3,11.71,4.87,14-.08.41-.14,1.55-.21,2.76-.26,4.46-.55,8.26-1.54,9.72a5.52,5.52,0,0,1-4.45,2l-1.34,3.36a1,1,0,0,1-.25.36c-2.14,2-3.42,2.64-4.2,2.75a21.54,21.54,0,0,0,0,2.86l1.1,16.7a1,1,0,0,1,0,.17c-.09.85-.59,5.17-1.81,6.71-.72.93-3,2.38-5.92,4.18l-.24.15-.21.12c4.28,15.29-.69,26.19-.91,26.65a1,1,0,0,1-.57.52s-4.19,1.5-7.11,2.86c-3.2,1.49-12.29,2.56-13.94,2.59a44,44,0,0,0-4.46.93c.42,7.9,5.61,111.48-2.77,177.1,1.68-.39,4,.24,6.72,1,2.39.65,4.86,1.32,6.33,1,4.18-.81,7.74,2.67,9.67,6.2s2.58,9.12,2.61,9.36a1,1,0,0,1-.28.82,49,49,0,0,1-5.63,5c2.56,2.84,10.67,11.24,17.64,12,6-4.56,13.85-5.29,20.76-5.38a8.36,8.36,0,0,1,3.34.46l.11,0a8,8,0,0,1,3.55,3.44C801.82,471.65,802,479.6,798.67,483.73Z" fill="#f15a24"/></svg>