<svg id="395506af-20a6-405d-b258-97353827e99c" data-name="3c45a584-2d2d-46ca-a5a3-0ec8e178236b" xmlns="http://www.w3.org/2000/svg" viewBox="0 0 243.38 388.53"><title>brainstorm_p1-b</title><path d="M207.9,279.1l1.6-1.3,1.8-1.4,5.7-2.7s-.7-3.7.7-4,3.3-.7,5,.3,3.3,1.7,3.3,3a9.76,9.76,0,0,1-.7,3l-6,3.3,10-3L240,273l2.3,4.3L234,282l-9.7,4.7,10.7-3s4.3,3,2.7,5-8.3,3.7-8.3,3.7l-4,5.7-4.3,2.3-4.7-.7s-3,2.3-5.3,2.3-12.3-1-12.3-1l-5.7-4s-51.6,3.4-63.7,2.3c-3.6-.3-21.1-11-21.7-11.3,5.3-3,10.7-6.4,10.7-6.4l10,7,60.7.3a3.06,3.06,0,0,1,1-3.3c1.7-1.7,6.7-8.7,8-8.7a28.45,28.45,0,0,0,3.3-.3l2.9,1h0Z" transform="translate(-1.92 -118.07)" fill="none" stroke="#1d1d1b" stroke-linecap="round" stroke-linejoin="round" stroke-width="6"/><path d="M217.5,464.9h2.7c.8,1.4,1.3,2.3,1.3,2.3l3.3,3-.3,7-1,.3s.3,8.6-9,9.3a32.52,32.52,0,0,1-5.4-.2h-.3v-.5a12.78,12.78,0,0,0-3.4-8.7,2.55,2.55,0,0,0-.9-.9,12.58,12.58,0,0,0-5.7-3,273.33,273.33,0,0,0-29.4-12.6h0a8.37,8.37,0,0,0-1-1c-1.2-1.2-10.7-7.7-12.8-14.3a9.41,9.41,0,0,1,.1-4.7,7.55,7.55,0,0,1,6.5-5.3c7-1.2,12.8,8.2,14.2,11.2s6.5,8.4,16,9.7C207.9,458.2,217,464.6,217.5,464.9Z" transform="translate(-1.92 -118.07)" fill="none" stroke="#1d1d1b" stroke-linecap="round" stroke-linejoin="round" stroke-width="6"/><path d="M220.3,464.9h-2.7c-.5-.4-9.6-6.7-25.1-8.8-9.5-1.3-14.7-6.7-16-9.7s-7.2-12.3-14.2-11.2c-3.9.7-5.8,3-6.5,5.3h-.1c1.5-5,3-12.1,7.5-15.4a6.7,6.7,0,0,1,2.1-1c5.5-1.5,12.6,4.1,15.7,7.6l2.3,1.4a3.22,3.22,0,0,1-.4.7c-.5.8.8,7.8,2.3,9s6,8.3,12.8,7.8,12.8.5,16.5,5.3C216.7,458.9,218.9,462.6,220.3,464.9Z" transform="translate(-1.92 -118.07)" fill="none" stroke="#1d1d1b" stroke-linecap="round" stroke-linejoin="round" stroke-width="6"/><polygon points="207.38 159.63 207.58 159.82 205.98 161.03 202.28 159.72 202.28 159.72 180.28 130.53 183.38 128.43 207.38 159.63" fill="none" stroke="#1d1d1b" stroke-linecap="round" stroke-linejoin="round" stroke-width="6"/><path d="M196.9,364.1c-.5-1.2-.8-2.4-7.1-1.4,0,0-53.6,10.3-86.8,11.3-18.8.6-47-4.3-47-4.3h-.3c.2-1.3.4-2.7.6-4.3l.4.1,6.3-1,.3-.1c1.6,1.7,3.5,3.3,4,3.1.8-.3,16.9,2.6,32.5,3.1s35.6-2.3,49.7-5.6c13.9-3.3,40.2-14.8,41-15.1,1,.1,9.3.6,11.7,2.3,2.7,2,7,5.7,6.7,7.3s-.8,6.8-1.2,8.5c0,0-3.9,30.8-18.1,50.3l-2.8-1.2c-.7-1-3.2-6.3-8-8a6.26,6.26,0,0,0-2.7-.3h0s12.3-18.9,13.5-22.2a187.76,187.76,0,0,0,6.5-22.2Z" transform="translate(-1.92 -118.07)" fill="none" stroke="#1d1d1b" stroke-linecap="round" stroke-linejoin="round" stroke-width="6"/><path d="M208.8,486v.5a13,13,0,1,1-26-.5,13.28,13.28,0,0,1,2.6-7.8c-8.5-3.5-35-13.1-71.1-14.8h-.1c.1-3.7,0-6.6-.4-7.4-1.5-3-12-3.5-14.3-.5a65.7,65.7,0,0,0-.1,7.7h-.2a224.2,224.2,0,0,0-69.6,12.1A13,13,0,1,1,13,476.8h-.1s30.2-29,87.2-29c4.5,0,9.1.2,13.9.6,16.5,1.3,34.9,5.1,55.2,12.4h0a295.06,295.06,0,0,1,29.4,12.6,13,13,0,0,1,5.7,3,1.91,1.91,0,0,1,.9.9A12.08,12.08,0,0,1,208.8,486Z" transform="translate(-1.92 -118.07)" fill="none" stroke="#1d1d1b" stroke-linecap="round" stroke-linejoin="round" stroke-width="6"/><path d="M151.2,343.7h0l-6.2.2v-.7c-3.8-4.3,4.8-8.4,8.7-9.9,1.1-.4,1.8-.7,1.8-.7l28.8-6.2v-.3h5.3s8,1.3,8.7,2.3,3.7,4.3,3.7,6a47.14,47.14,0,0,1-1,7c-.3,1.3-9,8.3-10.3,8.3h0c-.8.4-27.1,11.8-41,15.1-14.1,3.3-34.1,6.1-49.7,5.6s-31.8-3.3-32.5-3.1c-.4.1-2.4-1.4-4-3.1-1.2-1.3-2.2-2.7-2.2-3.5a11.55,11.55,0,0,0-.2-1.6c5.3.7,29.7-1.3,39.4-2.8s18.8-9.8,18.8-9.8l.8-.1v.1l9.7,2.7s14-3.3,17.7-4.3c.6-.2,1.9-.7,3.8-1.4C151.1,343.7,151.2,343.7,151.2,343.7Z" transform="translate(-1.92 -118.07)" fill="none" stroke="#1d1d1b" stroke-linecap="round" stroke-linejoin="round" stroke-width="6"/><path d="M189.8,362.7l.8,3.8s-50.4,8.3-66.9,10c-1.1.1-2.1.2-2.8.3l-4.8.3c-11.1.6-23.5,1.1-32.2.5-2.2-.2-4.6-.4-7-.7h0c-4.4-.6-21.2-3-21.2-2.9l-.7-.2c.2-1.1.5-2.5.7-4.1H56s28.2,4.8,47,4.3C136.2,373,189.8,362.7,189.8,362.7Z" transform="translate(-1.92 -118.07)" fill="none" stroke="#1d1d1b" stroke-linecap="round" stroke-linejoin="round" stroke-width="6"/><path d="M189.6,418.3c-.5.6-.9,1.3-1.4,1.8l.8,2.1s-4.4,8.4-5.8,11l-2.3-1.4c-3.1-3.5-10.2-9.1-15.7-7.6l-.2-.6,5.2-11.5a10,10,0,0,1,6-3.3,6.59,6.59,0,0,1,2.7.3c4.8,1.7,7.3,7,8,8Z" transform="translate(-1.92 -118.07)" fill="none" stroke="#1d1d1b" stroke-linecap="round" stroke-linejoin="round" stroke-width="6"/><path d="M184.3,326.1v.3l-28.8,6.2a14.44,14.44,0,0,0-1.8.7l-.3-1a6.24,6.24,0,0,0,1.4-.5c1-.3,7.3-6,9-7s8.7-5,12-5,8,.7,8.3,1.7c.5,1,.1,4.6.2,4.6Z" transform="translate(-1.92 -118.07)" fill="none" stroke="#1d1d1b" stroke-linecap="round" stroke-linejoin="round" stroke-width="6"/><path d="M166.4,194.8l-2.5,15.7-2.7,3s.5-11.3-.7-12.7c0,0,1-6.3,1-6.8s1.7-.8,3-1.3S166.4,194.8,166.4,194.8Z" transform="translate(-1.92 -118.07)" fill="none" stroke="#1d1d1b" stroke-linecap="round" stroke-linejoin="round" stroke-width="6"/><path d="M159,200.4l1.6.4c1.2,1.3.7,12.7.7,12.7a7.21,7.21,0,0,1,.2,4c-.7,1.7-9.7,8.3-11.7,9.5s-8,3-8.5,3.7c-3.3,4.4-29.9,31.4-31.7,33.2l-3.9-4.9.4-.3c9-6.2,30-29,28.2-31a6.85,6.85,0,0,1-1.2-3.6l2-.2s-.3-5.6,4.5-6.8h0a8,8,0,0,1,2.7,0s1.8-2.5,2.5-3.2.2-5.5.3-7-.3-9-.2-10.5,3.8-2.2,4.3-.7,1,15.8,1,15.8l1.3.7,1.7-8.7s.8-7.3.7-8.3,1.7-2.2,2.3-2.7,2.3,1.2,2.3,1.2v6.7Z" transform="translate(-1.92 -118.07)" fill="none" stroke="#1d1d1b" stroke-linecap="round" stroke-linejoin="round" stroke-width="6"/><path d="M153.5,332.3l.3,1c-3.9,1.6-12.5,5.6-8.7,9.9v.7l-8.2.3v-.1s-1.7-6,2.3-7.3C142.5,335.7,150.2,333.3,153.5,332.3Z" transform="translate(-1.92 -118.07)" fill="none" stroke="#1d1d1b" stroke-linecap="round" stroke-linejoin="round" stroke-width="6"/><path d="M136.9,344.2l8.2-.3,6.1-.2h0c-.1,0-.1,0-.2.1-1.9.7-3.2,1.2-3.8,1.4-3.7,1-17.7,4.3-17.7,4.3l-9.7-2.7v-.1c0-.3-.1-.9-.2-1.8l.6-.1,16.7-.6Z" transform="translate(-1.92 -118.07)" fill="none" stroke="#1d1d1b" stroke-linecap="round" stroke-linejoin="round" stroke-width="6"/><path d="M138.2,205c2.2.2,1.2,4.8,1.2,4.8s-.3,7.2.1,7.2c-4.8,1.2-4.5,6.8-4.5,6.8l-2,.2a52.26,52.26,0,0,1-.2-7.4s.5-5.7-.2-5.7-2.5-.8-2.3-3.3S136.1,204.8,138.2,205Z" transform="translate(-1.92 -118.07)" fill="none" stroke="#1d1d1b" stroke-linecap="round" stroke-linejoin="round" stroke-width="6"/><path d="M125.9,402.8c0,.5,2,.3,2,.3a112.72,112.72,0,0,1-13.7,44.2l-.1,1c-4.8-.4-9.4-.6-13.9-.6v-1c11.2-16.5,13.5-44.7,13.5-44.7a10.79,10.79,0,0,0,3.2.4l2.9.6c0,.1,1,.2,3.3.1Z" transform="translate(-1.92 -118.07)" fill="none" stroke="#1d1d1b" stroke-linecap="round" stroke-linejoin="round" stroke-width="6"/><path d="M119.9,403l-2.9-.6c.2,0,.4-.1.4-.2,2.2-4.5-1.3-24.3-1.3-24.3v-.8l4.8-.3a15.76,15.76,0,0,0,2.8-.3l.1.7s2.2,23.7,2.2,25.7l-2.7.3A19.85,19.85,0,0,1,119.9,403Z" transform="translate(-1.92 -118.07)" fill="none" stroke="#1d1d1b" stroke-linecap="round" stroke-linejoin="round" stroke-width="6"/><path d="M104.1,343.5a30.19,30.19,0,0,1-9.6,4.5c-8.2,2-28.5,4.2-35.6,4.2H57.3c.3-13-1.4-29.3-8.6-43.9l.2-.1a72.73,72.73,0,0,0,13-2.2,8.6,8.6,0,0,0,4.1-1.9,7.27,7.27,0,0,0,2.4-4.6c2-14.6-4-24-6-28s-5-2.3-5-2.3-27.4,5.2-38.6,3.5l.1-.8c-1.3-2.3-2.2-3.7-2.5-4.1,0,0-.1-.2-.3-.7-1.3-3.4-7.4-19.3-8.6-21.5-1.3-2.5-3.5-13.3-1.7-19.5s8.5-8.8,9.2-9.3,2.3-3.8,2.8-5.5a32.84,32.84,0,0,0,.7-5.3s4.8-2.7,21-.6a162.7,162.7,0,0,1,20,4c1.3.3,2.7.7,4.2,1.1l-.3,5s10.7,2.3,14.7,5.7,13,10,14,12,.7,3.7-.3,4.7,6.3,11.3,6.3,11.3l7.7,9.8,3.9,4.9,11.7,14.9-3,3s-5.3,3.3-10.7,6.4h0l-.6.3h0l-5.1,3s8.7,10.3,9.7,19.3,3.3,18,3,19.7-2,4-2.3,5.3c-.1.3,0,.4.3.5A89.19,89.19,0,0,1,104.1,343.5Z" transform="translate(-1.92 -118.07)" fill="none" stroke="#1d1d1b" stroke-linecap="round" stroke-linejoin="round" stroke-width="6"/><path d="M119.9,346.7l-.8.1s-9,8.3-18.8,9.8-34.1,3.5-39.4,2.8a66.41,66.41,0,0,0-2.1-6.4v-.6c7.2,0,27.4-2.2,35.6-4.2a30.19,30.19,0,0,0,9.6-4.5,48.37,48.37,0,0,0,8.4-7.2c.9.3,3.6-.7,4.4-.5,1,.3,1,2.3,1.7,4a36.69,36.69,0,0,1,1.1,5.1C119.8,345.7,119.8,346.4,119.9,346.7Z" transform="translate(-1.92 -118.07)" fill="none" stroke="#1d1d1b" stroke-linecap="round" stroke-linejoin="round" stroke-width="6"/><path d="M113.8,456c.4.8.5,3.7.4,7.4-.2,6.1-.8,14.4-1.3,19.5a2.77,2.77,0,0,1,.1.9v15.8a4,4,0,0,1-4,4h-5a4,4,0,0,1-4-4V483.8a5.07,5.07,0,0,1,.2-1.3c-.5-4.8-.8-13.1-.8-19.3a65.7,65.7,0,0,1,.1-7.7C101.8,452.5,112.3,453,113.8,456Z" transform="translate(-1.92 -118.07)" fill="none" stroke="#1d1d1b" stroke-linecap="round" stroke-linejoin="round" stroke-width="6"/><path d="M78.8,198.6a6.06,6.06,0,0,0,3.7-1.6,30,30,0,0,0-1.7,3.9c-1.3,2.5-1.9,3.5-5,3.6-4.4.2-9.7.7-14.2-.5l-.1.3-2,4.4-.2.7a188.91,188.91,0,0,0-20-4l.2-1.4s2.8-6.4,2.5-6.8A54.67,54.67,0,0,1,33.9,184l.6-.3a3.1,3.1,0,0,0,2-4.3c-3.2-8.4.3-19.3,3.8-24.8s13,3,10.5-.3-2-9-2-9-7-2-6.5-6.5,10.5-8.5,10.5-8.5a.77.77,0,0,1,.3.1c2.8,1.1,25.7,10,37.2,22.9,12.3,13.8,6,26.3,2.8,26.8-2.6.4-8.2,2.5-13,2.4v.1l1,6s-.6.5-1.5,1.1a14,14,0,0,1-8.2,2.4,55.86,55.86,0,0,1-9.5-1.3l-1.8-2s-2,2.5-1.3,3.8a10.52,10.52,0,0,0,5.5,4.3,57,57,0,0,0,12.8,1.8A9.15,9.15,0,0,0,78.8,198.6Zm-9.7-41.1s2.8-.3,2.5-2-3.5-6.3-4.8-7-2,1.8-2,1.8C68.1,152.5,69.1,157.5,69.1,157.5Z" transform="translate(-1.92 -118.07)" fill="none" stroke="#1d1d1b" stroke-linecap="round" stroke-linejoin="round" stroke-width="6"/><path d="M79.8,189.8s1.3,6.7-1,8.7a9.72,9.72,0,0,1-1.8.1,51.76,51.76,0,0,1-12.8-1.8,10.52,10.52,0,0,1-5.5-4.3c-.7-1.3,1.3-3.8,1.3-3.8l1.8,2a55.86,55.86,0,0,0,9.5,1.3,14,14,0,0,0,8.2-2.4Z" transform="translate(-1.92 -118.07)" fill="none" stroke="#1d1d1b" stroke-linecap="round" stroke-linejoin="round" stroke-width="6"/><path d="M39.7,308a49.49,49.49,0,0,0-5.4-8.8l.1-.5c2.4.6,4.9.9,6.4.3.2-.1.5-.2.7-.3h1.3a68.08,68.08,0,0,1,5.8,9.6c7.3,14.6,8.9,30.9,8.6,43.9a118.9,118.9,0,0,1-1,13.2c-.2,1.6-.4,3-.6,4.3-.3,1.6-.5,3-.7,4.1l.5.1a.77.77,0,0,1,.3.1c2.9.6,12.2,1.9,20.9,2.8h0a6.47,6.47,0,0,1,1,.2s0,5-1,6-14,3.5-24.3,0-4.8-17.8-4.8-17.8C51.7,338.1,45,318.5,39.7,308Z" transform="translate(-1.92 -118.07)" fill="none" stroke="#1d1d1b" stroke-linecap="round" stroke-linejoin="round" stroke-width="6"/><path d="M71.6,155.5c.3,1.8-2.5,2-2.5,2s-1-5-4.3-7.3c0,0,.8-2.5,2-1.8S71.3,153.7,71.6,155.5Z" transform="translate(-1.92 -118.07)" fill="none" stroke="#1d1d1b" stroke-linecap="round" stroke-linejoin="round" stroke-width="6"/><path d="M62.3,271.5c2,4,8,13.4,6,28a7,7,0,0,1-2.4,4.6l-.6-.7s.1-1.1.5-9.2c.5-11.3-7.6-21.3-7.6-21.3s-6.1,1.1-19.6,2.8c-12.4,1.5-18.1,1.1-23-.8l-2.9.3a30.7,30.7,0,0,0-2.6-2.5c-3.5-2.5,3.3-4.6,4.4-5-.9.3-5.5,2.1,2.1,4.5.6.2,1.3.3,2.1.5,11.2,1.7,38.6-3.5,38.6-3.5S60.3,267.5,62.3,271.5Z" transform="translate(-1.92 -118.07)" fill="none" stroke="#1d1d1b" stroke-linecap="round" stroke-linejoin="round" stroke-width="6"/><path d="M65.3,303.4l.6.7a9.77,9.77,0,0,1-4.1,1.9,72.73,72.73,0,0,1-13,2.2l-.2.1a68.08,68.08,0,0,0-5.8-9.6H41.5a11.16,11.16,0,0,0,4.6-3.5l-2.3-13-3.4-.1-9.6-.4L27,283.3l-3.2,1.4,2.9,9-2.8.9a48.52,48.52,0,0,0-11.2-19.3l2.9-.3c4.9,1.9,10.6,2.3,23,.8,13.5-1.6,19.6-2.8,19.6-2.8s8.1,10,7.6,21.3C65.5,302.3,65.4,303.4,65.3,303.4Z" transform="translate(-1.92 -118.07)" fill="none" stroke="#1d1d1b" stroke-linecap="round" stroke-linejoin="round" stroke-width="6"/><path d="M56.1,130.5l-3,.1a.77.77,0,0,0-.3-.1s-10,4-10.5,8.5,6.5,6.5,6.5,6.5-.5,5.8,2,9-7-5.3-10.5.3-7,16.3-3.8,24.8a3.1,3.1,0,0,1-2,4.3l-.6.3c-7.5-15.7-13.4-36.8-13.4-36.8s-7.3,4-7.5,0,13-17.3,16.8-19.3,16.5-6.3,19.5-6.8S55.1,127.7,56.1,130.5Z" transform="translate(-1.92 -118.07)" fill="none" stroke="#1d1d1b" stroke-linecap="round" stroke-linejoin="round" stroke-width="6"/><path d="M36.3,286.2l4-1.8.1-2.4,3.4.1,2.3,13a11.16,11.16,0,0,1-4.6,3.5c-.2.1-.5.2-.7.3-1.5.6-4,.3-6.4-.3a43.89,43.89,0,0,1-6.9-2.3l-.9-2.8-2.9-9,3.2-1.4.8,1.9Z" transform="translate(-1.92 -118.07)" fill="none" stroke="#1d1d1b" stroke-linecap="round" stroke-linejoin="round" stroke-width="6"/><polygon points="38.48 164.03 38.38 166.43 34.38 168.13 25.88 167.13 25.08 165.22 28.88 163.63 38.48 164.03" fill="none" stroke="#1d1d1b" stroke-linecap="round" stroke-linejoin="round" stroke-width="6"/><path d="M34.4,298.7l-.1.5a49.49,49.49,0,0,1,5.4,8.8,29.42,29.42,0,0,1-13.6-4.6c-.3-.2-.5-3.8-2.1-8.9l2.8-.9.9,2.8A28.25,28.25,0,0,0,34.4,298.7Z" transform="translate(-1.92 -118.07)" fill="none" stroke="#1d1d1b" stroke-linecap="round" stroke-linejoin="round" stroke-width="6"/><path d="M39.6,204s2.8-6.4,2.5-6.8A54.67,54.67,0,0,1,34,184c-7.5-15.7-13.4-36.8-13.4-36.8s-7.3,4-7.5,0,13-17.3,16.8-19.3,16.5-6.3,19.5-6.8,5.8,6.5,6.8,9.3" transform="translate(-1.92 -118.07)" fill="none" stroke="#1d1d1b" stroke-linecap="round" stroke-linejoin="round" stroke-width="6"/><path d="M76.3,182a11.22,11.22,0,0,0,3.8.6c4.8.1,10.4-2,13-2.4,3.3-.5,9.5-13-2.8-26.8-11.5-12.9-34.4-21.8-37.2-22.9a.77.77,0,0,0-.3-.1s-10,4-10.5,8.5,6.5,6.5,6.5,6.5-.5,5.8,2,9-7-5.3-10.5.3-7,16.3-3.8,24.8a3.1,3.1,0,0,1-2,4.3" transform="translate(-1.92 -118.07)" fill="none" stroke="#1d1d1b" stroke-linecap="round" stroke-linejoin="round" stroke-width="6"/><path d="M64.8,150.2s.8-2.5,2-1.8,4.5,5.3,4.8,7-2.5,2-2.5,2S68.1,152.5,64.8,150.2Z" transform="translate(-1.92 -118.07)" fill="none" stroke="#1d1d1b" stroke-linecap="round" stroke-linejoin="round" stroke-width="6"/><path d="M50.1,162.2s-3.5-5.3-6.5-3.8-3.8,7.3-2.8,10.8,5.5,10.5,9.8,11.3,5.3-.3,5.3-1" transform="translate(-1.92 -118.07)" fill="none" stroke="#1d1d1b" stroke-linecap="round" stroke-linejoin="round" stroke-width="6"/><path d="M80.1,182.7l1,6s-.6.5-1.5,1.1a14,14,0,0,1-8.2,2.4,55.86,55.86,0,0,1-9.5-1.3l-1.8-2s-2,2.5-1.3,3.8a10.52,10.52,0,0,0,5.5,4.3,57,57,0,0,0,12.8,1.8c.6,0,1.2-.1,1.8-.1a6.06,6.06,0,0,0,3.7-1.6,30,30,0,0,0-1.7,3.9c-1.3,2.5-1.9,3.5-5,3.6-4.4.2-9.7.7-14.2-.5a23.08,23.08,0,0,1-2.8-1" transform="translate(-1.92 -118.07)" fill="none" stroke="#1d1d1b" stroke-linecap="round" stroke-linejoin="round" stroke-width="6"/><line x1="59.68" y1="86.23" x2="57.68" y2="90.63" fill="none" stroke="#1d1d1b" stroke-linecap="round" stroke-linejoin="round" stroke-width="6"/><path d="M79.8,189.8s1.3,6.7-1,8.7h0" transform="translate(-1.92 -118.07)" fill="none" stroke="#1d1d1b" stroke-linecap="round" stroke-linejoin="round" stroke-width="6"/><path d="M209.1,486.5a24.43,24.43,0,0,0,5.4.2c9.3-.6,9-9.3,9-9.3l1-.3.3-7-3.3-3s-.5-.9-1.3-2.3a90.43,90.43,0,0,0-5.9-8.9c-3.8-4.8-9.8-5.8-16.5-5.3s-11.3-6.5-12.8-7.8-2.8-8.3-2.3-9c.1-.1.2-.4.4-.7,1.4-2.6,5.8-11,5.8-11l-.8-2.1c.5-.6.9-1.2,1.4-1.8,14.2-19.5,18.1-50.3,18.1-50.3.3-1.7.8-6.8,1.2-8.5s-4-5.3-6.7-7.3c-2.3-1.8-10.7-2.2-11.7-2.3h0c1.3,0,10-7,10.3-8.3a47.14,47.14,0,0,0,1-7c0-1.7-3-5-3.7-6s-8.7-2.3-8.7-2.3h-5.4a24,24,0,0,0,0-4.7c-.3-1-5-1.7-8.3-1.7s-10.3,4-12,5-8,6.7-9,7c-.2.1-.7.2-1.4.5-3.3,1-11,3.5-14.2,4.5-4,1.3-2.3,7.3-2.3,7.3l-16.7.7" transform="translate(-1.92 -118.07)" fill="none" stroke="#1d1d1b" stroke-linecap="round" stroke-linejoin="round" stroke-width="6"/><path d="M217.6,465h0c-.6-.4-9.7-6.7-25.2-8.8-9.5-1.3-14.7-6.7-16-9.7s-7.2-12.3-14.2-11.2c-3.9.7-5.8,3-6.5,5.3a7.57,7.57,0,0,0-.1,4.7c2.2,6.7,11.7,13.2,12.8,14.3l1,1" transform="translate(-1.92 -118.07)" fill="none" stroke="#1d1d1b" stroke-linecap="round" stroke-linejoin="round" stroke-width="6"/><path d="M155.6,440.6h0c1.5-5.1,3-12.2,7.5-15.4a6.7,6.7,0,0,1,2.1-1c5.5-1.5,12.6,4.1,15.7,7.6" transform="translate(-1.92 -118.07)" fill="none" stroke="#1d1d1b" stroke-linecap="round" stroke-linejoin="round" stroke-width="6"/><path d="M165.1,423.6l5.2-11.5a10,10,0,0,1,6-3.3,6.59,6.59,0,0,1,2.7.3c4.8,1.7,7.3,7,8,8" transform="translate(-1.92 -118.07)" fill="none" stroke="#1d1d1b" stroke-linecap="round" stroke-linejoin="round" stroke-width="6"/><path d="M176.2,408.8s12.3-18.9,13.5-22.2a187.76,187.76,0,0,0,6.5-22.2" transform="translate(-1.92 -118.07)" fill="none" stroke="#1d1d1b" stroke-linecap="round" stroke-linejoin="round" stroke-width="6"/><path d="M190.6,349.8h0c-.8.4-27.1,11.8-41,15.1-14.1,3.3-34.1,6.1-49.7,5.6s-31.8-3.3-32.5-3.1c-.4.1-2.4-1.4-4-3.1-1.2-1.3-2.2-2.7-2.2-3.5a11.55,11.55,0,0,0-.2-1.6,66.41,66.41,0,0,0-2.1-6.4" transform="translate(-1.92 -118.07)" fill="none" stroke="#1d1d1b" stroke-linecap="round" stroke-linejoin="round" stroke-width="6"/><path d="M184.3,326.5l-28.8,6.2a14.44,14.44,0,0,0-1.8.7c-3.9,1.6-12.5,5.6-8.7,9.9" transform="translate(-1.92 -118.07)" fill="none" stroke="#1d1d1b" stroke-linecap="round" stroke-linejoin="round" stroke-width="6"/><path d="M57.6,352.2h1.3c7.2,0,27.4-2.2,35.6-4.2a30.19,30.19,0,0,0,9.6-4.5,48.37,48.37,0,0,0,8.4-7.2l.1-.1" transform="translate(-1.92 -118.07)" fill="none" stroke="#1d1d1b" stroke-linecap="round" stroke-linejoin="round" stroke-width="6"/><polyline points="134.48 226.13 134.98 226.13 143.18 225.82 149.28 225.53" fill="none" stroke="#1d1d1b" stroke-linecap="round" stroke-linejoin="round" stroke-width="6"/><path d="M107,288.5l-5.1,3s8.7,10.3,9.7,19.3,3.3,18,3,19.7-2,4-2.3,5.3c-.1.3,0,.4.3.5.9.3,3.6-.7,4.4-.5,1,.3,1,2.3,1.7,4a36.69,36.69,0,0,1,1.1,5.1c.1.8.2,1.5.2,1.8v.1l9.7,2.7s14-3.3,17.7-4.3c.6-.2,1.9-.7,3.8-1.4.1,0,.1,0,.2-.1,9.7-3.8,32.3-13.5,32.3-13.5" transform="translate(-1.92 -118.07)" fill="none" stroke="#1d1d1b" stroke-linecap="round" stroke-linejoin="round" stroke-width="6"/><path d="M204.2,277.8l3.7,1.3,1.6-1.3,1.8-1.4,5.7-2.7s-.7-3.7.7-4,3.3-.7,5,.3,3.3,1.7,3.3,3a9.76,9.76,0,0,1-.7,3l-6,3.3,10-3L240,273l2.3,4.3L234,282l-9.7,4.7,10.7-3s4.3,3,2.7,5-8.3,3.7-8.3,3.7l-4,5.7-4.3,2.3-4.7-.7s-3,2.3-5.3,2.3-12.3-1-12.3-1l-5.7-4s-51.6,3.4-63.7,2.3c-3.6-.3-21.1-11-21.7-11.3h0l-.6.3" transform="translate(-1.92 -118.07)" fill="none" stroke="#1d1d1b" stroke-linecap="round" stroke-linejoin="round" stroke-width="6"/><path d="M19,272.3c-.1-.2-.2-.3-.3-.5-1.3-2.3-2.2-3.7-2.5-4.1,0,0-.1-.2-.3-.7-1.3-3.4-7.4-19.3-8.6-21.5C6,243,3.8,232.2,5.6,226s8.5-8.8,9.2-9.3,2.3-3.8,2.8-5.5a32.84,32.84,0,0,0,.7-5.3s4.8-2.7,21-.6a162.7,162.7,0,0,1,20,4c1.3.3,2.7.7,4.2,1.1l-.3,5s10.7,2.3,14.7,5.7,13,10,14,12,.7,3.7-.3,4.7,6.3,11.3,6.3,11.3l7.7,9.8,3.9,4.9,11.7,14.9-3,3,10,7,60.7.3a3.06,3.06,0,0,1,1-3.3c1.7-1.7,6.7-8.7,8-8.7a28.45,28.45,0,0,0,3.3-.3l2.9,1" transform="translate(-1.92 -118.07)" fill="none" stroke="#1d1d1b" stroke-linecap="round" stroke-linejoin="round" stroke-width="6"/><path d="M139.5,217c-.5,0-.1-7.2-.1-7.2s1-4.7-1.2-4.8-7.7.2-7.8,2.7a2.81,2.81,0,0,0,2.23,3.29h.07c.7,0,.2,5.7.2,5.7a52.26,52.26,0,0,0,.2,7.4,6.85,6.85,0,0,0,1.2,3.6c1.8,2-19.2,24.8-28.2,31" transform="translate(-1.92 -118.07)" fill="none" stroke="#1d1d1b" stroke-linecap="round" stroke-linejoin="round" stroke-width="6"/><path d="M109.4,264l.1-.1c1.8-1.9,28.5-28.9,31.7-33.2.5-.7,6.5-2.5,8.5-3.7s11-7.8,11.7-9.5a6.34,6.34,0,0,0-.2-4l2.7-3,2.5-15.7s-.5-2.7-1.8-2.2-3,.8-3,1.3-1,6.8-1,6.8l-1.6-.4-.4-.1v-6.7s-1.7-1.7-2.3-1.2-2.5,1.7-2.3,2.7-.7,8.3-.7,8.3l-1.7,8.7-1.3-.7s-.5-14.3-1-15.8-4.2-.8-4.3.7.3,9,.2,10.5.3,6.3-.3,7-2.5,3.2-2.5,3.2a8,8,0,0,0-2.7,0" transform="translate(-1.92 -118.07)" fill="none" stroke="#1d1d1b" stroke-linecap="round" stroke-linejoin="round" stroke-width="6"/><path d="M135.1,223.8s-.3-5.6,4.5-6.8h0" transform="translate(-1.92 -118.07)" fill="none" stroke="#1d1d1b" stroke-linecap="round" stroke-linejoin="round" stroke-width="6"/><path d="M138.2,225s2.8-7,13.5-8.2" transform="translate(-1.92 -118.07)" fill="none" stroke="#1d1d1b" stroke-linecap="round" stroke-linejoin="round" stroke-width="6"/><path d="M154.9,215.6c.5-1,2-3.5,2-5.2s-.2-9-.2-9a8,8,0,0,1,2.2-1.1,1.56,1.56,0,0,1,1.6.4c1.2,1.3.7,12.7.7,12.7" transform="translate(-1.92 -118.07)" fill="none" stroke="#1d1d1b" stroke-linecap="round" stroke-linejoin="round" stroke-width="6"/><polyline points="207.38 159.63 183.38 128.43 180.28 130.53 202.28 159.72 202.28 159.72 202.28 159.72" fill="none" stroke="#1d1d1b" stroke-linecap="round" stroke-linejoin="round" stroke-width="6"/><path d="M207.9,279.1c-.6.3-6.1,3.8-6.1,3.8" transform="translate(-1.92 -118.07)" fill="none" stroke="#1d1d1b" stroke-linecap="round" stroke-linejoin="round" stroke-width="6"/><line x1="227.28" y1="174.43" x2="219.78" y2="176.53" fill="none" stroke="#1d1d1b" stroke-linecap="round" stroke-linejoin="round" stroke-width="6"/><path d="M14.6,267.7h0c-1,.3-5.6,2.1,2,4.5.6.2,1.3.3,2.1.5,11.2,1.7,38.6-3.5,38.6-3.5s3-1.8,5,2.3,8,13.4,6,28a7,7,0,0,1-2.4,4.6,9.77,9.77,0,0,1-4.1,1.9,72.73,72.73,0,0,1-13,2.2" transform="translate(-1.92 -118.07)" fill="none" stroke="#1d1d1b" stroke-linecap="round" stroke-linejoin="round" stroke-width="6"/><path d="M39.8,308h0a29.42,29.42,0,0,1-13.7-4.6c-.3-.2-.5-3.8-2.1-8.9a48.52,48.52,0,0,0-11.2-19.3,30.7,30.7,0,0,0-2.6-2.5c-3.5-2.5,3.3-4.6,4.4-5" transform="translate(-1.92 -118.07)" fill="none" stroke="#1d1d1b" stroke-linecap="round" stroke-linejoin="round" stroke-width="6"/><path d="M65.3,303.2v.2s.1-1.1.5-9.2c.5-11.3-7.6-21.3-7.6-21.3s-6.1,1.1-19.6,2.8c-12.4,1.5-18.1,1.1-23-.8" transform="translate(-1.92 -118.07)" fill="none" stroke="#1d1d1b" stroke-linecap="round" stroke-linejoin="round" stroke-width="6"/><path d="M118.2,281.8s-5.3,3.3-10.7,6.4l-.6.3h0c-3.8,2.1-7.5,4-9.3,4.4-4.4.9-25.4-26.1-28.8-37.1" transform="translate(-1.92 -118.07)" fill="none" stroke="#1d1d1b" stroke-linecap="round" stroke-linejoin="round" stroke-width="6"/><path d="M60.3,255.1c.4-.3,8.5-2,11.8.1" transform="translate(-1.92 -118.07)" fill="none" stroke="#1d1d1b" stroke-linecap="round" stroke-linejoin="round" stroke-width="6"/><path d="M40.4,282.1l-9.6-.4L27,283.3l-3.2,1.4,2.9,9,.9,2.8a60.13,60.13,0,0,0,6.9,2.3c2.4.6,4.9.9,6.4.3.2-.1.5-.2.7-.3a11.16,11.16,0,0,0,4.6-3.5l-2.3-13Z" transform="translate(-1.92 -118.07)" fill="none" stroke="#1d1d1b" stroke-linecap="round" stroke-linejoin="round" stroke-width="6"/><polyline points="25.88 167.13 34.38 168.13 37.68 177.93" fill="none" stroke="#1d1d1b" stroke-linecap="round" stroke-linejoin="round" stroke-width="6"/><line x1="34.38" y1="168.13" x2="38.38" y2="166.43" fill="none" stroke="#1d1d1b" stroke-linecap="round" stroke-linejoin="round" stroke-width="6"/><path d="M54.3,377s.3-1.1.7-3.2c.2-1.1.5-2.5.7-4.1.2-1.3.4-2.7.6-4.3.5-3.8.8-8.2,1-13.2.3-13-1.4-29.3-8.6-43.9a68.08,68.08,0,0,0-5.8-9.6" transform="translate(-1.92 -118.07)" fill="none" stroke="#1d1d1b" stroke-linecap="round" stroke-linejoin="round" stroke-width="6"/><path d="M76.8,376.8c2.4.3,4.8.5,7,.7,8.7.6,21.1.2,32.2-.5l4.8-.3a15.76,15.76,0,0,0,2.8-.3c16.5-1.7,66.9-10,66.9-10l-.8-3.8s-53.6,10.3-86.8,11.3c-18.8.6-47-4.3-47-4.3" transform="translate(-1.92 -118.07)" fill="none" stroke="#1d1d1b" stroke-linecap="round" stroke-linejoin="round" stroke-width="6"/><path d="M76.8,376.8c-4.4-.6-21.2-3-21.2-2.9a.77.77,0,0,1,.3.1c2.8.6,12.2,1.9,20.9,2.8" transform="translate(-1.92 -118.07)" fill="none" stroke="#1d1d1b" stroke-linecap="round" stroke-linejoin="round" stroke-width="6"/><path d="M76.8,376.8h0" transform="translate(-1.92 -118.07)" fill="none" stroke="#1d1d1b" stroke-linecap="round" stroke-linejoin="round" stroke-width="6"/><path d="M34.3,299.2a49.49,49.49,0,0,1,5.4,8.8c5.3,10.5,12,30.1,8.1,57.2,0,0-5.5,14.3,4.8,17.8s23.3,1,24.3,0,1-6,1-6a3.5,3.5,0,0,1-1-.2" transform="translate(-1.92 -118.07)" fill="none" stroke="#1d1d1b" stroke-linecap="round" stroke-linejoin="round" stroke-width="6"/><line x1="54.78" y1="247.43" x2="61.18" y2="246.43" fill="none" stroke="#1d1d1b" stroke-linecap="round" stroke-linejoin="round" stroke-width="6"/><path d="M205.4,361s-7.7,4.8-8.3,3.5c-.1-.1-.1-.3-.2-.4-.5-1.2-.8-2.4-7.1-1.4" transform="translate(-1.92 -118.07)" fill="none" stroke="#1d1d1b" stroke-linecap="round" stroke-linejoin="round" stroke-width="6"/><path d="M123.7,377.1s2.2,23.7,2.2,25.7c0,.5,2,.3,2,.3a112.72,112.72,0,0,1-13.7,44.2" transform="translate(-1.92 -118.07)" fill="none" stroke="#1d1d1b" stroke-linecap="round" stroke-linejoin="round" stroke-width="6"/><path d="M116.1,377.8s3.6,19.9,1.3,24.3a.52.52,0,0,1-.4.2,10.27,10.27,0,0,1-3.2-.4s-2.3,28.2-13.5,44.7" transform="translate(-1.92 -118.07)" fill="none" stroke="#1d1d1b" stroke-linecap="round" stroke-linejoin="round" stroke-width="6"/><path d="M119.9,403h0c0,.1,1,.2,3.3.1" transform="translate(-1.92 -118.07)" fill="none" stroke="#1d1d1b" stroke-linecap="round" stroke-linejoin="round" stroke-width="6"/><path d="M114.3,463.4c36.1,1.7,62.6,11.3,71.1,14.8a13,13,0,1,0,23.4,8.3V486a12.78,12.78,0,0,0-3.4-8.7,2.55,2.55,0,0,0-.9-.9,12.58,12.58,0,0,0-5.7-3,273.33,273.33,0,0,0-29.4-12.6h0c-20.3-7.3-38.7-11.1-55.2-12.4-4.8-.4-9.4-.6-13.9-.6-57,0-87.2,29-87.2,29h.1A12.84,12.84,0,0,0,9.4,486a13,13,0,1,0,20.4-10.7,224.2,224.2,0,0,1,69.6-12.1" transform="translate(-1.92 -118.07)" fill="none" stroke="#1d1d1b" stroke-linecap="round" stroke-linejoin="round" stroke-width="6"/><path d="M114.2,463.4c.1-3.7,0-6.6-.4-7.4-1.5-3-12-3.5-14.3-.5a65.7,65.7,0,0,0-.1,7.7c.1,6.1.3,14.5.8,19.3a5.07,5.07,0,0,0-.2,1.3v15.8a4,4,0,0,0,4,4h5a4,4,0,0,0,4-4V483.8a2.77,2.77,0,0,0-.1-.9C113.4,477.8,114.1,469.5,114.2,463.4Z" transform="translate(-1.92 -118.07)" fill="none" stroke="#1d1d1b" stroke-linecap="round" stroke-linejoin="round" stroke-width="6"/><line x1="110.38" y1="371.93" x2="101.88" y2="371.93" fill="none" stroke="#1d1d1b" stroke-linecap="round" stroke-linejoin="round" stroke-width="6"/><path d="M14.9,216.8s20.3-4.3,33-1.7" transform="translate(-1.92 -118.07)" fill="none" stroke="#1d1d1b" stroke-linecap="round" stroke-linejoin="round" stroke-width="6"/><path d="M63.1,215.5s-12-2-15.5,12.3" transform="translate(-1.92 -118.07)" fill="none" stroke="#1d1d1b" stroke-linecap="round" stroke-linejoin="round" stroke-width="6"/><path d="M119.1,346.7s-9,8.3-18.8,9.8-34.1,3.5-39.4,2.8h-.1" transform="translate(-1.92 -118.07)" fill="none" stroke="#1d1d1b" stroke-linecap="round" stroke-linejoin="round" stroke-width="6"/><path d="M104.1,343.5s1.5-3,.8-8.5" transform="translate(-1.92 -118.07)" fill="none" stroke="#1d1d1b" stroke-linecap="round" stroke-linejoin="round" stroke-width="6"/><path d="M102.3,344.2s-6.3-1-7.5-5.5" transform="translate(-1.92 -118.07)" fill="none" stroke="#1d1d1b" stroke-linecap="round" stroke-linejoin="round" stroke-width="6"/><path d="M129.2,299.5s3.1-2.3,3.3-4" transform="translate(-1.92 -118.07)" fill="none" stroke="#1d1d1b" stroke-linecap="round" stroke-linejoin="round" stroke-width="6"/><path d="M207.9,279.1l1.6-1.3,1.8-1.4,5.7-2.7s-.7-3.7.7-4,3.3-.7,5,.3,3.3,1.7,3.3,3a9.76,9.76,0,0,1-.7,3l-6,3.3,10-3L240,273l2.3,4.3L234,282l-9.7,4.7,10.7-3s4.3,3,2.7,5-8.3,3.7-8.3,3.7l-4,5.7-4.3,2.3-4.7-.7s-3,2.3-5.3,2.3-12.3-1-12.3-1l-5.7-4s-51.6,3.4-63.7,2.3c-3.6-.3-21.1-11-21.7-11.3,5.3-3,10.7-6.4,10.7-6.4l10,7,60.7.3a3.06,3.06,0,0,1,1-3.3c1.7-1.7,6.7-8.7,8-8.7a28.45,28.45,0,0,0,3.3-.3l2.9,1h0Z" transform="translate(-1.92 -118.07)" fill="#edd7b9"/><path d="M217.5,464.9h2.7c.8,1.4,1.3,2.3,1.3,2.3l3.3,3-.3,7-1,.3s.3,8.6-9,9.3a32.52,32.52,0,0,1-5.4-.2h-.3v-.5a12.78,12.78,0,0,0-3.4-8.7,2.55,2.55,0,0,0-.9-.9,12.58,12.58,0,0,0-5.7-3,273.33,273.33,0,0,0-29.4-12.6h0a8.37,8.37,0,0,0-1-1c-1.2-1.2-10.7-7.7-12.8-14.3a9.41,9.41,0,0,1,.1-4.7,7.55,7.55,0,0,1,6.5-5.3c7-1.2,12.8,8.2,14.2,11.2s6.5,8.4,16,9.7C207.9,458.2,217,464.6,217.5,464.9Z" transform="translate(-1.92 -118.07)" fill="#333435"/><path d="M220.3,464.9h-2.7c-.5-.4-9.6-6.7-25.1-8.8-9.5-1.3-14.7-6.7-16-9.7s-7.2-12.3-14.2-11.2c-3.9.7-5.8,3-6.5,5.3h-.1c1.5-5,3-12.1,7.5-15.4a6.7,6.7,0,0,1,2.1-1c5.5-1.5,12.6,4.1,15.7,7.6l2.3,1.4a3.22,3.22,0,0,1-.4.7c-.5.8.8,7.8,2.3,9s6,8.3,12.8,7.8,12.8.5,16.5,5.3C216.7,458.9,218.9,462.6,220.3,464.9Z" transform="translate(-1.92 -118.07)" fill="#725533"/><polygon points="207.38 159.63 207.58 159.82 205.98 161.03 202.28 159.72 202.28 159.72 180.28 130.53 183.38 128.43 207.38 159.63" fill="#543919"/><path d="M196.9,364.1c-.5-1.2-.8-2.4-7.1-1.4,0,0-53.6,10.3-86.8,11.3-18.8.6-47-4.3-47-4.3h-.3c.2-1.3.4-2.7.6-4.3l.4.1,6.3-1,.3-.1c1.6,1.7,3.5,3.3,4,3.1.8-.3,16.9,2.6,32.5,3.1s35.6-2.3,49.7-5.6c13.9-3.3,40.2-14.8,41-15.1,1,.1,9.3.6,11.7,2.3,2.7,2,7,5.7,6.7,7.3s-.8,6.8-1.2,8.5c0,0-3.9,30.8-18.1,50.3l-2.8-1.2c-.7-1-3.2-6.3-8-8a6.26,6.26,0,0,0-2.7-.3h0s12.3-18.9,13.5-22.2a187.76,187.76,0,0,0,6.5-22.2Z" transform="translate(-1.92 -118.07)" fill="#496672"/><path d="M208.8,486v.5a13,13,0,1,1-26-.5,13.28,13.28,0,0,1,2.6-7.8c-8.5-3.5-35-13.1-71.1-14.8h-.1c.1-3.7,0-6.6-.4-7.4-1.5-3-12-3.5-14.3-.5a65.7,65.7,0,0,0-.1,7.7h-.2a224.2,224.2,0,0,0-69.6,12.1A13,13,0,1,1,13,476.8h-.1s30.2-29,87.2-29c4.5,0,9.1.2,13.9.6,16.5,1.3,34.9,5.1,55.2,12.4h0a295.06,295.06,0,0,1,29.4,12.6,13,13,0,0,1,5.7,3,1.91,1.91,0,0,1,.9.9A12.08,12.08,0,0,1,208.8,486Z" transform="translate(-1.92 -118.07)" fill="#333435"/><path d="M151.2,343.7h0l-6.2.2v-.7c-3.8-4.3,4.8-8.4,8.7-9.9,1.1-.4,1.8-.7,1.8-.7l28.8-6.2v-.3h5.3s8,1.3,8.7,2.3,3.7,4.3,3.7,6a47.14,47.14,0,0,1-1,7c-.3,1.3-9,8.3-10.3,8.3h0c-.8.4-27.1,11.8-41,15.1-14.1,3.3-34.1,6.1-49.7,5.6s-31.8-3.3-32.5-3.1c-.4.1-2.4-1.4-4-3.1-1.2-1.3-2.2-2.7-2.2-3.5a11.55,11.55,0,0,0-.2-1.6c5.3.7,29.7-1.3,39.4-2.8s18.8-9.8,18.8-9.8l.8-.1v.1l9.7,2.7s14-3.3,17.7-4.3c.6-.2,1.9-.7,3.8-1.4C151.1,343.7,151.2,343.7,151.2,343.7Z" transform="translate(-1.92 -118.07)" fill="#496672"/><path d="M189.8,362.7l.8,3.8s-50.4,8.3-66.9,10c-1.1.1-2.1.2-2.8.3l-4.8.3c-11.1.6-23.5,1.1-32.2.5-2.2-.2-4.6-.4-7-.7h0c-4.4-.6-21.2-3-21.2-2.9l-.7-.2c.2-1.1.5-2.5.7-4.1H56s28.2,4.8,47,4.3C136.2,373,189.8,362.7,189.8,362.7Z" transform="translate(-1.92 -118.07)" fill="#333435"/><path d="M189.6,418.3c-.5.6-.9,1.3-1.4,1.8l.8,2.1s-4.4,8.4-5.8,11l-2.3-1.4c-3.1-3.5-10.2-9.1-15.7-7.6l-.2-.6,5.2-11.5a10,10,0,0,1,6-3.3,6.59,6.59,0,0,1,2.7.3c4.8,1.7,7.3,7,8,8Z" transform="translate(-1.92 -118.07)" fill="#496672"/><path d="M184.3,326.1v.3l-28.8,6.2a14.44,14.44,0,0,0-1.8.7l-.3-1a6.24,6.24,0,0,0,1.4-.5c1-.3,7.3-6,9-7s8.7-5,12-5,8,.7,8.3,1.7c.5,1,.1,4.6.2,4.6Z" transform="translate(-1.92 -118.07)" fill="#725533"/><path d="M166.4,194.8l-2.5,15.7-2.7,3s.5-11.3-.7-12.7c0,0,1-6.3,1-6.8s1.7-.8,3-1.3S166.4,194.8,166.4,194.8Z" transform="translate(-1.92 -118.07)" fill="#edd7b9"/><path d="M159,200.4l1.6.4c1.2,1.3.7,12.7.7,12.7a7.21,7.21,0,0,1,.2,4c-.7,1.7-9.7,8.3-11.7,9.5s-8,3-8.5,3.7c-3.3,4.4-29.9,31.4-31.7,33.2l-3.9-4.9.4-.3c9-6.2,30-29,28.2-31a6.85,6.85,0,0,1-1.2-3.6l2-.2s-.3-5.6,4.5-6.8h0a8,8,0,0,1,2.7,0s1.8-2.5,2.5-3.2.2-5.5.3-7-.3-9-.2-10.5,3.8-2.2,4.3-.7,1,15.8,1,15.8l1.3.7,1.7-8.7s.8-7.3.7-8.3,1.7-2.2,2.3-2.7,2.3,1.2,2.3,1.2v6.7Z" transform="translate(-1.92 -118.07)" fill="#edd7b9"/><path d="M153.5,332.3l.3,1c-3.9,1.6-12.5,5.6-8.7,9.9v.7l-8.2.3v-.1s-1.7-6,2.3-7.3C142.5,335.7,150.2,333.3,153.5,332.3Z" transform="translate(-1.92 -118.07)" fill="#725533"/><path d="M136.9,344.2l8.2-.3,6.1-.2h0c-.1,0-.1,0-.2.1-1.9.7-3.2,1.2-3.8,1.4-3.7,1-17.7,4.3-17.7,4.3l-9.7-2.7v-.1c0-.3-.1-.9-.2-1.8l.6-.1,16.7-.6Z" transform="translate(-1.92 -118.07)" fill="#496672"/><path d="M138.2,205c2.2.2,1.2,4.8,1.2,4.8s-.3,7.2.1,7.2c-4.8,1.2-4.5,6.8-4.5,6.8l-2,.2a52.26,52.26,0,0,1-.2-7.4s.5-5.7-.2-5.7-2.5-.8-2.3-3.3S136.1,204.8,138.2,205Z" transform="translate(-1.92 -118.07)" fill="#edd7b9"/><path d="M125.9,402.8c0,.5,2,.3,2,.3a112.72,112.72,0,0,1-13.7,44.2l-.1,1c-4.8-.4-9.4-.6-13.9-.6v-1c11.2-16.5,13.5-44.7,13.5-44.7a10.79,10.79,0,0,0,3.2.4l2.9.6c0,.1,1,.2,3.3.1Z" transform="translate(-1.92 -118.07)" fill="#333435"/><path d="M119.9,403l-2.9-.6c.2,0,.4-.1.4-.2,2.2-4.5-1.3-24.3-1.3-24.3v-.8l4.8-.3a15.76,15.76,0,0,0,2.8-.3l.1.7s2.2,23.7,2.2,25.7l-2.7.3A19.85,19.85,0,0,1,119.9,403Z" transform="translate(-1.92 -118.07)" fill="#333435"/><path d="M104.1,343.5a30.19,30.19,0,0,1-9.6,4.5c-8.2,2-28.5,4.2-35.6,4.2H57.3c.3-13-1.4-29.3-8.6-43.9l.2-.1a72.73,72.73,0,0,0,13-2.2,8.6,8.6,0,0,0,4.1-1.9,7.27,7.27,0,0,0,2.4-4.6c2-14.6-4-24-6-28s-5-2.3-5-2.3-27.4,5.2-38.6,3.5l.1-.8c-1.3-2.3-2.2-3.7-2.5-4.1,0,0-.1-.2-.3-.7-1.3-3.4-7.4-19.3-8.6-21.5-1.3-2.5-3.5-13.3-1.7-19.5s8.5-8.8,9.2-9.3,2.3-3.8,2.8-5.5a32.84,32.84,0,0,0,.7-5.3s4.8-2.7,21-.6a162.7,162.7,0,0,1,20,4c1.3.3,2.7.7,4.2,1.1l-.3,5s10.7,2.3,14.7,5.7,13,10,14,12,.7,3.7-.3,4.7,6.3,11.3,6.3,11.3l7.7,9.8,3.9,4.9,11.7,14.9-3,3s-5.3,3.3-10.7,6.4h0l-.6.3h0l-5.1,3s8.7,10.3,9.7,19.3,3.3,18,3,19.7-2,4-2.3,5.3c-.1.3,0,.4.3.5A89.19,89.19,0,0,1,104.1,343.5Z" transform="translate(-1.92 -118.07)" fill="#abbdf4"/><path d="M119.9,346.7l-.8.1s-9,8.3-18.8,9.8-34.1,3.5-39.4,2.8a66.41,66.41,0,0,0-2.1-6.4v-.6c7.2,0,27.4-2.2,35.6-4.2a30.19,30.19,0,0,0,9.6-4.5,48.37,48.37,0,0,0,8.4-7.2c.9.3,3.6-.7,4.4-.5,1,.3,1,2.3,1.7,4a36.69,36.69,0,0,1,1.1,5.1C119.8,345.7,119.8,346.4,119.9,346.7Z" transform="translate(-1.92 -118.07)" fill="#333435"/><path d="M113.8,456c.4.8.5,3.7.4,7.4-.2,6.1-.8,14.4-1.3,19.5a2.77,2.77,0,0,1,.1.9v15.8a4,4,0,0,1-4,4h-5a4,4,0,0,1-4-4V483.8a5.07,5.07,0,0,1,.2-1.3c-.5-4.8-.8-13.1-.8-19.3a65.7,65.7,0,0,1,.1-7.7C101.8,452.5,112.3,453,113.8,456Z" transform="translate(-1.92 -118.07)" fill="#333435"/><path d="M78.8,198.6a6.06,6.06,0,0,0,3.7-1.6,30,30,0,0,0-1.7,3.9c-1.3,2.5-1.9,3.5-5,3.6-4.4.2-9.7.7-14.2-.5l-.1.3-2,4.4-.2.7a188.91,188.91,0,0,0-20-4l.2-1.4s2.8-6.4,2.5-6.8A54.67,54.67,0,0,1,33.9,184l.6-.3a3.1,3.1,0,0,0,2-4.3c-3.2-8.4.3-19.3,3.8-24.8s13,3,10.5-.3-2-9-2-9-7-2-6.5-6.5,10.5-8.5,10.5-8.5a.77.77,0,0,1,.3.1c2.8,1.1,25.7,10,37.2,22.9,12.3,13.8,6,26.3,2.8,26.8-2.6.4-8.2,2.5-13,2.4v.1l1,6s-.6.5-1.5,1.1a14,14,0,0,1-8.2,2.4,55.86,55.86,0,0,1-9.5-1.3l-1.8-2s-2,2.5-1.3,3.8a10.52,10.52,0,0,0,5.5,4.3,57,57,0,0,0,12.8,1.8A9.15,9.15,0,0,0,78.8,198.6Zm-9.7-41.1s2.8-.3,2.5-2-3.5-6.3-4.8-7-2,1.8-2,1.8C68.1,152.5,69.1,157.5,69.1,157.5Z" transform="translate(-1.92 -118.07)" fill="#edd7b9"/><path d="M79.8,189.8s1.3,6.7-1,8.7a9.72,9.72,0,0,1-1.8.1,51.76,51.76,0,0,1-12.8-1.8,10.52,10.52,0,0,1-5.5-4.3c-.7-1.3,1.3-3.8,1.3-3.8l1.8,2a55.86,55.86,0,0,0,9.5,1.3,14,14,0,0,0,8.2-2.4Z" transform="translate(-1.92 -118.07)" fill="#fff"/><path d="M39.7,308a49.49,49.49,0,0,0-5.4-8.8l.1-.5c2.4.6,4.9.9,6.4.3.2-.1.5-.2.7-.3h1.3a68.08,68.08,0,0,1,5.8,9.6c7.3,14.6,8.9,30.9,8.6,43.9a118.9,118.9,0,0,1-1,13.2c-.2,1.6-.4,3-.6,4.3-.3,1.6-.5,3-.7,4.1l.5.1a.77.77,0,0,1,.3.1c2.9.6,12.2,1.9,20.9,2.8h0a6.47,6.47,0,0,1,1,.2s0,5-1,6-14,3.5-24.3,0-4.8-17.8-4.8-17.8C51.7,338.1,45,318.5,39.7,308Z" transform="translate(-1.92 -118.07)" fill="#333435"/><path d="M71.6,155.5c.3,1.8-2.5,2-2.5,2s-1-5-4.3-7.3c0,0,.8-2.5,2-1.8S71.3,153.7,71.6,155.5Z" transform="translate(-1.92 -118.07)" fill="#020202"/><path d="M62.3,271.5c2,4,8,13.4,6,28a7,7,0,0,1-2.4,4.6l-.6-.7s.1-1.1.5-9.2c.5-11.3-7.6-21.3-7.6-21.3s-6.1,1.1-19.6,2.8c-12.4,1.5-18.1,1.1-23-.8l-2.9.3a30.7,30.7,0,0,0-2.6-2.5c-3.5-2.5,3.3-4.6,4.4-5-.9.3-5.5,2.1,2.1,4.5.6.2,1.3.3,2.1.5,11.2,1.7,38.6-3.5,38.6-3.5S60.3,267.5,62.3,271.5Z" transform="translate(-1.92 -118.07)" fill="#333435"/><path d="M65.3,303.4l.6.7a9.77,9.77,0,0,1-4.1,1.9,72.73,72.73,0,0,1-13,2.2l-.2.1a68.08,68.08,0,0,0-5.8-9.6H41.5a11.16,11.16,0,0,0,4.6-3.5l-2.3-13-3.4-.1-9.6-.4L27,283.3l-3.2,1.4,2.9,9-2.8.9a48.52,48.52,0,0,0-11.2-19.3l2.9-.3c4.9,1.9,10.6,2.3,23,.8,13.5-1.6,19.6-2.8,19.6-2.8s8.1,10,7.6,21.3C65.5,302.3,65.4,303.4,65.3,303.4Z" transform="translate(-1.92 -118.07)" fill="#333435"/><path d="M56.1,130.5l-3,.1a.77.77,0,0,0-.3-.1s-10,4-10.5,8.5,6.5,6.5,6.5,6.5-.5,5.8,2,9-7-5.3-10.5.3-7,16.3-3.8,24.8a3.1,3.1,0,0,1-2,4.3l-.6.3c-7.5-15.7-13.4-36.8-13.4-36.8s-7.3,4-7.5,0,13-17.3,16.8-19.3,16.5-6.3,19.5-6.8S55.1,127.7,56.1,130.5Z" transform="translate(-1.92 -118.07)" fill="#543919"/><path d="M36.3,286.2l4-1.8.1-2.4,3.4.1,2.3,13a11.16,11.16,0,0,1-4.6,3.5c-.2.1-.5.2-.7.3-1.5.6-4,.3-6.4-.3a43.89,43.89,0,0,1-6.9-2.3l-.9-2.8-2.9-9,3.2-1.4.8,1.9Z" transform="translate(-1.92 -118.07)" fill="#333435"/><polygon points="38.48 164.03 38.38 166.43 34.38 168.13 25.88 167.13 25.08 165.22 28.88 163.63 38.48 164.03" fill="#333435"/><path d="M34.4,298.7l-.1.5a49.49,49.49,0,0,1,5.4,8.8,29.42,29.42,0,0,1-13.6-4.6c-.3-.2-.5-3.8-2.1-8.9l2.8-.9.9,2.8A28.25,28.25,0,0,0,34.4,298.7Z" transform="translate(-1.92 -118.07)" fill="#333435"/><path d="M39.6,204s2.8-6.4,2.5-6.8A54.67,54.67,0,0,1,34,184c-7.5-15.7-13.4-36.8-13.4-36.8s-7.3,4-7.5,0,13-17.3,16.8-19.3,16.5-6.3,19.5-6.8,5.8,6.5,6.8,9.3" transform="translate(-1.92 -118.07)" fill="none" stroke="#000" stroke-linecap="round" stroke-linejoin="round" stroke-width="2"/><path d="M76.3,182a11.22,11.22,0,0,0,3.8.6c4.8.1,10.4-2,13-2.4,3.3-.5,9.5-13-2.8-26.8-11.5-12.9-34.4-21.8-37.2-22.9a.77.77,0,0,0-.3-.1s-10,4-10.5,8.5,6.5,6.5,6.5,6.5-.5,5.8,2,9-7-5.3-10.5.3-7,16.3-3.8,24.8a3.1,3.1,0,0,1-2,4.3" transform="translate(-1.92 -118.07)" fill="none" stroke="#000" stroke-linecap="round" stroke-linejoin="round" stroke-width="2"/><path d="M64.8,150.2s.8-2.5,2-1.8,4.5,5.3,4.8,7-2.5,2-2.5,2S68.1,152.5,64.8,150.2Z" transform="translate(-1.92 -118.07)" fill="none" stroke="#000" stroke-linecap="round" stroke-linejoin="round" stroke-width="2"/><path d="M50.1,162.2s-3.5-5.3-6.5-3.8-3.8,7.3-2.8,10.8,5.5,10.5,9.8,11.3,5.3-.3,5.3-1" transform="translate(-1.92 -118.07)" fill="none" stroke="#000" stroke-linecap="round" stroke-linejoin="round" stroke-width="2"/><path d="M80.1,182.7l1,6s-.6.5-1.5,1.1a14,14,0,0,1-8.2,2.4,55.86,55.86,0,0,1-9.5-1.3l-1.8-2s-2,2.5-1.3,3.8a10.52,10.52,0,0,0,5.5,4.3,57,57,0,0,0,12.8,1.8c.6,0,1.2-.1,1.8-.1a6.06,6.06,0,0,0,3.7-1.6,30,30,0,0,0-1.7,3.9c-1.3,2.5-1.9,3.5-5,3.6-4.4.2-9.7.7-14.2-.5a23.08,23.08,0,0,1-2.8-1" transform="translate(-1.92 -118.07)" fill="none" stroke="#000" stroke-linecap="round" stroke-linejoin="round" stroke-width="2"/><line x1="59.68" y1="86.23" x2="57.68" y2="90.63" fill="none" stroke="#000" stroke-linecap="round" stroke-linejoin="round" stroke-width="2"/><path d="M79.8,189.8s1.3,6.7-1,8.7h0" transform="translate(-1.92 -118.07)" fill="none" stroke="#000" stroke-linecap="round" stroke-linejoin="round" stroke-width="2"/><path d="M209.1,486.5a24.43,24.43,0,0,0,5.4.2c9.3-.6,9-9.3,9-9.3l1-.3.3-7-3.3-3s-.5-.9-1.3-2.3a90.43,90.43,0,0,0-5.9-8.9c-3.8-4.8-9.8-5.8-16.5-5.3s-11.3-6.5-12.8-7.8-2.8-8.3-2.3-9c.1-.1.2-.4.4-.7,1.4-2.6,5.8-11,5.8-11l-.8-2.1c.5-.6.9-1.2,1.4-1.8,14.2-19.5,18.1-50.3,18.1-50.3.3-1.7.8-6.8,1.2-8.5s-4-5.3-6.7-7.3c-2.3-1.8-10.7-2.2-11.7-2.3h0c1.3,0,10-7,10.3-8.3a47.14,47.14,0,0,0,1-7c0-1.7-3-5-3.7-6s-8.7-2.3-8.7-2.3h-5.4a24,24,0,0,0,0-4.7c-.3-1-5-1.7-8.3-1.7s-10.3,4-12,5-8,6.7-9,7c-.2.1-.7.2-1.4.5-3.3,1-11,3.5-14.2,4.5-4,1.3-2.3,7.3-2.3,7.3l-16.7.7" transform="translate(-1.92 -118.07)" fill="none" stroke="#000" stroke-linecap="round" stroke-linejoin="round" stroke-width="2"/><path d="M217.6,465h0c-.6-.4-9.7-6.7-25.2-8.8-9.5-1.3-14.7-6.7-16-9.7s-7.2-12.3-14.2-11.2c-3.9.7-5.8,3-6.5,5.3a7.57,7.57,0,0,0-.1,4.7c2.2,6.7,11.7,13.2,12.8,14.3l1,1" transform="translate(-1.92 -118.07)" fill="none" stroke="#000" stroke-linecap="round" stroke-linejoin="round" stroke-width="2"/><path d="M155.6,440.6h0c1.5-5.1,3-12.2,7.5-15.4a6.7,6.7,0,0,1,2.1-1c5.5-1.5,12.6,4.1,15.7,7.6" transform="translate(-1.92 -118.07)" fill="none" stroke="#000" stroke-linecap="round" stroke-linejoin="round" stroke-width="2"/><path d="M165.1,423.6l5.2-11.5a10,10,0,0,1,6-3.3,6.59,6.59,0,0,1,2.7.3c4.8,1.7,7.3,7,8,8" transform="translate(-1.92 -118.07)" fill="none" stroke="#000" stroke-linecap="round" stroke-linejoin="round" stroke-width="2"/><path d="M176.2,408.8s12.3-18.9,13.5-22.2a187.76,187.76,0,0,0,6.5-22.2" transform="translate(-1.92 -118.07)" fill="none" stroke="#000" stroke-linecap="round" stroke-linejoin="round" stroke-width="2"/><path d="M190.6,349.8h0c-.8.4-27.1,11.8-41,15.1-14.1,3.3-34.1,6.1-49.7,5.6s-31.8-3.3-32.5-3.1c-.4.1-2.4-1.4-4-3.1-1.2-1.3-2.2-2.7-2.2-3.5a11.55,11.55,0,0,0-.2-1.6,66.41,66.41,0,0,0-2.1-6.4" transform="translate(-1.92 -118.07)" fill="none" stroke="#000" stroke-linecap="round" stroke-linejoin="round" stroke-width="2"/><path d="M184.3,326.5l-28.8,6.2a14.44,14.44,0,0,0-1.8.7c-3.9,1.6-12.5,5.6-8.7,9.9" transform="translate(-1.92 -118.07)" fill="none" stroke="#000" stroke-linecap="round" stroke-linejoin="round" stroke-width="2"/><path d="M57.6,352.2h1.3c7.2,0,27.4-2.2,35.6-4.2a30.19,30.19,0,0,0,9.6-4.5,48.37,48.37,0,0,0,8.4-7.2l.1-.1" transform="translate(-1.92 -118.07)" fill="none" stroke="#000" stroke-linecap="round" stroke-linejoin="round" stroke-width="2"/><polyline points="134.48 226.13 134.98 226.13 143.18 225.82 149.28 225.53" fill="none" stroke="#000" stroke-linecap="round" stroke-linejoin="round" stroke-width="2"/><path d="M107,288.5l-5.1,3s8.7,10.3,9.7,19.3,3.3,18,3,19.7-2,4-2.3,5.3c-.1.3,0,.4.3.5.9.3,3.6-.7,4.4-.5,1,.3,1,2.3,1.7,4a36.69,36.69,0,0,1,1.1,5.1c.1.8.2,1.5.2,1.8v.1l9.7,2.7s14-3.3,17.7-4.3c.6-.2,1.9-.7,3.8-1.4.1,0,.1,0,.2-.1,9.7-3.8,32.3-13.5,32.3-13.5" transform="translate(-1.92 -118.07)" fill="none" stroke="#000" stroke-linecap="round" stroke-linejoin="round" stroke-width="2"/><path d="M204.2,277.8l3.7,1.3,1.6-1.3,1.8-1.4,5.7-2.7s-.7-3.7.7-4,3.3-.7,5,.3,3.3,1.7,3.3,3a9.76,9.76,0,0,1-.7,3l-6,3.3,10-3L240,273l2.3,4.3L234,282l-9.7,4.7,10.7-3s4.3,3,2.7,5-8.3,3.7-8.3,3.7l-4,5.7-4.3,2.3-4.7-.7s-3,2.3-5.3,2.3-12.3-1-12.3-1l-5.7-4s-51.6,3.4-63.7,2.3c-3.6-.3-21.1-11-21.7-11.3h0l-.6.3" transform="translate(-1.92 -118.07)" fill="none" stroke="#000" stroke-linecap="round" stroke-linejoin="round" stroke-width="2"/><path d="M19,272.3c-.1-.2-.2-.3-.3-.5-1.3-2.3-2.2-3.7-2.5-4.1,0,0-.1-.2-.3-.7-1.3-3.4-7.4-19.3-8.6-21.5C6,243,3.8,232.2,5.6,226s8.5-8.8,9.2-9.3,2.3-3.8,2.8-5.5a32.84,32.84,0,0,0,.7-5.3s4.8-2.7,21-.6a162.7,162.7,0,0,1,20,4c1.3.3,2.7.7,4.2,1.1l-.3,5s10.7,2.3,14.7,5.7,13,10,14,12,.7,3.7-.3,4.7,6.3,11.3,6.3,11.3l7.7,9.8,3.9,4.9,11.7,14.9-3,3,10,7,60.7.3a3.06,3.06,0,0,1,1-3.3c1.7-1.7,6.7-8.7,8-8.7a28.45,28.45,0,0,0,3.3-.3l2.9,1" transform="translate(-1.92 -118.07)" fill="none" stroke="#000" stroke-linecap="round" stroke-linejoin="round" stroke-width="2"/><path d="M139.5,217c-.5,0-.1-7.2-.1-7.2s1-4.7-1.2-4.8-7.7.2-7.8,2.7a2.81,2.81,0,0,0,2.23,3.29h.07c.7,0,.2,5.7.2,5.7a52.26,52.26,0,0,0,.2,7.4,6.85,6.85,0,0,0,1.2,3.6c1.8,2-19.2,24.8-28.2,31" transform="translate(-1.92 -118.07)" fill="none" stroke="#000" stroke-linecap="round" stroke-linejoin="round" stroke-width="2"/><path d="M109.4,264l.1-.1c1.8-1.9,28.5-28.9,31.7-33.2.5-.7,6.5-2.5,8.5-3.7s11-7.8,11.7-9.5a6.34,6.34,0,0,0-.2-4l2.7-3,2.5-15.7s-.5-2.7-1.8-2.2-3,.8-3,1.3-1,6.8-1,6.8l-1.6-.4-.4-.1v-6.7s-1.7-1.7-2.3-1.2-2.5,1.7-2.3,2.7-.7,8.3-.7,8.3l-1.7,8.7-1.3-.7s-.5-14.3-1-15.8-4.2-.8-4.3.7.3,9,.2,10.5.3,6.3-.3,7-2.5,3.2-2.5,3.2a8,8,0,0,0-2.7,0" transform="translate(-1.92 -118.07)" fill="none" stroke="#000" stroke-linecap="round" stroke-linejoin="round" stroke-width="2"/><path d="M135.1,223.8s-.3-5.6,4.5-6.8h0" transform="translate(-1.92 -118.07)" fill="none" stroke="#000" stroke-linecap="round" stroke-linejoin="round" stroke-width="2"/><path d="M138.2,225s2.8-7,13.5-8.2" transform="translate(-1.92 -118.07)" fill="none" stroke="#000" stroke-linecap="round" stroke-linejoin="round" stroke-width="2"/><path d="M154.9,215.6c.5-1,2-3.5,2-5.2s-.2-9-.2-9a8,8,0,0,1,2.2-1.1,1.56,1.56,0,0,1,1.6.4c1.2,1.3.7,12.7.7,12.7" transform="translate(-1.92 -118.07)" fill="none" stroke="#000" stroke-linecap="round" stroke-linejoin="round" stroke-width="2"/><polyline points="207.38 159.63 183.38 128.43 180.28 130.53 202.28 159.72 202.28 159.72 202.28 159.72" fill="none" stroke="#000" stroke-linecap="round" stroke-linejoin="round" stroke-width="2"/><path d="M207.9,279.1c-.6.3-6.1,3.8-6.1,3.8" transform="translate(-1.92 -118.07)" fill="none" stroke="#000" stroke-linecap="round" stroke-linejoin="round" stroke-width="2"/><line x1="227.28" y1="174.43" x2="219.78" y2="176.53" fill="none" stroke="#000" stroke-linecap="round" stroke-linejoin="round" stroke-width="2"/><path d="M14.6,267.7h0c-1,.3-5.6,2.1,2,4.5.6.2,1.3.3,2.1.5,11.2,1.7,38.6-3.5,38.6-3.5s3-1.8,5,2.3,8,13.4,6,28a7,7,0,0,1-2.4,4.6,9.77,9.77,0,0,1-4.1,1.9,72.73,72.73,0,0,1-13,2.2" transform="translate(-1.92 -118.07)" fill="none" stroke="#000" stroke-linecap="round" stroke-linejoin="round" stroke-width="2"/><path d="M39.8,308h0a29.42,29.42,0,0,1-13.7-4.6c-.3-.2-.5-3.8-2.1-8.9a48.52,48.52,0,0,0-11.2-19.3,30.7,30.7,0,0,0-2.6-2.5c-3.5-2.5,3.3-4.6,4.4-5" transform="translate(-1.92 -118.07)" fill="none" stroke="#000" stroke-linecap="round" stroke-linejoin="round" stroke-width="2"/><path d="M65.3,303.2v.2s.1-1.1.5-9.2c.5-11.3-7.6-21.3-7.6-21.3s-6.1,1.1-19.6,2.8c-12.4,1.5-18.1,1.1-23-.8" transform="translate(-1.92 -118.07)" fill="none" stroke="#000" stroke-linecap="round" stroke-linejoin="round" stroke-width="2"/><path d="M118.2,281.8s-5.3,3.3-10.7,6.4l-.6.3h0c-3.8,2.1-7.5,4-9.3,4.4-4.4.9-25.4-26.1-28.8-37.1" transform="translate(-1.92 -118.07)" fill="none" stroke="#000" stroke-linecap="round" stroke-linejoin="round" stroke-width="2"/><path d="M60.3,255.1c.4-.3,8.5-2,11.8.1" transform="translate(-1.92 -118.07)" fill="none" stroke="#000" stroke-linecap="round" stroke-linejoin="round" stroke-width="2"/><path d="M40.4,282.1l-9.6-.4L27,283.3l-3.2,1.4,2.9,9,.9,2.8a60.13,60.13,0,0,0,6.9,2.3c2.4.6,4.9.9,6.4.3.2-.1.5-.2.7-.3a11.16,11.16,0,0,0,4.6-3.5l-2.3-13Z" transform="translate(-1.92 -118.07)" fill="none" stroke="#000" stroke-linecap="round" stroke-linejoin="round" stroke-width="2"/><polyline points="25.88 167.13 34.38 168.13 37.68 177.93" fill="none" stroke="#000" stroke-linecap="round" stroke-linejoin="round" stroke-width="2"/><line x1="34.38" y1="168.13" x2="38.38" y2="166.43" fill="none" stroke="#000" stroke-linecap="round" stroke-linejoin="round" stroke-width="2"/><path d="M54.3,377s.3-1.1.7-3.2c.2-1.1.5-2.5.7-4.1.2-1.3.4-2.7.6-4.3.5-3.8.8-8.2,1-13.2.3-13-1.4-29.3-8.6-43.9a68.08,68.08,0,0,0-5.8-9.6" transform="translate(-1.92 -118.07)" fill="none" stroke="#000" stroke-linecap="round" stroke-linejoin="round" stroke-width="2"/><path d="M76.8,376.8c2.4.3,4.8.5,7,.7,8.7.6,21.1.2,32.2-.5l4.8-.3a15.76,15.76,0,0,0,2.8-.3c16.5-1.7,66.9-10,66.9-10l-.8-3.8s-53.6,10.3-86.8,11.3c-18.8.6-47-4.3-47-4.3" transform="translate(-1.92 -118.07)" fill="none" stroke="#000" stroke-linecap="round" stroke-linejoin="round" stroke-width="2"/><path d="M76.8,376.8c-4.4-.6-21.2-3-21.2-2.9a.77.77,0,0,1,.3.1c2.8.6,12.2,1.9,20.9,2.8" transform="translate(-1.92 -118.07)" fill="none" stroke="#000" stroke-linecap="round" stroke-linejoin="round" stroke-width="2"/><path d="M76.8,376.8h0" transform="translate(-1.92 -118.07)" fill="none" stroke="#000" stroke-linecap="round" stroke-linejoin="round" stroke-width="2"/><path d="M34.3,299.2a49.49,49.49,0,0,1,5.4,8.8c5.3,10.5,12,30.1,8.1,57.2,0,0-5.5,14.3,4.8,17.8s23.3,1,24.3,0,1-6,1-6a3.5,3.5,0,0,1-1-.2" transform="translate(-1.92 -118.07)" fill="none" stroke="#000" stroke-linecap="round" stroke-linejoin="round" stroke-width="2"/><line x1="54.78" y1="247.43" x2="61.18" y2="246.43" fill="none" stroke="#000" stroke-linecap="round" stroke-linejoin="round" stroke-width="2"/><path d="M205.4,361s-7.7,4.8-8.3,3.5c-.1-.1-.1-.3-.2-.4-.5-1.2-.8-2.4-7.1-1.4" transform="translate(-1.92 -118.07)" fill="none" stroke="#000" stroke-linecap="round" stroke-linejoin="round" stroke-width="2"/><path d="M123.7,377.1s2.2,23.7,2.2,25.7c0,.5,2,.3,2,.3a112.72,112.72,0,0,1-13.7,44.2" transform="translate(-1.92 -118.07)" fill="none" stroke="#000" stroke-linecap="round" stroke-linejoin="round" stroke-width="2"/><path d="M116.1,377.8s3.6,19.9,1.3,24.3a.52.52,0,0,1-.4.2,10.27,10.27,0,0,1-3.2-.4s-2.3,28.2-13.5,44.7" transform="translate(-1.92 -118.07)" fill="none" stroke="#000" stroke-linecap="round" stroke-linejoin="round" stroke-width="2"/><path d="M119.9,403h0c0,.1,1,.2,3.3.1" transform="translate(-1.92 -118.07)" fill="none" stroke="#000" stroke-linecap="round" stroke-linejoin="round" stroke-width="2"/><path d="M114.3,463.4c36.1,1.7,62.6,11.3,71.1,14.8a13,13,0,1,0,23.4,8.3V486a12.78,12.78,0,0,0-3.4-8.7,2.55,2.55,0,0,0-.9-.9,12.58,12.58,0,0,0-5.7-3,273.33,273.33,0,0,0-29.4-12.6h0c-20.3-7.3-38.7-11.1-55.2-12.4-4.8-.4-9.4-.6-13.9-.6-57,0-87.2,29-87.2,29h.1A12.84,12.84,0,0,0,9.4,486a13,13,0,1,0,20.4-10.7,224.2,224.2,0,0,1,69.6-12.1" transform="translate(-1.92 -118.07)" fill="none" stroke="#000" stroke-linecap="round" stroke-linejoin="round" stroke-width="2"/><path d="M114.2,463.4c.1-3.7,0-6.6-.4-7.4-1.5-3-12-3.5-14.3-.5a65.7,65.7,0,0,0-.1,7.7c.1,6.1.3,14.5.8,19.3a5.07,5.07,0,0,0-.2,1.3v15.8a4,4,0,0,0,4,4h5a4,4,0,0,0,4-4V483.8a2.77,2.77,0,0,0-.1-.9C113.4,477.8,114.1,469.5,114.2,463.4Z" transform="translate(-1.92 -118.07)" fill="none" stroke="#000" stroke-linecap="round" stroke-linejoin="round" stroke-width="2"/><line x1="110.38" y1="371.93" x2="101.88" y2="371.93" fill="none" stroke="#000" stroke-linecap="round" stroke-linejoin="round" stroke-width="2"/><path d="M14.9,216.8s20.3-4.3,33-1.7" transform="translate(-1.92 -118.07)" fill="none" stroke="#000" stroke-linecap="round" stroke-linejoin="round" stroke-width="2"/><path d="M63.1,215.5s-12-2-15.5,12.3" transform="translate(-1.92 -118.07)" fill="none" stroke="#000" stroke-linecap="round" stroke-linejoin="round" stroke-width="2"/><path d="M119.1,346.7s-9,8.3-18.8,9.8-34.1,3.5-39.4,2.8h-.1" transform="translate(-1.92 -118.07)" fill="none" stroke="#000" stroke-linecap="round" stroke-linejoin="round" stroke-width="2"/><path d="M104.1,343.5s1.5-3,.8-8.5" transform="translate(-1.92 -118.07)" fill="none" stroke="#000" stroke-linecap="round" stroke-linejoin="round" stroke-width="2"/><path d="M102.3,344.2s-6.3-1-7.5-5.5" transform="translate(-1.92 -118.07)" fill="none" stroke="#000" stroke-linecap="round" stroke-linejoin="round" stroke-width="2"/><path d="M129.2,299.5s3.1-2.3,3.3-4" transform="translate(-1.92 -118.07)" fill="none" stroke="#000" stroke-linecap="round" stroke-linejoin="round" stroke-width="2"/></svg>