<svg id="f7e5c148-f098-4e89-bbf1-45aa779bb0a7" data-name="Layer 1" xmlns="http://www.w3.org/2000/svg" width="1025" height="507.8" viewBox="0 0 1025 507.8"><title>brainstorm_p2</title><path d="M265.6,199l.1-.8a4.52,4.52,0,0,1-1.1-4.3,4.8,4.8,0,0,1,3-3.2c3.9,2.3,7.5,4.8,11.3,7.1,1.3.8,2.6,1.6,4,2.4a36.65,36.65,0,0,0,9.4,4.4c6.8,1.7,13.8-.7,20.3-3.1,3.7-1.3,7.4-2.7,11.2-4,2.9-1,5.7-2.1,8.6-3.1a3.55,3.55,0,0,1,1-.2,1.6,1.6,0,0,1,.9.7,21,21,0,0,1,3.4,5,12.17,12.17,0,0,1,5.8-.7c8,1.8,16.5,6.9,23.7,10.6a38.51,38.51,0,0,1,8.1,5.2,38.08,38.08,0,0,1,5.2,6.1c5,6.7,10.1,13.6,12.5,21.6a23.8,23.8,0,0,1-3,20.4c-5,7.4-14.5,14.6-23.3,16.5l-.3-.1a237.06,237.06,0,0,0,6.6-39.6c-.6-1.7-1.6-2.9-2.5-3.1-1.2-.3-10.4-.5-23.3-.6-35-.4-97.3-.4-100.8-.3-4.4.2-8.8.3-13.3.5a4.48,4.48,0,0,0-2,.4,4.89,4.89,0,0,0-1.3,1.2,10.68,10.68,0,0,0-2,3.6c4.1,11.8,7.9,23.5,11.8,35.3l-.3.1a74.73,74.73,0,0,1-12.1-10.4c-4.5-4.7-8.3-10.5-9.3-17-.1-.7-.3-2.8-.3-3.5-.1-1.8,1.5-13,.9-14.4-.7-1.7,1.8-3.6,2.7-4.7,3.2-3.9,5.1-8.7,7.3-13.2s5-9.1,9.4-11.7c3-1.8,6.4-2.4,9.9-2.9A96.24,96.24,0,0,1,265.6,199Z" fill="none" stroke="#1d1d1b" stroke-linecap="round" stroke-linejoin="round" stroke-width="6"/><path d="M377.8,458.2a12.89,12.89,0,0,1,4.7,9.9,12.85,12.85,0,1,1-18.3-11.7,12.21,12.21,0,0,1,5.4-1.2A12.73,12.73,0,0,1,377.8,458.2Z" fill="none" stroke="#1d1d1b" stroke-linecap="round" stroke-linejoin="round" stroke-width="6"/><path d="M377.9,458.1h0a14,14,0,0,0-8.3-2.8,12.21,12.21,0,0,0-5.4,1.2v-.1c-1.8-1.5-3.6-2.9-5.5-4.2l-.1-.1a33.33,33.33,0,0,0,3.8-5.9.1.1,0,0,0-.1-.1l1.4-1.8A97.31,97.31,0,0,1,377.9,458.1Z" fill="none" stroke="#1d1d1b" stroke-linecap="round" stroke-linejoin="round" stroke-width="6"/><path d="M262.2,322.5h0s.2-10.3-.8-11V311h80.5v.5c-.8,1-.5,11.3-.5,11.3l-.1.2c15.9,12.1,30.8,35.7,33.9,54.3,3.2,19.3-3.8,47.3-15.8,63.7-.7.9-1.3,1.8-2,2.6h0c-3.3-1.7-7.4-4-9.5-6.4a5.73,5.73,0,0,0-1.1-1.1h0c.5-.7,1-1.3,1.5-2a82,82,0,0,0,6.1-8.9c6.5-10.9,10.4-23.7,9.3-36.3-.8-9.2-4.3-23.1-17.8-33.5a52.3,52.3,0,0,0-5.2-3.5c-9.2-5.5-22.1-9.5-39.9-10.5-11.1.9-29.3,4.1-42.2,9.4a48.17,48.17,0,0,0-8.5,4.4,8.34,8.34,0,0,1-1.2.8c-11.4,8.6-19.3,22.8-17.8,37,1.1,10,6.6,19,12.8,26.9a93.53,93.53,0,0,0,10.9,11.8l.1.1a27.91,27.91,0,0,1-9.3,6.9l-.1-.1c-.8-.6-1.7-1.3-2.5-2a81.09,81.09,0,0,1-11.2-12.2,95.83,95.83,0,0,1-11-17.1,41,41,0,0,1-3.4-26C222.4,357.1,240.1,334,262.2,322.5Z" fill="none" stroke="#1d1d1b" stroke-linecap="round" stroke-linejoin="round" stroke-width="6"/><path d="M370.5,237c.9.2,1.9,1.4,2.5,3.1a237.06,237.06,0,0,1-6.6,39.6c-1.9,7.5-4.2,15.1-6.8,23.2l-111.4-.5c-3-8.5-5.8-16.9-8.5-25.4-3.9-11.7-7.7-23.5-11.8-35.3a12.74,12.74,0,0,1,2-3.6,4.89,4.89,0,0,1,1.3-1.2,6.47,6.47,0,0,1,2-.4c4.4-.2,8.8-.3,13.3-.5,3.4-.1,65.7-.1,100.8.3C360,236.5,369.2,236.7,370.5,237Z" fill="none" stroke="#1d1d1b" stroke-linecap="round" stroke-linejoin="round" stroke-width="6"/><path d="M349.4,472.5a18.57,18.57,0,0,1,7.5,3.2,16.38,16.38,0,0,1,2.5,2.1,20.23,20.23,0,0,1,6,12.6c.3,3.4-.5,7.1-3.2,9.1a11.66,11.66,0,0,1-3.6,1.6,30.93,30.93,0,0,1-27.6-6,10.34,10.34,0,0,1-2.9-3.4,12.23,12.23,0,0,1-.9-4.3c-.3-3.9,1.3-8.8.6-12.5s-3.1-3-4.3-5.8c-3-6.4,6.4-14.2,10.8-17.1l.4-1.8a67.37,67.37,0,0,0,12.6,8.7c.3.2.6.3.9.5-2.1,1.5-1.9,4.7-1.1,7.2a24.93,24.93,0,0,0,2.3,5.9Z" fill="none" stroke="#1d1d1b" stroke-linecap="round" stroke-linejoin="round" stroke-width="6"/><path d="M363.7,444.2l-1.4,1.8c-.5-.4-2.5-1.3-4.9-2.5h0c.7-.8,1.3-1.7,2-2.6l.2.2C361,442.1,362.4,443.1,363.7,444.2Z" fill="none" stroke="#1d1d1b" stroke-linecap="round" stroke-linejoin="round" stroke-width="6"/><path d="M348.1,459.4a7.25,7.25,0,0,1-.9-.5,68.86,68.86,0,0,1-12.6-8.7,2.65,2.65,0,0,1-1.2-1.9,3.36,3.36,0,0,1,.5-1.4,55.84,55.84,0,0,1,4.4-6.4,48.22,48.22,0,0,1,3.6-4.3,4.82,4.82,0,0,1,2.2-1.5,3.28,3.28,0,0,1,2.8,1.2A11.41,11.41,0,0,0,348,437c2.1,2.4,6.3,4.7,9.5,6.4,2.4,1.2,4.4,2.1,4.9,2.5l.1.1a28.52,28.52,0,0,1-3.8,5.9,4.13,4.13,0,0,0-.7,1.1,41.72,41.72,0,0,1-5.8,6.8h0C350.9,460.6,349.4,460,348.1,459.4Z" fill="none" stroke="#1d1d1b" stroke-linecap="round" stroke-linejoin="round" stroke-width="6"/><path d="M359.9,307.5c0,1,0,2.7-1.2,3.4H250.5a5.07,5.07,0,0,1-1.3.2,2.27,2.27,0,0,1-1.9-1.4,6.37,6.37,0,0,1-.4-2.4,16.35,16.35,0,0,1,.2-2.2H359.8C359.8,306.1,359.9,306.6,359.9,307.5Z" fill="none" stroke="#1d1d1b" stroke-linecap="round" stroke-linejoin="round" stroke-width="6"/><path d="M291.4,435h-.3a77.19,77.19,0,0,0-25.1,2.1c-2.7-2.4-5.3-4.9-7.9-7.5a108.64,108.64,0,0,1,33-6.4v.2h12v-.5l2.2.1a87,87,0,0,1,42.5,10.6l.4.3c-.5.7-1,1.3-1.5,2h0a3.45,3.45,0,0,0-2.8-1.2,4.59,4.59,0,0,0-2.2,1.5c-1.3,1.4-2.4,2.8-3.6,4.3l-.1-.1a71.72,71.72,0,0,0-34.2-5.3h-.1c.2,3,.2,5.9.2,7a82.86,82.86,0,0,1-1.4,12.2h-9.8v-.1C291.7,450.1,291.2,442.4,291.4,435Z" fill="none" stroke="#1d1d1b" stroke-linecap="round" stroke-linejoin="round" stroke-width="6"/><path d="M347.5,117.5a2,2,0,0,1-.1,1.7,20.78,20.78,0,0,1-3.1,5.9,15.33,15.33,0,0,1-7.3,4.5c.3,2.2.7,4.4.9,6.5h-.3c-7.4-3.1-8.3-11.6-8.3-11.6-12.1-6.9-44.6-7.3-47.3,4.1-.9,3.9-8.6,6.2-8.6,6.2v-.1a12,12,0,0,1-.3-5,27.93,27.93,0,0,1,1.4-4.7,40.4,40.4,0,0,1,4.9-10c2.2-3,5.5-5.4,9.2-5.7,1.3-.1,2.8,0,3.8-.8.6-.5.9-1.2,1.5-1.7a5.11,5.11,0,0,1,4.5-1.1,13,13,0,0,1,4.3,2c-.2-1.8,2.1-2.7,3.9-2.8a26.58,26.58,0,0,1,11.8,2.1,5.8,5.8,0,0,1,7-1.4,5.67,5.67,0,0,1,2.5,6.7,29.29,29.29,0,0,1,7.8-1,5,5,0,0,1,3.6,1.1c.9.9.9,2.8-.3,3.3a36.62,36.62,0,0,1,7.4,1C346.9,117,347.3,117.1,347.5,117.5Z" fill="none" stroke="#1d1d1b" stroke-linecap="round" stroke-linejoin="round" stroke-width="6"/><path d="M345.9,355.3l-.2.3a242.8,242.8,0,0,1-39,4.6,200,200,0,0,1-21.9-.3,220.34,220.34,0,0,1-34.4-4.5l-.2-.3a48.17,48.17,0,0,1,8.5-4.4l.1.2a183.14,183.14,0,0,0,82,.9l.1-.1C342.6,352.9,344.3,354.1,345.9,355.3Z" fill="none" stroke="#1d1d1b" stroke-linecap="round" stroke-linejoin="round" stroke-width="6"/><path d="M341.4,161.9c1.2,1.3,1.3,3.3,1.3,5,0,7.6-1.5,15.6-6.6,21.3a2.29,2.29,0,0,1-1,.7,1.6,1.6,0,0,1-1.4-.8,7.4,7.4,0,0,1-1.6-4,15.16,15.16,0,0,0,.1-6h.3a21.45,21.45,0,0,0,4.7-9.1,35,35,0,0,0,.7-4.5l.5.1A7.74,7.74,0,0,1,341.4,161.9Z" fill="none" stroke="#1d1d1b" stroke-linecap="round" stroke-linejoin="round" stroke-width="6"/><path d="M340.7,351.8l-.1.1a186.05,186.05,0,0,1-82-.9l-.1-.2c12.9-5.4,31.1-8.5,42.2-9.4C318.6,342.3,331.5,346.3,340.7,351.8Z" fill="none" stroke="#1d1d1b" stroke-linecap="round" stroke-linejoin="round" stroke-width="6"/><path d="M272.3,172.7a18.4,18.4,0,0,1,2.6-8.3l-.2-.1a34.77,34.77,0,0,1-2.1-12.4v-3.1c.1-4.7.3-9.4.7-14h.1v.1s7.7-2.3,8.6-6.2c2.6-11.4,35.1-11,47.3-4.1,0,0,.9,8.5,8.3,11.6h.3c.4,3.9.5,7.7-.6,11.2h0c.4,5,.9,11.6.5,16.5a.75.75,0,0,1-.1.5,22.23,22.23,0,0,1-.7,4.5,20.89,20.89,0,0,1-4.7,9.1H332a17.28,17.28,0,0,1-.1,6,15,15,0,0,1-4.6,8.1,16.59,16.59,0,0,1-3.9,2.6,35,35,0,0,1-10.2,2.8c-7.5,1-15.2,1.1-22.4-1.2a30.7,30.7,0,0,1-11.6-6.7,22.85,22.85,0,0,1-5.3-7.4A21.4,21.4,0,0,1,272.3,172.7Zm58.3-20.5c1.1-.3,4.6-9.2-.4-11.4-2.6-1.2-5.9-2.4-8.6-3.6a5.66,5.66,0,0,0-3.1-.7c-2,.3-3.2,2.4-3.9,4.3-.7,1.7-1.4,3.7-.5,5.3C316,149.5,326.6,153.2,330.6,152.2ZM320.3,165a3,3,0,0,0-.7-3.5c-1.1-.8-.7-.8-1.9-.8l-.5-.2a2.63,2.63,0,0,0-1.6,3.4,3.61,3.61,0,0,0,3.3,2.2,1.08,1.08,0,0,0,.8-.2A1.46,1.46,0,0,0,320.3,165Zm-20.8-19.5c1.8-1,1.4-3.5,1.4-5.5,0-1.8-.3-4.5-1.1-5.1-3.3-2.3-16.1-3.1-17.6.8-.6,1.8,1,10.4,2.7,10.4,2.9,0,8.5-.1,11.4-.1A5,5,0,0,0,299.5,145.5Zm-8.2,14.9a3,3,0,0,0-.7-3.5c-1.1-.8-.7-.8-1.9-.8l-.5-.2a2.63,2.63,0,0,0-1.6,3.4,3.61,3.61,0,0,0,3.3,2.2,1.08,1.08,0,0,0,.8-.2A2.36,2.36,0,0,0,291.3,160.4Z" fill="none" stroke="#1d1d1b" stroke-linecap="round" stroke-linejoin="round" stroke-width="6"/><path d="M330.3,140.7c5,2.2,1.5,11.1.4,11.4-4,1.1-14.6-2.6-16.4-6.2-.8-1.6-.2-3.6.5-5.3.8-1.9,1.9-4.1,3.9-4.3a5.66,5.66,0,0,1,3.1.7C324.3,138.3,327.6,139.6,330.3,140.7Z" fill="none" stroke="#1d1d1b" stroke-linecap="round" stroke-linejoin="round" stroke-width="6"/><path d="M323.6,197.5l.1.1c-3.7,1.3-7.5,2.7-11.2,4-6.6,2.4-13.6,4.7-20.3,3.1-3.4-.8-6.4-2.6-9.4-4.4-1.3-.8-2.7-1.6-4-2.4l.3-.4-.5-7.5.7-.2a29.44,29.44,0,0,0,11.6,6.7c7.2,2.3,15,2.2,22.4,1.2a32.18,32.18,0,0,0,10.2-2.8l.1.1v2.5Z" fill="none" stroke="#1d1d1b" stroke-linecap="round" stroke-linejoin="round" stroke-width="6"/><path d="M319.6,161.5a2.89,2.89,0,0,1,.7,3.5,1.56,1.56,0,0,1-.6.8,3.09,3.09,0,0,1-.8.2,3.37,3.37,0,0,1-3.3-2.2,2.72,2.72,0,0,1,1.6-3.4l.5.2C318.8,160.7,318.5,160.8,319.6,161.5Z" fill="none" stroke="#1d1d1b" stroke-linecap="round" stroke-linejoin="round" stroke-width="6"/><path d="M291.1,423.2l-6.5-62.3.1-1q10.95.6,21.9.3v1.3L303.1,423v.5h-12Z" fill="none" stroke="#1d1d1b" stroke-linecap="round" stroke-linejoin="round" stroke-width="6"/><path d="M305.3,470.7v8.4a17.43,17.43,0,0,1-7.5,1.6,28,28,0,0,1-9-1.6l.1-8.4h16.4Z" fill="none" stroke="#1d1d1b" stroke-linecap="round" stroke-linejoin="round" stroke-width="6"/><polygon points="302.6 454.4 305.3 454.4 305.3 470.7 304.9 470.7 288.9 470.7 289 454.4 292.8 454.4 302.6 454.4" fill="none" stroke="#1d1d1b" stroke-linecap="round" stroke-linejoin="round" stroke-width="6"/><path d="M300.9,140c0,2,.4,4.5-1.4,5.5a6.55,6.55,0,0,1-3.1.5c-2.9,0-8.5.1-11.4.1-1.8,0-3.4-8.6-2.7-10.4,1.4-3.9,14.3-3,17.6-.8C300.6,135.5,300.9,138.1,300.9,140Z" fill="none" stroke="#1d1d1b" stroke-linecap="round" stroke-linejoin="round" stroke-width="6"/><path d="M290.6,156.9a2.89,2.89,0,0,1,.7,3.5,1.56,1.56,0,0,1-.6.8,3.09,3.09,0,0,1-.8.2,3.37,3.37,0,0,1-3.3-2.2,2.72,2.72,0,0,1,1.6-3.4l.5.2C289.8,156,289.5,156.1,290.6,156.9Z" fill="none" stroke="#1d1d1b" stroke-linecap="round" stroke-linejoin="round" stroke-width="6"/><path d="M279.3,189.7l-.7.2.5,7.5-.3.4c-3.8-2.4-7.4-4.8-11.3-7.1,0,0-3.7-8,6.4-8.4A25.23,25.23,0,0,0,279.3,189.7Z" fill="none" stroke="#1d1d1b" stroke-linecap="round" stroke-linejoin="round" stroke-width="6"/><path d="M251.6,454.6l-.1-.3a10.89,10.89,0,0,0,2.5-1c5.1-2.7,11.1-7,14.6-11.8l.3.2c5.9,2.2,9.4,7.5,9.9,13.7-2.5,1.9-5.1,3.8-7.6,5.8a8.51,8.51,0,0,0-2.5,2.5c-.8,1.4-.7,3.2-.6,4.8.6,9.5-.4,20.1-7.6,26.3-5.9,5-14.9,5.9-22.2,3.9-4.9-1.4-8.1-5.4-7.8-10.6.3-5.5,2.5-8.7,5.9-11.1a42.66,42.66,0,0,1,7.1-3.8c3.3-1.4,5.5-4.6,6.6-8A41.74,41.74,0,0,0,251.6,454.6Z" fill="none" stroke="#1d1d1b" stroke-linecap="round" stroke-linejoin="round" stroke-width="6"/><path d="M274.8,164.3l.2.1a18.4,18.4,0,0,0-2.6,8.3,1.51,1.51,0,0,1-2,.8,4.21,4.21,0,0,1-1.6-1.9,23.54,23.54,0,0,1-1.4-7,70.7,70.7,0,0,1,.1-17.2c.1-.3.2-.8.5-.8a.74.74,0,0,1,.8.4c1.4,1.5,3.3,3,3.9,5h.2A30.24,30.24,0,0,0,274.8,164.3Z" fill="none" stroke="#1d1d1b" stroke-linecap="round" stroke-linejoin="round" stroke-width="6"/><path d="M258.1,429.6c2.5,2.6,5.2,5.1,7.9,7.5,1.2,1,2.3,2.1,3.5,3.1-.3.4-.6.9-.9,1.3-3.5,4.8-9.5,9.1-14.6,11.8a10.89,10.89,0,0,1-2.5,1,9.69,9.69,0,0,1-2.3.3c-2.8-.3-4.7-2.7-6.2-5a16.29,16.29,0,0,1-1.1-1.7c-1.3-2-2.6-4.1-3.9-6.2a7.84,7.84,0,0,0,1.4-.5,49.14,49.14,0,0,0,6.3-2.6,28.25,28.25,0,0,0,9.3-6.9,18.12,18.12,0,0,0,2.2-3.2A4.36,4.36,0,0,0,258.1,429.6Z" fill="none" stroke="#1d1d1b" stroke-linecap="round" stroke-linejoin="round" stroke-width="6"/><path d="M245.5,438.5h0a37.56,37.56,0,0,1-6.2,2.7l-1.1-1.8c1.6-1,3.2-2,4.9-2.9A15.91,15.91,0,0,0,245.5,438.5Z" fill="none" stroke="#1d1d1b" stroke-linecap="round" stroke-linejoin="round" stroke-width="6"/><path d="M241.7,447.9l-.3.2a96.87,96.87,0,0,0-9.9,7.3v.1a12.21,12.21,0,0,0-5.4-1.2,13.21,13.21,0,0,0-8.2,2.9l-.1-.1a88.77,88.77,0,0,1,20.3-17.6l1.1,1.8c-.5.2-.9.3-1.4.5C239.1,443.7,240.4,445.8,241.7,447.9Z" fill="none" stroke="#1d1d1b" stroke-linecap="round" stroke-linejoin="round" stroke-width="6"/><path d="M231.5,455.4a12.79,12.79,0,0,1,2.7,21.5,13,13,0,0,1-8.2,2.9,12.79,12.79,0,0,1-8.1-22.7,13,13,0,0,1,8.2-2.9A13.76,13.76,0,0,1,231.5,455.4Z" fill="none" stroke="#1d1d1b" stroke-linecap="round" stroke-linejoin="round" stroke-width="6"/><path d="M257.7,429.7c.1,0,.2-.1.4-.1a108.64,108.64,0,0,1,33-6.4c3.3-.1,6.6-.1,10,.1" fill="none" stroke="#1d1d1b" stroke-linecap="round" stroke-linejoin="round" stroke-width="6"/><path d="M217.9,457.1a88.77,88.77,0,0,1,20.3-17.6c1.6-1,3.2-2,4.9-2.9h0" fill="none" stroke="#1d1d1b" stroke-linecap="round" stroke-linejoin="round" stroke-width="6"/><path d="M265.9,437.1h0A72.06,72.06,0,0,1,291,435" fill="none" stroke="#1d1d1b" stroke-linecap="round" stroke-linejoin="round" stroke-width="6"/><path d="M231.5,455.3a114.53,114.53,0,0,1,9.9-7.3" fill="none" stroke="#1d1d1b" stroke-linecap="round" stroke-linejoin="round" stroke-width="6"/><path d="M231.5,455.4a12.79,12.79,0,0,1,2.7,21.5,13,13,0,0,1-8.2,2.9,12.79,12.79,0,0,1-8.1-22.7,13,13,0,0,1,8.2-2.9A13.76,13.76,0,0,1,231.5,455.4Z" fill="none" stroke="#1d1d1b" stroke-linecap="round" stroke-linejoin="round" stroke-width="6"/><path d="M347.9,433.7a88.12,88.12,0,0,0-42.5-10.6" fill="none" stroke="#1d1d1b" stroke-linecap="round" stroke-linejoin="round" stroke-width="6"/><path d="M377.9,458.1a98.17,98.17,0,0,0-14.2-13.9c-1.3-1.1-2.7-2.1-4.1-3.1" fill="none" stroke="#1d1d1b" stroke-linecap="round" stroke-linejoin="round" stroke-width="6"/><path d="M338.1,440.5a71.72,71.72,0,0,0-34.2-5.3" fill="none" stroke="#1d1d1b" stroke-linecap="round" stroke-linejoin="round" stroke-width="6"/><path d="M364.2,456.3c-1.8-1.5-3.6-2.9-5.5-4.2" fill="none" stroke="#1d1d1b" stroke-linecap="round" stroke-linejoin="round" stroke-width="6"/><path d="M364.2,456.4a12.94,12.94,0,1,0,13.6,1.8,13,13,0,0,0-8.2-2.9A12.44,12.44,0,0,0,364.2,456.4Z" fill="none" stroke="#1d1d1b" stroke-linecap="round" stroke-linejoin="round" stroke-width="6"/><path d="M291.8,427.5c-.2,2.3-.4,4.9-.4,7.5-.2,7.4.3,15.1,1.4,19.3" fill="none" stroke="#1d1d1b" stroke-linecap="round" stroke-linejoin="round" stroke-width="6"/><path d="M303.1,428.3a52.78,52.78,0,0,1,.8,6.9c.2,3,.2,5.9.2,7a82.86,82.86,0,0,1-1.4,12.2h0" fill="none" stroke="#1d1d1b" stroke-linecap="round" stroke-linejoin="round" stroke-width="6"/><polyline points="288.9 479.1 288.9 470.7 289 454.4 292.8 454.4 302.6 454.4 305.3 454.4 305.3 470.7 305.3 479.1" fill="none" stroke="#1d1d1b" stroke-linecap="round" stroke-linejoin="round" stroke-width="6"/><path d="M288.9,479.1a28,28,0,0,0,9,1.6,17.75,17.75,0,0,0,7.5-1.6" fill="none" stroke="#1d1d1b" stroke-linecap="round" stroke-linejoin="round" stroke-width="6"/><polyline points="288.8 470.7 288.9 470.7 304.9 470.7" fill="none" stroke="#1d1d1b" stroke-linecap="round" stroke-linejoin="round" stroke-width="6"/><path d="M285,146.1c2.9,0,8.5-.1,11.4-.1a6.35,6.35,0,0,0,3.1-.5c1.8-1,1.4-3.5,1.4-5.5,0-1.8-.3-4.5-1.1-5.1-3.3-2.3-16.1-3.1-17.6.8C281.6,137.5,283.3,146.1,285,146.1Z" fill="none" stroke="#1d1d1b" stroke-linecap="round" stroke-linejoin="round" stroke-width="6"/><path d="M330.3,140.7c-2.6-1.2-5.9-2.4-8.6-3.6a5.66,5.66,0,0,0-3.1-.7c-2,.3-3.2,2.4-3.9,4.3-.7,1.7-1.4,3.7-.5,5.3,1.8,3.5,12.4,7.3,16.4,6.2C331.8,151.8,335.2,142.9,330.3,140.7Z" fill="none" stroke="#1d1d1b" stroke-linecap="round" stroke-linejoin="round" stroke-width="6"/><path d="M273.4,134.8c-.4,4.7-.6,9.4-.7,14v3.1a34.4,34.4,0,0,0,2.1,12.4" fill="none" stroke="#1d1d1b" stroke-linecap="round" stroke-linejoin="round" stroke-width="6"/><path d="M277.4,161.4a12.61,12.61,0,0,0-2.5,3.1,18.4,18.4,0,0,0-2.6,8.3,19.77,19.77,0,0,0,1.7,9.6,24.45,24.45,0,0,0,5.3,7.4,29.44,29.44,0,0,0,11.6,6.7c7.2,2.3,15,2.2,22.4,1.2a32.18,32.18,0,0,0,10.2-2.8,16.58,16.58,0,0,0,3.9-2.6,15.6,15.6,0,0,0,2-20.5" fill="none" stroke="#1d1d1b" stroke-linecap="round" stroke-linejoin="round" stroke-width="6"/><path d="M332.5,178.1a21.45,21.45,0,0,0,4.7-9.1,35,35,0,0,0,.7-4.5.75.75,0,0,1,.1-.5c.4-5-.2-11.6-.5-16.5" fill="none" stroke="#1d1d1b" stroke-linecap="round" stroke-linejoin="round" stroke-width="6"/><path d="M307.6,162.7a22.43,22.43,0,0,1,1.3,7.3,10.52,10.52,0,0,1-.7,4.3,8.22,8.22,0,0,1-2.3,3.2" fill="none" stroke="#1d1d1b" stroke-linecap="round" stroke-linejoin="round" stroke-width="6"/><path d="M292.8,173.9a5.72,5.72,0,0,0,1.6,1.1,23,23,0,0,0,11.5,2.5" fill="none" stroke="#1d1d1b" stroke-linecap="round" stroke-linejoin="round" stroke-width="6"/><path d="M292.4,187.1a42,42,0,0,0,21-3.6h0" fill="none" stroke="#1d1d1b" stroke-linecap="round" stroke-linejoin="round" stroke-width="6"/><path d="M312,181.9a20,20,0,0,1,1.4,1.6,6.42,6.42,0,0,1,1.2,2.5" fill="none" stroke="#1d1d1b" stroke-linecap="round" stroke-linejoin="round" stroke-width="6"/><path d="M277.1,200.8a90.48,90.48,0,0,0-11.6-1.9,81.55,81.55,0,0,0-17.8.4c-3.4.5-6.9,1.1-9.9,2.9-4.4,2.6-7.1,7.1-9.4,11.7s-4.1,9.4-7.3,13.2c-1,1.2-3.4,3-2.7,4.7.6,1.5-1,12.7-.9,14.4,0,.7.2,2.8.3,3.5,1,6.5,4.7,12.3,9.3,17a86.15,86.15,0,0,0,12.1,10.4" fill="none" stroke="#1d1d1b" stroke-linecap="round" stroke-linejoin="round" stroke-width="6"/><path d="M265.6,198.2a4.52,4.52,0,0,1-1.1-4.3,4.8,4.8,0,0,1,3-3.2c3.9,2.3,7.5,4.8,11.3,7.1,1.3.8,2.6,1.6,4,2.4a36.65,36.65,0,0,0,9.4,4.4c6.8,1.7,13.8-.7,20.3-3.1,3.7-1.3,7.4-2.7,11.2-4,2.9-1,5.7-2.1,8.6-3.1a3.55,3.55,0,0,1,1-.2,1.6,1.6,0,0,1,.9.7,21,21,0,0,1,3.4,5c.1.1.1.3.2.4-2.3,1-4.6,2-6.9,3.1" fill="none" stroke="#1d1d1b" stroke-linecap="round" stroke-linejoin="round" stroke-width="6"/><path d="M323.4,208.8c.2.1-.2.4-.3.1s.1-.4.3-.6c3.3-2.3,9.1-6.5,14.2-8.3a12.17,12.17,0,0,1,5.8-.7c8,1.8,16.5,6.9,23.7,10.6a38.51,38.51,0,0,1,8.1,5.2,38.08,38.08,0,0,1,5.2,6.1c5,6.7,10.1,13.6,12.5,21.6a23.8,23.8,0,0,1-3,20.4c-5,7.4-14.5,14.6-23.3,16.5" fill="none" stroke="#1d1d1b" stroke-linecap="round" stroke-linejoin="round" stroke-width="6"/><path d="M272.5,151.9c-.6-2-2.5-3.5-3.9-5a1.23,1.23,0,0,0-.8-.4c-.3.1-.4.5-.5.8a76.1,76.1,0,0,0-.1,17.2,23.55,23.55,0,0,0,1.4,7,3.05,3.05,0,0,0,1.6,1.9,1.41,1.41,0,0,0,2-.8h0" fill="none" stroke="#1d1d1b" stroke-linecap="round" stroke-linejoin="round" stroke-width="6"/><path d="M338.4,164.4a8.38,8.38,0,0,1,3.1-2.5c1.2,1.3,1.3,3.3,1.3,5,0,7.6-1.5,15.6-6.6,21.3a2.29,2.29,0,0,1-1,.7,1.6,1.6,0,0,1-1.4-.8,7.4,7.4,0,0,1-1.6-4" fill="none" stroke="#1d1d1b" stroke-linecap="round" stroke-linejoin="round" stroke-width="6"/><path d="M337,148.4c.1-.4.3-.8.4-1.1h0c1.1-3.5,1-7.3.6-11.2-.2-2.1-.6-4.3-.9-6.5a15.82,15.82,0,0,0,7.3-4.5,20.78,20.78,0,0,0,3.1-5.9,2,2,0,0,0,.1-1.7,2,2,0,0,0-1.1-.6,36.62,36.62,0,0,0-7.4-1c1.2-.5,1.2-2.3.3-3.3a5,5,0,0,0-3.6-1.1,25.72,25.72,0,0,0-7.8,1,5.67,5.67,0,0,0-2.5-6.7,5.54,5.54,0,0,0-7,1.4,26.58,26.58,0,0,0-11.8-2.1c-1.8.1-4.1,1-3.9,2.8a15.22,15.22,0,0,0-4.3-2A4.9,4.9,0,0,0,294,107c-.5.5-.9,1.2-1.5,1.7-1,.8-2.5.7-3.8.8-3.7.3-7,2.7-9.2,5.7a40.39,40.39,0,0,0-4.9,10,19.54,19.54,0,0,0-1.4,4.7,10.55,10.55,0,0,0,.3,5v.1s7.7-2.3,8.6-6.2c2.6-11.4,35.1-11,47.3-4.1,0,0,.9,8.5,8.3,11.6" fill="none" stroke="#1d1d1b" stroke-linecap="round" stroke-linejoin="round" stroke-width="6"/><line x1="232.3" y1="241.8" x2="369.4" y2="241.6" fill="none" stroke="#1d1d1b" stroke-linecap="round" stroke-linejoin="round" stroke-width="6"/><path d="M239.6,277c2.8,8.4,5.6,16.9,8.5,25.4l111.4.5c2.6-8.1,4.9-15.7,6.8-23.2a237.06,237.06,0,0,0,6.6-39.6c-.6-1.7-1.6-2.9-2.5-3.1-1.2-.3-10.4-.5-23.3-.6-35-.4-97.3-.4-100.8-.3-4.4.2-8.8.3-13.3.5a4.48,4.48,0,0,0-2,.4,4.89,4.89,0,0,0-1.3,1.2,10.68,10.68,0,0,0-2,3.6C231.9,253.5,235.7,265.2,239.6,277Z" fill="none" stroke="#1d1d1b" stroke-linecap="round" stroke-linejoin="round" stroke-width="6"/><line x1="254.5" y1="297.5" x2="354.8" y2="297.5" fill="none" stroke="#1d1d1b" stroke-linecap="round" stroke-linejoin="round" stroke-width="6"/><path d="M261.4,311H250.5a5.07,5.07,0,0,1-1.3.2,2.27,2.27,0,0,1-1.9-1.4,6.37,6.37,0,0,1-.4-2.4,16.35,16.35,0,0,1,.2-2.2H359.8c0,.9.1,1.5.1,2.4s0,2.7-1.2,3.4H261.4Z" fill="none" stroke="#1d1d1b" stroke-linecap="round" stroke-linejoin="round" stroke-width="6"/><path d="M268.8,319.5c-2.3.9-4.5,1.9-6.7,3-22.1,11.5-39.8,34.6-44.7,58.7a41,41,0,0,0,3.4,26,85.88,85.88,0,0,0,11,17.1A92.06,92.06,0,0,0,243,436.5a24.33,24.33,0,0,0,2.5,2" fill="none" stroke="#1d1d1b" stroke-linecap="round" stroke-linejoin="round" stroke-width="6"/><path d="M336.8,319.8c1.5.9,3,2,4.5,3.1,15.9,12.1,30.8,35.7,33.9,54.3,3.2,19.3-3.8,47.3-15.8,63.7-.7.9-1.3,1.8-2,2.6" fill="none" stroke="#1d1d1b" stroke-linecap="round" stroke-linejoin="round" stroke-width="6"/><path d="M346.8,436c.5-.7,1-1.3,1.5-2a82,82,0,0,0,6.1-8.9c6.5-10.9,10.4-23.7,9.3-36.3-.8-9.2-4.3-23.1-17.8-33.5a52.3,52.3,0,0,0-5.2-3.5c-9.2-5.5-22.1-9.5-39.9-10.5-11.1.9-29.3,4.1-42.2,9.4a48.17,48.17,0,0,0-8.5,4.4,8.34,8.34,0,0,1-1.2.8c-11.4,8.6-19.3,22.8-17.8,37,1.1,10,6.6,19,12.8,26.9a93.53,93.53,0,0,0,10.9,11.8" fill="none" stroke="#1d1d1b" stroke-linecap="round" stroke-linejoin="round" stroke-width="6"/><path d="M258.6,351a183.14,183.14,0,0,0,82,.9" fill="none" stroke="#1d1d1b" stroke-linecap="round" stroke-linejoin="round" stroke-width="6"/><path d="M250.3,355.5a221.91,221.91,0,0,0,34.4,4.5q10.95.6,21.9.3a242.8,242.8,0,0,0,39-4.6" fill="none" stroke="#1d1d1b" stroke-linecap="round" stroke-linejoin="round" stroke-width="6"/><path d="M268.6,441.5c.3-.4.6-.9.9-1.3-1.2-1-2.4-2-3.5-3.1-2.7-2.4-5.3-4.9-7.9-7.5l-1-1a16.6,16.6,0,0,1-2.2,3.2,27.91,27.91,0,0,1-9.3,6.9,55.88,55.88,0,0,1-6.3,2.6c-.5.2-.9.3-1.4.5,1.3,2.1,2.6,4.2,3.9,6.2a16.29,16.29,0,0,1,1.1,1.7c1.6,2.3,3.5,4.7,6.2,5a4.45,4.45,0,0,0,2.3-.3,10.89,10.89,0,0,0,2.5-1C259.1,450.6,265.1,446.3,268.6,441.5Z" fill="none" stroke="#1d1d1b" stroke-linecap="round" stroke-linejoin="round" stroke-width="6"/><path d="M352.1,460a4.73,4.73,0,0,1-4-.5,7.25,7.25,0,0,1-.9-.5,68.86,68.86,0,0,1-12.6-8.7,2.65,2.65,0,0,1-1.2-1.9,3.36,3.36,0,0,1,.5-1.4,55.84,55.84,0,0,1,4.4-6.4,48.22,48.22,0,0,1,3.6-4.3,4.82,4.82,0,0,1,2.2-1.5,3.28,3.28,0,0,1,2.8,1.2,11.41,11.41,0,0,0,1.1,1.1c2.1,2.4,6.3,4.7,9.5,6.4,2.4,1.2,4.4,2.1,4.9,2.5l.1.1a28.52,28.52,0,0,1-3.8,5.9,4.13,4.13,0,0,0-.7,1.1,48.82,48.82,0,0,1-5.9,6.9h0" fill="none" stroke="#1d1d1b" stroke-linecap="round" stroke-linejoin="round" stroke-width="6"/><polyline points="284.6 361 291.1 423.2 291.1 423.5 303.1 423.5 303.2 423 306.6 361.5" fill="none" stroke="#1d1d1b" stroke-linecap="round" stroke-linejoin="round" stroke-width="6"/><path d="M348.1,459.4h0c-2.1,1.5-1.9,4.7-1.1,7.2a32.28,32.28,0,0,0,2.4,5.8" fill="none" stroke="#1d1d1b" stroke-linecap="round" stroke-linejoin="round" stroke-width="6"/><path d="M334.2,452c-4.4,2.9-13.8,10.7-10.8,17.1,1.3,2.8,3.6,2.3,4.3,5.8.7,3.7-.8,8.6-.6,12.5a12.23,12.23,0,0,0,.9,4.3,13.43,13.43,0,0,0,2.9,3.4,30.93,30.93,0,0,0,27.6,6,11.66,11.66,0,0,0,3.6-1.6c2.7-2,3.5-5.8,3.2-9.1a20.23,20.23,0,0,0-6-12.6,16.38,16.38,0,0,0-2.5-2.1,18.57,18.57,0,0,0-7.5-3.2,20.43,20.43,0,0,0-9.2.2" fill="none" stroke="#1d1d1b" stroke-linecap="round" stroke-linejoin="round" stroke-width="6"/><path d="M268.9,441.7c5.9,2.2,9.4,7.5,9.9,13.7-2.5,1.9-5.1,3.8-7.6,5.8a8.51,8.51,0,0,0-2.5,2.5c-.8,1.4-.7,3.2-.6,4.8.6,9.5-.4,20.1-7.6,26.3-5.9,5-14.9,5.9-22.2,3.9-4.9-1.4-8.1-5.4-7.8-10.6.3-5.5,2.5-8.7,5.9-11.1a42.66,42.66,0,0,1,7.1-3.8c3.3-1.4,5.5-4.6,6.6-8a41.73,41.73,0,0,0,1.5-10.6,17.7,17.7,0,0,0,.1,2.3" fill="none" stroke="#1d1d1b" stroke-linecap="round" stroke-linejoin="round" stroke-width="6"/><path d="M245.6,474.7a11.66,11.66,0,0,1,12.7,7.3" fill="none" stroke="#1d1d1b" stroke-linecap="round" stroke-linejoin="round" stroke-width="6"/><path d="M262.1,322.5s.3-10.3-.8-11" fill="none" stroke="#1d1d1b" stroke-linecap="round" stroke-linejoin="round" stroke-width="6"/><path d="M341.4,322.7s-.3-10.3.5-11.3" fill="none" stroke="#1d1d1b" stroke-linecap="round" stroke-linejoin="round" stroke-width="6"/><path d="M267.6,190.7s-3.7-8,6.4-8.4" fill="none" stroke="#1d1d1b" stroke-linecap="round" stroke-linejoin="round" stroke-width="6"/><line x1="278.6" y1="190" x2="279.1" y2="197.5" fill="none" stroke="#1d1d1b" stroke-linecap="round" stroke-linejoin="round" stroke-width="6"/><line x1="323.6" y1="195" x2="323.6" y2="197.5" fill="none" stroke="#1d1d1b" stroke-linecap="round" stroke-linejoin="round" stroke-width="6"/><path d="M265.6,199l.1-.8a4.52,4.52,0,0,1-1.1-4.3,4.8,4.8,0,0,1,3-3.2c3.9,2.3,7.5,4.8,11.3,7.1,1.3.8,2.6,1.6,4,2.4a36.65,36.65,0,0,0,9.4,4.4c6.8,1.7,13.8-.7,20.3-3.1,3.7-1.3,7.4-2.7,11.2-4,2.9-1,5.7-2.1,8.6-3.1a3.55,3.55,0,0,1,1-.2,1.6,1.6,0,0,1,.9.7,21,21,0,0,1,3.4,5,12.17,12.17,0,0,1,5.8-.7c8,1.8,16.5,6.9,23.7,10.6a38.51,38.51,0,0,1,8.1,5.2,38.08,38.08,0,0,1,5.2,6.1c5,6.7,10.1,13.6,12.5,21.6a23.8,23.8,0,0,1-3,20.4c-5,7.4-14.5,14.6-23.3,16.5l-.3-.1a237.06,237.06,0,0,0,6.6-39.6c-.6-1.7-1.6-2.9-2.5-3.1-1.2-.3-10.4-.5-23.3-.6-35-.4-97.3-.4-100.8-.3-4.4.2-8.8.3-13.3.5a4.48,4.48,0,0,0-2,.4,4.89,4.89,0,0,0-1.3,1.2,10.68,10.68,0,0,0-2,3.6c4.1,11.8,7.9,23.5,11.8,35.3l-.3.1a74.73,74.73,0,0,1-12.1-10.4c-4.5-4.7-8.3-10.5-9.3-17-.1-.7-.3-2.8-.3-3.5-.1-1.8,1.5-13,.9-14.4-.7-1.7,1.8-3.6,2.7-4.7,3.2-3.9,5.1-8.7,7.3-13.2s5-9.1,9.4-11.7c3-1.8,6.4-2.4,9.9-2.9A96.24,96.24,0,0,1,265.6,199Z" fill="#f49389"/><path d="M377.8,458.2a12.89,12.89,0,0,1,4.7,9.9,12.85,12.85,0,1,1-18.3-11.7,12.21,12.21,0,0,1,5.4-1.2A12.73,12.73,0,0,1,377.8,458.2Z" fill="#333435"/><path d="M377.9,458.1h0a14,14,0,0,0-8.3-2.8,12.21,12.21,0,0,0-5.4,1.2v-.1c-1.8-1.5-3.6-2.9-5.5-4.2l-.1-.1a33.33,33.33,0,0,0,3.8-5.9.1.1,0,0,0-.1-.1l1.4-1.8A97.31,97.31,0,0,1,377.9,458.1Z" fill="#333435"/><path d="M262.2,322.5h0s.2-10.3-.8-11V311h80.5v.5c-.8,1-.5,11.3-.5,11.3l-.1.2c15.9,12.1,30.8,35.7,33.9,54.3,3.2,19.3-3.8,47.3-15.8,63.7-.7.9-1.3,1.8-2,2.6h0c-3.3-1.7-7.4-4-9.5-6.4a5.73,5.73,0,0,0-1.1-1.1h0c.5-.7,1-1.3,1.5-2a82,82,0,0,0,6.1-8.9c6.5-10.9,10.4-23.7,9.3-36.3-.8-9.2-4.3-23.1-17.8-33.5a52.3,52.3,0,0,0-5.2-3.5c-9.2-5.5-22.1-9.5-39.9-10.5-11.1.9-29.3,4.1-42.2,9.4a48.17,48.17,0,0,0-8.5,4.4,8.34,8.34,0,0,1-1.2.8c-11.4,8.6-19.3,22.8-17.8,37,1.1,10,6.6,19,12.8,26.9a93.53,93.53,0,0,0,10.9,11.8l.1.1a27.91,27.91,0,0,1-9.3,6.9l-.1-.1c-.8-.6-1.7-1.3-2.5-2a81.09,81.09,0,0,1-11.2-12.2,95.83,95.83,0,0,1-11-17.1,41,41,0,0,1-3.4-26C222.4,357.1,240.1,334,262.2,322.5Z" fill="#496672"/><path d="M370.5,237c.9.2,1.9,1.4,2.5,3.1a237.06,237.06,0,0,1-6.6,39.6c-1.9,7.5-4.2,15.1-6.8,23.2l-111.4-.5c-3-8.5-5.8-16.9-8.5-25.4-3.9-11.7-7.7-23.5-11.8-35.3a12.74,12.74,0,0,1,2-3.6,4.89,4.89,0,0,1,1.3-1.2,6.47,6.47,0,0,1,2-.4c4.4-.2,8.8-.3,13.3-.5,3.4-.1,65.7-.1,100.8.3C360,236.5,369.2,236.7,370.5,237Z" fill="#afb2b2"/><path d="M349.4,472.5a18.57,18.57,0,0,1,7.5,3.2,16.38,16.38,0,0,1,2.5,2.1,20.23,20.23,0,0,1,6,12.6c.3,3.4-.5,7.1-3.2,9.1a11.66,11.66,0,0,1-3.6,1.6,30.93,30.93,0,0,1-27.6-6,10.34,10.34,0,0,1-2.9-3.4,12.23,12.23,0,0,1-.9-4.3c-.3-3.9,1.3-8.8.6-12.5s-3.1-3-4.3-5.8c-3-6.4,6.4-14.2,10.8-17.1l.4-1.8a67.37,67.37,0,0,0,12.6,8.7c.3.2.6.3.9.5-2.1,1.5-1.9,4.7-1.1,7.2a24.93,24.93,0,0,0,2.3,5.9Z" fill="#333435"/><path d="M363.7,444.2l-1.4,1.8c-.5-.4-2.5-1.3-4.9-2.5h0c.7-.8,1.3-1.7,2-2.6l.2.2C361,442.1,362.4,443.1,363.7,444.2Z" fill="#333435"/><path d="M348.1,459.4a7.25,7.25,0,0,1-.9-.5,68.86,68.86,0,0,1-12.6-8.7,2.65,2.65,0,0,1-1.2-1.9,3.36,3.36,0,0,1,.5-1.4,55.84,55.84,0,0,1,4.4-6.4,48.22,48.22,0,0,1,3.6-4.3,4.82,4.82,0,0,1,2.2-1.5,3.28,3.28,0,0,1,2.8,1.2A11.41,11.41,0,0,0,348,437c2.1,2.4,6.3,4.7,9.5,6.4,2.4,1.2,4.4,2.1,4.9,2.5l.1.1a28.52,28.52,0,0,1-3.8,5.9,4.13,4.13,0,0,0-.7,1.1,41.72,41.72,0,0,1-5.8,6.8h0C350.9,460.6,349.4,460,348.1,459.4Z" fill="#496672"/><path d="M359.9,307.5c0,1,0,2.7-1.2,3.4H250.5a5.07,5.07,0,0,1-1.3.2,2.27,2.27,0,0,1-1.9-1.4,6.37,6.37,0,0,1-.4-2.4,16.35,16.35,0,0,1,.2-2.2H359.8C359.8,306.1,359.9,306.6,359.9,307.5Z" fill="#afb2b2"/><path d="M291.4,435h-.3a77.19,77.19,0,0,0-25.1,2.1c-2.7-2.4-5.3-4.9-7.9-7.5a108.64,108.64,0,0,1,33-6.4v.2h12v-.5l2.2.1a87,87,0,0,1,42.5,10.6l.4.3c-.5.7-1,1.3-1.5,2h0a3.45,3.45,0,0,0-2.8-1.2,4.59,4.59,0,0,0-2.2,1.5c-1.3,1.4-2.4,2.8-3.6,4.3l-.1-.1a71.72,71.72,0,0,0-34.2-5.3h-.1c.2,3,.2,5.9.2,7a82.86,82.86,0,0,1-1.4,12.2h-9.8v-.1C291.7,450.1,291.2,442.4,291.4,435Z" fill="#333435"/><path d="M347.5,117.5a2,2,0,0,1-.1,1.7,20.78,20.78,0,0,1-3.1,5.9,15.33,15.33,0,0,1-7.3,4.5c.3,2.2.7,4.4.9,6.5h-.3c-7.4-3.1-8.3-11.6-8.3-11.6-12.1-6.9-44.6-7.3-47.3,4.1-.9,3.9-8.6,6.2-8.6,6.2v-.1a12,12,0,0,1-.3-5,27.93,27.93,0,0,1,1.4-4.7,40.4,40.4,0,0,1,4.9-10c2.2-3,5.5-5.4,9.2-5.7,1.3-.1,2.8,0,3.8-.8.6-.5.9-1.2,1.5-1.7a5.11,5.11,0,0,1,4.5-1.1,13,13,0,0,1,4.3,2c-.2-1.8,2.1-2.7,3.9-2.8a26.58,26.58,0,0,1,11.8,2.1,5.8,5.8,0,0,1,7-1.4,5.67,5.67,0,0,1,2.5,6.7,29.29,29.29,0,0,1,7.8-1,5,5,0,0,1,3.6,1.1c.9.9.9,2.8-.3,3.3a36.62,36.62,0,0,1,7.4,1C346.9,117,347.3,117.1,347.5,117.5Z" fill="#543919"/><path d="M345.9,355.3l-.2.3a242.8,242.8,0,0,1-39,4.6,200,200,0,0,1-21.9-.3,220.34,220.34,0,0,1-34.4-4.5l-.2-.3a48.17,48.17,0,0,1,8.5-4.4l.1.2a183.14,183.14,0,0,0,82,.9l.1-.1C342.6,352.9,344.3,354.1,345.9,355.3Z" fill="#333435"/><path d="M341.4,161.9c1.2,1.3,1.3,3.3,1.3,5,0,7.6-1.5,15.6-6.6,21.3a2.29,2.29,0,0,1-1,.7,1.6,1.6,0,0,1-1.4-.8,7.4,7.4,0,0,1-1.6-4,15.16,15.16,0,0,0,.1-6h.3a21.45,21.45,0,0,0,4.7-9.1,35,35,0,0,0,.7-4.5l.5.1A7.74,7.74,0,0,1,341.4,161.9Z" fill="#8e7b6e"/><path d="M340.7,351.8l-.1.1a186.05,186.05,0,0,1-82-.9l-.1-.2c12.9-5.4,31.1-8.5,42.2-9.4C318.6,342.3,331.5,346.3,340.7,351.8Z" fill="#333435"/><path d="M272.3,172.7a18.4,18.4,0,0,1,2.6-8.3l-.2-.1a34.77,34.77,0,0,1-2.1-12.4v-3.1c.1-4.7.3-9.4.7-14h.1v.1s7.7-2.3,8.6-6.2c2.6-11.4,35.1-11,47.3-4.1,0,0,.9,8.5,8.3,11.6h.3c.4,3.9.5,7.7-.6,11.2h0c.4,5,.9,11.6.5,16.5a.75.75,0,0,1-.1.5,22.23,22.23,0,0,1-.7,4.5,20.89,20.89,0,0,1-4.7,9.1H332a17.28,17.28,0,0,1-.1,6,15,15,0,0,1-4.6,8.1,16.59,16.59,0,0,1-3.9,2.6,35,35,0,0,1-10.2,2.8c-7.5,1-15.2,1.1-22.4-1.2a30.7,30.7,0,0,1-11.6-6.7,22.85,22.85,0,0,1-5.3-7.4A21.4,21.4,0,0,1,272.3,172.7Zm58.3-20.5c1.1-.3,4.6-9.2-.4-11.4-2.6-1.2-5.9-2.4-8.6-3.6a5.66,5.66,0,0,0-3.1-.7c-2,.3-3.2,2.4-3.9,4.3-.7,1.7-1.4,3.7-.5,5.3C316,149.5,326.6,153.2,330.6,152.2ZM320.3,165a3,3,0,0,0-.7-3.5c-1.1-.8-.7-.8-1.9-.8l-.5-.2a2.63,2.63,0,0,0-1.6,3.4,3.61,3.61,0,0,0,3.3,2.2,1.08,1.08,0,0,0,.8-.2A1.46,1.46,0,0,0,320.3,165Zm-20.8-19.5c1.8-1,1.4-3.5,1.4-5.5,0-1.8-.3-4.5-1.1-5.1-3.3-2.3-16.1-3.1-17.6.8-.6,1.8,1,10.4,2.7,10.4,2.9,0,8.5-.1,11.4-.1A5,5,0,0,0,299.5,145.5Zm-8.2,14.9a3,3,0,0,0-.7-3.5c-1.1-.8-.7-.8-1.9-.8l-.5-.2a2.63,2.63,0,0,0-1.6,3.4,3.61,3.61,0,0,0,3.3,2.2,1.08,1.08,0,0,0,.8-.2A2.36,2.36,0,0,0,291.3,160.4Z" fill="#8e7b6e"/><path d="M330.3,140.7c5,2.2,1.5,11.1.4,11.4-4,1.1-14.6-2.6-16.4-6.2-.8-1.6-.2-3.6.5-5.3.8-1.9,1.9-4.1,3.9-4.3a5.66,5.66,0,0,1,3.1.7C324.3,138.3,327.6,139.6,330.3,140.7Z" fill="#543919"/><path d="M323.6,197.5l.1.1c-3.7,1.3-7.5,2.7-11.2,4-6.6,2.4-13.6,4.7-20.3,3.1-3.4-.8-6.4-2.6-9.4-4.4-1.3-.8-2.7-1.6-4-2.4l.3-.4-.5-7.5.7-.2a29.44,29.44,0,0,0,11.6,6.7c7.2,2.3,15,2.2,22.4,1.2a32.18,32.18,0,0,0,10.2-2.8l.1.1v2.5Z" fill="#8e7b6e"/><path d="M319.6,161.5a2.89,2.89,0,0,1,.7,3.5,1.56,1.56,0,0,1-.6.8,3.09,3.09,0,0,1-.8.2,3.37,3.37,0,0,1-3.3-2.2,2.72,2.72,0,0,1,1.6-3.4l.5.2C318.8,160.7,318.5,160.8,319.6,161.5Z"/><path d="M291.1,423.2l-6.5-62.3.1-1q10.95.6,21.9.3v1.3L303.1,423v.5h-12Z" fill="#333435"/><path d="M305.3,470.7v8.4a17.43,17.43,0,0,1-7.5,1.6,28,28,0,0,1-9-1.6l.1-8.4h16.4Z" fill="#333435"/><polygon points="302.6 454.4 305.3 454.4 305.3 470.7 304.9 470.7 288.9 470.7 289 454.4 292.8 454.4 302.6 454.4" fill="#333435"/><path d="M300.9,140c0,2,.4,4.5-1.4,5.5a6.55,6.55,0,0,1-3.1.5c-2.9,0-8.5.1-11.4.1-1.8,0-3.4-8.6-2.7-10.4,1.4-3.9,14.3-3,17.6-.8C300.6,135.5,300.9,138.1,300.9,140Z" fill="#543919"/><path d="M290.6,156.9a2.89,2.89,0,0,1,.7,3.5,1.56,1.56,0,0,1-.6.8,3.09,3.09,0,0,1-.8.2,3.37,3.37,0,0,1-3.3-2.2,2.72,2.72,0,0,1,1.6-3.4l.5.2C289.8,156,289.5,156.1,290.6,156.9Z"/><path d="M279.3,189.7l-.7.2.5,7.5-.3.4c-3.8-2.4-7.4-4.8-11.3-7.1,0,0-3.7-8,6.4-8.4A25.23,25.23,0,0,0,279.3,189.7Z" fill="#f49389"/><path d="M251.6,454.6l-.1-.3a10.89,10.89,0,0,0,2.5-1c5.1-2.7,11.1-7,14.6-11.8l.3.2c5.9,2.2,9.4,7.5,9.9,13.7-2.5,1.9-5.1,3.8-7.6,5.8a8.51,8.51,0,0,0-2.5,2.5c-.8,1.4-.7,3.2-.6,4.8.6,9.5-.4,20.1-7.6,26.3-5.9,5-14.9,5.9-22.2,3.9-4.9-1.4-8.1-5.4-7.8-10.6.3-5.5,2.5-8.7,5.9-11.1a42.66,42.66,0,0,1,7.1-3.8c3.3-1.4,5.5-4.6,6.6-8A41.74,41.74,0,0,0,251.6,454.6Z" fill="#333435"/><path d="M274.8,164.3l.2.1a18.4,18.4,0,0,0-2.6,8.3,1.51,1.51,0,0,1-2,.8,4.21,4.21,0,0,1-1.6-1.9,23.54,23.54,0,0,1-1.4-7,70.7,70.7,0,0,1,.1-17.2c.1-.3.2-.8.5-.8a.74.74,0,0,1,.8.4c1.4,1.5,3.3,3,3.9,5h.2A30.24,30.24,0,0,0,274.8,164.3Z" fill="#8e7b6e"/><path d="M258.1,429.6c2.5,2.6,5.2,5.1,7.9,7.5,1.2,1,2.3,2.1,3.5,3.1-.3.4-.6.9-.9,1.3-3.5,4.8-9.5,9.1-14.6,11.8a10.89,10.89,0,0,1-2.5,1,9.69,9.69,0,0,1-2.3.3c-2.8-.3-4.7-2.7-6.2-5a16.29,16.29,0,0,1-1.1-1.7c-1.3-2-2.6-4.1-3.9-6.2a7.84,7.84,0,0,0,1.4-.5,49.14,49.14,0,0,0,6.3-2.6,28.25,28.25,0,0,0,9.3-6.9,18.12,18.12,0,0,0,2.2-3.2A4.36,4.36,0,0,0,258.1,429.6Z" fill="#496672"/><path d="M245.5,438.5h0a37.56,37.56,0,0,1-6.2,2.7l-1.1-1.8c1.6-1,3.2-2,4.9-2.9A15.91,15.91,0,0,0,245.5,438.5Z" fill="#333435"/><path d="M241.7,447.9l-.3.2a96.87,96.87,0,0,0-9.9,7.3v.1a12.21,12.21,0,0,0-5.4-1.2,13.21,13.21,0,0,0-8.2,2.9l-.1-.1a88.77,88.77,0,0,1,20.3-17.6l1.1,1.8c-.5.2-.9.3-1.4.5C239.1,443.7,240.4,445.8,241.7,447.9Z" fill="#333435"/><path d="M231.5,455.4a12.79,12.79,0,0,1,2.7,21.5,13,13,0,0,1-8.2,2.9,12.79,12.79,0,0,1-8.1-22.7,13,13,0,0,1,8.2-2.9A13.76,13.76,0,0,1,231.5,455.4Z" fill="#333435"/><path d="M257.7,429.7c.1,0,.2-.1.4-.1a108.64,108.64,0,0,1,33-6.4c3.3-.1,6.6-.1,10,.1" fill="none" stroke="#000" stroke-linecap="round" stroke-linejoin="round" stroke-width="2"/><path d="M217.9,457.1a88.77,88.77,0,0,1,20.3-17.6c1.6-1,3.2-2,4.9-2.9h0" fill="none" stroke="#000" stroke-linecap="round" stroke-linejoin="round" stroke-width="2"/><path d="M265.9,437.1h0A72.06,72.06,0,0,1,291,435" fill="none" stroke="#000" stroke-linecap="round" stroke-linejoin="round" stroke-width="2"/><path d="M231.5,455.3a114.53,114.53,0,0,1,9.9-7.3" fill="none" stroke="#000" stroke-linecap="round" stroke-linejoin="round" stroke-width="2"/><path d="M231.5,455.4a12.79,12.79,0,0,1,2.7,21.5,13,13,0,0,1-8.2,2.9,12.79,12.79,0,0,1-8.1-22.7,13,13,0,0,1,8.2-2.9A13.76,13.76,0,0,1,231.5,455.4Z" fill="none" stroke="#000" stroke-linecap="round" stroke-linejoin="round" stroke-width="2"/><path d="M347.9,433.7a88.12,88.12,0,0,0-42.5-10.6" fill="none" stroke="#000" stroke-linecap="round" stroke-linejoin="round" stroke-width="2"/><path d="M377.9,458.1a98.17,98.17,0,0,0-14.2-13.9c-1.3-1.1-2.7-2.1-4.1-3.1" fill="none" stroke="#000" stroke-linecap="round" stroke-linejoin="round" stroke-width="2"/><path d="M338.1,440.5a71.72,71.72,0,0,0-34.2-5.3" fill="none" stroke="#000" stroke-linecap="round" stroke-linejoin="round" stroke-width="2"/><path d="M364.2,456.3c-1.8-1.5-3.6-2.9-5.5-4.2" fill="none" stroke="#000" stroke-linecap="round" stroke-linejoin="round" stroke-width="2"/><path d="M364.2,456.4a12.94,12.94,0,1,0,13.6,1.8,13,13,0,0,0-8.2-2.9A12.44,12.44,0,0,0,364.2,456.4Z" fill="none" stroke="#000" stroke-linecap="round" stroke-linejoin="round" stroke-width="2"/><path d="M291.8,427.5c-.2,2.3-.4,4.9-.4,7.5-.2,7.4.3,15.1,1.4,19.3" fill="none" stroke="#000" stroke-linecap="round" stroke-linejoin="round" stroke-width="2"/><path d="M303.1,428.3a52.78,52.78,0,0,1,.8,6.9c.2,3,.2,5.9.2,7a82.86,82.86,0,0,1-1.4,12.2h0" fill="none" stroke="#000" stroke-linecap="round" stroke-linejoin="round" stroke-width="2"/><polyline points="288.9 479.1 288.9 470.7 289 454.4 292.8 454.4 302.6 454.4 305.3 454.4 305.3 470.7 305.3 479.1" fill="none" stroke="#000" stroke-linecap="round" stroke-linejoin="round" stroke-width="2"/><path d="M288.9,479.1a28,28,0,0,0,9,1.6,17.75,17.75,0,0,0,7.5-1.6" fill="none" stroke="#000" stroke-linecap="round" stroke-linejoin="round" stroke-width="2"/><polyline points="288.8 470.7 288.9 470.7 304.9 470.7" fill="none" stroke="#000" stroke-linecap="round" stroke-linejoin="round" stroke-width="2"/><path d="M285,146.1c2.9,0,8.5-.1,11.4-.1a6.35,6.35,0,0,0,3.1-.5c1.8-1,1.4-3.5,1.4-5.5,0-1.8-.3-4.5-1.1-5.1-3.3-2.3-16.1-3.1-17.6.8C281.6,137.5,283.3,146.1,285,146.1Z" fill="none" stroke="#000" stroke-linecap="round" stroke-linejoin="round" stroke-width="2"/><path d="M330.3,140.7c-2.6-1.2-5.9-2.4-8.6-3.6a5.66,5.66,0,0,0-3.1-.7c-2,.3-3.2,2.4-3.9,4.3-.7,1.7-1.4,3.7-.5,5.3,1.8,3.5,12.4,7.3,16.4,6.2C331.8,151.8,335.2,142.9,330.3,140.7Z" fill="none" stroke="#000" stroke-linecap="round" stroke-linejoin="round" stroke-width="2"/><path d="M273.4,134.8c-.4,4.7-.6,9.4-.7,14v3.1a34.4,34.4,0,0,0,2.1,12.4" fill="none" stroke="#000" stroke-linecap="round" stroke-linejoin="round" stroke-width="2"/><path d="M277.4,161.4a12.61,12.61,0,0,0-2.5,3.1,18.4,18.4,0,0,0-2.6,8.3,19.77,19.77,0,0,0,1.7,9.6,24.45,24.45,0,0,0,5.3,7.4,29.44,29.44,0,0,0,11.6,6.7c7.2,2.3,15,2.2,22.4,1.2a32.18,32.18,0,0,0,10.2-2.8,16.58,16.58,0,0,0,3.9-2.6,15.6,15.6,0,0,0,2-20.5" fill="none" stroke="#000" stroke-linecap="round" stroke-linejoin="round" stroke-width="2"/><path d="M332.5,178.1a21.45,21.45,0,0,0,4.7-9.1,35,35,0,0,0,.7-4.5.75.75,0,0,1,.1-.5c.4-5-.2-11.6-.5-16.5" fill="none" stroke="#000" stroke-linecap="round" stroke-linejoin="round" stroke-width="2"/><path d="M307.6,162.7a22.43,22.43,0,0,1,1.3,7.3,10.52,10.52,0,0,1-.7,4.3,8.22,8.22,0,0,1-2.3,3.2" fill="none" stroke="#000" stroke-linecap="round" stroke-linejoin="round" stroke-width="2"/><path d="M292.8,173.9a5.72,5.72,0,0,0,1.6,1.1,23,23,0,0,0,11.5,2.5" fill="none" stroke="#000" stroke-linecap="round" stroke-linejoin="round" stroke-width="2"/><path d="M292.4,187.1a42,42,0,0,0,21-3.6h0" fill="none" stroke="#000" stroke-linecap="round" stroke-linejoin="round" stroke-width="2"/><path d="M312,181.9a20,20,0,0,1,1.4,1.6,6.42,6.42,0,0,1,1.2,2.5" fill="none" stroke="#000" stroke-linecap="round" stroke-linejoin="round" stroke-width="2"/><path d="M277.1,200.8a90.48,90.48,0,0,0-11.6-1.9,81.55,81.55,0,0,0-17.8.4c-3.4.5-6.9,1.1-9.9,2.9-4.4,2.6-7.1,7.1-9.4,11.7s-4.1,9.4-7.3,13.2c-1,1.2-3.4,3-2.7,4.7.6,1.5-1,12.7-.9,14.4,0,.7.2,2.8.3,3.5,1,6.5,4.7,12.3,9.3,17a86.15,86.15,0,0,0,12.1,10.4" fill="none" stroke="#000" stroke-linecap="round" stroke-linejoin="round" stroke-width="2"/><path d="M265.6,198.2a4.52,4.52,0,0,1-1.1-4.3,4.8,4.8,0,0,1,3-3.2c3.9,2.3,7.5,4.8,11.3,7.1,1.3.8,2.6,1.6,4,2.4a36.65,36.65,0,0,0,9.4,4.4c6.8,1.7,13.8-.7,20.3-3.1,3.7-1.3,7.4-2.7,11.2-4,2.9-1,5.7-2.1,8.6-3.1a3.55,3.55,0,0,1,1-.2,1.6,1.6,0,0,1,.9.7,21,21,0,0,1,3.4,5c.1.1.1.3.2.4-2.3,1-4.6,2-6.9,3.1" fill="none" stroke="#000" stroke-linecap="round" stroke-linejoin="round" stroke-width="2"/><path d="M323.4,208.8c.2.1-.2.4-.3.1s.1-.4.3-.6c3.3-2.3,9.1-6.5,14.2-8.3a12.17,12.17,0,0,1,5.8-.7c8,1.8,16.5,6.9,23.7,10.6a38.51,38.51,0,0,1,8.1,5.2,38.08,38.08,0,0,1,5.2,6.1c5,6.7,10.1,13.6,12.5,21.6a23.8,23.8,0,0,1-3,20.4c-5,7.4-14.5,14.6-23.3,16.5" fill="none" stroke="#000" stroke-linecap="round" stroke-linejoin="round" stroke-width="2"/><path d="M272.5,151.9c-.6-2-2.5-3.5-3.9-5a1.23,1.23,0,0,0-.8-.4c-.3.1-.4.5-.5.8a76.1,76.1,0,0,0-.1,17.2,23.55,23.55,0,0,0,1.4,7,3.05,3.05,0,0,0,1.6,1.9,1.41,1.41,0,0,0,2-.8h0" fill="none" stroke="#000" stroke-linecap="round" stroke-linejoin="round" stroke-width="2"/><path d="M338.4,164.4a8.38,8.38,0,0,1,3.1-2.5c1.2,1.3,1.3,3.3,1.3,5,0,7.6-1.5,15.6-6.6,21.3a2.29,2.29,0,0,1-1,.7,1.6,1.6,0,0,1-1.4-.8,7.4,7.4,0,0,1-1.6-4" fill="none" stroke="#000" stroke-linecap="round" stroke-linejoin="round" stroke-width="2"/><path d="M337,148.4c.1-.4.3-.8.4-1.1h0c1.1-3.5,1-7.3.6-11.2-.2-2.1-.6-4.3-.9-6.5a15.82,15.82,0,0,0,7.3-4.5,20.78,20.78,0,0,0,3.1-5.9,2,2,0,0,0,.1-1.7,2,2,0,0,0-1.1-.6,36.62,36.62,0,0,0-7.4-1c1.2-.5,1.2-2.3.3-3.3a5,5,0,0,0-3.6-1.1,25.72,25.72,0,0,0-7.8,1,5.67,5.67,0,0,0-2.5-6.7,5.54,5.54,0,0,0-7,1.4,26.58,26.58,0,0,0-11.8-2.1c-1.8.1-4.1,1-3.9,2.8a15.22,15.22,0,0,0-4.3-2A4.9,4.9,0,0,0,294,107c-.5.5-.9,1.2-1.5,1.7-1,.8-2.5.7-3.8.8-3.7.3-7,2.7-9.2,5.7a40.39,40.39,0,0,0-4.9,10,19.54,19.54,0,0,0-1.4,4.7,10.55,10.55,0,0,0,.3,5v.1s7.7-2.3,8.6-6.2c2.6-11.4,35.1-11,47.3-4.1,0,0,.9,8.5,8.3,11.6" fill="none" stroke="#000" stroke-linecap="round" stroke-linejoin="round" stroke-width="2"/><line x1="232.3" y1="241.8" x2="369.4" y2="241.6" fill="none" stroke="#000" stroke-linecap="round" stroke-linejoin="round" stroke-width="2"/><path d="M239.6,277c2.8,8.4,5.6,16.9,8.5,25.4l111.4.5c2.6-8.1,4.9-15.7,6.8-23.2a237.06,237.06,0,0,0,6.6-39.6c-.6-1.7-1.6-2.9-2.5-3.1-1.2-.3-10.4-.5-23.3-.6-35-.4-97.3-.4-100.8-.3-4.4.2-8.8.3-13.3.5a4.48,4.48,0,0,0-2,.4,4.89,4.89,0,0,0-1.3,1.2,10.68,10.68,0,0,0-2,3.6C231.9,253.5,235.7,265.2,239.6,277Z" fill="none" stroke="#000" stroke-linecap="round" stroke-linejoin="round" stroke-width="2"/><line x1="254.5" y1="297.5" x2="354.8" y2="297.5" fill="none" stroke="#000" stroke-linecap="round" stroke-linejoin="round" stroke-width="2"/><path d="M261.4,311H250.5a5.07,5.07,0,0,1-1.3.2,2.27,2.27,0,0,1-1.9-1.4,6.37,6.37,0,0,1-.4-2.4,16.35,16.35,0,0,1,.2-2.2H359.8c0,.9.1,1.5.1,2.4s0,2.7-1.2,3.4H261.4Z" fill="none" stroke="#000" stroke-linecap="round" stroke-linejoin="round" stroke-width="2"/><path d="M268.8,319.5c-2.3.9-4.5,1.9-6.7,3-22.1,11.5-39.8,34.6-44.7,58.7a41,41,0,0,0,3.4,26,85.88,85.88,0,0,0,11,17.1A92.06,92.06,0,0,0,243,436.5a24.33,24.33,0,0,0,2.5,2" fill="none" stroke="#000" stroke-linecap="round" stroke-linejoin="round" stroke-width="2"/><path d="M336.8,319.8c1.5.9,3,2,4.5,3.1,15.9,12.1,30.8,35.7,33.9,54.3,3.2,19.3-3.8,47.3-15.8,63.7-.7.9-1.3,1.8-2,2.6" fill="none" stroke="#000" stroke-linecap="round" stroke-linejoin="round" stroke-width="2"/><path d="M346.8,436c.5-.7,1-1.3,1.5-2a82,82,0,0,0,6.1-8.9c6.5-10.9,10.4-23.7,9.3-36.3-.8-9.2-4.3-23.1-17.8-33.5a52.3,52.3,0,0,0-5.2-3.5c-9.2-5.5-22.1-9.5-39.9-10.5-11.1.9-29.3,4.1-42.2,9.4a48.17,48.17,0,0,0-8.5,4.4,8.34,8.34,0,0,1-1.2.8c-11.4,8.6-19.3,22.8-17.8,37,1.1,10,6.6,19,12.8,26.9a93.53,93.53,0,0,0,10.9,11.8" fill="none" stroke="#000" stroke-linecap="round" stroke-linejoin="round" stroke-width="2"/><path d="M258.6,351a183.14,183.14,0,0,0,82,.9" fill="none" stroke="#000" stroke-linecap="round" stroke-linejoin="round" stroke-width="2"/><path d="M250.3,355.5a221.91,221.91,0,0,0,34.4,4.5q10.95.6,21.9.3a242.8,242.8,0,0,0,39-4.6" fill="none" stroke="#000" stroke-linecap="round" stroke-linejoin="round" stroke-width="2"/><path d="M268.6,441.5c.3-.4.6-.9.9-1.3-1.2-1-2.4-2-3.5-3.1-2.7-2.4-5.3-4.9-7.9-7.5l-1-1a16.6,16.6,0,0,1-2.2,3.2,27.91,27.91,0,0,1-9.3,6.9,55.88,55.88,0,0,1-6.3,2.6c-.5.2-.9.3-1.4.5,1.3,2.1,2.6,4.2,3.9,6.2a16.29,16.29,0,0,1,1.1,1.7c1.6,2.3,3.5,4.7,6.2,5a4.45,4.45,0,0,0,2.3-.3,10.89,10.89,0,0,0,2.5-1C259.1,450.6,265.1,446.3,268.6,441.5Z" fill="none" stroke="#000" stroke-linecap="round" stroke-linejoin="round" stroke-width="2"/><path d="M352.1,460a4.73,4.73,0,0,1-4-.5,7.25,7.25,0,0,1-.9-.5,68.86,68.86,0,0,1-12.6-8.7,2.65,2.65,0,0,1-1.2-1.9,3.36,3.36,0,0,1,.5-1.4,55.84,55.84,0,0,1,4.4-6.4,48.22,48.22,0,0,1,3.6-4.3,4.82,4.82,0,0,1,2.2-1.5,3.28,3.28,0,0,1,2.8,1.2,11.41,11.41,0,0,0,1.1,1.1c2.1,2.4,6.3,4.7,9.5,6.4,2.4,1.2,4.4,2.1,4.9,2.5l.1.1a28.52,28.52,0,0,1-3.8,5.9,4.13,4.13,0,0,0-.7,1.1,48.82,48.82,0,0,1-5.9,6.9h0" fill="none" stroke="#000" stroke-linecap="round" stroke-linejoin="round" stroke-width="2"/><polyline points="284.6 361 291.1 423.2 291.1 423.5 303.1 423.5 303.2 423 306.6 361.5" fill="none" stroke="#000" stroke-linecap="round" stroke-linejoin="round" stroke-width="2"/><path d="M348.1,459.4h0c-2.1,1.5-1.9,4.7-1.1,7.2a32.28,32.28,0,0,0,2.4,5.8" fill="none" stroke="#000" stroke-linecap="round" stroke-linejoin="round" stroke-width="2"/><path d="M334.2,452c-4.4,2.9-13.8,10.7-10.8,17.1,1.3,2.8,3.6,2.3,4.3,5.8.7,3.7-.8,8.6-.6,12.5a12.23,12.23,0,0,0,.9,4.3,13.43,13.43,0,0,0,2.9,3.4,30.93,30.93,0,0,0,27.6,6,11.66,11.66,0,0,0,3.6-1.6c2.7-2,3.5-5.8,3.2-9.1a20.23,20.23,0,0,0-6-12.6,16.38,16.38,0,0,0-2.5-2.1,18.57,18.57,0,0,0-7.5-3.2,20.43,20.43,0,0,0-9.2.2" fill="none" stroke="#000" stroke-linecap="round" stroke-linejoin="round" stroke-width="2"/><path d="M268.9,441.7c5.9,2.2,9.4,7.5,9.9,13.7-2.5,1.9-5.1,3.8-7.6,5.8a8.51,8.51,0,0,0-2.5,2.5c-.8,1.4-.7,3.2-.6,4.8.6,9.5-.4,20.1-7.6,26.3-5.9,5-14.9,5.9-22.2,3.9-4.9-1.4-8.1-5.4-7.8-10.6.3-5.5,2.5-8.7,5.9-11.1a42.66,42.66,0,0,1,7.1-3.8c3.3-1.4,5.5-4.6,6.6-8a41.73,41.73,0,0,0,1.5-10.6,17.7,17.7,0,0,0,.1,2.3" fill="none" stroke="#000" stroke-linecap="round" stroke-linejoin="round" stroke-width="2"/><path d="M245.6,474.7a11.66,11.66,0,0,1,12.7,7.3" fill="none" stroke="#000" stroke-linecap="round" stroke-linejoin="round" stroke-width="2"/><path d="M262.1,322.5s.3-10.3-.8-11" fill="none" stroke="#000" stroke-linecap="round" stroke-linejoin="round" stroke-width="2"/><path d="M341.4,322.7s-.3-10.3.5-11.3" fill="none" stroke="#000" stroke-linecap="round" stroke-linejoin="round" stroke-width="2"/><path d="M267.6,190.7s-3.7-8,6.4-8.4" fill="none" stroke="#000" stroke-linecap="round" stroke-linejoin="round" stroke-width="2"/><line x1="278.6" y1="190" x2="279.1" y2="197.5" fill="none" stroke="#000" stroke-linecap="round" stroke-linejoin="round" stroke-width="2"/><line x1="323.6" y1="195" x2="323.6" y2="197.5" fill="none" stroke="#000" stroke-linecap="round" stroke-linejoin="round" stroke-width="2"/><line x1="349.9" y1="223" x2="350.9" y2="236" fill="none" stroke="#000" stroke-linecap="round" stroke-linejoin="round" stroke-width="2"/><line x1="259.9" y1="223.5" x2="257.9" y2="236" fill="none" stroke="#000" stroke-linecap="round" stroke-linejoin="round" stroke-width="2"/></svg>