<svg xmlns="http://www.w3.org/2000/svg" viewBox="0 0 240.97 241.08"><title>carrossel_1</title><g id="9e3129ef-d48c-4d84-bff9-311712bb7a71" data-name="Layer 3"><path d="M53.95,94.14V91.66a67.34,67.34,0,0,1,67.32-67.33h3.08a67.31,67.31,0,0,1,67.32,67.33c0,14.84-3.43,25.94-11,41.16-.51,1-3.2,6.32-3.93,7.78-1.41,2.85-2.46,5.13-3.34,7.3a37.12,37.12,0,0,0-3.12,14.16,69.46,69.46,0,0,0,5.88,26.74,84.45,84.45,0,0,0,4.06,8.35c.82,1.47,1.45,2.49,1.79,3a3.06,3.06,0,0,1-1.54,4.59l-61.21,21.42a3.06,3.06,0,0,1-3.91-1.92l-11.54-34.63H81.49a27.53,27.53,0,0,1-27.55-27.56V143.7H44.76c-5.54,0-8.75-4.72-6.69-9.87Zm116.54,97a75.41,75.41,0,0,1-6.36-29.12,43,43,0,0,1,3.57-16.45c.94-2.34,2.05-4.74,3.53-7.72.74-1.5,3.44-6.81,3.94-7.81,7.22-14.45,10.39-24.7,10.39-38.42a61.19,61.19,0,0,0-61.2-61.21h-3.08a61.22,61.22,0,0,0-61.2,61.2v3.07a3.06,3.06,0,0,1-.22,1.14L43.76,136.1c-.45,1.13-.21,1.48,1,1.48H57a3.06,3.06,0,0,1,3.06,3.06v21.41a21.41,21.41,0,0,0,21.42,21.44H106a3.06,3.06,0,0,1,2.9,2.09l11.26,33.78,54.74-19.16A90.85,90.85,0,0,1,170.49,191.18Z" fill="#0071bc"/><path d="M122.56,64.82a32.46,32.46,0,1,0,30.78,42.77,2.29,2.29,0,0,0-4.34-1.45,27.88,27.88,0,1,1-.06-17.9,2.29,2.29,0,1,0,4.33-1.48A32.45,32.45,0,0,0,122.56,64.82Z" fill="#0071bc"/><path d="M173.68,104.62a2.34,2.34,0,0,0-2.68,1.83A49.28,49.28,0,1,1,171,88a2.29,2.29,0,1,0,4.49-.86,53.85,53.85,0,1,0,0,20.13A2.31,2.31,0,0,0,173.68,104.62Z" fill="#0071bc"/><path d="M224,97.28l6.68-8.87a2.86,2.86,0,0,0-1.95-4.56,32.19,32.19,0,0,0-24.91,7.87,2.79,2.79,0,0,0-.5.73H135V80.39L102,97.28l33,16.89V102.11h68.53a3.53,3.53,0,0,0,.23.36,31.9,31.9,0,0,0,21.34,8.47,30.38,30.38,0,0,0,3.61-.22,2.86,2.86,0,0,0,1.95-4.56Z" fill="#f15a24"/></g></svg>