<svg id="37afbc2b-030c-4ee9-939b-eb77069b0bce" data-name="Camada 1" xmlns="http://www.w3.org/2000/svg" viewBox="0 0 240.97 241.08"><title>carrossel_1</title><path d="M53.95,94.14V91.66a67.34,67.34,0,0,1,67.32-67.33h3.08a67.31,67.31,0,0,1,67.32,67.33c0,14.84-3.43,25.94-11,41.16-.51,1-3.2,6.32-3.93,7.78-1.41,2.85-2.46,5.13-3.34,7.3a37.12,37.12,0,0,0-3.12,14.16,69.46,69.46,0,0,0,5.88,26.74,84.45,84.45,0,0,0,4.06,8.35c.82,1.47,1.45,2.49,1.79,3a3.06,3.06,0,0,1-1.54,4.59l-61.21,21.42a3.06,3.06,0,0,1-3.91-1.92l-11.54-34.63H81.49a27.53,27.53,0,0,1-27.55-27.56V143.7H44.76c-5.54,0-8.75-4.72-6.69-9.87Zm116.54,97a75.41,75.41,0,0,1-6.36-29.12,43,43,0,0,1,3.57-16.45c.94-2.34,2.05-4.74,3.53-7.72.74-1.5,3.44-6.81,3.94-7.81,7.22-14.45,10.39-24.7,10.39-38.42a61.19,61.19,0,0,0-61.2-61.21h-3.08a61.22,61.22,0,0,0-61.2,61.2v3.07a3.06,3.06,0,0,1-.22,1.14L43.76,136.1c-.45,1.13-.21,1.48,1,1.48H57a3.06,3.06,0,0,1,3.06,3.06v21.41a21.41,21.41,0,0,0,21.42,21.44H106a3.06,3.06,0,0,1,2.9,2.09l11.26,33.78,54.74-19.16A90.85,90.85,0,0,1,170.49,191.18Z" fill="#0071bc"/><circle cx="122.8" cy="102.28" r="25.45" fill="#0071bc"/><polyline points="123.95 155.5 123.95 104.6 85.78 66.42" fill="none" stroke="#f15a24" stroke-linecap="round" stroke-linejoin="round" stroke-width="4"/><line x1="123.95" y1="104.6" x2="162.13" y2="66.42" fill="none" stroke="#f15a24" stroke-linecap="round" stroke-linejoin="round" stroke-width="4"/><polyline points="148.72 66.42 162.13 66.42 162.13 79.83" fill="none" stroke="#f15a24" stroke-linecap="round" stroke-linejoin="round" stroke-width="4"/><polyline points="85.78 79.83 85.78 66.42 99.19 66.42" fill="none" stroke="#f15a24" stroke-linecap="round" stroke-linejoin="round" stroke-width="4"/></svg>