<?xml version="1.0" encoding="utf-8"?>
<!-- Generator: Adobe Illustrator 21.0.0, SVG Export Plug-In . SVG Version: 6.00 Build 0)  -->
<svg version="1.1" id="a55dbf62-2c02-4294-9911-2cd287c611d4"
	 xmlns="http://www.w3.org/2000/svg" xmlns:xlink="http://www.w3.org/1999/xlink" x="0px" y="0px" viewBox="0 0 13.1 24.7"
	 style="enable-background:new 0 0 13.1 24.7;" xml:space="preserve">
<style type="text/css">
	.st0{fill:none;stroke:#FFFFFF;stroke-miterlimit:10;}
</style>
<title>icon_inicio</title>
<path class="st0" d="M3.8,20.8c0-0.3,0.1-0.7,0.2-1c0.1-0.3,0.3-0.6,0.6-0.8c0.8-0.8,2-1,3-0.5c0.3,0.1,0.6,0.3,0.8,0.5
	c0.5,0.5,0.8,1.1,0.8,1.8c0,0.3-0.1,0.7-0.2,1c-0.1,0.3-0.3,0.6-0.6,0.8c-0.2,0.2-0.5,0.4-0.8,0.5c-0.3,0.1-0.7,0.2-1,0.2
	c-0.4,0-0.7-0.1-1.1-0.2c-0.3-0.1-0.6-0.3-0.8-0.5c-0.3-0.2-0.5-0.5-0.6-0.9C3.9,21.5,3.8,21.1,3.8,20.8z M8.8,1v8.7
	c0,0.9-0.1,1.9-0.2,2.8c-0.1,0.9-0.3,1.9-0.4,2.8H4.9c-0.2-1-0.3-1.9-0.4-2.8c-0.1-0.9-0.2-1.8-0.2-2.8V1H8.8z"/>
</svg>
