<svg id="40303bfe-e312-43fd-8eec-2e7e28266ee3" data-name="Camada 1" xmlns="http://www.w3.org/2000/svg" viewBox="0 0 57.47 61.99"><title>icon_1_planejar</title><path d="M58.35,10.88a2.6,2.6,0,0,0-3.68,0l0,0-7.47,7.47a2.6,2.6,0,0,0,3.53,3.82l.18-.18,3.05-3V29.85a5.85,5.85,0,0,1-5.85,5.85H26.57a11,11,0,0,0-11,11h0v7.93a8.9,8.9,0,1,0,5.2,0V46.75a5.85,5.85,0,0,1,5.85-5.85H48.08a11,11,0,0,0,11-11V19l3.05,3.05A2.6,2.6,0,1,0,66,18.53l-.18-.18ZM21.83,63.19a3.7,3.7,0,1,1-3.7-3.7h0A3.7,3.7,0,0,1,21.83,63.19Z" transform="translate(-9.22 -10.11)" fill="#fff"/><path d="M47.5,66.7h.39a2.6,2.6,0,0,0,1.49-.52l9.94-7.08a2.61,2.61,0,1,0-3.05-4.22l-7.73,5.59L46.33,57.4a2.61,2.61,0,0,0-4.22,3.05l3.7,5.2A2.6,2.6,0,0,0,47.5,66.7Z" transform="translate(-9.22 -10.11)" fill="#fff"/><path d="M23.39,31.48a2.6,2.6,0,0,0,2.6-2.6V25.76h3.12a2.6,2.6,0,0,0,0-5.2H26V17.44a2.6,2.6,0,0,0-5.2,0v3.12H17.67a2.6,2.6,0,0,0,0,5.2h3.12v3.12A2.6,2.6,0,0,0,23.39,31.48Z" transform="translate(-9.22 -10.11)" fill="#fff"/></svg>