<svg id="e604537f-4d7d-482c-b808-1b4ceb130324" data-name="Camada 1" xmlns="http://www.w3.org/2000/svg" viewBox="0 0 39.69 42.55"><title>icon-risco-alagamento</title><path d="M30.49,11.2c-.85-2.6-2.85-4.35-5.08-4.35a4.34,4.34,0,0,0-2.35.65,7.73,7.73,0,0,0-6.19-3.2A8.2,8.2,0,0,0,9,11.23a7.94,7.94,0,0,0-4.43,2.05,7.1,7.1,0,0,0-2.32,5.25,7.66,7.66,0,0,0,7.88,7.39h5.48a.95.95,0,1,0,0-1.89H10.17a5.77,5.77,0,0,1-6-5.5A5.23,5.23,0,0,1,5.9,14.67,6.09,6.09,0,0,1,10,13.06a1,1,0,0,0,.92-1,.9.9,0,0,0,0-.18,6.36,6.36,0,0,1,6-5.72A6,6,0,0,1,22,9.33l.58,1,.87-.77a2.93,2.93,0,0,1,1.95-.82c1.43,0,2.75,1.26,3.33,3.12a.91.91,0,0,0,0,.21.94.94,0,0,0,.93,1h.17a5.76,5.76,0,0,1,5.72,5.49A5.72,5.72,0,0,1,30,24a.94.94,0,0,0,.07,1.89h.07a7.61,7.61,0,0,0,7.22-7.35A7.61,7.61,0,0,0,30.49,11.2Z" fill="#0071bc"/><path d="M10.59,26.93l-3.4,3.58a4.62,4.62,0,1,0,6.8,0Zm0,9.42a2.72,2.72,0,0,1-2.25-4.26l2.25-2.42,2,2.06.27.36h0a2.69,2.69,0,0,1,.48,1.53A2.73,2.73,0,0,1,10.58,36.35Z" fill="#0071bc"/><path d="M27,25.29l-.11-.12L22.6,20.66l-4.34,4.57-.08.09,0,0a6.05,6.05,0,1,0,8.91,0Zm-4.4,8.32a4.16,4.16,0,0,1-3.3-6.69l3.3-3.5,3,3.16.27.38h.06a4.16,4.16,0,0,1-3.32,6.66Z" fill="#0071bc"/></svg>