<?xml version="1.0" encoding="utf-8"?>
<!-- Generator: Adobe Illustrator 21.0.0, SVG Export Plug-In . SVG Version: 6.00 Build 0)  -->
<svg version="1.1" id="_x38_fca85ae-27dd-47fa-a965-b0c5df63b3e3"
	 xmlns="http://www.w3.org/2000/svg" xmlns:xlink="http://www.w3.org/1999/xlink" x="0px" y="0px" viewBox="0 0 68.5 56.3"
	 style="enable-background:new 0 0 68.5 56.3;" xml:space="preserve">
<style type="text/css">
	.st0{fill:#ED1C24;}
</style>
<title>icon-riscogray</title>
<path class="st0" d="M65.8,56.3H2.4c-0.9,0-1.7-0.5-2.1-1.2c-0.4-0.8-0.4-1.7,0.1-2.5L32.1,1.1c0.9-1.2,2.5-1.4,3.7-0.5
	c0.2,0.1,0.4,0.3,0.5,0.5l31.4,51c0.5,0.5,0.8,1.1,0.8,1.8C68.3,55.2,67.2,56.2,65.8,56.3z M6.7,51.5h54.6L34.1,7.1L6.7,51.5z"/>
<path class="st0" d="M34.1,37c-1.3,0-2.4-1.1-2.4-2.4v-13c0-1.3,1.1-2.4,2.4-2.4c1.3,0,2.4,1.1,2.4,2.4v12.9
	C36.5,35.8,35.4,36.9,34.1,37z"/>
<path class="st0" d="M34.1,47c-0.7,0-1.3-0.2-1.8-0.7c-0.4-0.5-0.6-1.1-0.6-1.7c0-0.6,0.2-1.3,0.7-1.7c0.9-1,2.5-1,3.5,0
	c0.5,0.5,0.7,1.1,0.7,1.7c0,0.7-0.3,1.3-0.7,1.8C35.3,46.7,34.7,46.9,34.1,47z"/>
</svg>
