<svg id="8fca85ae-27dd-47fa-a965-b0c5df63b3e3" data-name="Camada 1" xmlns="http://www.w3.org/2000/svg" viewBox="0 0 68.49 56.25"><title>icon-riscogray</title><path d="M69.3,68.46H5.9a2.44,2.44,0,0,1-2.1-1.2,2.49,2.49,0,0,1,.1-2.5l31.7-51.5a2.63,2.63,0,0,1,4.2,0l31.4,51a2.34,2.34,0,0,1,.8,1.8A2.79,2.79,0,0,1,69.3,68.46Zm-59.1-4.8H64.8L37.6,19.26Z" transform="translate(-3.51 -12.21)" fill="#ed1c24"/><path d="M37.6,49.16a2.43,2.43,0,0,1-2.4-2.4v-13a2.4,2.4,0,0,1,4.8,0v12.9A2.46,2.46,0,0,1,37.6,49.16Z" transform="translate(-3.51 -12.21)" fill="#ed1c24"/><path d="M37.6,59.16a2.41,2.41,0,0,1-1.8-.7,2.35,2.35,0,0,1-.6-1.7,2.19,2.19,0,0,1,.7-1.7,2.45,2.45,0,0,1,4.2,1.7,2.87,2.87,0,0,1-.7,1.8A4.26,4.26,0,0,1,37.6,59.16Z" transform="translate(-3.51 -12.21)" fill="#ed1c24"/></svg>