<svg id="491d9658-d12c-4064-8d6f-f3b212be776d" data-name="Camada 1" xmlns="http://www.w3.org/2000/svg" viewBox="0 0 39.69 42.55"><title>icon-risco-atrasoh_Prancheta 1</title><path d="M16.4,17.28v5.57a.82.82,0,0,0,1.64,0V17.28a.82.82,0,0,0-1.64,0" fill="#0071bc"/><path d="M17.22,23.67h5.24a.82.82,0,0,0,0-1.64H17.22a.82.82,0,0,0,0,1.64" fill="#0071bc"/><path d="M29.89,17.27a14.21,14.21,0,0,1,1.24,5.57A14.09,14.09,0,0,1,17.22,36.77c-7.67.12-13.8-6.42-13.92-13.92C3.18,15.17,9.72,9,17.22,8.93a13.17,13.17,0,0,1,7.46,2.19,6.68,6.68,0,0,1,0-1.87A15.92,15.92,0,0,0,21,7.76,15.56,15.56,0,0,0,7,34.58,15.56,15.56,0,0,0,32.77,22.85a16,16,0,0,0-1-5.28A7.34,7.34,0,0,1,29.89,17.27Z" fill="#0071bc"/><path d="M32.59,11.35H31.05V7h1.54Zm-.77,2.87a.77.77,0,1,1,.77-.77.77.77,0,0,1-.77.77m0-10A6.23,6.23,0,1,0,38,10.42a6.23,6.23,0,0,0-6.23-6.23" fill="#0071bc"/></svg>