<svg id="59bab9d1-7c39-4a7f-b20a-668da8ee1cdc" data-name="Camada 1" xmlns="http://www.w3.org/2000/svg" viewBox="0 0 66 65.15"><title>icon_1_respostas</title><path d="M67,12.83H55.74V8.94a1.3,1.3,0,1,0-2.61,0v3.88H21.86V8.94a1.3,1.3,0,1,0-2.61,0v3.88H8a3.5,3.5,0,0,0-3.47,3.5v53A3.5,3.5,0,0,0,8,72.78H67a3.5,3.5,0,0,0,3.47-3.5v-53A3.5,3.5,0,0,0,67,12.83ZM7.1,16.33A.88.88,0,0,1,8,15.45H19.25v4.86a1.3,1.3,0,1,0,2.61,0V15.45H53.13v4.86a1.3,1.3,0,1,0,2.61,0V15.45H67a.88.88,0,0,1,.87.87v9.55H7.1ZM67,70.16H8a.88.88,0,0,1-.87-.87V28.49H67.89V69.28A.88.88,0,0,1,67,70.16Z" transform="translate(-4.5 -7.63)" fill="#fff"/><path d="M34.48,37.16H28.4a1.31,1.31,0,0,0,0,2.62h6.08a1.31,1.31,0,0,0,0-2.62Z" transform="translate(-4.5 -7.63)" fill="#fff"/><path d="M46.63,37.16H40.56a1.31,1.31,0,0,0,0,2.62h6.08a1.31,1.31,0,0,0,0-2.62Z" transform="translate(-4.5 -7.63)" fill="#fff"/><path d="M58.79,37.16H52.71a1.31,1.31,0,0,0,0,2.62h6.08a1.31,1.31,0,0,0,0-2.62Z" transform="translate(-4.5 -7.63)" fill="#fff"/><path d="M34.48,45H28.4a1.31,1.31,0,0,0,0,2.62h6.08a1.31,1.31,0,0,0,0-2.62Z" transform="translate(-4.5 -7.63)" fill="#fff"/><path d="M46.63,45H40.56a1.31,1.31,0,0,0,0,2.62h6.08a1.31,1.31,0,0,0,0-2.62Z" transform="translate(-4.5 -7.63)" fill="#fff"/><path d="M58.79,45H52.71a1.31,1.31,0,0,0,0,2.62h6.08a1.31,1.31,0,0,0,0-2.62Z" transform="translate(-4.5 -7.63)" fill="#fff"/><path d="M21.45,45H15.37a1.31,1.31,0,0,0,0,2.62h6.08a1.31,1.31,0,0,0,0-2.62Z" transform="translate(-4.5 -7.63)" fill="#fff"/><path d="M34.48,52.79H28.4a1.31,1.31,0,0,0,0,2.62h6.08a1.31,1.31,0,0,0,0-2.62Z" transform="translate(-4.5 -7.63)" fill="#fff"/><path d="M46.63,52.79H40.56a1.31,1.31,0,0,0,0,2.62h6.08a1.31,1.31,0,0,0,0-2.62Z" transform="translate(-4.5 -7.63)" fill="#fff"/><path d="M58.79,52.79H52.71a1.31,1.31,0,0,0,0,2.62h6.08a1.31,1.31,0,0,0,0-2.62Z" transform="translate(-4.5 -7.63)" fill="#fff"/><path d="M21.45,52.79H15.37a1.31,1.31,0,0,0,0,2.62h6.08a1.31,1.31,0,0,0,0-2.62Z" transform="translate(-4.5 -7.63)" fill="#fff"/><path d="M21.45,60.6H15.37a1.31,1.31,0,0,0,0,2.62h6.08a1.31,1.31,0,0,0,0-2.62Z" transform="translate(-4.5 -7.63)" fill="#fff"/><path d="M33.61,60.6H27.53a1.31,1.31,0,0,0,0,2.62h6.08a1.31,1.31,0,0,0,0-2.62Z" transform="translate(-4.5 -7.63)" fill="#fff"/><path d="M45.77,60.6H39.69a1.31,1.31,0,0,0,0,2.62h6.08a1.31,1.31,0,0,0,0-2.62Z" transform="translate(-4.5 -7.63)" fill="#fff"/></svg>