<svg id="71c310e6-989f-42e8-88f2-ad8cb027524c" data-name="Camada 1" xmlns="http://www.w3.org/2000/svg" viewBox="0 0 65.02 65"><title>icon_4_quantitativa</title><path d="M27.57,16.91h20a1,1,0,0,0,0-2h-20a.94.94,0,0,0-1,1A1,1,0,0,0,27.57,16.91Z" transform="translate(-6.97 -7.71)" fill="#fff"/><path d="M27.57,29h20a1,1,0,0,0,0-2h-20a1,1,0,1,0,0,2Z" transform="translate(-6.97 -7.71)" fill="#fff"/><path d="M27.57,41.21h20a1,1,0,0,0,0-2h-20a1,1,0,1,0,0,2Z" transform="translate(-6.97 -7.71)" fill="#fff"/><path d="M27.57,53.41h7a1,1,0,0,0,0-2h-7a.94.94,0,0,0-1,1A1,1,0,0,0,27.57,53.41Z" transform="translate(-6.97 -7.71)" fill="#fff"/><path d="M22.67,14.91h-2a1,1,0,0,0,0,2h2a.94.94,0,0,0,1-1A1,1,0,0,0,22.67,14.91Z" transform="translate(-6.97 -7.71)" fill="#fff"/><path d="M22.67,27h-2a1,1,0,0,0,0,2h2a.94.94,0,0,0,1-1A1.08,1.08,0,0,0,22.67,27Z" transform="translate(-6.97 -7.71)" fill="#fff"/><path d="M22.67,39.21h-2a1,1,0,0,0,0,2h2a.94.94,0,0,0,1-1A1,1,0,0,0,22.67,39.21Z" transform="translate(-6.97 -7.71)" fill="#fff"/><path d="M22.67,51.41h-2a1,1,0,0,0,0,2h2a.94.94,0,0,0,1-1A1,1,0,0,0,22.67,51.41Z" transform="translate(-6.97 -7.71)" fill="#fff"/><path d="M22.67,63.51h-2a1,1,0,0,0,0,2h2a.94.94,0,0,0,1-1A1.08,1.08,0,0,0,22.67,63.51Z" transform="translate(-6.97 -7.71)" fill="#fff"/><path d="M71.47,30.11l-3.6-3.6a1.87,1.87,0,0,0-2.6,0l-10,10V15.41h5a.94.94,0,0,0,1-1v-2.7a4,4,0,0,0-4-4H17.07a4.12,4.12,0,0,0-4.1,4.1v53.3H8a.94.94,0,0,0-1,1v2.6a4,4,0,0,0,4,4h40.1a4.12,4.12,0,0,0,4.1-4.1V49l16.3-16.3A1.87,1.87,0,0,0,71.47,30.11Zm-16.3-18.4a2,2,0,0,1,2-2h0a2,2,0,0,1,2,2v1.6h-4ZM13,68.71a2,2,0,0,1-2,2h0a2,2,0,0,1-2-2v-1.6h4Zm48.4-35.5,1,1-22.7,22.7-1-1Zm-21.1,27.2-4.9,2.2,2.2-4.9C37.67,57.71,40.37,60.51,40.27,60.41Zm12.9,8.2a2.11,2.11,0,0,1-2.1,2.1H14.47a4.66,4.66,0,0,0,.6-2V11.81a2.11,2.11,0,0,1,2.1-2.1h36.7a4.66,4.66,0,0,0-.6,2h0v26.8c-.1.1-18.2,18.2-16.9,17h0l-3.5,8h-5.2a1,1,0,1,0,0,2h5.8a.6.6,0,0,0,.4-.1h0c9-4,8.7-3.8,8.9-4l10.5-10.5v17.7Zm-11.1-9.3-1-1,22.7-22.7,1,1C56.57,44.71,50.47,50.91,42.07,59.31Zm24.1-24.2-3.4-3.4,3.7-3.7,3.4,3.4Z" transform="translate(-6.97 -7.71)" fill="#fff"/></svg>