<svg id="82a0a4da-6f0b-4ffa-8555-d7e2fe814a2b" data-name="Camada 1" xmlns="http://www.w3.org/2000/svg" viewBox="0 0 39.69 42.55"><title>icon-risco-atrasom</title><path d="M11,5.24a.68.68,0,0,0-.68.68V9.78a2.39,2.39,0,1,0,1.36,0V5.92A.68.68,0,0,0,11,5.24Zm14.32,0a.68.68,0,0,0-.68.68V9.78a2.39,2.39,0,1,0,1.36,0V5.92A.68.68,0,0,0,25.3,5.24Zm-18.41,2a3.43,3.43,0,0,0-3.42,3.42V31.15a3.43,3.43,0,0,0,3.42,3.42H26a5.46,5.46,0,1,0,6.77-7.79V10.71a3.43,3.43,0,0,0-3.42-3.42h-2a.68.68,0,1,0,0,1.36h2a2,2,0,0,1,2.06,2.06v4.76H4.84V10.71A2,2,0,0,1,6.89,8.65h2a.68.68,0,1,0,0-1.36Zm6.13,0a.68.68,0,0,0,0,1.36H23.25a.68.68,0,0,0,0-1.36ZM11,11a1,1,0,1,1-1,1A1,1,0,0,1,11,11ZM25.3,11a1,1,0,1,1-1,1A1,1,0,0,1,25.3,11ZM4.84,16.84h26.6v9.6a5.42,5.42,0,0,0-6,6.77H6.89a2,2,0,0,1-2.06-2.06ZM30.76,27.75a4.09,4.09,0,1,1-4.09,4.09A4.08,4.08,0,0,1,30.76,27.75Zm0,.68a.68.68,0,0,0-.68.68v2.73a.68.68,0,0,0,.68.68h2.39a.68.68,0,1,0,0-1.36H31.44v-2A.68.68,0,0,0,30.76,28.43Z" fill="#0071bc"/></svg>