<svg id="c2a942e8-d80a-4ffc-be47-46bcedee2f1d" data-name="Camada 1" xmlns="http://www.w3.org/2000/svg" viewBox="0 0 39.69 39.69"><title>icon-risco-incendio</title><path d="M13.88,36.44q-6.56-2.12-7.55-7.62c-1-5.59,3.16-9.12,3.16-15.11a7.39,7.39,0,0,1,1.92,5.15q5.44-5.49,5.44-15.62A18.21,18.21,0,0,1,26.32,15.9a7.55,7.55,0,0,0,.4-5.27C33.14,13.09,38.79,31.52,25,36.44Q28.57,24.17,20,18a12.6,12.6,0,0,1-2.08,9.94,15,15,0,0,0-1.33-5.82,7.72,7.72,0,0,1-1.91,4.82l-.48.6h0A7.52,7.52,0,0,0,13.88,36.44Z" fill="#0071bc"/></svg>