<svg id="3f4a8a33-d501-4dd3-bf2f-7484d0c7d08c" data-name="Camada 1" xmlns="http://www.w3.org/2000/svg" viewBox="0 0 66 66"><title>icon_6_monitorar</title><path d="M37.5,73.21a33,33,0,1,0-33-33A33,33,0,0,0,37.5,73.21Zm0-62.8A29.8,29.8,0,1,1,7.7,40.21,29.83,29.83,0,0,1,37.5,10.41Z" transform="translate(-4.5 -7.21)" fill="#fff"/><path d="M25.94,55.17a1.59,1.59,0,0,0,2.26,0L55.86,27.51a1.6,1.6,0,0,0-2.26-2.26L27.07,51.77,21.4,46.1a1.6,1.6,0,1,0-2.26,2.26Z" transform="translate(-4.5 -7.21)" fill="#fff"/></svg>