<svg id="13ee6e5d-ed2f-497f-b48b-ba2802d1e552" data-name="Camada 1" xmlns="http://www.w3.org/2000/svg" viewBox="0 0 49.56 53.22"><title>sort-tecnologia</title><path d="M60.47,55.51V45.66h-10V42H54.6a2.72,2.72,0,1,0,0-1.81H50.49V32.36H54.6a2.72,2.72,0,1,0,0-1.81H50.49V28.73h-7V20.88h8a2.72,2.72,0,1,0,0-1.81H41.73v9.67H33.27V18.88a2.72,2.72,0,1,0-1.81,0v9.85H25.11v7H16.34v-8a2.72,2.72,0,1,0-1.81,0V37.5H25.11V50.8H19.19a2.72,2.72,0,1,0,0,1.81h5.92v1.51h6.71a.91.91,0,0,0-.06.3v8.76h-8a2.72,2.72,0,1,0,0,1.81h9.85V54.42a.91.91,0,0,0-.06-.3h3.75a.91.91,0,0,0-.06.3v4.71a2.72,2.72,0,1,0,1.81,0V54.42a.91.91,0,0,0-.06-.3h8a.91.91,0,0,0-.06.3v4.71a2.72,2.72,0,1,0,1.81,0V54.42a.91.91,0,0,0-.06-.3h1.87V47.47h8.16v8a2.72,2.72,0,1,0,1.81,0ZM57.14,40.22a.91.91,0,1,1-.91.91A.91.91,0,0,1,57.14,40.22Zm0-9.67a.91.91,0,1,1-.91.91A.91.91,0,0,1,57.14,30.55Zm-3-11.48a.91.91,0,1,1-.91.91A.91.91,0,0,1,54.12,19.06ZM32.36,15.44a.91.91,0,1,1-.91.91A.91.91,0,0,1,32.36,15.44ZM15.44,24.2a.91.91,0,1,1-.91.91A.91.91,0,0,1,15.44,24.2Zm1.21,28.41a.91.91,0,1,1,.91-.91A.91.91,0,0,1,16.65,52.61ZM21.18,65a.91.91,0,1,1,.91-.91A.91.91,0,0,1,21.18,65ZM38.1,62.58a.91.91,0,1,1,.91-.91A.91.91,0,0,1,38.1,62.58Zm9.67,0a.91.91,0,1,1,.91-.91A.91.91,0,0,1,47.77,62.58Zm.91-10.28H26.92V30.55H48.68ZM59.56,59a.91.91,0,1,1,.91-.91A.91.91,0,0,1,59.56,59Z" transform="translate(-12.72 -13.6)" fill="#fff"/><path d="M28.73,50.49H46.87V32.36H28.73Zm1.81-16.32H45.05V48.68H30.55Z" transform="translate(-12.72 -13.6)" fill="#fff"/></svg>