<svg id="aedd20ad-929c-43d8-bf02-a4c4a03749fe" data-name="Camada 1" xmlns="http://www.w3.org/2000/svg" viewBox="0 0 47.81 49.33"><title>sort-gerenciamento</title><path d="M28.75,33.43a5.21,5.21,0,0,0,7.37,7.36,1.27,1.27,0,1,1,1.8,1.8,7.75,7.75,0,1,1-.82-11.68,1.27,1.27,0,0,1-1.53,2A5.23,5.23,0,0,0,28.75,33.43Zm-12.42,8,1.86.33A14.89,14.89,0,0,0,19,43.87L18,45.4a3.29,3.29,0,0,0,.37,4.22l1.58,1.58a3.29,3.29,0,0,0,4.22.37l1.53-1.08a14.92,14.92,0,0,0,2.08.86l.33,1.86a3.29,3.29,0,0,0,3.25,2.73h2.23a3.29,3.29,0,0,0,3.25-2.73l.33-1.86a15,15,0,0,0,2.08-.86l1.53,1.08a1.27,1.27,0,1,0,1.54-2l-.08-.05L40,48a1.27,1.27,0,0,0-1.36-.06,12.39,12.39,0,0,1-3,1.23,1.27,1.27,0,0,0-.92,1l-.46,2.63a.75.75,0,0,1-.74.62h-2.2a.75.75,0,0,1-.74-.62l-.46-2.63a1.27,1.27,0,0,0-.92-1,12.37,12.37,0,0,1-3-1.23,1.27,1.27,0,0,0-1.36.06l-2.19,1.53a.75.75,0,0,1-.94-.07l-1.6-1.57a.75.75,0,0,1-.09-1l1.53-2.19a1.27,1.27,0,0,0,.06-1.36,12.36,12.36,0,0,1-1.23-3,1.27,1.27,0,0,0-1-.92L16.76,39a.75.75,0,0,1-.62-.75V36a.75.75,0,0,1,.62-.74l2.63-.46a1.27,1.27,0,0,0,1-.93,12.34,12.34,0,0,1,1.23-3,1.27,1.27,0,0,0-.05-1.36l-1.53-2.19a.75.75,0,0,1,.09-1l1.58-1.58a.75.75,0,0,1,1-.08l2.19,1.53a1.27,1.27,0,0,0,1.36.06,12.36,12.36,0,0,1,3-1.23,1.27,1.27,0,0,0,.93-1l.46-2.63a.75.75,0,0,1,.74-.62h2.23a.75.75,0,0,1,.74.62l.46,2.63a1.27,1.27,0,0,0,.92,1,12.38,12.38,0,0,1,3,1.23A1.27,1.27,0,0,0,40,26.25l2.19-1.53a1.27,1.27,0,0,0-1.38-2.14l-.08.05-1.53,1.08a14.92,14.92,0,0,0-2.08-.86L36.83,21a3.29,3.29,0,0,0-3.25-2.73H31.32A3.29,3.29,0,0,0,28.08,21l-.33,1.86a14.91,14.91,0,0,0-2.08.86l-1.53-1.08a3.29,3.29,0,0,0-4.22.37l-1.58,1.58A3.29,3.29,0,0,0,18,28.81l1.08,1.53a14.94,14.94,0,0,0-.9,2.09l-1.86.33A3.29,3.29,0,0,0,13.59,36v2.23A3.29,3.29,0,0,0,16.33,41.47ZM45.1,21.56a6,6,0,1,1,6,6A6,6,0,0,1,45.1,21.56Zm2.54,0a3.47,3.47,0,1,0,3.47-3.47A3.47,3.47,0,0,0,47.64,21.56Zm12.36,9a5.53,5.53,0,0,1,1.37,4.29l-1.24,9.31a4.83,4.83,0,0,1-2.44,3.67l-2,14.54a2.91,2.91,0,0,1-2.9,2.54H49.44a2.92,2.92,0,0,1-2.9-2.59l-2-14.51a4.85,4.85,0,0,1-2.47-3.67l-1.21-9.26a5.52,5.52,0,0,1,5.48-6.16h1.56a1.47,1.47,0,0,1,1.16.56l2,2.54,2-2.54a1.47,1.47,0,0,1,1.15-.55h1.56A5.53,5.53,0,0,1,60,30.51ZM58.1,32.2a2.94,2.94,0,0,0-2.22-1H54.83L52.55,34a1.87,1.87,0,0,1-2.87,0l-2.28-2.84h-1a3,3,0,0,0-3,3.31l1.23,9.27a2.34,2.34,0,0,0,1.53,2,1.27,1.27,0,0,1,.82,1L49.05,62a.39.39,0,0,0,.38.36H52.8a.38.38,0,0,0,.38-.34l2.08-15.26a1.27,1.27,0,0,1,.82-1,2.33,2.33,0,0,0,1.53-1.93l1.24-9.31A2.93,2.93,0,0,0,58.1,32.2Z" transform="translate(-13.59 -15.54)" fill="#fff"/></svg>