<svg id="cf1a03a1-903d-499c-ac2a-1565b313033f" data-name="Camada 1" xmlns="http://www.w3.org/2000/svg" viewBox="0 0 46.2 46.2"><title>sort-organizacao</title><path d="M57.37,19.64a.6.6,0,0,1,.63.63V49.7h.06a.6.6,0,0,1-.63.63H45.16a.76.76,0,0,0-.63.44.53.53,0,0,0,.25.7A7.41,7.41,0,0,1,47.63,57c0,2.78-2.66,3.8-4.94,3.8s-4.94-1-4.94-3.8a7.41,7.41,0,0,1,2.85-5.51.75.75,0,0,0,.25-.7.63.63,0,0,0-.63-.44H28a.6.6,0,0,1-.63-.63V37.42a.76.76,0,0,0-.44-.63h-.19a.58.58,0,0,0-.51.25,7.41,7.41,0,0,1-5.51,2.85c-2.78,0-3.8-2.66-3.8-4.94s1-4.94,3.8-4.94a7.41,7.41,0,0,1,5.51,2.85.94.94,0,0,0,.57.25h.13a.63.63,0,0,0,.44-.63V20.27a.6.6,0,0,1,.63-.63H38.64A8.89,8.89,0,0,0,36.49,25c0,3,2.47,5.06,6.2,5.06s6.2-2,6.2-5.06a8.53,8.53,0,0,0-2.15-5.38H57.37m-18.73,0h0m18.73-2.53H46.74a2.44,2.44,0,0,0-2.28,1.46,2.66,2.66,0,0,0,.38,2.72A6,6,0,0,1,46.36,25c0,2.34-2.78,2.53-3.67,2.53S39,27.36,39,25a6.3,6.3,0,0,1,1.52-3.73,2.51,2.51,0,0,0-1.9-4.18H28a3.13,3.13,0,0,0-3.16,3.16v8.29a9.71,9.71,0,0,0-4.11-1.08c-3.73,0-6.33,3.1-6.33,7.47s2.59,7.47,6.33,7.47a8.87,8.87,0,0,0,4.11-1.08V49.7A3.13,3.13,0,0,0,28,52.86H36.3A9.71,9.71,0,0,0,35.22,57c0,3.73,3.1,6.33,7.47,6.33s7.47-2.59,7.47-6.33a8.87,8.87,0,0,0-1.08-4.11h8.35A3.13,3.13,0,0,0,60.6,49.7a1.75,1.75,0,0,0-.06-.57V20.27a3.13,3.13,0,0,0-3.16-3.16Z" transform="translate(-14.4 -17.11)" fill="#fff"/></svg>